<svg 
 xmlns="http://www.w3.org/2000/svg"
 xmlns:xlink="http://www.w3.org/1999/xlink"
 width="1920px" height="1205px">
<defs>
<linearGradient id="PSgrad_0" x1="0%" x2="70.711%" y1="0%" y2="70.711%">
  <stop offset="0%" stop-color="rgb(62,28,188)" stop-opacity="1" />
  <stop offset="99%" stop-color="rgb(76,28,188)" stop-opacity="1" />
</linearGradient>

</defs>
<path fill-rule="evenodd"  fill="rgb(255, 255, 255)"
 d="M1920.000,-0.000 L0.000,-0.000 C0.000,-0.000 0.455,908.594 0.455,934.261 C16.455,959.927 113.361,1042.426 311.000,1016.000 C424.142,1000.884 444.992,925.986 638.000,915.000 C800.887,905.708 943.018,1072.729 1008.000,1127.000 C1124.688,1224.464 1349.248,1233.321 1464.000,1109.000 C1534.603,1032.498 1610.191,984.053 1728.000,978.000 C1837.446,972.377 1920.000,1007.000 1920.000,1007.000 L1920.000,-0.000 Z"/>
<path fill="url(#PSgrad_0)"
 d="M1920.000,-0.000 L0.000,-0.000 C0.000,-0.000 0.455,908.594 0.455,934.261 C16.455,959.927 113.361,1042.426 311.000,1016.000 C424.142,1000.884 444.992,925.986 638.000,915.000 C800.887,905.708 943.018,1072.729 1008.000,1127.000 C1124.688,1224.464 1349.248,1233.321 1464.000,1109.000 C1534.603,1032.498 1610.191,984.053 1728.000,978.000 C1837.446,972.377 1920.000,1007.000 1920.000,1007.000 L1920.000,-0.000 Z"/>
</svg>