<?xml version="1.0" encoding="utf-8"?>
<!-- Generator: Adobe Illustrator 19.2.1, SVG Export Plug-In . SVG Version: 6.00 Build 0)  -->
<svg version="1.1" id="Слой_1" xmlns="http://www.w3.org/2000/svg" xmlns:xlink="http://www.w3.org/1999/xlink" x="0px" y="0px"
	 viewBox="0 0 727.8 301" style="enable-background:new 0 0 727.8 301;" xml:space="preserve">
<style type="text/css">
	.st0{enable-background:new    ;}
	.st1{fill:none;stroke:#B2B2B2;stroke-miterlimit:10;}
	.st2{fill:none;stroke:#92BD21;stroke-width:4;stroke-miterlimit:10;}
</style>
<g>
	<path d="M22.6,27.3h-0.8v-5.1c0-0.4,0-0.8,0-1.2c-0.1,0.1-0.1,0.1-0.2,0.2s-0.5,0.4-1.2,1L20,21.6l1.9-1.5h0.7V27.3z"/>
	<path d="M30,27.3h-4.7v-0.7l1.9-1.9c0.6-0.6,1-1,1.1-1.2s0.3-0.5,0.4-0.7s0.1-0.5,0.1-0.8c0-0.4-0.1-0.7-0.3-0.9s-0.6-0.3-1-0.3
		c-0.3,0-0.6,0-0.8,0.1s-0.6,0.3-0.9,0.5l-0.4-0.6c0.7-0.5,1.4-0.8,2.1-0.8s1.2,0.2,1.6,0.5s0.6,0.8,0.6,1.4c0,0.5-0.1,0.9-0.4,1.3
		s-0.7,1-1.4,1.7l-1.6,1.5l0,0H30V27.3z"/>
	<path d="M35.7,23.7c0,1.2-0.2,2.2-0.6,2.8s-1,0.9-1.8,0.9s-1.4-0.3-1.8-0.9S31,24.9,31,23.7c0-1.2,0.2-2.2,0.6-2.8s1-0.9,1.8-0.9
		c0.8,0,1.4,0.3,1.8,0.9S35.7,22.5,35.7,23.7z M31.8,23.7c0,1,0.1,1.8,0.4,2.3c0.3,0.5,0.6,0.7,1.2,0.7c0.5,0,0.9-0.2,1.2-0.7
		s0.4-1.2,0.4-2.3s-0.1-1.8-0.4-2.3s-0.6-0.7-1.2-0.7c-0.5,0-0.9,0.2-1.2,0.7S31.8,22.6,31.8,23.7z"/>
	<path d="M41.5,23.7c0,1.2-0.2,2.2-0.6,2.8s-1,0.9-1.8,0.9s-1.4-0.3-1.8-0.9s-0.6-1.5-0.6-2.7s0.2-2.2,0.6-2.8s1-0.9,1.8-0.9
		s1.4,0.3,1.8,0.9S41.5,22.5,41.5,23.7z M37.6,23.7c0,1,0.1,1.8,0.4,2.3s0.6,0.7,1.2,0.7c0.5,0,0.9-0.2,1.2-0.7s0.4-1.2,0.4-2.3
		s-0.1-1.8-0.4-2.3s-0.6-0.7-1.2-0.7c-0.5,0-0.9,0.2-1.2,0.7S37.6,22.6,37.6,23.7z"/>
	<path d="M22.6,65.3h-0.8v-5.1c0-0.4,0-0.8,0-1.2c-0.1,0.1-0.1,0.1-0.2,0.2s-0.5,0.4-1.2,1L20,59.6l1.9-1.5h0.7V65.3z"/>
	<path d="M30,61.7c0,1.2-0.2,2.2-0.6,2.8s-1,0.9-1.8,0.9s-1.4-0.3-1.8-0.9s-0.6-1.5-0.6-2.7s0.2-2.2,0.6-2.8s1-0.9,1.8-0.9
		s1.4,0.3,1.8,0.9S30,60.5,30,61.7z M26.1,61.7c0,1,0.1,1.8,0.4,2.3s0.6,0.7,1.2,0.7c0.5,0,0.9-0.2,1.2-0.7s0.4-1.2,0.4-2.3
		s-0.1-1.8-0.4-2.3s-0.6-0.7-1.2-0.7c-0.5,0-0.9,0.2-1.2,0.7S26.1,60.6,26.1,61.7z"/>
	<path d="M35.7,61.7c0,1.2-0.2,2.2-0.6,2.8s-1,0.9-1.8,0.9s-1.4-0.3-1.8-0.9S31,62.9,31,61.7s0.2-2.2,0.6-2.8s1-0.9,1.8-0.9
		c0.8,0,1.4,0.3,1.8,0.9S35.7,60.5,35.7,61.7z M31.8,61.7c0,1,0.1,1.8,0.4,2.3c0.3,0.5,0.6,0.7,1.2,0.7c0.5,0,0.9-0.2,1.2-0.7
		s0.4-1.2,0.4-2.3s-0.1-1.8-0.4-2.3s-0.6-0.7-1.2-0.7c-0.5,0-0.9,0.2-1.2,0.7S31.8,60.6,31.8,61.7z"/>
	<path d="M41.5,61.7c0,1.2-0.2,2.2-0.6,2.8s-1,0.9-1.8,0.9s-1.4-0.3-1.8-0.9s-0.6-1.5-0.6-2.7s0.2-2.2,0.6-2.8s1-0.9,1.8-0.9
		s1.4,0.3,1.8,0.9S41.5,60.5,41.5,61.7z M37.6,61.7c0,1,0.1,1.8,0.4,2.3s0.6,0.7,1.2,0.7c0.5,0,0.9-0.2,1.2-0.7s0.4-1.2,0.4-2.3
		s-0.1-1.8-0.4-2.3s-0.6-0.7-1.2-0.7c-0.5,0-0.9,0.2-1.2,0.7S37.6,60.6,37.6,61.7z"/>
	<path d="M27.7,96c0.7,0,1.2,0.2,1.5,0.5s0.6,0.7,0.6,1.3c0,0.4-0.1,0.7-0.3,1s-0.6,0.6-1,0.8c0.6,0.3,1,0.6,1.2,0.9
		s0.4,0.7,0.4,1.1c0,0.6-0.2,1.1-0.6,1.4s-1,0.5-1.7,0.5c-0.8,0-1.3-0.2-1.8-0.5s-0.6-0.8-0.6-1.4c0-0.8,0.5-1.5,1.5-1.9
		c-0.4-0.3-0.8-0.5-1-0.8s-0.3-0.6-0.3-1c0-0.5,0.2-0.9,0.6-1.2S27,96,27.7,96z M26.1,101.4c0,0.4,0.1,0.7,0.4,0.9s0.7,0.3,1.1,0.3
		c0.5,0,0.9-0.1,1.1-0.3s0.4-0.5,0.4-0.9c0-0.3-0.1-0.6-0.4-0.8s-0.7-0.5-1.3-0.7c-0.5,0.2-0.8,0.4-1.1,0.7S26.1,101.1,26.1,101.4z
		 M27.6,96.7c-0.4,0-0.7,0.1-1,0.3s-0.3,0.5-0.3,0.8s0.1,0.6,0.3,0.8s0.5,0.4,1.1,0.6c0.5-0.2,0.8-0.4,1-0.6S29,98,29,97.7
		s-0.1-0.6-0.4-0.8S28.1,96.7,27.6,96.7z"/>
	<path d="M35.7,99.7c0,1.2-0.2,2.2-0.6,2.8s-1,0.9-1.8,0.9s-1.4-0.3-1.8-0.9s-0.6-1.5-0.6-2.7s0.2-2.2,0.6-2.8s1-0.9,1.8-0.9
		s1.4,0.3,1.8,0.9S35.7,98.5,35.7,99.7z M31.8,99.7c0,1,0.1,1.8,0.4,2.3c0.3,0.5,0.6,0.7,1.2,0.7c0.5,0,0.9-0.2,1.2-0.7
		s0.4-1.2,0.4-2.3s-0.1-1.8-0.4-2.3s-0.6-0.7-1.2-0.7c-0.5,0-0.9,0.2-1.2,0.7S31.8,98.6,31.8,99.7z"/>
	<path d="M41.5,99.7c0,1.2-0.2,2.2-0.6,2.8s-1,0.9-1.8,0.9s-1.4-0.3-1.8-0.9s-0.6-1.5-0.6-2.7s0.2-2.2,0.6-2.8s1-0.9,1.8-0.9
		s1.4,0.3,1.8,0.9S41.5,98.5,41.5,99.7z M37.6,99.7c0,1,0.1,1.8,0.4,2.3s0.6,0.7,1.2,0.7c0.5,0,0.9-0.2,1.2-0.7s0.4-1.2,0.4-2.3
		s-0.1-1.8-0.4-2.3s-0.6-0.7-1.2-0.7c-0.5,0-0.9,0.2-1.2,0.7S37.6,98.6,37.6,99.7z"/>
	<path d="M25.4,138.2c0-1.4,0.3-2.5,0.8-3.1s1.4-1,2.4-1c0.4,0,0.7,0,0.9,0.1v0.7c-0.3-0.1-0.5-0.1-0.9-0.1c-0.8,0-1.3,0.2-1.8,0.7
		s-0.6,1.2-0.7,2.2h0.1c0.4-0.6,0.9-0.8,1.7-0.8c0.6,0,1.1,0.2,1.5,0.6s0.6,0.9,0.6,1.6c0,0.7-0.2,1.3-0.6,1.8s-1,0.6-1.6,0.6
		c-0.7,0-1.3-0.3-1.8-0.8S25.4,139.2,25.4,138.2z M27.8,140.7c0.5,0,0.8-0.1,1.1-0.4s0.4-0.7,0.4-1.3c0-0.5-0.1-0.8-0.4-1.1
		s-0.6-0.4-1.1-0.4c-0.3,0-0.6,0.1-0.8,0.2s-0.4,0.3-0.6,0.5s-0.2,0.4-0.2,0.7s0.1,0.6,0.2,0.9s0.3,0.5,0.6,0.7
		S27.5,140.7,27.8,140.7z"/>
	<path d="M35.7,137.7c0,1.2-0.2,2.2-0.6,2.8s-1,0.9-1.8,0.9s-1.4-0.3-1.8-0.9s-0.6-1.5-0.6-2.7s0.2-2.2,0.6-2.8s1-0.9,1.8-0.9
		s1.4,0.3,1.8,0.9S35.7,136.5,35.7,137.7z M31.8,137.7c0,1,0.1,1.8,0.4,2.3c0.3,0.5,0.6,0.7,1.2,0.7c0.5,0,0.9-0.2,1.2-0.7
		s0.4-1.2,0.4-2.3s-0.1-1.8-0.4-2.3s-0.6-0.7-1.2-0.7c-0.5,0-0.9,0.2-1.2,0.7S31.8,136.6,31.8,137.7z"/>
	<path d="M41.5,137.7c0,1.2-0.2,2.2-0.6,2.8s-1,0.9-1.8,0.9s-1.4-0.3-1.8-0.9s-0.6-1.5-0.6-2.7s0.2-2.2,0.6-2.8s1-0.9,1.8-0.9
		s1.4,0.3,1.8,0.9S41.5,136.5,41.5,137.7z M37.6,137.7c0,1,0.1,1.8,0.4,2.3s0.6,0.7,1.2,0.7c0.5,0,0.9-0.2,1.2-0.7s0.4-1.2,0.4-2.3
		s-0.1-1.8-0.4-2.3s-0.6-0.7-1.2-0.7c-0.5,0-0.9,0.2-1.2,0.7S37.6,136.6,37.6,137.7z"/>
	<path d="M30.3,177.6h-1.1v1.6h-0.8v-1.6H25v-0.7l3.4-4.8h0.9v4.8h1.1v0.7H30.3z M28.5,176.9v-2.4c0-0.5,0-1,0-1.6l0,0
		c-0.2,0.3-0.3,0.6-0.4,0.8l-2.2,3.2H28.5z"/>
	<path d="M35.7,175.7c0,1.2-0.2,2.2-0.6,2.8s-1,0.9-1.8,0.9s-1.4-0.3-1.8-0.9s-0.6-1.5-0.6-2.7s0.2-2.2,0.6-2.8s1-0.9,1.8-0.9
		s1.4,0.3,1.8,0.9S35.7,174.5,35.7,175.7z M31.8,175.7c0,1,0.1,1.8,0.4,2.3c0.3,0.5,0.6,0.7,1.2,0.7c0.5,0,0.9-0.2,1.2-0.7
		s0.4-1.2,0.4-2.3s-0.1-1.8-0.4-2.3s-0.6-0.7-1.2-0.7c-0.5,0-0.9,0.2-1.2,0.7S31.8,174.6,31.8,175.7z"/>
	<path d="M41.5,175.7c0,1.2-0.2,2.2-0.6,2.8s-1,0.9-1.8,0.9s-1.4-0.3-1.8-0.9s-0.6-1.5-0.6-2.7s0.2-2.2,0.6-2.8s1-0.9,1.8-0.9
		s1.4,0.3,1.8,0.9S41.5,174.5,41.5,175.7z M37.6,175.7c0,1,0.1,1.8,0.4,2.3s0.6,0.7,1.2,0.7c0.5,0,0.9-0.2,1.2-0.7s0.4-1.2,0.4-2.3
		s-0.1-1.8-0.4-2.3s-0.6-0.7-1.2-0.7c-0.5,0-0.9,0.2-1.2,0.7S37.6,174.6,37.6,175.7z"/>
	<path d="M30,216.3h-4.7v-0.7l1.9-1.9c0.6-0.6,1-1,1.1-1.2s0.3-0.5,0.4-0.7s0.1-0.5,0.1-0.8c0-0.4-0.1-0.7-0.3-0.9s-0.6-0.3-1-0.3
		c-0.3,0-0.6,0-0.8,0.1s-0.6,0.3-0.9,0.5l-0.4-0.6c0.7-0.5,1.4-0.8,2.1-0.8s1.2,0.2,1.6,0.5s0.6,0.8,0.6,1.4c0,0.5-0.1,0.9-0.4,1.3
		s-0.7,1-1.4,1.7l-1.6,1.5l0,0H30V216.3z"/>
	<path d="M35.7,212.7c0,1.2-0.2,2.2-0.6,2.8s-1,0.9-1.8,0.9s-1.4-0.3-1.8-0.9s-0.6-1.5-0.6-2.7s0.2-2.2,0.6-2.8s1-0.9,1.8-0.9
		s1.4,0.3,1.8,0.9S35.7,211.5,35.7,212.7z M31.8,212.7c0,1,0.1,1.8,0.4,2.3c0.3,0.5,0.6,0.7,1.2,0.7c0.5,0,0.9-0.2,1.2-0.7
		s0.4-1.2,0.4-2.3s-0.1-1.8-0.4-2.3s-0.6-0.7-1.2-0.7c-0.5,0-0.9,0.2-1.2,0.7S31.8,211.6,31.8,212.7z"/>
	<path d="M41.5,212.7c0,1.2-0.2,2.2-0.6,2.8s-1,0.9-1.8,0.9s-1.4-0.3-1.8-0.9s-0.6-1.5-0.6-2.7s0.2-2.2,0.6-2.8s1-0.9,1.8-0.9
		s1.4,0.3,1.8,0.9S41.5,211.5,41.5,212.7z M37.6,212.7c0,1,0.1,1.8,0.4,2.3s0.6,0.7,1.2,0.7c0.5,0,0.9-0.2,1.2-0.7s0.4-1.2,0.4-2.3
		s-0.1-1.8-0.4-2.3s-0.6-0.7-1.2-0.7c-0.5,0-0.9,0.2-1.2,0.7S37.6,211.6,37.6,212.7z"/>
</g>
<g class="st0">
	<path d="M56.3,279.5h-1.5v-5.9h-2.6v5.9h-1.5v-7.1h5.6V279.5z"/>
	<path d="M60.5,279.6c-0.9,0-1.6-0.2-2.1-0.7s-0.7-1.2-0.7-2.1c0-0.9,0.2-1.6,0.7-2.1c0.5-0.5,1.1-0.7,1.9-0.7
		c0.8,0,1.4,0.2,1.8,0.7s0.6,1,0.6,1.8v0.7h-3.5c0,0.4,0.1,0.8,0.4,1s0.6,0.4,1,0.4c0.3,0,0.6,0,0.9-0.1s0.6-0.2,0.9-0.3v1.2
		c-0.3,0.1-0.5,0.2-0.8,0.3C61.3,279.6,60.9,279.6,60.5,279.6z M60.3,275c-0.3,0-0.6,0.1-0.7,0.3c-0.2,0.2-0.3,0.5-0.3,0.9h2.1
		c0-0.4-0.1-0.7-0.3-0.9C60.8,275.1,60.6,275,60.3,275z"/>
	<path d="M66.9,279.6c-0.6,0-1.1-0.2-1.5-0.7h-0.1c0.1,0.5,0.1,0.7,0.1,0.8v2.2h-1.5V274h1.2l0.2,0.7h0.1c0.3-0.5,0.9-0.8,1.5-0.8
		c0.6,0,1.1,0.2,1.5,0.7s0.5,1.2,0.5,2.1c0,0.6-0.1,1.1-0.3,1.5s-0.4,0.8-0.7,1S67.3,279.6,66.9,279.6z M66.5,275.1
		c-0.4,0-0.6,0.1-0.8,0.3c-0.2,0.2-0.3,0.6-0.3,1.1v0.2c0,0.6,0.1,1,0.3,1.3s0.5,0.4,0.8,0.4c0.7,0,1-0.5,1-1.7
		c0-0.5-0.1-0.9-0.2-1.2C67.1,275.3,66.8,275.1,66.5,275.1z"/>
	<path d="M72.7,279.6c-0.9,0-1.6-0.2-2.1-0.7s-0.7-1.2-0.7-2.1c0-0.9,0.2-1.6,0.7-2.1c0.5-0.5,1.1-0.7,1.9-0.7
		c0.8,0,1.4,0.2,1.8,0.7s0.6,1,0.6,1.8v0.7h-3.5c0,0.4,0.1,0.8,0.4,1s0.6,0.4,1,0.4c0.3,0,0.6,0,0.9-0.1s0.6-0.2,0.9-0.3v1.2
		c-0.3,0.1-0.5,0.2-0.8,0.3C73.5,279.6,73.1,279.6,72.7,279.6z M72.5,275c-0.3,0-0.6,0.1-0.7,0.3c-0.2,0.2-0.3,0.5-0.3,0.9h2.1
		c0-0.4-0.1-0.7-0.3-0.9C73.1,275.1,72.8,275,72.5,275z"/>
	<path d="M77.3,276.7l-1.8-2.7h1.7l1.1,1.7l1.1-1.7H81l-1.8,2.7l1.9,2.8h-1.7l-1.1-1.9l-1.2,1.9h-1.7L77.3,276.7z"/>
	<path d="M86.9,276.8c0,0.9-0.2,1.6-0.7,2.1s-1.1,0.8-2,0.8c-0.5,0-1-0.1-1.4-0.3c-0.4-0.2-0.7-0.6-0.9-1s-0.3-0.9-0.3-1.5
		c0-0.9,0.2-1.6,0.7-2.1s1.1-0.7,2-0.7c0.5,0,1,0.1,1.4,0.3s0.7,0.6,0.9,1S86.9,276.2,86.9,276.8z M83.1,276.8
		c0,0.5,0.1,0.9,0.3,1.2s0.5,0.4,0.9,0.4c0.4,0,0.7-0.1,0.9-0.4c0.2-0.3,0.3-0.7,0.3-1.2c0-0.5-0.1-0.9-0.3-1.2s-0.5-0.4-0.9-0.4
		c-0.4,0-0.7,0.1-0.9,0.4C83.2,275.8,83.1,276.2,83.1,276.8z"/>
	<path d="M93.8,281.5h-1.3v-2h-3.7v2h-1.3v-3H88c0.3-0.5,0.6-1.1,0.8-1.8s0.4-1.6,0.4-2.5H93v4.4h0.8V281.5z M91.5,278.4v-3.3h-1.1
		c-0.1,0.6-0.2,1.2-0.3,1.7s-0.3,1.1-0.6,1.5H91.5z"/>
	<path d="M96.3,276.1H97c0.8,0,1.5,0.1,1.9,0.4s0.6,0.7,0.6,1.2c0,0.6-0.2,1-0.6,1.3c-0.4,0.3-1,0.4-1.8,0.4h-2.3V274h1.5V276.1z
		 M97.9,277.8c0-0.2-0.1-0.4-0.3-0.5s-0.4-0.1-0.8-0.1h-0.7v1.3H97C97.6,278.5,97.9,278.2,97.9,277.8z M101.7,279.5h-1.5V274h1.5
		V279.5z"/>
	<path d="M107.3,274v2.2c0,0.2,0,0.8-0.1,1.7l2.5-3.8h1.8v5.5h-1.4v-2.2c0-0.4,0-0.9,0.1-1.6l-2.5,3.8h-1.8V274H107.3z"/>
	<path d="M114.4,276.1c0.6,0,1,0,1.2-0.1s0.4-0.2,0.4-0.4c0-0.2-0.1-0.3-0.3-0.4s-0.5-0.1-0.9-0.1c-0.3,0-0.5,0-0.9,0.1
		s-0.6,0.1-0.9,0.3l-0.4-1c0.4-0.1,0.8-0.3,1.1-0.3c0.4-0.1,0.8-0.1,1.2-0.1c0.7,0,1.2,0.1,1.6,0.4s0.6,0.6,0.6,1.1
		c0,0.6-0.4,1-1.1,1.2v0c0.4,0.1,0.8,0.3,1,0.5c0.2,0.2,0.3,0.5,0.3,0.8c0,0.3-0.1,0.6-0.3,0.9s-0.5,0.5-0.9,0.6s-0.9,0.2-1.4,0.2
		c-0.9,0-1.6-0.1-2.1-0.3V278c0.3,0.1,0.6,0.2,0.9,0.3s0.7,0.1,1,0.1c0.5,0,0.8-0.1,1.1-0.2c0.2-0.1,0.4-0.3,0.4-0.5
		c0-0.2-0.1-0.4-0.4-0.5c-0.3-0.1-0.6-0.2-1.2-0.2h-0.6v-1H114.4z"/>
	<path d="M126.2,274v5.5h-1.5v-4.3h-2v4.3h-1.5V274H126.2z"/>
	<path d="M132.7,276.8c0,0.9-0.2,1.6-0.7,2.1s-1.1,0.8-2,0.8c-0.5,0-1-0.1-1.4-0.3c-0.4-0.2-0.7-0.6-0.9-1s-0.3-0.9-0.3-1.5
		c0-0.9,0.2-1.6,0.7-2.1s1.1-0.7,2-0.7c0.5,0,1,0.1,1.4,0.3s0.7,0.6,0.9,1S132.7,276.2,132.7,276.8z M128.9,276.8
		c0,0.5,0.1,0.9,0.3,1.2s0.5,0.4,0.9,0.4c0.4,0,0.7-0.1,0.9-0.4c0.2-0.3,0.3-0.7,0.3-1.2c0-0.5-0.1-0.9-0.3-1.2s-0.5-0.4-0.9-0.4
		c-0.4,0-0.7,0.1-0.9,0.4C129,275.8,128.9,276.2,128.9,276.8z"/>
	<path d="M135.4,274v2.2c0,0.2,0,0.8-0.1,1.7l2.5-3.8h1.8v5.5h-1.4v-2.2c0-0.4,0-0.9,0.1-1.6l-2.5,3.8h-1.8V274H135.4z"/>
	<path d="M143.4,279.6c-1.7,0-2.5-0.9-2.5-2.8c0-0.9,0.2-1.6,0.7-2.1c0.5-0.5,1.1-0.7,2-0.7c0.6,0,1.2,0.1,1.7,0.4l-0.4,1.2
		c-0.2-0.1-0.5-0.2-0.7-0.2c-0.2-0.1-0.4-0.1-0.6-0.1c-0.8,0-1.2,0.5-1.2,1.7c0,1.1,0.4,1.6,1.2,1.6c0.3,0,0.6,0,0.8-0.1
		c0.2-0.1,0.5-0.2,0.7-0.4v1.3c-0.2,0.2-0.5,0.3-0.7,0.3S143.7,279.6,143.4,279.6z"/>
	<path d="M149.9,274h1.6l-2.2,2.6l2.4,2.8H150l-2.2-2.8v2.8h-1.5V274h1.5v2.7L149.9,274z"/>
	<path d="M157.4,276.8c0,0.9-0.2,1.6-0.7,2.1s-1.1,0.8-2,0.8c-0.5,0-1-0.1-1.4-0.3c-0.4-0.2-0.7-0.6-0.9-1s-0.3-0.9-0.3-1.5
		c0-0.9,0.2-1.6,0.7-2.1s1.1-0.7,2-0.7c0.5,0,1,0.1,1.4,0.3s0.7,0.6,0.9,1S157.4,276.2,157.4,276.8z M153.7,276.8
		c0,0.5,0.1,0.9,0.3,1.2s0.5,0.4,0.9,0.4c0.4,0,0.7-0.1,0.9-0.4c0.2-0.3,0.3-0.7,0.3-1.2c0-0.5-0.1-0.9-0.3-1.2s-0.5-0.4-0.9-0.4
		c-0.4,0-0.7,0.1-0.9,0.4C153.7,275.8,153.7,276.2,153.7,276.8z"/>
	<path d="M163.7,275.5c0,0.3-0.1,0.5-0.3,0.7c-0.2,0.2-0.5,0.3-0.8,0.4v0c0.4,0,0.7,0.2,0.9,0.4c0.2,0.2,0.3,0.5,0.3,0.8
		c0,0.5-0.2,0.9-0.6,1.2c-0.4,0.3-1,0.4-1.8,0.4h-2.8V274h2.8c0.7,0,1.3,0.1,1.7,0.4C163.5,274.6,163.7,275,163.7,275.5z
		 M162.2,275.6c0-0.3-0.3-0.5-0.8-0.5h-1.3v1.1h1.1c0.3,0,0.6,0,0.7-0.1S162.2,275.8,162.2,275.6z M162.3,277.8
		c0-0.2-0.1-0.4-0.2-0.5c-0.2-0.1-0.4-0.1-0.7-0.1h-1.2v1.3h1.2c0.3,0,0.6-0.1,0.7-0.2C162.2,278.2,162.3,278,162.3,277.8z"/>
	<path d="M166.5,276.1h0.7c0.8,0,1.5,0.1,1.9,0.4s0.6,0.7,0.6,1.2c0,0.6-0.2,1-0.6,1.3c-0.4,0.3-1,0.4-1.8,0.4h-2.3V274h1.5V276.1z
		 M168.2,277.8c0-0.2-0.1-0.4-0.3-0.5s-0.4-0.1-0.8-0.1h-0.7v1.3h0.7C167.9,278.5,168.2,278.2,168.2,277.8z M172,279.5h-1.5V274h1.5
		V279.5z"/>
	<path d="M174.7,276.7l-1.8-2.7h1.7l1.1,1.7l1.1-1.7h1.7l-1.8,2.7l1.9,2.8h-1.7l-1.1-1.9l-1.2,1.9h-1.7L174.7,276.7z"/>
	<path d="M184.1,279.6c-1.7,0-2.5-0.9-2.5-2.8c0-0.9,0.2-1.6,0.7-2.1c0.5-0.5,1.1-0.7,2-0.7c0.6,0,1.2,0.1,1.7,0.4l-0.4,1.2
		c-0.2-0.1-0.5-0.2-0.7-0.2c-0.2-0.1-0.4-0.1-0.6-0.1c-0.8,0-1.2,0.5-1.2,1.7c0,1.1,0.4,1.6,1.2,1.6c0.3,0,0.6,0,0.8-0.1
		c0.2-0.1,0.5-0.2,0.7-0.4v1.3c-0.2,0.2-0.5,0.3-0.7,0.3S184.5,279.6,184.1,279.6z"/>
	<path d="M188.5,274v2.2c0,0.2,0,0.8-0.1,1.7l2.5-3.8h1.8v5.5h-1.4v-2.2c0-0.4,0-0.9,0.1-1.6l-2.5,3.8h-1.8V274H188.5z"/>
	<path d="M196.5,279.6c-1.7,0-2.5-0.9-2.5-2.8c0-0.9,0.2-1.6,0.7-2.1c0.5-0.5,1.1-0.7,2-0.7c0.6,0,1.2,0.1,1.7,0.4l-0.4,1.2
		c-0.2-0.1-0.5-0.2-0.7-0.2c-0.2-0.1-0.4-0.1-0.6-0.1c-0.8,0-1.2,0.5-1.2,1.7c0,1.1,0.4,1.6,1.2,1.6c0.3,0,0.6,0,0.8-0.1
		c0.2-0.1,0.5-0.2,0.7-0.4v1.3c-0.2,0.2-0.5,0.3-0.7,0.3S196.9,279.6,196.5,279.6z"/>
	<path d="M203.9,274v1.1h-1.8v4.3h-1.5v-4.3h-1.8V274H203.9z"/>
	<path d="M207.4,279.6c-0.9,0-1.6-0.2-2.1-0.7s-0.7-1.2-0.7-2.1c0-0.9,0.2-1.6,0.7-2.1c0.5-0.5,1.1-0.7,1.9-0.7
		c0.8,0,1.4,0.2,1.8,0.7s0.6,1,0.6,1.8v0.7h-3.5c0,0.4,0.1,0.8,0.4,1s0.6,0.4,1,0.4c0.3,0,0.6,0,0.9-0.1s0.6-0.2,0.9-0.3v1.2
		c-0.3,0.1-0.5,0.2-0.8,0.3C208.2,279.6,207.8,279.6,207.4,279.6z M207.2,275c-0.3,0-0.6,0.1-0.7,0.3c-0.2,0.2-0.3,0.5-0.3,0.9h2.1
		c0-0.4-0.1-0.7-0.3-0.9C207.8,275.1,207.5,275,207.2,275z"/>
	<path d="M217.7,279.5h-1.4v-4.3l-0.1,0.3c-0.2,0.7-0.3,1.2-0.5,1.6l-1,2.4h-1.1l-1-2.5c-0.1-0.4-0.3-0.9-0.4-1.5l-0.1-0.3v4.3h-1.4
		V274h2.1l0.9,2.3c0.1,0.3,0.2,0.5,0.3,0.9s0.1,0.6,0.2,0.8c0.1-0.5,0.2-0.8,0.3-1.1c0.1-0.2,0.1-0.4,0.2-0.6s0.4-1,1-2.4h2V279.5z"
		/>
	<path d="M221.5,277.4v-1.1h9.2v1.1H221.5z"/>
	<path d="M238.1,274h1.6l-2.2,2.6l2.4,2.8h-1.7l-2.2-2.8v2.8h-1.5V274h1.5v2.7L238.1,274z"/>
	<path d="M245.6,276.8c0,0.9-0.2,1.6-0.7,2.1s-1.1,0.8-2,0.8c-0.5,0-1-0.1-1.4-0.3c-0.4-0.2-0.7-0.6-0.9-1s-0.3-0.9-0.3-1.5
		c0-0.9,0.2-1.6,0.7-2.1s1.1-0.7,2-0.7c0.5,0,1,0.1,1.4,0.3s0.7,0.6,0.9,1S245.6,276.2,245.6,276.8z M241.9,276.8
		c0,0.5,0.1,0.9,0.3,1.2s0.5,0.4,0.9,0.4c0.4,0,0.7-0.1,0.9-0.4c0.2-0.3,0.3-0.7,0.3-1.2c0-0.5-0.1-0.9-0.3-1.2s-0.5-0.4-0.9-0.4
		c-0.4,0-0.7,0.1-0.9,0.4C242,275.8,241.9,276.2,241.9,276.8z"/>
	<path d="M251.8,279.5h-1.5v-4.3h-1.4c-0.1,1.2-0.2,2.1-0.4,2.7c-0.1,0.6-0.3,1-0.6,1.3c-0.2,0.3-0.6,0.4-1,0.4
		c-0.3,0-0.6-0.1-0.8-0.2v-1.2c0.2,0.1,0.3,0.1,0.5,0.1c0.2,0,0.3-0.1,0.5-0.4s0.2-0.7,0.3-1.3c0.1-0.6,0.2-1.5,0.3-2.6h4.1V279.5z"
		/>
	<path d="M254.8,274v2.2c0,0.2,0,0.8-0.1,1.7l2.5-3.8h1.8v5.5h-1.4v-2.2c0-0.4,0-0.9,0.1-1.6l-2.5,3.8h-1.8V274H254.8z"/>
	<path d="M261.8,274v2c0,0.5,0.2,0.7,0.7,0.7c0.3,0,0.6,0,0.8-0.1s0.5-0.1,0.7-0.3V274h1.5v5.5H264v-2.2c-0.3,0.2-0.7,0.3-1,0.4
		s-0.6,0.1-0.9,0.1c-0.6,0-1.1-0.2-1.4-0.5c-0.3-0.3-0.5-0.7-0.5-1.3v-2H261.8z"/>
	<path d="M269.6,279.6c-0.9,0-1.6-0.2-2.1-0.7s-0.7-1.2-0.7-2.1c0-0.9,0.2-1.6,0.7-2.1c0.5-0.5,1.1-0.7,1.9-0.7
		c0.8,0,1.4,0.2,1.8,0.7s0.6,1,0.6,1.8v0.7h-3.5c0,0.4,0.1,0.8,0.4,1s0.6,0.4,1,0.4c0.3,0,0.6,0,0.9-0.1s0.6-0.2,0.9-0.3v1.2
		c-0.3,0.1-0.5,0.2-0.8,0.3C270.3,279.6,270,279.6,269.6,279.6z M269.3,275c-0.3,0-0.6,0.1-0.7,0.3c-0.2,0.2-0.3,0.5-0.3,0.9h2.1
		c0-0.4-0.1-0.7-0.3-0.9C269.9,275.1,269.7,275,269.3,275z"/>
	<path d="M275.2,279.6c-1.7,0-2.5-0.9-2.5-2.8c0-0.9,0.2-1.6,0.7-2.1c0.5-0.5,1.1-0.7,2-0.7c0.6,0,1.2,0.1,1.7,0.4l-0.4,1.2
		c-0.2-0.1-0.5-0.2-0.7-0.2c-0.2-0.1-0.4-0.1-0.6-0.1c-0.8,0-1.2,0.5-1.2,1.7c0,1.1,0.4,1.6,1.2,1.6c0.3,0,0.6,0,0.8-0.1
		c0.2-0.1,0.5-0.2,0.7-0.4v1.3c-0.2,0.2-0.5,0.3-0.7,0.3S275.6,279.6,275.2,279.6z"/>
	<path d="M282.7,274v1.1h-1.8v4.3h-1.5v-4.3h-1.8V274H282.7z"/>
	<path d="M288.7,275.5c0,0.3-0.1,0.5-0.3,0.7c-0.2,0.2-0.5,0.3-0.8,0.4v0c0.4,0,0.7,0.2,0.9,0.4c0.2,0.2,0.3,0.5,0.3,0.8
		c0,0.5-0.2,0.9-0.6,1.2c-0.4,0.3-1,0.4-1.8,0.4h-2.8V274h2.8c0.7,0,1.3,0.1,1.7,0.4C288.5,274.6,288.7,275,288.7,275.5z
		 M287.2,275.6c0-0.3-0.3-0.5-0.8-0.5h-1.3v1.1h1.1c0.3,0,0.6,0,0.7-0.1S287.2,275.8,287.2,275.6z M287.3,277.8
		c0-0.2-0.1-0.4-0.2-0.5c-0.2-0.1-0.4-0.1-0.7-0.1h-1.2v1.3h1.2c0.3,0,0.6-0.1,0.7-0.2C287.3,278.2,287.3,278,287.3,277.8z"/>
	<path d="M295,276.8c0,0.9-0.2,1.6-0.7,2.1s-1.1,0.8-2,0.8c-0.5,0-1-0.1-1.4-0.3c-0.4-0.2-0.7-0.6-0.9-1s-0.3-0.9-0.3-1.5
		c0-0.9,0.2-1.6,0.7-2.1s1.1-0.7,2-0.7c0.5,0,1,0.1,1.4,0.3s0.7,0.6,0.9,1S295,276.2,295,276.8z M291.2,276.8c0,0.5,0.1,0.9,0.3,1.2
		s0.5,0.4,0.9,0.4c0.4,0,0.7-0.1,0.9-0.4c0.2-0.3,0.3-0.7,0.3-1.2c0-0.5-0.1-0.9-0.3-1.2s-0.5-0.4-0.9-0.4c-0.4,0-0.7,0.1-0.9,0.4
		C291.3,275.8,291.2,276.2,291.2,276.8z"/>
	<path d="M303.8,274v5.5h-1.5v-4.3h-2v4.3h-1.5V274H303.8z"/>
	<path d="M310.3,276.8c0,0.9-0.2,1.6-0.7,2.1s-1.1,0.8-2,0.8c-0.5,0-1-0.1-1.4-0.3c-0.4-0.2-0.7-0.6-0.9-1s-0.3-0.9-0.3-1.5
		c0-0.9,0.2-1.6,0.7-2.1s1.1-0.7,2-0.7c0.5,0,1,0.1,1.4,0.3s0.7,0.6,0.9,1S310.3,276.2,310.3,276.8z M306.6,276.8
		c0,0.5,0.1,0.9,0.3,1.2s0.5,0.4,0.9,0.4c0.4,0,0.7-0.1,0.9-0.4c0.2-0.3,0.3-0.7,0.3-1.2c0-0.5-0.1-0.9-0.3-1.2s-0.5-0.4-0.9-0.4
		c-0.4,0-0.7,0.1-0.9,0.4C306.6,275.8,306.6,276.2,306.6,276.8z"/>
	<path d="M313.8,279.6c-1.7,0-2.5-0.9-2.5-2.8c0-0.9,0.2-1.6,0.7-2.1c0.5-0.5,1.1-0.7,2-0.7c0.6,0,1.2,0.1,1.7,0.4l-0.4,1.2
		c-0.2-0.1-0.5-0.2-0.7-0.2c-0.2-0.1-0.4-0.1-0.6-0.1c-0.8,0-1.2,0.5-1.2,1.7c0,1.1,0.4,1.6,1.2,1.6c0.3,0,0.6,0,0.8-0.1
		c0.2-0.1,0.5-0.2,0.7-0.4v1.3c-0.2,0.2-0.5,0.3-0.7,0.3S314.2,279.6,313.8,279.6z"/>
	<path d="M319.2,279.6c-0.9,0-1.6-0.2-2.1-0.7s-0.7-1.2-0.7-2.1c0-0.9,0.2-1.6,0.7-2.1c0.5-0.5,1.1-0.7,1.9-0.7
		c0.8,0,1.4,0.2,1.8,0.7s0.6,1,0.6,1.8v0.7h-3.5c0,0.4,0.1,0.8,0.4,1s0.6,0.4,1,0.4c0.3,0,0.6,0,0.9-0.1s0.6-0.2,0.9-0.3v1.2
		c-0.3,0.1-0.5,0.2-0.8,0.3C320,279.6,319.6,279.6,319.2,279.6z M319,275c-0.3,0-0.6,0.1-0.7,0.3c-0.2,0.2-0.3,0.5-0.3,0.9h2.1
		c0-0.4-0.1-0.7-0.3-0.9C319.5,275.1,319.3,275,319,275z"/>
	<path d="M327.1,274v1.1h-1.8v4.3h-1.5v-4.3h-1.8V274H327.1z"/>
	<path d="M329.6,274v2.2c0,0.2,0,0.8-0.1,1.7l2.5-3.8h1.8v5.5h-1.4v-2.2c0-0.4,0-0.9,0.1-1.6l-2.5,3.8h-1.8V274H329.6z"/>
	<path d="M339.9,274v1.1h-1.8v4.3h-1.5v-4.3h-1.8V274H339.9z"/>
	<path d="M343.3,279.6c-0.9,0-1.6-0.2-2.1-0.7s-0.7-1.2-0.7-2.1c0-0.9,0.2-1.6,0.7-2.1c0.5-0.5,1.1-0.7,1.9-0.7
		c0.8,0,1.4,0.2,1.8,0.7s0.6,1,0.6,1.8v0.7h-3.5c0,0.4,0.1,0.8,0.4,1s0.6,0.4,1,0.4c0.3,0,0.6,0,0.9-0.1s0.6-0.2,0.9-0.3v1.2
		c-0.3,0.1-0.5,0.2-0.8,0.3C344.1,279.6,343.8,279.6,343.3,279.6z M343.1,275c-0.3,0-0.6,0.1-0.7,0.3c-0.2,0.2-0.3,0.5-0.3,0.9h2.1
		c0-0.4-0.1-0.7-0.3-0.9C343.7,275.1,343.5,275,343.1,275z"/>
	<path d="M351.7,279.5h-1.5v-4.3h-1.4c-0.1,1.2-0.2,2.1-0.4,2.7c-0.1,0.6-0.3,1-0.6,1.3c-0.2,0.3-0.6,0.4-1,0.4
		c-0.3,0-0.6-0.1-0.8-0.2v-1.2c0.2,0.1,0.3,0.1,0.5,0.1c0.2,0,0.3-0.1,0.5-0.4s0.2-0.7,0.3-1.3c0.1-0.6,0.2-1.5,0.3-2.6h4.1V279.5z"
		/>
	<path d="M355.7,279.6c-0.9,0-1.6-0.2-2.1-0.7s-0.7-1.2-0.7-2.1c0-0.9,0.2-1.6,0.7-2.1c0.5-0.5,1.1-0.7,1.9-0.7
		c0.8,0,1.4,0.2,1.8,0.7s0.6,1,0.6,1.8v0.7h-3.5c0,0.4,0.1,0.8,0.4,1s0.6,0.4,1,0.4c0.3,0,0.6,0,0.9-0.1s0.6-0.2,0.9-0.3v1.2
		c-0.3,0.1-0.5,0.2-0.8,0.3C356.5,279.6,356.1,279.6,355.7,279.6z M355.5,275c-0.3,0-0.6,0.1-0.7,0.3c-0.2,0.2-0.3,0.5-0.3,0.9h2.1
		c0-0.4-0.1-0.7-0.3-0.9C356.1,275.1,355.8,275,355.5,275z"/>
	<path d="M360.6,274v2.2c0,0.2,0,0.8-0.1,1.7l2.5-3.8h1.8v5.5h-1.4v-2.2c0-0.4,0-0.9,0.1-1.6l-2.5,3.8h-1.8V274H360.6z M364.3,271.7
		c-0.1,0.6-0.3,1.1-0.7,1.3c-0.4,0.3-1,0.4-1.7,0.4c-0.8,0-1.3-0.1-1.7-0.4s-0.6-0.7-0.6-1.3h1.3c0,0.3,0.1,0.6,0.3,0.7
		c0.1,0.1,0.4,0.2,0.8,0.2c0.3,0,0.6-0.1,0.7-0.2c0.2-0.1,0.3-0.4,0.3-0.7H364.3z"/>
</g>
<g>
	<line class="st1" x1="51.4" y1="23.8" x2="690.8" y2="25.8"/>
	<line class="st1" x1="51.4" y1="61.7" x2="690.8" y2="63.7"/>
	<line class="st1" x1="51.4" y1="99.5" x2="690.8" y2="101.5"/>
	<line class="st1" x1="51.4" y1="137.3" x2="690.8" y2="139.3"/>
	<line class="st1" x1="51.4" y1="175.2" x2="690.8" y2="177.2"/>
	<line class="st1" x1="51.4" y1="213" x2="690.8" y2="215"/>
	<line class="st1" x1="51.4" y1="250.8" x2="690.8" y2="252.8"/>
</g>
<polyline class="st2" points="50.1,239.2 123.4,205.8 200.4,187.2 265.1,166.5 338.4,131.2 479.8,167.8 550.9,80.3 691.9,30.8 "/>
</svg>
