<?xml version="1.0" encoding="utf-8"?>
<!-- Generator: Adobe Illustrator 19.2.1, SVG Export Plug-In . SVG Version: 6.00 Build 0)  -->
<svg version="1.1" id="Слой_1" xmlns="http://www.w3.org/2000/svg" xmlns:xlink="http://www.w3.org/1999/xlink" x="0px" y="0px"
	 viewBox="0 0 537 301" style="enable-background:new 0 0 537 301;" xml:space="preserve">
<style type="text/css">
	.st0{fill:none;stroke:#B2B2B2;stroke-miterlimit:10;}
	.st1{fill:#004389;}
	.st2{fill:#FF4000;}
</style>
<g>
	<line class="st0" x1="70.9" y1="30.2" x2="440" y2="32.2"/>
	<line class="st0" x1="70.9" y1="68.1" x2="440" y2="70.1"/>
	<line class="st0" x1="70.9" y1="105.9" x2="440" y2="107.9"/>
	<line class="st0" x1="70.9" y1="143.7" x2="440" y2="145.7"/>
	<line class="st0" x1="70.9" y1="181.6" x2="440" y2="183.6"/>
	<line class="st0" x1="70.9" y1="219.4" x2="440" y2="221.4"/>
	<line class="st0" x1="70.9" y1="257.2" x2="440" y2="259.2"/>
</g>
<g>
	<path d="M23.4,33c0-1.7,0.3-2.9,1-3.8S26,28,27.3,28c0.4,0,0.8,0,1,0.1V29c-0.3-0.1-0.6-0.1-1-0.1c-0.9,0-1.6,0.3-2.1,0.9
		s-0.8,1.5-0.8,2.7h0.1c0.4-0.7,1.1-1,2-1c0.8,0,1.4,0.2,1.8,0.7S29,33.2,29,34c0,0.9-0.2,1.6-0.7,2.1s-1.1,0.8-2,0.8
		c-0.9,0-1.6-0.3-2.1-1S23.4,34.2,23.4,33z M26.3,36c0.6,0,1-0.2,1.3-0.5s0.5-0.9,0.5-1.5c0-0.6-0.1-1-0.4-1.3s-0.7-0.5-1.3-0.5
		c-0.4,0-0.7,0.1-1,0.2s-0.5,0.3-0.7,0.6s-0.3,0.5-0.3,0.8c0,0.4,0.1,0.8,0.2,1.1s0.4,0.6,0.7,0.8S25.9,36,26.3,36z"/>
	<path d="M35.9,32.4c0,1.5-0.2,2.6-0.7,3.3S34,36.8,33,36.8c-0.9,0-1.6-0.4-2.1-1.1s-0.7-1.8-0.7-3.3c0-1.5,0.2-2.6,0.7-3.3
		S32.1,28,33,28c0.9,0,1.6,0.4,2.1,1.1S35.9,31,35.9,32.4z M31.2,32.4c0,1.2,0.1,2.2,0.4,2.7S32.4,36,33,36c0.6,0,1.1-0.3,1.4-0.9
		s0.4-1.5,0.4-2.7s-0.1-2.1-0.4-2.7s-0.8-0.9-1.4-0.9c-0.6,0-1.1,0.3-1.4,0.8S31.2,31.2,31.2,32.4z"/>
	<path d="M42.7,32.4c0,1.5-0.2,2.6-0.7,3.3s-1.2,1.1-2.1,1.1c-0.9,0-1.6-0.4-2.1-1.1s-0.7-1.8-0.7-3.3c0-1.5,0.2-2.6,0.7-3.3
		s1.2-1.1,2.1-1.1c0.9,0,1.6,0.4,2.1,1.1S42.7,31,42.7,32.4z M38.1,32.4c0,1.2,0.1,2.2,0.4,2.7s0.8,0.9,1.4,0.9
		c0.6,0,1.1-0.3,1.4-0.9s0.4-1.5,0.4-2.7s-0.1-2.1-0.4-2.7s-0.8-0.9-1.4-0.9c-0.6,0-1.1,0.3-1.4,0.8S38.1,31.2,38.1,32.4z"/>
	<path d="M52.7,32.4c0,1.5-0.2,2.6-0.7,3.3s-1.2,1.1-2.1,1.1c-0.9,0-1.6-0.4-2.1-1.1S47,33.9,47,32.4c0-1.5,0.2-2.6,0.7-3.3
		s1.2-1.1,2.1-1.1c0.9,0,1.6,0.4,2.1,1.1S52.7,31,52.7,32.4z M48,32.4c0,1.2,0.1,2.2,0.4,2.7s0.8,0.9,1.4,0.9c0.6,0,1.1-0.3,1.4-0.9
		s0.4-1.5,0.4-2.7s-0.1-2.1-0.4-2.7s-0.8-0.9-1.4-0.9c-0.6,0-1.1,0.3-1.4,0.8S48,31.2,48,32.4z"/>
	<path d="M59.6,32.4c0,1.5-0.2,2.6-0.7,3.3s-1.2,1.1-2.1,1.1c-0.9,0-1.6-0.4-2.1-1.1s-0.7-1.8-0.7-3.3c0-1.5,0.2-2.6,0.7-3.3
		s1.2-1.1,2.1-1.1c0.9,0,1.6,0.4,2.1,1.1S59.6,31,59.6,32.4z M54.9,32.4c0,1.2,0.1,2.2,0.4,2.7s0.8,0.9,1.4,0.9
		c0.6,0,1.1-0.3,1.4-0.9s0.4-1.5,0.4-2.7s-0.1-2.1-0.4-2.7s-0.8-0.9-1.4-0.9c-0.6,0-1.1,0.3-1.4,0.8S54.9,31.2,54.9,32.4z"/>
	<path d="M66.4,32.4c0,1.5-0.2,2.6-0.7,3.3s-1.2,1.1-2.1,1.1c-0.9,0-1.6-0.4-2.1-1.1s-0.7-1.8-0.7-3.3c0-1.5,0.2-2.6,0.7-3.3
		s1.2-1.1,2.1-1.1c0.9,0,1.6,0.4,2.1,1.1S66.4,31,66.4,32.4z M61.8,32.4c0,1.2,0.1,2.2,0.4,2.7S63,36,63.6,36c0.6,0,1.1-0.3,1.4-0.9
		s0.4-1.5,0.4-2.7s-0.1-2.1-0.4-2.7s-0.8-0.9-1.4-0.9c-0.6,0-1.1,0.3-1.4,0.8S61.8,31.2,61.8,32.4z"/>
	<path d="M26,68.9c0.9,0,1.6,0.2,2.1,0.7s0.8,1.1,0.8,1.8c0,0.9-0.3,1.6-0.8,2.1s-1.3,0.8-2.3,0.8c-1,0-1.7-0.2-2.2-0.5v-0.9
		c0.3,0.2,0.6,0.3,1,0.4s0.8,0.1,1.2,0.1c0.7,0,1.2-0.2,1.6-0.5s0.6-0.8,0.6-1.4c0-1.2-0.7-1.8-2.2-1.8c-0.4,0-0.9,0.1-1.5,0.2
		l-0.5-0.3l0.3-4h4.3v0.9h-3.4L24.7,69C25.1,68.9,25.6,68.9,26,68.9z"/>
	<path d="M35.9,69.8c0,1.5-0.2,2.6-0.7,3.3S34,74.2,33,74.2c-0.9,0-1.6-0.4-2.1-1.1s-0.7-1.8-0.7-3.3c0-1.5,0.2-2.6,0.7-3.3
		s1.2-1.1,2.1-1.1c0.9,0,1.6,0.4,2.1,1.1S35.9,68.4,35.9,69.8z M31.2,69.8c0,1.2,0.1,2.2,0.4,2.7s0.8,0.9,1.4,0.9
		c0.6,0,1.1-0.3,1.4-0.9s0.4-1.5,0.4-2.7s-0.1-2.1-0.4-2.7s-0.8-0.9-1.4-0.9c-0.6,0-1.1,0.3-1.4,0.8S31.2,68.6,31.2,69.8z"/>
	<path d="M42.7,69.8c0,1.5-0.2,2.6-0.7,3.3s-1.2,1.1-2.1,1.1c-0.9,0-1.6-0.4-2.1-1.1s-0.7-1.8-0.7-3.3c0-1.5,0.2-2.6,0.7-3.3
		s1.2-1.1,2.1-1.1c0.9,0,1.6,0.4,2.1,1.1S42.7,68.4,42.7,69.8z M38.1,69.8c0,1.2,0.1,2.2,0.4,2.7s0.8,0.9,1.4,0.9
		c0.6,0,1.1-0.3,1.4-0.9s0.4-1.5,0.4-2.7s-0.1-2.1-0.4-2.7s-0.8-0.9-1.4-0.9c-0.6,0-1.1,0.3-1.4,0.8S38.1,68.6,38.1,69.8z"/>
	<path d="M52.7,69.8c0,1.5-0.2,2.6-0.7,3.3s-1.2,1.1-2.1,1.1c-0.9,0-1.6-0.4-2.1-1.1S47,71.3,47,69.8c0-1.5,0.2-2.6,0.7-3.3
		s1.2-1.1,2.1-1.1c0.9,0,1.6,0.4,2.1,1.1S52.7,68.4,52.7,69.8z M48,69.8c0,1.2,0.1,2.2,0.4,2.7s0.8,0.9,1.4,0.9
		c0.6,0,1.1-0.3,1.4-0.9s0.4-1.5,0.4-2.7s-0.1-2.1-0.4-2.7s-0.8-0.9-1.4-0.9c-0.6,0-1.1,0.3-1.4,0.8S48,68.6,48,69.8z"/>
	<path d="M59.6,69.8c0,1.5-0.2,2.6-0.7,3.3s-1.2,1.1-2.1,1.1c-0.9,0-1.6-0.4-2.1-1.1s-0.7-1.8-0.7-3.3c0-1.5,0.2-2.6,0.7-3.3
		s1.2-1.1,2.1-1.1c0.9,0,1.6,0.4,2.1,1.1S59.6,68.4,59.6,69.8z M54.9,69.8c0,1.2,0.1,2.2,0.4,2.7s0.8,0.9,1.4,0.9
		c0.6,0,1.1-0.3,1.4-0.9s0.4-1.5,0.4-2.7s-0.1-2.1-0.4-2.7s-0.8-0.9-1.4-0.9c-0.6,0-1.1,0.3-1.4,0.8S54.9,68.6,54.9,69.8z"/>
	<path d="M66.4,69.8c0,1.5-0.2,2.6-0.7,3.3s-1.2,1.1-2.1,1.1c-0.9,0-1.6-0.4-2.1-1.1s-0.7-1.8-0.7-3.3c0-1.5,0.2-2.6,0.7-3.3
		s1.2-1.1,2.1-1.1c0.9,0,1.6,0.4,2.1,1.1S66.4,68.4,66.4,69.8z M61.8,69.8c0,1.2,0.1,2.2,0.4,2.7s0.8,0.9,1.4,0.9
		c0.6,0,1.1-0.3,1.4-0.9s0.4-1.5,0.4-2.7s-0.1-2.1-0.4-2.7s-0.8-0.9-1.4-0.9c-0.6,0-1.1,0.3-1.4,0.8S61.8,68.6,61.8,69.8z"/>
	<path d="M29.4,109.5h-1.3v2h-0.9v-2H23v-0.8l4.1-5.8h1v5.8h1.3V109.5z M27.2,108.6v-2.8c0-0.6,0-1.2,0.1-1.9h0
		c-0.2,0.4-0.4,0.7-0.5,0.9l-2.7,3.8H27.2z"/>
	<path d="M35.9,107.2c0,1.5-0.2,2.6-0.7,3.3s-1.2,1.1-2.1,1.1c-0.9,0-1.6-0.4-2.1-1.1s-0.7-1.8-0.7-3.3c0-1.5,0.2-2.6,0.7-3.3
		s1.2-1.1,2.1-1.1c0.9,0,1.6,0.4,2.1,1.1S35.9,105.8,35.9,107.2z M31.2,107.2c0,1.2,0.1,2.2,0.4,2.7s0.8,0.9,1.4,0.9
		c0.6,0,1.1-0.3,1.4-0.9s0.4-1.5,0.4-2.7s-0.1-2.1-0.4-2.7s-0.8-0.9-1.4-0.9c-0.6,0-1.1,0.3-1.4,0.8S31.2,106,31.2,107.2z"/>
	<path d="M42.7,107.2c0,1.5-0.2,2.6-0.7,3.3s-1.2,1.1-2.1,1.1c-0.9,0-1.6-0.4-2.1-1.1s-0.7-1.8-0.7-3.3c0-1.5,0.2-2.6,0.7-3.3
		s1.2-1.1,2.1-1.1c0.9,0,1.6,0.4,2.1,1.1S42.7,105.8,42.7,107.2z M38.1,107.2c0,1.2,0.1,2.2,0.4,2.7s0.8,0.9,1.4,0.9
		c0.6,0,1.1-0.3,1.4-0.9s0.4-1.5,0.4-2.7s-0.1-2.1-0.4-2.7s-0.8-0.9-1.4-0.9c-0.6,0-1.1,0.3-1.4,0.8S38.1,106,38.1,107.2z"/>
	<path d="M52.7,107.2c0,1.5-0.2,2.6-0.7,3.3s-1.2,1.1-2.1,1.1c-0.9,0-1.6-0.4-2.1-1.1s-0.7-1.8-0.7-3.3c0-1.5,0.2-2.6,0.7-3.3
		s1.2-1.1,2.1-1.1c0.9,0,1.6,0.4,2.1,1.1S52.7,105.8,52.7,107.2z M48,107.2c0,1.2,0.1,2.2,0.4,2.7s0.8,0.9,1.4,0.9
		c0.6,0,1.1-0.3,1.4-0.9s0.4-1.5,0.4-2.7s-0.1-2.1-0.4-2.7s-0.8-0.9-1.4-0.9c-0.6,0-1.1,0.3-1.4,0.8S48,106,48,107.2z"/>
	<path d="M59.6,107.2c0,1.5-0.2,2.6-0.7,3.3s-1.2,1.1-2.1,1.1c-0.9,0-1.6-0.4-2.1-1.1s-0.7-1.8-0.7-3.3c0-1.5,0.2-2.6,0.7-3.3
		s1.2-1.1,2.1-1.1c0.9,0,1.6,0.4,2.1,1.1S59.6,105.8,59.6,107.2z M54.9,107.2c0,1.2,0.1,2.2,0.4,2.7s0.8,0.9,1.4,0.9
		c0.6,0,1.1-0.3,1.4-0.9s0.4-1.5,0.4-2.7s-0.1-2.1-0.4-2.7s-0.8-0.9-1.4-0.9c-0.6,0-1.1,0.3-1.4,0.8S54.9,106,54.9,107.2z"/>
	<path d="M66.4,107.2c0,1.5-0.2,2.6-0.7,3.3s-1.2,1.1-2.1,1.1c-0.9,0-1.6-0.4-2.1-1.1s-0.7-1.8-0.7-3.3c0-1.5,0.2-2.6,0.7-3.3
		s1.2-1.1,2.1-1.1c0.9,0,1.6,0.4,2.1,1.1S66.4,105.8,66.4,107.2z M61.8,107.2c0,1.2,0.1,2.2,0.4,2.7s0.8,0.9,1.4,0.9
		c0.6,0,1.1-0.3,1.4-0.9s0.4-1.5,0.4-2.7s-0.1-2.1-0.4-2.7s-0.8-0.9-1.4-0.9c-0.6,0-1.1,0.3-1.4,0.8S61.8,106,61.8,107.2z"/>
	<path d="M28.6,142.4c0,0.5-0.2,1-0.5,1.3s-0.7,0.6-1.3,0.7v0c0.7,0.1,1.2,0.3,1.5,0.7s0.5,0.8,0.5,1.4c0,0.8-0.3,1.4-0.8,1.9
		s-1.4,0.7-2.4,0.7c-0.5,0-0.9,0-1.2-0.1s-0.7-0.2-1.1-0.4v-0.9c0.4,0.2,0.8,0.3,1.2,0.4s0.8,0.1,1.2,0.1c1.5,0,2.2-0.6,2.2-1.7
		c0-1-0.8-1.6-2.4-1.6h-0.8v-0.8h0.9c0.7,0,1.2-0.1,1.6-0.4s0.6-0.7,0.6-1.2c0-0.4-0.1-0.7-0.4-1S26.5,141,26,141
		c-0.4,0-0.7,0.1-1.1,0.2s-0.7,0.3-1.1,0.6l-0.5-0.7c0.4-0.3,0.8-0.5,1.2-0.7s0.9-0.2,1.5-0.2c0.8,0,1.5,0.2,1.9,0.6
		S28.6,141.7,28.6,142.4z"/>
	<path d="M35.9,144.6c0,1.5-0.2,2.6-0.7,3.3S34,149,33,149c-0.9,0-1.6-0.4-2.1-1.1s-0.7-1.8-0.7-3.3c0-1.5,0.2-2.6,0.7-3.3
		s1.2-1.1,2.1-1.1c0.9,0,1.6,0.4,2.1,1.1S35.9,143.2,35.9,144.6z M31.2,144.6c0,1.2,0.1,2.2,0.4,2.7s0.8,0.9,1.4,0.9
		c0.6,0,1.1-0.3,1.4-0.9s0.4-1.5,0.4-2.7s-0.1-2.1-0.4-2.7S33.7,141,33,141c-0.6,0-1.1,0.3-1.4,0.8S31.2,143.4,31.2,144.6z"/>
	<path d="M42.7,144.6c0,1.5-0.2,2.6-0.7,3.3s-1.2,1.1-2.1,1.1c-0.9,0-1.6-0.4-2.1-1.1s-0.7-1.8-0.7-3.3c0-1.5,0.2-2.6,0.7-3.3
		s1.2-1.1,2.1-1.1c0.9,0,1.6,0.4,2.1,1.1S42.7,143.2,42.7,144.6z M38.1,144.6c0,1.2,0.1,2.2,0.4,2.7s0.8,0.9,1.4,0.9
		c0.6,0,1.1-0.3,1.4-0.9s0.4-1.5,0.4-2.7s-0.1-2.1-0.4-2.7s-0.8-0.9-1.4-0.9c-0.6,0-1.1,0.3-1.4,0.8S38.1,143.4,38.1,144.6z"/>
	<path d="M52.7,144.6c0,1.5-0.2,2.6-0.7,3.3s-1.2,1.1-2.1,1.1c-0.9,0-1.6-0.4-2.1-1.1s-0.7-1.8-0.7-3.3c0-1.5,0.2-2.6,0.7-3.3
		s1.2-1.1,2.1-1.1c0.9,0,1.6,0.4,2.1,1.1S52.7,143.2,52.7,144.6z M48,144.6c0,1.2,0.1,2.2,0.4,2.7s0.8,0.9,1.4,0.9
		c0.6,0,1.1-0.3,1.4-0.9s0.4-1.5,0.4-2.7s-0.1-2.1-0.4-2.7s-0.8-0.9-1.4-0.9c-0.6,0-1.1,0.3-1.4,0.8S48,143.4,48,144.6z"/>
	<path d="M59.6,144.6c0,1.5-0.2,2.6-0.7,3.3s-1.2,1.1-2.1,1.1c-0.9,0-1.6-0.4-2.1-1.1s-0.7-1.8-0.7-3.3c0-1.5,0.2-2.6,0.7-3.3
		s1.2-1.1,2.1-1.1c0.9,0,1.6,0.4,2.1,1.1S59.6,143.2,59.6,144.6z M54.9,144.6c0,1.2,0.1,2.2,0.4,2.7s0.8,0.9,1.4,0.9
		c0.6,0,1.1-0.3,1.4-0.9s0.4-1.5,0.4-2.7s-0.1-2.1-0.4-2.7s-0.8-0.9-1.4-0.9c-0.6,0-1.1,0.3-1.4,0.8S54.9,143.4,54.9,144.6z"/>
	<path d="M66.4,144.6c0,1.5-0.2,2.6-0.7,3.3s-1.2,1.1-2.1,1.1c-0.9,0-1.6-0.4-2.1-1.1s-0.7-1.8-0.7-3.3c0-1.5,0.2-2.6,0.7-3.3
		s1.2-1.1,2.1-1.1c0.9,0,1.6,0.4,2.1,1.1S66.4,143.2,66.4,144.6z M61.8,144.6c0,1.2,0.1,2.2,0.4,2.7s0.8,0.9,1.4,0.9
		c0.6,0,1.1-0.3,1.4-0.9s0.4-1.5,0.4-2.7s-0.1-2.1-0.4-2.7s-0.8-0.9-1.4-0.9c-0.6,0-1.1,0.3-1.4,0.8S61.8,143.4,61.8,144.6z"/>
	<path d="M29,186.3h-5.6v-0.8l2.3-2.3c0.7-0.7,1.1-1.2,1.4-1.5s0.4-0.6,0.5-0.9s0.2-0.6,0.2-0.9c0-0.5-0.1-0.8-0.4-1.1
		s-0.7-0.4-1.2-0.4c-0.4,0-0.7,0.1-1,0.2s-0.7,0.3-1.1,0.6l-0.5-0.7c0.8-0.7,1.6-1,2.6-1c0.8,0,1.4,0.2,1.9,0.6s0.7,1,0.7,1.7
		c0,0.5-0.2,1.1-0.5,1.6s-0.9,1.2-1.7,2l-1.9,1.8v0H29V186.3z"/>
	<path d="M35.9,182c0,1.5-0.2,2.6-0.7,3.3s-1.2,1.1-2.1,1.1c-0.9,0-1.6-0.4-2.1-1.1s-0.7-1.8-0.7-3.3c0-1.5,0.2-2.6,0.7-3.3
		s1.2-1.1,2.1-1.1c0.9,0,1.6,0.4,2.1,1.1S35.9,180.6,35.9,182z M31.2,182c0,1.2,0.1,2.2,0.4,2.7s0.8,0.9,1.4,0.9
		c0.6,0,1.1-0.3,1.4-0.9s0.4-1.5,0.4-2.7s-0.1-2.1-0.4-2.7s-0.8-0.9-1.4-0.9c-0.6,0-1.1,0.3-1.4,0.8S31.2,180.8,31.2,182z"/>
	<path d="M42.7,182c0,1.5-0.2,2.6-0.7,3.3s-1.2,1.1-2.1,1.1c-0.9,0-1.6-0.4-2.1-1.1s-0.7-1.8-0.7-3.3c0-1.5,0.2-2.6,0.7-3.3
		s1.2-1.1,2.1-1.1c0.9,0,1.6,0.4,2.1,1.1S42.7,180.6,42.7,182z M38.1,182c0,1.2,0.1,2.2,0.4,2.7s0.8,0.9,1.4,0.9
		c0.6,0,1.1-0.3,1.4-0.9s0.4-1.5,0.4-2.7s-0.1-2.1-0.4-2.7s-0.8-0.9-1.4-0.9c-0.6,0-1.1,0.3-1.4,0.8S38.1,180.8,38.1,182z"/>
	<path d="M52.7,182c0,1.5-0.2,2.6-0.7,3.3s-1.2,1.1-2.1,1.1c-0.9,0-1.6-0.4-2.1-1.1S47,183.5,47,182c0-1.5,0.2-2.6,0.7-3.3
		s1.2-1.1,2.1-1.1c0.9,0,1.6,0.4,2.1,1.1S52.7,180.6,52.7,182z M48,182c0,1.2,0.1,2.2,0.4,2.7s0.8,0.9,1.4,0.9
		c0.6,0,1.1-0.3,1.4-0.9s0.4-1.5,0.4-2.7s-0.1-2.1-0.4-2.7s-0.8-0.9-1.4-0.9c-0.6,0-1.1,0.3-1.4,0.8S48,180.8,48,182z"/>
	<path d="M59.6,182c0,1.5-0.2,2.6-0.7,3.3s-1.2,1.1-2.1,1.1c-0.9,0-1.6-0.4-2.1-1.1s-0.7-1.8-0.7-3.3c0-1.5,0.2-2.6,0.7-3.3
		s1.2-1.1,2.1-1.1c0.9,0,1.6,0.4,2.1,1.1S59.6,180.6,59.6,182z M54.9,182c0,1.2,0.1,2.2,0.4,2.7s0.8,0.9,1.4,0.9
		c0.6,0,1.1-0.3,1.4-0.9s0.4-1.5,0.4-2.7s-0.1-2.1-0.4-2.7s-0.8-0.9-1.4-0.9c-0.6,0-1.1,0.3-1.4,0.8S54.9,180.8,54.9,182z"/>
	<path d="M66.4,182c0,1.5-0.2,2.6-0.7,3.3s-1.2,1.1-2.1,1.1c-0.9,0-1.6-0.4-2.1-1.1s-0.7-1.8-0.7-3.3c0-1.5,0.2-2.6,0.7-3.3
		s1.2-1.1,2.1-1.1c0.9,0,1.6,0.4,2.1,1.1S66.4,180.6,66.4,182z M61.8,182c0,1.2,0.1,2.2,0.4,2.7s0.8,0.9,1.4,0.9
		c0.6,0,1.1-0.3,1.4-0.9s0.4-1.5,0.4-2.7s-0.1-2.1-0.4-2.7s-0.8-0.9-1.4-0.9c-0.6,0-1.1,0.3-1.4,0.8S61.8,180.8,61.8,182z"/>
	<path d="M26.9,223.7H26v-6.1c0-0.5,0-1,0-1.4c-0.1,0.1-0.2,0.2-0.3,0.3s-0.6,0.5-1.4,1.1l-0.5-0.7l2.3-1.8h0.8V223.7z"/>
	<path d="M35.9,219.4c0,1.5-0.2,2.6-0.7,3.3s-1.2,1.1-2.1,1.1c-0.9,0-1.6-0.4-2.1-1.1s-0.7-1.8-0.7-3.3c0-1.5,0.2-2.6,0.7-3.3
		s1.2-1.1,2.1-1.1c0.9,0,1.6,0.4,2.1,1.1S35.9,218,35.9,219.4z M31.2,219.4c0,1.2,0.1,2.2,0.4,2.7s0.8,0.9,1.4,0.9
		c0.6,0,1.1-0.3,1.4-0.9s0.4-1.5,0.4-2.7s-0.1-2.1-0.4-2.7s-0.8-0.9-1.4-0.9c-0.6,0-1.1,0.3-1.4,0.8S31.2,218.2,31.2,219.4z"/>
	<path d="M42.7,219.4c0,1.5-0.2,2.6-0.7,3.3s-1.2,1.1-2.1,1.1c-0.9,0-1.6-0.4-2.1-1.1s-0.7-1.8-0.7-3.3c0-1.5,0.2-2.6,0.7-3.3
		s1.2-1.1,2.1-1.1c0.9,0,1.6,0.4,2.1,1.1S42.7,218,42.7,219.4z M38.1,219.4c0,1.2,0.1,2.2,0.4,2.7s0.8,0.9,1.4,0.9
		c0.6,0,1.1-0.3,1.4-0.9s0.4-1.5,0.4-2.7s-0.1-2.1-0.4-2.7s-0.8-0.9-1.4-0.9c-0.6,0-1.1,0.3-1.4,0.8S38.1,218.2,38.1,219.4z"/>
	<path d="M52.7,219.4c0,1.5-0.2,2.6-0.7,3.3s-1.2,1.1-2.1,1.1c-0.9,0-1.6-0.4-2.1-1.1s-0.7-1.8-0.7-3.3c0-1.5,0.2-2.6,0.7-3.3
		s1.2-1.1,2.1-1.1c0.9,0,1.6,0.4,2.1,1.1S52.7,218,52.7,219.4z M48,219.4c0,1.2,0.1,2.2,0.4,2.7s0.8,0.9,1.4,0.9
		c0.6,0,1.1-0.3,1.4-0.9s0.4-1.5,0.4-2.7s-0.1-2.1-0.4-2.7s-0.8-0.9-1.4-0.9c-0.6,0-1.1,0.3-1.4,0.8S48,218.2,48,219.4z"/>
	<path d="M59.6,219.4c0,1.5-0.2,2.6-0.7,3.3s-1.2,1.1-2.1,1.1c-0.9,0-1.6-0.4-2.1-1.1s-0.7-1.8-0.7-3.3c0-1.5,0.2-2.6,0.7-3.3
		s1.2-1.1,2.1-1.1c0.9,0,1.6,0.4,2.1,1.1S59.6,218,59.6,219.4z M54.9,219.4c0,1.2,0.1,2.2,0.4,2.7s0.8,0.9,1.4,0.9
		c0.6,0,1.1-0.3,1.4-0.9s0.4-1.5,0.4-2.7s-0.1-2.1-0.4-2.7s-0.8-0.9-1.4-0.9c-0.6,0-1.1,0.3-1.4,0.8S54.9,218.2,54.9,219.4z"/>
	<path d="M66.4,219.4c0,1.5-0.2,2.6-0.7,3.3s-1.2,1.1-2.1,1.1c-0.9,0-1.6-0.4-2.1-1.1s-0.7-1.8-0.7-3.3c0-1.5,0.2-2.6,0.7-3.3
		s1.2-1.1,2.1-1.1c0.9,0,1.6,0.4,2.1,1.1S66.4,218,66.4,219.4z M61.8,219.4c0,1.2,0.1,2.2,0.4,2.7s0.8,0.9,1.4,0.9
		c0.6,0,1.1-0.3,1.4-0.9s0.4-1.5,0.4-2.7s-0.1-2.1-0.4-2.7s-0.8-0.9-1.4-0.9c-0.6,0-1.1,0.3-1.4,0.8S61.8,218.2,61.8,219.4z"/>
	<path d="M66.4,256.8c0,1.5-0.2,2.6-0.7,3.3s-1.2,1.1-2.1,1.1c-0.9,0-1.6-0.4-2.1-1.1s-0.7-1.8-0.7-3.3c0-1.5,0.2-2.6,0.7-3.3
		s1.2-1.1,2.1-1.1c0.9,0,1.6,0.4,2.1,1.1S66.4,255.4,66.4,256.8z M61.8,256.8c0,1.2,0.1,2.2,0.4,2.7s0.8,0.9,1.4,0.9
		c0.6,0,1.1-0.3,1.4-0.9s0.4-1.5,0.4-2.7s-0.1-2.1-0.4-2.7s-0.8-0.9-1.4-0.9c-0.6,0-1.1,0.3-1.4,0.8S61.8,255.6,61.8,256.8z"/>
</g>
<g>
	<path d="M149.3,277.2h-0.9v-6.1c0-0.5,0-1,0-1.4c-0.1,0.1-0.2,0.2-0.3,0.3s-0.6,0.5-1.4,1.1l-0.5-0.7l2.3-1.8h0.8V277.2z"/>
	<path d="M159.5,276.3l0.2-0.5l0.3-0.7l1.7-4.2h1.2v6.4H162v-5.3l-0.1,0.3l-0.3,0.9l-1.7,4.1h-0.8l-1.7-4.1
		c-0.2-0.5-0.3-0.9-0.4-1.2v5.3h-0.9v-6.4h1.2l1.7,4.1C159.2,275.3,159.3,275.8,159.5,276.3z"/>
	<path d="M167.7,277.3c-0.9,0-1.7-0.3-2.2-0.9s-0.8-1.4-0.8-2.4c0-1,0.3-1.9,0.8-2.5s1.2-0.9,2.1-0.9c0.8,0,1.4,0.3,1.9,0.8
		s0.7,1.2,0.7,2.1v0.6h-4.4c0,0.8,0.2,1.3,0.6,1.7s0.9,0.6,1.5,0.6c0.7,0,1.4-0.1,2.1-0.4v0.9c-0.3,0.1-0.7,0.3-1,0.3
		S168.1,277.3,167.7,277.3z M167.4,271.5c-0.5,0-0.9,0.2-1.2,0.5s-0.5,0.8-0.5,1.4h3.4c0-0.6-0.1-1.1-0.4-1.4
		S167.9,271.5,167.4,271.5z"/>
	<path d="M174.2,277.3c-0.9,0-1.6-0.3-2.2-0.9s-0.8-1.4-0.8-2.4c0-1.1,0.3-1.9,0.8-2.5s1.3-0.9,2.2-0.9c0.3,0,0.6,0,0.9,0.1
		s0.6,0.1,0.7,0.2l-0.3,0.8c-0.2-0.1-0.4-0.2-0.7-0.2s-0.5-0.1-0.7-0.1c-1.3,0-2,0.8-2,2.5c0,0.8,0.2,1.4,0.5,1.8s0.8,0.6,1.4,0.6
		c0.5,0,1.1-0.1,1.6-0.3v0.9C175.4,277.2,174.9,277.3,174.2,277.3z"/>
	<path d="M177.7,277.2h-1.1l1.8-2.7c-0.5-0.1-0.9-0.3-1.1-0.6s-0.4-0.7-0.4-1.2c0-0.6,0.2-1,0.6-1.4s0.9-0.5,1.7-0.5h2.9v6.4h-1
		v-2.6h-1.6L177.7,277.2z M177.8,272.7c0,0.7,0.5,1.1,1.6,1.1h1.6v-2.2h-1.8C178.3,271.6,177.8,272,177.8,272.7z"/>
	<path d="M190.3,279.4h-1v-2.2h-5.3v-6.4h1v5.6h3.4v-5.6h1v5.6h0.9V279.4z"/>
</g>
<g>
	<path d="M333,270.7c0,0.5-0.2,1-0.5,1.3s-0.7,0.6-1.3,0.7v0c0.7,0.1,1.2,0.3,1.5,0.7s0.5,0.8,0.5,1.4c0,0.8-0.3,1.4-0.8,1.9
		s-1.4,0.7-2.4,0.7c-0.5,0-0.9,0-1.2-0.1s-0.7-0.2-1.1-0.4v-0.9c0.4,0.2,0.8,0.3,1.2,0.4s0.8,0.1,1.2,0.1c1.5,0,2.2-0.6,2.2-1.7
		c0-1-0.8-1.6-2.4-1.6H329v-0.8h0.9c0.7,0,1.2-0.1,1.6-0.4s0.6-0.7,0.6-1.2c0-0.4-0.1-0.7-0.4-1s-0.7-0.4-1.2-0.4
		c-0.4,0-0.7,0.1-1.1,0.2s-0.7,0.3-1.1,0.6l-0.5-0.7c0.4-0.3,0.8-0.5,1.2-0.7s0.9-0.2,1.5-0.2c0.8,0,1.5,0.2,1.9,0.6
		S333,270,333,270.7z"/>
	<path d="M341.5,276.3l0.2-0.5l0.3-0.7l1.7-4.2h1.2v6.4H344v-5.3l-0.1,0.3l-0.3,0.9l-1.7,4.1h-0.8l-1.7-4.1
		c-0.2-0.5-0.3-0.9-0.4-1.2v5.3h-0.9v-6.4h1.2l1.7,4.1C341.2,275.3,341.3,275.8,341.5,276.3z"/>
	<path d="M349.7,277.3c-0.9,0-1.7-0.3-2.2-0.9s-0.8-1.4-0.8-2.4c0-1,0.3-1.9,0.8-2.5s1.2-0.9,2.1-0.9c0.8,0,1.4,0.3,1.9,0.8
		s0.7,1.2,0.7,2.1v0.6h-4.4c0,0.8,0.2,1.3,0.6,1.7s0.9,0.6,1.5,0.6c0.7,0,1.4-0.1,2.1-0.4v0.9c-0.3,0.1-0.7,0.3-1,0.3
		S350.1,277.3,349.7,277.3z M349.4,271.5c-0.5,0-0.9,0.2-1.2,0.5s-0.5,0.8-0.5,1.4h3.4c0-0.6-0.1-1.1-0.4-1.4
		S349.9,271.5,349.4,271.5z"/>
	<path d="M356.2,277.3c-0.9,0-1.6-0.3-2.2-0.9s-0.8-1.4-0.8-2.4c0-1.1,0.3-1.9,0.8-2.5s1.3-0.9,2.2-0.9c0.3,0,0.6,0,0.9,0.1
		s0.6,0.1,0.7,0.2l-0.3,0.8c-0.2-0.1-0.4-0.2-0.7-0.2s-0.5-0.1-0.7-0.1c-1.3,0-2,0.8-2,2.5c0,0.8,0.2,1.4,0.5,1.8s0.8,0.6,1.4,0.6
		c0.5,0,1.1-0.1,1.6-0.3v0.9C357.4,277.2,356.9,277.3,356.2,277.3z"/>
	<path d="M359.7,277.2h-1.1l1.8-2.7c-0.5-0.1-0.9-0.3-1.1-0.6s-0.4-0.7-0.4-1.2c0-0.6,0.2-1,0.6-1.4s0.9-0.5,1.7-0.5h2.9v6.4h-1
		v-2.6h-1.6L359.7,277.2z M359.8,272.7c0,0.7,0.5,1.1,1.6,1.1h1.6v-2.2h-1.8C360.3,271.6,359.8,272,359.8,272.7z"/>
	<path d="M372.3,279.4h-1v-2.2h-5.3v-6.4h1v5.6h3.4v-5.6h1v5.6h0.9V279.4z"/>
</g>
<rect x="106.5" y="251.7" class="st1" width="60.5" height="5"/>
<rect x="167.5" y="234.7" class="st2" width="60.5" height="22"/>
<rect x="287.5" y="242.7" class="st1" width="60.5" height="14"/>
<rect x="348.5" y="72.2" class="st2" width="60.5" height="184.5"/>
<g>
	<path d="M481.6,136.1c0,0.9-0.3,1.5-0.9,2s-1.4,0.7-2.5,0.7h-1v3.4h-1v-8.6h2.2C480.6,133.6,481.6,134.5,481.6,136.1z M477.2,138
		h0.9c0.9,0,1.5-0.1,1.9-0.4s0.6-0.7,0.6-1.4c0-0.6-0.2-1-0.6-1.3s-0.9-0.4-1.7-0.4h-1.1V138z"/>
	<path d="M487.2,142.2l-0.2-0.9h0c-0.3,0.4-0.6,0.7-1,0.8s-0.7,0.2-1.2,0.2c-0.6,0-1.1-0.2-1.5-0.5s-0.5-0.8-0.5-1.4
		c0-1.3,1-2,3.1-2l1.1,0V138c0-0.5-0.1-0.9-0.3-1.1s-0.6-0.4-1-0.4c-0.5,0-1.1,0.2-1.8,0.5l-0.3-0.7c0.3-0.2,0.7-0.3,1-0.4
		s0.8-0.1,1.1-0.1c0.8,0,1.3,0.2,1.7,0.5s0.6,0.9,0.6,1.6v4.4H487.2z M485,141.5c0.6,0,1.1-0.2,1.4-0.5s0.5-0.8,0.5-1.4V139l-1,0
		c-0.8,0-1.3,0.1-1.7,0.4s-0.5,0.5-0.5,1c0,0.4,0.1,0.6,0.3,0.8S484.7,141.5,485,141.5z"/>
	<path d="M492.5,142.3c-0.9,0-1.6-0.3-2.2-0.9s-0.8-1.4-0.8-2.4c0-1.1,0.3-1.9,0.8-2.5s1.3-0.9,2.2-0.9c0.3,0,0.6,0,0.9,0.1
		s0.6,0.1,0.7,0.2l-0.3,0.8c-0.2-0.1-0.4-0.2-0.7-0.2s-0.5-0.1-0.7-0.1c-1.3,0-2,0.8-2,2.5c0,0.8,0.2,1.4,0.5,1.8s0.8,0.6,1.4,0.6
		c0.5,0,1.1-0.1,1.6-0.3v0.9C493.7,142.2,493.2,142.3,492.5,142.3z"/>
	<path d="M497.2,138.9l-2.2-3.1h1.1l1.7,2.5l1.7-2.5h1.1l-2.2,3.1l2.3,3.3h-1.1l-1.8-2.6l-1.8,2.6h-1.1L497.2,138.9z"/>
	<path d="M507.5,139c0,1-0.3,1.9-0.8,2.5s-1.3,0.9-2.2,0.9c-0.6,0-1.1-0.1-1.5-0.4s-0.8-0.7-1-1.2s-0.4-1.1-0.4-1.8
		c0-1,0.3-1.9,0.8-2.4s1.3-0.9,2.2-0.9c0.9,0,1.6,0.3,2.1,0.9S507.5,138,507.5,139z M502.6,139c0,0.8,0.2,1.4,0.5,1.9
		s0.8,0.6,1.4,0.6s1.1-0.2,1.5-0.6s0.5-1.1,0.5-1.9c0-0.8-0.2-1.4-0.5-1.9s-0.8-0.6-1.5-0.6c-0.6,0-1.1,0.2-1.4,0.6
		S502.6,138.2,502.6,139z"/>
	<path d="M514.8,144.4h-0.9v-2.2h-4.5v2.2h-0.9v-3.1h0.5c0.5-0.7,0.9-1.5,1.2-2.5s0.5-2,0.5-3.1h3.3v5.6h0.9V144.4z M512.9,141.4
		v-4.8h-1.4c-0.1,0.9-0.2,1.7-0.5,2.6s-0.6,1.6-1.1,2.2H512.9z"/>
	<path d="M483,163.8H482v-2.2h-6v2.2h-0.9v-3.1h0.7c0.6-1,1.1-2.2,1.5-3.7s0.7-2.8,0.7-4h3.8v7.7h1.1V163.8z M480.9,160.7v-6.8h-2
		c-0.1,0.9-0.3,2.1-0.7,3.4s-0.9,2.4-1.4,3.4H480.9z"/>
	<path d="M489.8,158.4c0,1-0.3,1.9-0.8,2.5s-1.3,0.9-2.2,0.9c-0.6,0-1.1-0.1-1.5-0.4s-0.8-0.7-1-1.2s-0.4-1.1-0.4-1.8
		c0-1,0.3-1.9,0.8-2.4s1.3-0.9,2.2-0.9c0.9,0,1.6,0.3,2.1,0.9S489.8,157.4,489.8,158.4z M484.9,158.4c0,0.8,0.2,1.4,0.5,1.9
		s0.8,0.6,1.4,0.6s1.1-0.2,1.5-0.6s0.5-1.1,0.5-1.9c0-0.8-0.2-1.4-0.5-1.9s-0.8-0.6-1.5-0.6c-0.6,0-1.1,0.2-1.4,0.6
		S484.9,157.6,484.9,158.4z"/>
	<path d="M493.1,158.3l-2.2-3.1h1.1l1.7,2.5l1.7-2.5h1.1l-2.2,3.1l2.3,3.3h-1.1l-1.8-2.6l-1.8,2.6h-1.1L493.1,158.3z"/>
	<path d="M503.3,158.4c0,1-0.3,1.9-0.8,2.5s-1.3,0.9-2.2,0.9c-0.6,0-1.1-0.1-1.5-0.4s-0.8-0.7-1-1.2s-0.4-1.1-0.4-1.8
		c0-1,0.3-1.9,0.8-2.4s1.3-0.9,2.2-0.9c0.9,0,1.6,0.3,2.1,0.9S503.3,157.4,503.3,158.4z M498.4,158.4c0,0.8,0.2,1.4,0.5,1.9
		s0.8,0.6,1.4,0.6s1.1-0.2,1.5-0.6s0.5-1.1,0.5-1.9c0-0.8-0.2-1.4-0.5-1.9s-0.8-0.6-1.5-0.6c-0.6,0-1.1,0.2-1.4,0.6
		S498.4,157.6,498.4,158.4z"/>
	<path d="M510.6,163.8h-0.9v-2.2h-4.5v2.2h-0.9v-3.1h0.5c0.5-0.7,0.9-1.5,1.2-2.5s0.5-2,0.5-3.1h3.3v5.6h0.9V163.8z M508.8,160.8
		v-4.8h-1.4c-0.1,0.9-0.2,1.7-0.5,2.6s-0.6,1.6-1.1,2.2H508.8z"/>
</g>
<rect x="458.4" y="134.2" class="st1" width="7.8" height="8.5"/>
<rect x="458.4" y="154.2" class="st2" width="7.8" height="8.5"/>
</svg>
