<svg width="488" height="437" viewBox="0 0 488 437" fill="none" xmlns="http://www.w3.org/2000/svg">
<path fill-rule="evenodd" clip-rule="evenodd" d="M372.05 27.323C421.144 100.796 245.903 234.165 195.013 271.834C141.814 311.212 82.1014 331.368 28.9024 279.087C-31.9386 219.294 64.9664 176.548 109.341 148.465C169.311 110.485 226.562 57.583 283.711 23.645C310.901 7.47799 349.529 -3.506 372.05 27.323Z" fill="#5D7600"/>
<path fill-rule="evenodd" clip-rule="evenodd" d="M408.064 52.66C463.519 48.307 501.121 110.536 463.673 162.402C444.177 189.501 353.376 282.559 326.7 305.098C269.192 352.351 126.681 432.612 53.8875 381.834C13.1035 353.387 15.1035 308.153 56.3495 279.086C117.806 235.771 177.674 240.433 242.723 179.552C286.994 138.102 346.348 61.158 408.064 52.66Z" fill="#5D7600"/>
<path fill-rule="evenodd" clip-rule="evenodd" d="M460.441 197.429C495.324 266.548 329.008 363.492 280.838 390.695C230.462 419.14 176.442 430.228 135.761 379.089C89.2824 320.539 177.929 293.907 219.482 274.271C275.553 247.741 330.906 208 384.104 184.684C409.448 173.542 444.126 168.206 460.441 197.429Z" fill="#5D7600"/>
<path d="M169.755 289.298L170.891 290.616L172.006 291.934L173.142 293.252L174.268 294.56L175.404 295.868L176.541 297.165L177.666 298.441L178.813 299.727L179.938 301.024L181.032 302.247C181.932 303.254 183.572 303.008 184.173 301.786C184.494 301.11 184.387 300.285 183.873 299.717L182.801 298.506L181.665 297.23L180.54 295.944L179.415 294.647L178.279 293.361L177.154 292.075L176.018 290.767L174.893 289.449L173.8 288.152L172.664 286.833L171.549 285.515C171.249 285.151 170.841 284.936 170.391 284.862C170.412 284.423 170.252 283.983 169.951 283.618L169.33 282.868L168.204 281.55L167.111 280.221L166.028 278.881L164.935 277.563L163.874 276.234L162.78 274.916L161.697 273.576L160.636 272.258L159.564 270.918L158.064 269.041C157.453 268.259 156.328 268.099 155.491 268.687C154.601 269.32 154.419 270.563 155.095 271.41L156.585 273.297L157.657 274.637L158.74 275.966L159.812 277.306L160.905 278.635L161.999 279.975L163.103 281.315L164.196 282.645L165.29 283.985L166.404 285.314L167.037 286.075C167.348 286.45 167.766 286.654 168.205 286.719C168.194 287.148 168.323 287.598 168.634 287.973L169.755 289.298ZM81.8691 174.528C79.8861 172.191 79.0611 169.276 79.3071 166.424C79.5751 163.594 80.9051 160.839 83.2631 158.867C83.4881 158.653 83.7351 158.459 83.9921 158.299L83.6591 157.58L83.0911 156.337L82.5231 155.083L81.9651 153.85L81.4081 152.606L80.8621 151.363L80.3151 150.12L79.7791 148.887L79.2541 147.654L78.7291 146.422L78.2141 145.2L77.7111 143.989L77.1961 142.767L76.9491 142.188C76.3701 140.72 77.7101 139.219 79.2641 139.637C79.8221 139.798 80.2501 140.194 80.4751 140.73L80.7111 141.298L81.2151 142.499L81.7191 143.71L82.2341 144.932L82.7481 146.154L83.2731 147.365L83.7981 148.587L84.3341 149.809L84.8811 151.031L85.4281 152.263L85.9741 153.485L86.5311 154.729L87.1101 155.973L87.4211 156.627C88.7291 156.252 90.0801 156.134 91.4091 156.219C94.2491 156.455 96.9831 157.752 98.9551 160.1C100.927 162.426 101.764 165.352 101.506 168.193C101.26 171.023 99.9201 173.788 97.5511 175.782C97.3901 175.911 97.2401 176.05 97.0581 176.189L97.6801 177.358L98.3441 178.644L99.0201 179.919L99.7271 181.194L100.414 182.491L101.11 183.778L101.807 185.075L102.525 186.361L103.233 187.636L103.973 188.933L104.691 190.241L105.302 191.324C105.634 191.882 105.613 192.578 105.313 193.157C104.563 194.454 102.73 194.486 101.99 193.211L101.368 192.117L100.639 190.809L99.9211 189.512L99.2021 188.204L98.4841 186.907L97.7761 185.61L97.0681 184.313L96.3711 183.027L95.6741 181.741L94.9881 180.444L94.3131 179.169L93.6591 177.936C92.2761 178.365 90.8401 178.515 89.4141 178.397C86.5751 178.173 83.8411 176.865 81.8691 174.528ZM89.7481 174.636C91.6351 174.785 93.5641 174.207 95.1181 172.899C96.6831 171.581 97.5731 169.78 97.7341 167.904C97.8951 166.029 97.3481 164.099 96.0511 162.555C94.7541 161.023 92.9321 160.154 91.0671 160.015C89.1921 159.854 87.2621 160.422 85.6971 161.741C84.1431 163.049 83.2641 164.871 83.0931 166.736C82.9321 168.601 83.4791 170.531 84.7761 172.074C86.0921 173.617 87.8931 174.485 89.7481 174.636ZM145.208 252.274L144.211 250.944L143.235 249.604L142.26 248.275L141.274 246.946L140.32 245.606L139.355 244.266L138.39 242.948L137.457 241.608L136.514 240.268L135.549 238.917C134.756 237.781 133.052 237.877 132.344 239.067C131.98 239.71 132.001 240.504 132.419 241.103L133.405 242.486L134.359 243.815L135.313 245.166L136.267 246.506L137.243 247.846L138.197 249.176L139.183 250.516L140.159 251.866L141.156 253.206L142.153 254.546L143.535 256.423C144.404 257.569 146.161 257.365 146.772 256.069C147.083 255.437 147.008 254.697 146.601 254.14L145.208 252.274ZM123.856 221.692L122.999 220.352L122.131 219.044L121.284 217.726L120.437 216.397L119.601 215.079L118.765 213.761L117.918 212.442L117.114 211.124L116.289 209.806L115.485 208.498L114.874 207.501C114.563 207.019 114.059 206.697 113.47 206.622C111.905 206.44 110.801 208.166 111.616 209.506L112.238 210.503L113.053 211.832L113.878 213.161L114.714 214.479L115.539 215.808L116.386 217.137L117.243 218.466L118.079 219.784L118.936 221.124L119.804 222.453L120.672 223.782L121.787 225.466C122.58 226.666 124.349 226.559 125.035 225.305C125.368 224.673 125.335 223.965 124.96 223.365L123.856 221.692ZM73.5731 122.401L73.1771 121.233L72.7801 120.097L72.4151 118.95L72.0291 117.814L71.6861 116.678L71.3221 115.542L70.9571 114.406L70.6141 113.281L70.2821 112.156L69.9391 111.031L69.6061 109.916L69.2841 108.802L68.9841 107.698L68.6631 106.594L68.2981 105.264C68.1701 104.782 67.8691 104.374 67.4511 104.128C65.9931 103.26 64.2031 104.61 64.6321 106.261L65.0071 107.644L65.3281 108.759L65.6391 109.863L65.9611 111.01L66.3041 112.146L66.6361 113.282L66.9791 114.407L67.3441 115.565L67.6981 116.712L68.0521 117.848L68.4381 119.016L68.8131 120.174L69.1881 121.331L69.5841 122.5L69.9701 123.646L70.2381 124.428C70.4101 124.857 70.6561 125.19 71.0531 125.425C72.5641 126.336 74.4081 124.846 73.8401 123.174L73.5731 122.401ZM64.0761 86.395L63.9041 85.398L63.7331 84.38L63.5621 83.372L63.4011 82.375L63.2621 81.367L63.1231 80.381L62.9831 79.384L62.8551 78.398L62.7481 77.422L62.6301 76.446L62.5231 75.47L62.4271 74.506L62.3301 73.552L62.2451 72.588L62.1591 71.645L62.0841 70.702L62.0201 69.769L61.9561 68.836L61.9451 68.429C61.9131 67.968 61.7311 67.561 61.4201 67.228C60.1871 65.984 58.0541 66.917 58.1511 68.664L58.1721 69.103L58.2361 70.046L58.3001 71.022L58.3851 71.998L58.4491 72.974L58.5461 73.95L58.6431 74.925L58.7391 75.911L58.8461 76.919L58.9751 77.895L59.0821 78.924L59.2101 79.921L59.3601 80.928L59.5211 81.947L59.6601 82.966L59.8211 83.984L59.9711 85.024L60.1531 86.064L60.3241 87.093L60.4421 87.672C60.5271 88.208 60.8381 88.658 61.2991 88.958C62.7031 89.784 64.4501 88.583 64.1821 86.975L64.0761 86.395ZM62.5101 48.922L62.6171 48.118L62.7461 47.335L62.8641 46.542L62.9821 45.781L63.1221 44.998L63.2721 44.237L63.4111 43.476L63.5831 42.736L63.7441 41.986L63.9151 41.247L64.0981 40.518L64.2901 39.8L64.4731 39.071L64.6661 38.353L64.8801 37.657L65.0941 36.96L65.3191 36.264L65.5551 35.588L65.7801 34.892L66.0271 34.227L66.2741 33.563L66.5201 32.887L66.7781 32.244L66.8961 32.019C67.0781 31.569 67.1001 31.086 66.9391 30.636C66.3601 29.007 64.0991 28.975 63.4011 30.55L63.2831 30.84L62.9931 31.536L62.7251 32.233L62.4561 32.941L62.1991 33.659L61.9421 34.377L61.6951 35.116L61.4811 35.856L61.2341 36.606L61.0201 37.356L60.8161 38.107L60.6121 38.868L60.4191 39.629L60.2151 40.401L60.0541 41.194L59.8611 41.976L59.7111 42.759L59.5511 43.552L59.4011 44.356L59.2511 45.17L59.1121 45.984L58.9721 46.81L58.8541 47.625L58.7581 48.472L58.6401 49.426C58.5651 49.994 58.7581 50.551 59.1541 50.958C60.2691 52.095 62.1981 51.419 62.3911 49.854L62.5101 48.922ZM77.0781 16.818L77.5501 16.368L78.0321 15.929L78.5141 15.5L79.0181 15.071L79.5111 14.653L80.0141 14.257L80.5291 13.839L81.0541 13.453L81.5791 13.078L82.1151 12.714L82.6401 12.339L83.1971 11.985L83.7331 11.631L84.2901 11.277L84.8581 10.966L85.4261 10.633L86.0051 10.322L86.5731 10.011L87.1521 9.732L87.7411 9.421L88.3411 9.142L88.9421 8.863L89.5641 8.606L90.1751 8.348L90.7971 8.102L91.4191 7.855L92.0411 7.62L92.3741 7.502C92.8341 7.352 93.1991 7.052 93.4351 6.623C94.2601 5.101 92.8241 3.364 91.1731 3.933L90.7981 4.062L90.1111 4.319L89.4361 4.566L88.7601 4.845L88.0961 5.123L87.4421 5.402L86.7781 5.723L86.1241 6.023L85.4921 6.323L84.8601 6.667L84.2271 6.988L83.5951 7.331L82.9731 7.685L82.3621 8.06L81.7511 8.424L81.1501 8.799L80.5611 9.196L79.9721 9.592L79.3821 9.989L78.8141 10.439L78.2461 10.857L77.6781 11.296L77.1311 11.746L76.5841 12.185L76.0381 12.667L75.5021 13.141L74.9881 13.613L74.4631 14.106L74.3451 14.213C74.0451 14.503 73.8411 14.878 73.7981 15.296C73.4981 17.075 75.6311 18.169 76.9601 16.936L77.0781 16.818ZM111.175 4.427L111.946 4.416L112.739 4.427L113.543 4.438L114.336 4.449L115.14 4.492L115.955 4.524L116.759 4.556L117.585 4.61L118.399 4.674L119.224 4.738L120.049 4.813L120.885 4.899L121.732 4.985L122.568 5.092L123.415 5.188L124.283 5.295L125.151 5.413L126.008 5.552L126.865 5.691L127.744 5.831L128.623 5.981L128.923 6.045C129.48 6.142 129.995 6.013 130.445 5.659C131.731 4.652 131.238 2.615 129.641 2.315L129.32 2.262L128.409 2.101L127.509 1.951L126.619 1.802L125.719 1.684L124.829 1.555L123.939 1.427L123.06 1.32L122.192 1.223L121.313 1.126L120.445 1.04L119.566 0.954998L118.719 0.890999L117.862 0.836998L117.015 0.782997L116.168 0.750996L115.321 0.696999L114.485 0.664997L113.638 0.643997L112.812 0.632996L111.998 0.643997H111.162L110.422 0.675999C109.04 0.675999 108.139 2.08 108.696 3.345C109.018 4.021 109.671 4.449 110.432 4.449L111.175 4.427ZM147.953 10.965L148.939 11.298L149.893 11.63L150.869 11.951L151.844 12.294L152.809 12.637L153.806 13.012L154.771 13.366L155.768 13.741L156.754 14.127L157.751 14.513L158.748 14.899L159.745 15.306L160.753 15.713L161.76 16.131L162.767 16.56L163.786 16.989L164.525 17.3C164.954 17.493 165.447 17.504 165.897 17.354C167.527 16.743 167.623 14.514 166.047 13.816L165.318 13.516L164.278 13.066L163.249 12.637L162.231 12.219L161.213 11.801L160.184 11.383L159.176 10.987L158.157 10.59L157.15 10.204L156.153 9.829L155.145 9.443L154.137 9.079L153.13 8.725L152.144 8.382L151.158 8.028L150.161 7.696L149.196 7.374L148.22 7.063C147.159 6.699 146.012 7.353 145.766 8.446C145.562 9.411 146.077 10.354 147.009 10.665L147.953 10.965ZM182.522 25.972L183.583 26.529L184.645 27.108L185.717 27.687L186.8 28.276L187.872 28.877L188.955 29.478L190.027 30.067L191.121 30.689L192.203 31.321L193.286 31.932L194.379 32.586L195.462 33.218L196.577 33.872L197.777 34.59C198.924 35.287 200.424 34.611 200.661 33.282C200.779 32.511 200.446 31.761 199.782 31.353L198.528 30.613L197.424 29.959L196.32 29.305L195.227 28.662L194.123 28.03L193.019 27.397L191.926 26.776L190.843 26.165L189.75 25.554L188.646 24.954L187.563 24.353L186.48 23.785L185.408 23.196L184.337 22.617L183.211 22.038C181.957 21.384 180.445 22.295 180.413 23.71C180.424 24.428 180.81 25.071 181.432 25.404L182.522 25.972ZM214.304 45.137L215.429 45.898L216.555 46.659L217.691 47.441L218.817 48.213L219.942 48.985L221.079 49.789L222.215 50.593L223.33 51.397L224.466 52.201L225.613 53.027L226.749 53.852L227.896 54.688L229.01 55.502C229.396 55.792 229.878 55.92 230.371 55.845C232.054 55.62 232.633 53.455 231.271 52.436L230.146 51.622L228.999 50.786L227.853 49.95L226.716 49.124L225.57 48.31L224.412 47.496L223.287 46.692L222.14 45.877L220.994 45.094L219.857 44.312L218.721 43.53L217.584 42.769L216.459 41.997L215.783 41.536C215.301 41.215 214.722 41.129 214.165 41.3C212.632 41.772 212.321 43.776 213.629 44.676L214.304 45.137ZM245.079 67.851L246.236 68.805L247.394 69.738L248.54 70.681L249.698 71.624L250.855 72.578L252.024 73.521L253.16 74.497L254.328 75.451L255.475 76.437L256.643 77.413L258.412 78.925C259.474 79.825 261.102 79.321 261.477 77.96C261.67 77.273 261.435 76.513 260.899 76.052L259.12 74.53L257.94 73.533L256.783 72.558L255.614 71.572L254.457 70.607L253.3 69.631L252.12 68.677L250.963 67.734L249.784 66.78L248.626 65.847L247.489 64.904L246.3 63.972C245.871 63.618 245.303 63.5 244.767 63.597C243.17 63.919 242.666 65.944 243.909 66.952L245.079 67.851ZM274.031 92.816L275.199 93.899L276.357 94.981L277.503 96.064L278.661 97.147L279.818 98.24L280.987 99.334L282.144 100.438L283.313 101.564L284.459 102.678L286.142 104.308C286.506 104.662 286.967 104.854 287.471 104.854C289.155 104.833 290.023 102.774 288.822 101.585L287.118 99.944L285.939 98.83L284.792 97.704L283.613 96.59L282.455 95.475L281.287 94.382L280.13 93.289L278.961 92.196L277.793 91.113L276.624 90.03L275.07 88.604C274.019 87.64 272.326 88.143 271.94 89.515C271.747 90.191 271.961 90.919 272.475 91.391L274.031 92.816ZM300.624 118.874L301.771 120.064L302.917 121.264L304.054 122.476L305.211 123.687L306.348 124.909L307.505 126.131L308.642 127.353L309.788 128.585L310.914 129.818L312.318 131.329C313.218 132.326 314.826 132.069 315.426 130.879C315.769 130.172 315.64 129.336 315.136 128.768L313.732 127.246L312.564 125.992L311.427 124.749L310.281 123.526L309.135 122.294L307.977 121.072L306.831 119.861L305.684 118.639L304.527 117.439L303.369 116.228L302.18 114.984C301.194 113.987 299.511 114.373 299.007 115.681C298.781 116.367 298.921 117.106 299.425 117.631L300.624 118.874ZM325.643 146.347L326.769 147.655L327.883 148.973L328.998 150.281L330.123 151.61L331.217 152.928L332.353 154.257L333.457 155.576L334.55 156.905L335.654 158.223L336.929 159.777C337.208 160.142 337.594 160.356 338.055 160.442C339.791 160.731 340.959 158.727 339.867 157.387L338.591 155.811L337.487 154.471L336.372 153.142L335.268 151.802L334.153 150.473L333.028 149.155L331.902 147.815L330.788 146.497L329.651 145.179L328.526 143.86L327.712 142.906C327.316 142.488 326.812 142.252 326.243 142.252C324.645 142.263 323.756 144.171 324.806 145.382L325.643 146.347ZM349.418 175.514L350.437 176.843L351.455 178.194L352.474 179.512L353.482 180.852L354.467 182.17L355.475 183.51L356.472 184.85L357.448 186.168L358.445 187.508L359.399 188.838L359.924 189.546C360.706 190.629 362.303 190.564 363.043 189.471C363.482 188.796 363.472 187.949 363 187.317L362.485 186.577L361.509 185.248L360.523 183.908L359.505 182.568L358.529 181.228L357.532 179.888L356.503 178.548L355.495 177.208L354.487 175.868L353.459 174.517L352.43 173.188L351.648 172.191C351.359 171.784 350.898 171.537 350.394 171.462C348.721 171.258 347.618 173.166 348.646 174.506L349.418 175.514ZM371.618 206.138L372.529 207.467L373.419 208.786L374.309 210.115L375.188 211.444L376.078 212.783L376.946 214.102L377.825 215.431L378.682 216.739L379.539 218.068L380.387 219.397L381.148 220.587C381.898 221.744 383.581 221.755 384.342 220.597C384.749 219.954 384.771 219.183 384.374 218.529L383.58 217.307L382.733 215.999L381.876 214.659L380.997 213.319L380.129 212L379.25 210.66L378.36 209.331L377.47 207.991L376.58 206.673L375.669 205.333L374.747 203.993L373.922 202.761C373.311 201.861 372.068 201.678 371.189 202.332C370.396 202.953 370.213 204.079 370.782 204.904L371.618 206.138ZM391.726 237.782L392.488 239.079L393.249 240.397L394.021 241.694L394.76 242.991L395.499 244.288L396.239 245.596L396.978 246.882L397.707 248.179L398.426 249.477L399.155 250.763L399.863 252.049L400.345 252.928C400.709 253.615 401.427 253.968 402.209 253.893C403.56 253.743 404.311 252.285 403.678 251.084L403.196 250.194L402.467 248.919L401.759 247.611L401.02 246.303L400.291 244.994L399.552 243.697L398.802 242.389L398.073 241.081L397.302 239.773L396.541 238.455L395.78 237.147L395.008 235.829L394.301 234.649C393.905 233.985 393.175 233.641 392.414 233.739C391.063 233.953 390.356 235.432 391.031 236.6L391.726 237.782ZM409.799 271.15L410.42 272.404L411.021 273.669L411.632 274.923L412.232 276.167L412.833 277.41L413.401 278.664L413.99 279.897L414.548 281.14L415.127 282.383L415.685 283.615L416.231 284.848L417.014 286.606C417.571 287.828 419.147 288.107 420.112 287.142C420.659 286.584 420.809 285.77 420.498 285.051L420.251 284.515L419.716 283.283L419.148 282.029L418.58 280.786L418.002 279.543L417.423 278.288L416.844 277.023L416.266 275.78L415.655 274.504L415.054 273.25L414.453 271.985L413.843 270.72L413.221 269.455L412.439 267.89C412.192 267.418 411.806 267.086 411.292 266.925C409.706 266.475 408.313 268.114 409.03 269.615L409.799 271.15ZM424.72 305.376L425.159 306.545L425.609 307.734L426.048 308.892L426.455 310.071L426.884 311.229L427.28 312.397L427.709 313.565L428.095 314.723L428.492 315.869L428.877 317.016L429.242 318.162L429.628 319.299L429.992 320.435L430.378 321.689C430.796 322.998 432.426 323.426 433.455 322.515C434.012 322.011 434.226 321.24 434.012 320.532L433.605 319.257L433.241 318.11L432.866 316.942L432.48 315.796L432.094 314.638L431.686 313.459L431.279 312.29L430.883 311.111L430.465 309.932L430.036 308.763L429.607 307.584L429.168 306.383L428.739 305.204L428.278 303.992L427.753 302.589C427.55 302.064 427.11 301.646 426.564 301.485C425.063 300.981 423.626 302.482 424.206 303.962L424.72 305.376ZM435.471 340.278L435.718 341.349L435.953 342.411L436.188 343.45L436.403 344.501L436.618 345.552L436.832 346.592L437.036 347.631L437.228 348.66L437.421 349.679L437.603 350.708L437.786 351.726L437.936 352.745L438.107 353.742L438.268 354.75L438.407 355.746L438.536 356.754L438.676 357.74L438.74 358.169C438.911 359.487 440.347 360.206 441.516 359.573C442.223 359.187 442.609 358.447 442.502 357.654L442.448 357.193L442.298 356.175L442.158 355.178L442.019 354.138L441.847 353.119L441.686 352.091L441.504 351.062L441.332 350.022L441.14 348.982L440.968 347.932L440.765 346.881L440.55 345.819L440.335 344.758L440.121 343.696L439.895 342.634L439.66 341.541L439.424 340.479L439.167 339.385L439.049 338.881C438.888 338.238 438.47 337.756 437.86 337.531C436.434 337.038 435.03 338.302 435.351 339.76L435.471 340.278ZM439.93 377.312L439.909 378.169L439.888 379.037L439.846 379.905L439.803 380.762L439.77 381.599L439.717 382.466L439.653 383.292L439.599 384.128L439.524 384.953L439.438 385.767L439.342 386.571L439.256 387.386L439.149 388.2L439.042 388.982L438.935 389.765L438.829 390.569L438.679 391.34L438.539 392.101L438.41 392.863L438.25 393.624L438.1 394.374L437.918 395.168C437.8 395.703 437.886 396.25 438.207 396.689C439.15 398.029 441.219 397.611 441.615 396.025L441.808 395.146L441.969 394.341L442.13 393.537L442.269 392.733L442.419 391.94L442.558 391.126L442.687 390.3L442.805 389.464L442.923 388.65L443.019 387.814L443.116 386.966L443.213 386.12L443.299 385.263L443.374 384.405L443.449 383.537L443.502 382.669L443.556 381.779L443.61 380.922L443.642 380.022L443.674 379.132L443.695 378.232L443.727 377.332V376.796C443.727 376.271 443.534 375.799 443.18 375.435C442.001 374.267 439.953 375.103 439.921 376.775L439.93 377.312ZM430.819 412.728L430.423 413.286L430.069 413.833L429.694 414.357L429.308 414.904L428.921 415.429L428.525 415.944L428.118 416.458L427.679 416.974L427.283 417.456L426.854 417.948L426.415 418.441L425.965 418.902L425.526 419.384L425.054 419.834L424.593 420.284L424.132 420.745L423.639 421.184L423.146 421.613L422.664 422.031L422.15 422.461L421.656 422.857L421.142 423.253L420.617 423.639L420.092 424.035L419.545 424.421L419.02 424.775L418.528 425.097C418.163 425.322 417.895 425.686 417.756 426.104C417.188 427.808 419.053 429.234 420.575 428.281L421.1 427.906L421.7 427.519L422.29 427.101L422.869 426.683L423.436 426.265L423.983 425.826L424.551 425.387L425.098 424.915L425.645 424.443L426.17 423.982L426.705 423.5L427.209 423.018L427.724 422.514L428.228 422.021L428.721 421.485L429.203 420.982L429.675 420.446L430.157 419.91L430.607 419.363L431.057 418.817L431.507 418.259L431.936 417.701L432.375 417.111L432.782 416.543L433.178 415.943L433.596 415.342L433.992 414.753L434.346 414.185C434.625 413.767 434.722 413.252 434.615 412.748C434.261 411.118 432.085 410.743 431.163 412.158L430.819 412.728ZM400.902 431.755L400.195 431.884L399.488 431.991L398.759 432.097L398.03 432.183L397.312 432.269L396.562 432.344L395.833 432.418L395.083 432.482L394.333 432.546L393.571 432.578L392.81 432.621L392.049 432.642L391.266 432.663L390.484 432.674L389.713 432.695L388.942 432.684L388.127 432.673L387.323 432.652L386.541 432.631L385.716 432.588L384.912 432.545L384.097 432.491L383.186 432.437C382.736 432.394 382.264 432.523 381.9 432.791C380.485 433.842 381.086 436.072 382.822 436.211L383.819 436.275L384.655 436.329L385.491 436.383L386.348 436.414L387.184 436.435L388.021 436.468L388.857 436.478H389.693L390.507 436.468L391.322 436.447L392.136 436.426L392.94 436.405L393.754 436.362L394.536 436.319L395.341 436.265L396.134 436.19L396.905 436.126L397.687 436.04L398.469 435.955L399.231 435.837L399.992 435.74L400.753 435.622L401.515 435.494L402.222 435.365C403.83 435.065 404.376 433.071 403.133 432.042C402.715 431.678 402.157 431.538 401.612 431.635L400.902 431.755ZM364.06 429.182L363.138 428.935L362.216 428.7L361.284 428.442L360.351 428.174L359.397 427.906L358.464 427.627L357.521 427.359L356.578 427.069L355.624 426.769L354.67 426.458L353.694 426.146L352.741 425.825L351.776 425.504L350.811 425.161L349.835 424.828L348.849 424.464L347.863 424.11L346.984 423.778C346.523 423.617 346.041 423.617 345.58 423.809C344.005 424.496 344.026 426.714 345.612 427.326L346.534 427.669L347.52 428.033L348.528 428.376L349.524 428.741L350.51 429.084L351.507 429.405L352.483 429.737L353.469 430.059L354.434 430.38L355.409 430.691L356.386 430.991L357.35 431.26L358.315 431.549L359.28 431.828L360.234 432.096L361.188 432.353L362.131 432.611L363.095 432.857L363.867 433.029C365.239 433.372 366.482 432.172 366.204 430.789C366.054 430.092 365.528 429.567 364.832 429.363L364.06 429.182ZM328.623 415.923L327.573 415.419L326.544 414.915L325.494 414.4L324.432 413.853L323.381 413.338L322.331 412.803L321.269 412.245L320.197 411.698L319.135 411.14L318.074 410.572L317.012 409.994L315.95 409.436L314.879 408.835L313.785 408.235L313.067 407.839C311.909 407.195 310.483 407.892 310.258 409.19C310.118 409.994 310.494 410.765 311.18 411.14L311.93 411.558L313.013 412.159L314.096 412.749L315.178 413.35L316.272 413.928L317.344 414.486L318.415 415.065L319.487 415.612L320.558 416.169L321.63 416.727L322.702 417.263L323.773 417.788L324.845 418.323L325.895 418.827L326.957 419.331L328.072 419.867C328.554 420.102 329.091 420.114 329.583 419.931C331.138 419.33 331.234 417.165 329.744 416.457L328.623 415.923ZM296.305 397.829L295.179 397.11L294.065 396.414L292.95 395.685L291.836 394.956L290.721 394.227L289.606 393.465L288.481 392.726L287.366 391.975L286.23 391.214L285.104 390.453L283.99 389.682L282.864 388.899L281.289 387.817C280.893 387.528 280.389 387.421 279.885 387.516C278.235 387.806 277.72 389.95 279.092 390.914L280.667 392.018L281.804 392.801L282.95 393.594L284.076 394.355L285.222 395.117L286.359 395.888L287.473 396.638L288.61 397.389L289.746 398.118L290.861 398.847L291.986 399.587L293.123 400.305L294.237 401.013L294.891 401.442C295.427 401.785 296.091 401.828 296.692 401.56C298.064 400.927 298.214 399.03 296.938 398.237L296.305 397.829ZM264.641 375.565L263.483 374.686L262.347 373.786L261.189 372.907L260.043 371.996L258.896 371.085L257.75 370.174L256.591 369.241L255.444 368.319L254.287 367.376L253.118 366.443L251.403 365.039C250.352 364.171 248.799 364.653 248.381 365.95C248.155 366.689 248.369 367.462 248.981 367.954L250.707 369.38L251.876 370.334L253.033 371.277L254.202 372.21L255.359 373.132L256.516 374.054L257.685 374.987L258.832 375.887L259.989 376.787L261.157 377.698L262.304 378.577L263.816 379.735C264.201 380.046 264.662 380.153 265.156 380.11C266.86 379.917 267.492 377.773 266.131 376.722L264.641 375.565ZM235.763 351.639L234.584 350.6L233.458 349.56L232.279 348.52L231.121 347.47L229.963 346.419L228.795 345.357L227.637 344.275L226.48 343.213L225.311 342.142L224.154 341.048L223.2 340.158C222.45 339.45 221.281 339.471 220.553 340.233C219.803 340.972 219.813 342.215 220.596 342.923L221.55 343.834L222.708 344.916L223.876 345.999L225.055 347.082L226.212 348.164L227.37 349.226L228.549 350.276L229.717 351.338L230.885 352.4L232.053 353.439L233.211 354.479L234.572 355.669C235.601 356.579 237.23 356.119 237.648 354.79C237.863 354.071 237.648 353.332 237.101 352.828L235.763 351.639ZM207.958 325.325L206.811 324.145L205.643 322.977L204.506 321.808L203.349 320.619L202.191 319.44L201.034 318.239L199.908 317.05L198.762 315.861L197.604 314.649L196.597 313.578C196.189 313.139 195.611 312.945 195.01 312.999C193.467 313.191 192.759 315.046 193.821 316.183L194.85 317.265L195.997 318.477L197.144 319.677L198.302 320.877L199.47 322.078L200.617 323.267L201.774 324.468L202.943 325.647L204.089 326.826L205.247 327.995L207.016 329.753C207.359 330.096 207.841 330.299 208.334 330.299C210.017 330.311 210.896 328.274 209.706 327.063L207.958 325.325Z" fill="white"/>
<path d="M307.646 309.911C308.053 309.642 308.321 309.257 308.45 308.839C308.868 308.925 309.34 308.85 309.747 308.581L310.583 308.056L312.052 307.134L313.51 306.202L314.957 305.269L316.414 304.336L317.872 303.403L319.319 302.46L320.745 301.527L322.192 300.605L323.617 299.64L325.622 298.311C326.522 297.71 326.726 296.478 326.083 295.61C325.473 294.796 324.347 294.581 323.521 295.138L321.527 296.467L320.091 297.41L318.675 298.353L317.239 299.275L315.792 300.197L314.355 301.13L312.908 302.052L311.471 302.995L310.024 303.917L308.556 304.828L307.72 305.352C307.334 305.599 307.044 305.974 306.926 306.392C306.477 306.329 306.016 306.413 305.629 306.661L304.16 307.583L302.671 308.483L301.224 309.383L299.745 310.294L298.266 311.184L296.797 312.063L295.328 312.931L293.859 313.821L292.402 314.689L290.923 315.557L289.519 316.382C288.854 316.758 288.5 317.519 288.608 318.258C288.79 319.609 290.28 320.348 291.448 319.673L292.852 318.837L294.331 317.958L295.81 317.09L297.279 316.211L298.769 315.32L300.248 314.431L301.717 313.531L303.207 312.64L304.686 311.73L306.165 310.818L307.646 309.911ZM425.117 228.68C422.523 230.288 419.511 230.696 416.734 230.041C415.351 229.709 414.033 229.119 412.843 228.283L411.846 229.248L410.806 230.267L409.756 231.286L408.705 232.304L407.643 233.312L406.572 234.331L405.489 235.35L404.407 236.358L403.324 237.376L402.241 238.405L401.148 239.413L400.215 240.249C399.121 241.246 397.385 240.656 397.074 239.188C396.956 238.555 397.16 237.879 397.642 237.44L398.564 236.593L399.646 235.585L400.75 234.566L401.812 233.581L402.895 232.573L403.956 231.565L405.018 230.546L406.069 229.528L407.131 228.531L408.17 227.523L409.199 226.515L410.153 225.573C410.024 225.401 409.918 225.219 409.81 225.048C408.169 222.421 407.741 219.377 408.373 216.601C409.005 213.825 410.699 211.295 413.293 209.687C415.887 208.068 418.899 207.661 421.675 208.326C422.972 208.637 424.216 209.183 425.341 209.934L425.845 209.409L426.767 208.401L427.678 207.404L428.578 206.397L429.478 205.4L430.368 204.403L431.258 203.406L432.138 202.399L433.017 201.402L433.884 200.405L434.742 199.397L435.589 198.411L436.436 197.425L436.832 196.953C437.218 196.503 437.754 196.267 438.333 196.278C439.94 196.375 440.755 198.208 439.737 199.419L439.329 199.891L438.472 200.91L437.615 201.896L436.747 202.914L435.868 203.911L434.989 204.93L434.099 205.938L433.199 206.945L432.299 207.963L431.399 208.971L430.477 209.979L429.555 210.997L428.622 212.004L428.097 212.583C428.28 212.819 428.451 213.076 428.612 213.344C430.241 215.949 430.671 218.983 430.038 221.759C429.404 224.544 427.71 227.073 425.117 228.68ZM417.57 226.355C419.392 226.773 421.386 226.515 423.101 225.444C424.816 224.382 425.92 222.711 426.349 220.899C426.756 219.055 426.489 217.061 425.406 215.325C424.334 213.599 422.662 212.473 420.829 212.034C419.007 211.595 417.014 211.852 415.299 212.924C413.594 213.996 412.48 215.657 412.062 217.49C411.643 219.323 411.933 221.306 413.004 223.053C414.086 224.768 415.738 225.916 417.57 226.355ZM339.021 284.495C338.463 284.892 338.152 285.589 338.249 286.286C338.442 287.7 340.061 288.43 341.229 287.615L343.126 286.254L344.477 285.278L345.838 284.313L347.189 283.337L348.54 282.372L349.869 281.386L351.198 280.41L352.516 279.435L353.845 278.449L355.163 277.463L356.514 276.455C357.093 276.016 357.371 275.276 357.21 274.537C356.91 273.197 355.314 272.586 354.209 273.411L352.88 274.408L351.572 275.394L350.264 276.369L348.946 277.334L347.617 278.31L346.298 279.286L344.958 280.251L343.618 281.216L342.278 282.191L340.917 283.146L339.021 284.495ZM369.078 261.878C368.541 262.329 368.295 263.004 368.413 263.7C368.681 265.115 370.342 265.759 371.457 264.858L373.033 263.604L374.265 262.596L375.497 261.599L376.72 260.591L377.942 259.594L379.153 258.598L380.365 257.59L381.576 256.571L382.776 255.574L383.966 254.566L385.145 253.559L386.045 252.798C387.235 251.779 386.71 249.796 385.166 249.475C384.587 249.368 384.009 249.529 383.569 249.893L382.669 250.654L381.5 251.64L380.311 252.648L379.131 253.644L377.931 254.641L376.73 255.649L375.519 256.635L374.308 257.643L373.097 258.628L371.874 259.625L370.642 260.622L369.078 261.878ZM448.559 182.289C447.509 183.704 448.795 185.686 450.521 185.29C450.96 185.194 451.314 184.947 451.603 184.594L452.085 183.929L452.825 182.943L453.554 181.967L454.273 180.981L454.991 179.995L455.699 179.009L456.395 178.023L457.091 177.048L457.788 176.062L458.452 175.087L459.128 174.111L459.804 173.135L460.457 172.149L461.101 171.195L461.744 170.231L462.527 169.03C463.437 167.604 462.151 165.76 460.501 166.136C460.029 166.243 459.622 166.532 459.344 166.961L458.582 168.097L457.949 169.062L457.306 170.016L456.673 170.981L456.009 171.945L455.333 172.91L454.68 173.864L454.004 174.839L453.318 175.804L452.61 176.769L451.924 177.745L451.216 178.71L450.509 179.674L449.791 180.65L449.051 181.636L448.559 182.289ZM468.894 150.828C468.132 152.275 469.429 153.947 471.027 153.583C471.552 153.455 471.992 153.111 472.249 152.629L472.527 152.125L473.009 151.182L473.502 150.26L473.963 149.317L474.424 148.406L474.874 147.463L475.346 146.563L475.785 145.631L476.224 144.73L476.642 143.787L477.06 142.897L477.479 141.975L477.885 141.064L478.261 140.164L478.657 139.264L479.021 138.353L479.407 137.453L479.761 136.553L480.115 135.674L480.264 135.267C480.897 133.627 479.15 132.073 477.606 132.888C477.199 133.102 476.91 133.445 476.727 133.874L476.587 134.249L476.244 135.106L475.901 135.996L475.526 136.875L475.161 137.743L474.786 138.633L474.4 139.512L474.014 140.402L473.618 141.292L473.2 142.171L472.793 143.071L472.364 143.971L471.925 144.882L471.486 145.782L471.056 146.682L470.585 147.582L470.113 148.504L469.641 149.404L469.169 150.315L468.894 150.828ZM482.025 116.045C481.724 117.61 483.353 118.843 484.757 118.103C485.272 117.835 485.614 117.374 485.722 116.806L485.905 115.852L486.066 115.027L486.215 114.213L486.333 113.377L486.451 112.562L486.557 111.747L486.664 110.933L486.75 110.14L486.847 109.336L486.922 108.532L486.996 107.739L487.05 106.935L487.093 106.142L487.147 105.359L487.168 104.576L487.2 103.805V103.012L487.211 102.251V101.48L487.19 100.709L487.158 99.947L487.126 99.186L487.083 98.436L487.03 97.696L486.997 97.385C486.837 95.659 484.671 95.005 483.621 96.366C483.321 96.752 483.192 97.213 483.235 97.706L483.267 97.953L483.309 98.649L483.342 99.357L483.385 100.064L483.406 100.772L483.416 101.501V102.219V102.959V103.677L483.395 104.417L483.364 105.157L483.321 105.896L483.278 106.657L483.224 107.407L483.16 108.146L483.074 108.918L483.01 109.668L482.913 110.439L482.817 111.211L482.72 111.994L482.58 112.755L482.463 113.548L482.345 114.341L482.195 115.124L482.025 116.045ZM478.294 80.243C479.173 81.84 481.542 81.454 481.82 79.664C481.895 79.257 481.82 78.839 481.627 78.453L481.542 78.324L481.198 77.702L480.855 77.081L480.491 76.47L480.126 75.848L479.73 75.248L479.344 74.669L478.948 74.069L478.53 73.49L478.123 72.9L477.694 72.342L477.255 71.785L476.805 71.217L476.366 70.67L475.884 70.134L475.423 69.598L474.941 69.073L474.448 68.548L473.955 68.045L473.451 67.53L472.937 67.048L472.421 66.555L471.875 66.062L471.339 65.59L470.781 65.118L470.235 64.636L469.667 64.197L469.099 63.747L468.778 63.501C467.384 62.461 465.476 63.672 465.798 65.366C465.884 65.848 466.141 66.245 466.527 66.534L466.816 66.738L467.331 67.156L467.856 67.585L468.371 68.014L468.875 68.443L469.378 68.893L469.86 69.332L470.342 69.782L470.824 70.254L471.274 70.704L471.724 71.176L472.174 71.648L472.624 72.141L473.053 72.612L473.482 73.116L473.889 73.62L474.307 74.123L474.694 74.638L475.09 75.153L475.465 75.678L475.851 76.203L476.215 76.76L476.58 77.296L476.923 77.843L477.266 78.411L477.587 78.968L477.908 79.525L478.22 80.104L478.294 80.243ZM450.285 58.054C451.014 58.3 451.764 58.096 452.279 57.55C453.201 56.521 452.772 54.913 451.454 54.463L450.767 54.206L449.974 53.96L449.192 53.702L448.41 53.456L447.605 53.22L446.791 52.995L445.977 52.769L445.163 52.544L444.337 52.34L443.491 52.126L442.676 51.933L441.808 51.73L440.961 51.558L440.104 51.376L439.247 51.205L438.368 51.033L437.488 50.872L436.599 50.722L435.708 50.572L434.819 50.433L433.907 50.294L432.985 50.165L432.664 50.111C431.057 49.918 429.974 51.709 430.874 53.059C431.196 53.531 431.657 53.809 432.214 53.884L432.515 53.927L433.394 54.055L434.284 54.194L435.131 54.312L435.988 54.451L436.856 54.601L437.713 54.762L438.549 54.923L439.374 55.084L440.2 55.267L441.036 55.449L441.84 55.631L442.644 55.813L443.449 56.027L444.242 56.22L445.024 56.434L445.806 56.649L446.577 56.863L447.339 57.089L448.1 57.335L448.861 57.571L449.59 57.817L450.285 58.054ZM413.593 52.716C414.558 52.705 415.351 51.966 415.447 50.99C415.544 49.876 414.654 48.911 413.528 48.911H412.51L411.491 48.922L410.451 48.933L409.4 48.965L408.339 48.986L407.288 49.018L406.206 49.061L405.134 49.115L404.072 49.157L403.001 49.221L401.907 49.285L400.813 49.349L399.709 49.424L398.615 49.509L397.522 49.594L396.396 49.691L395.292 49.788L394.487 49.863C392.772 50.034 392.182 52.189 393.544 53.26C393.931 53.55 394.392 53.689 394.874 53.635L395.656 53.56L396.77 53.475L397.864 53.378L398.946 53.292L400.018 53.217L401.101 53.132L402.172 53.079L403.234 53.004L404.296 52.94L405.357 52.897L406.386 52.854L407.448 52.811L408.476 52.779L409.505 52.758L410.534 52.748L411.553 52.727L412.581 52.716H413.593V52.716ZM376.29 56.146C376.987 56.028 377.556 55.535 377.769 54.849C378.187 53.488 377.03 52.159 375.636 52.394L374.393 52.598L373.192 52.823L371.981 53.049L370.781 53.263L369.569 53.489L368.326 53.724L367.104 53.971L365.881 54.228L364.649 54.485L363.417 54.742L362.163 54.999L360.919 55.267L359.676 55.556L358.422 55.835L356.996 56.157C356.246 56.35 355.71 56.95 355.57 57.722C355.399 59.062 356.61 60.166 357.907 59.855L359.279 59.544L360.533 59.265L361.766 58.997L363.009 58.707L364.22 58.461L365.442 58.193L366.675 57.946L367.886 57.699L369.097 57.463L370.298 57.227L371.498 57.002L372.699 56.766L373.899 56.552L375.078 56.359L376.29 56.146ZM339.717 64.571C341.239 64.121 341.561 62.117 340.253 61.195C339.771 60.862 339.202 60.766 338.646 60.926L337.863 61.141L336.545 61.537L335.227 61.912L333.909 62.308L332.591 62.705L331.262 63.101L329.922 63.509L328.593 63.927L327.242 64.356L325.901 64.774L324.573 65.203L323.221 65.653L321.871 66.092L320.553 66.531C318.934 67.067 318.826 69.307 320.36 70.047C320.81 70.262 321.303 70.294 321.764 70.133L323.072 69.694L324.412 69.265L325.752 68.826L327.092 68.397L328.421 67.979L329.729 67.561L331.069 67.143L332.387 66.725L333.706 66.339L335.013 65.942L336.331 65.556L337.64 65.181L338.937 64.795L339.717 64.571ZM304.055 76.437C305.556 75.869 305.684 73.779 304.28 72.986C303.787 72.728 303.209 72.664 302.694 72.868L301.29 73.393L299.907 73.94L298.513 74.465L297.109 75.011L295.715 75.558L294.3 76.105L292.896 76.673L291.492 77.241L290.078 77.809L288.674 78.377L287.259 78.966L285.094 79.877C284.429 80.145 283.979 80.788 283.947 81.496C283.893 82.922 285.287 83.897 286.584 83.361L288.718 82.471L290.132 81.903L291.526 81.324L292.93 80.766L294.324 80.198L295.718 79.64L297.122 79.093L298.505 78.568L299.888 78.022L301.282 77.486L302.665 76.939L304.055 76.437ZM269.346 90.908C269.979 90.619 270.408 89.986 270.45 89.279C270.493 87.853 269.046 86.867 267.749 87.446L265.83 88.325L264.383 89L262.937 89.675L261.49 90.35L260.043 91.036L258.596 91.711L257.149 92.419L255.702 93.116L254.255 93.824L252.798 94.531L250.675 95.571C249.154 96.342 249.346 98.551 250.954 99.087C251.426 99.237 251.919 99.205 252.369 98.991L254.48 97.951L255.917 97.243L257.375 96.536L258.812 95.839L260.258 95.153L261.695 94.478L263.132 93.803L264.558 93.127L265.995 92.452L267.442 91.776L269.346 90.908ZM235.635 107.576C236.267 107.233 236.642 106.569 236.632 105.85C236.568 104.446 235.067 103.567 233.834 104.21L232.312 105.014L230.843 105.807L229.374 106.611L227.906 107.404L226.438 108.218L224.959 109.022L223.49 109.826L222.022 110.652L220.554 111.488L219.064 112.313L217.263 113.332C216.598 113.718 216.234 114.478 216.33 115.25C216.545 116.569 217.981 117.297 219.149 116.644L220.95 115.626L222.397 114.8L223.876 113.986L225.334 113.171L226.803 112.357L228.272 111.553L229.74 110.749L231.198 109.956L232.656 109.174L234.125 108.381L235.635 107.576ZM202.942 126.174C204.314 125.327 204.056 123.248 202.534 122.744C201.998 122.573 201.441 122.626 200.948 122.916L199.865 123.569L198.397 124.48L196.907 125.38L195.449 126.291L193.959 127.213L192.48 128.124L191.011 129.057L189.553 129.979L188.074 130.912L186.627 131.834L184.922 132.938C183.454 133.892 183.968 136.154 185.705 136.411C186.165 136.475 186.595 136.39 186.98 136.132L188.673 135.049L190.131 134.127L191.589 133.194L193.036 132.283L194.515 131.361L195.973 130.45L197.442 129.539L198.91 128.628L200.378 127.717L201.857 126.827L202.942 126.174ZM171.299 146.53C172.692 145.587 172.231 143.421 170.57 143.099C170.066 143.014 169.562 143.11 169.155 143.399L168.105 144.117L166.722 145.06L165.328 146.025L163.945 146.99L162.573 147.954L161.179 148.908L159.818 149.883L158.478 150.859L157.106 151.813L155.755 152.789L154.415 153.765L153.697 154.29C153.044 154.762 152.786 155.555 152.99 156.337C153.365 157.612 154.865 158.149 155.937 157.366L156.645 156.851L157.974 155.886L159.335 154.932L160.664 153.967L162.025 153.003L163.386 152.038L164.747 151.074L166.119 150.12L167.491 149.166L168.885 148.201L170.246 147.247L171.299 146.53ZM140.878 168.643C141.682 168.032 141.842 166.896 141.274 166.07C140.652 165.18 139.409 164.966 138.551 165.641L137.383 166.563L136.097 167.538L134.822 168.535L133.568 169.521L132.303 170.518L131.049 171.515L129.806 172.512L128.562 173.509L127.318 174.517L126.086 175.514L124.875 176.511L123.76 177.422C123.181 177.926 122.946 178.666 123.149 179.405C123.524 180.734 125.11 181.238 126.183 180.37L127.287 179.48L128.498 178.472L129.72 177.475L130.942 176.489L132.186 175.492L133.419 174.516L134.673 173.519L135.927 172.511L137.181 171.536L138.435 170.55L139.71 169.564L140.878 168.643ZM111.861 192.568C112.868 191.657 112.644 190.039 111.422 189.427C110.736 189.095 109.922 189.202 109.342 189.706L108.313 190.606L107.167 191.624L106.041 192.643L104.905 193.651L103.779 194.658L102.675 195.687L101.571 196.684L100.467 197.703L99.363 198.721L98.259 199.739L97.187 200.758L96.093 201.766L95.364 202.462C94.399 203.405 94.656 205.014 95.889 205.571C96.618 205.893 97.41 205.764 97.968 205.238L98.697 204.542L99.769 203.534L100.852 202.526L101.934 201.529L103.028 200.522L104.132 199.514L105.236 198.506L106.329 197.498L107.444 196.491L108.57 195.494L109.695 194.475L110.832 193.467L111.861 192.568ZM84.57 218.423C85.717 217.234 84.892 215.239 83.241 215.186C82.705 215.186 82.234 215.369 81.847 215.754L80.636 216.997L79.65 218.016L78.674 219.024L77.71 220.043L76.756 221.051L75.791 222.069L74.858 223.077L73.915 224.106L72.972 225.114L72.039 226.121L71.128 227.129L70.195 228.148L69.305 229.166L68.909 229.596C68.394 230.196 68.277 231.01 68.631 231.707C69.241 232.918 70.839 233.133 71.739 232.146L73.025 230.709L73.925 229.712L74.836 228.704L75.758 227.708L76.68 226.7L77.613 225.703L78.556 224.684L79.51 223.688L80.453 222.669L81.428 221.683L82.382 220.664L83.357 219.668L84.57 218.423ZM59.563 246.442C60.56 245.21 59.659 243.344 58.073 243.355C57.505 243.344 56.958 243.613 56.604 244.042L55.671 245.221L54.857 246.229L54.086 247.226L53.303 248.222L52.531 249.219L51.77 250.195L50.998 251.192L50.258 252.189L49.519 253.175L48.769 254.171L48.04 255.157L47.322 256.133L46.603 257.119L45.907 258.105L45.124 259.187C44.695 259.798 44.674 260.591 45.049 261.246C45.745 262.425 47.428 262.532 48.211 261.407L48.972 260.335L49.68 259.37L50.388 258.394L51.095 257.418L51.814 256.453L52.543 255.488L53.272 254.503L54.022 253.517L54.772 252.531L55.522 251.566L56.283 250.569L57.054 249.594L57.847 248.608L58.63 247.632L59.563 246.442ZM37.932 277.067C38.682 275.781 37.728 274.14 36.227 274.183C35.573 274.215 35.027 274.537 34.684 275.094L34.416 275.555L33.837 276.498L33.28 277.441L32.722 278.406L32.175 279.349L31.65 280.292L31.125 281.235L30.6 282.178L30.075 283.11L29.582 284.053L29.078 284.987L28.596 285.919L28.114 286.852L27.632 287.785L27.16 288.707L26.71 289.629L26.271 290.551L25.821 291.473L25.628 291.891C25.274 292.61 25.414 293.435 25.971 294.024C26.893 294.979 28.479 294.743 29.047 293.542L29.24 293.146L29.669 292.257L30.109 291.345L30.548 290.435L31.009 289.523L31.48 288.634L31.93 287.7L32.412 286.8L32.916 285.868L33.409 284.946L33.913 284.046L34.428 283.103L34.943 282.191L35.468 281.259L36.004 280.326L36.54 279.415L37.097 278.472L37.655 277.529L37.932 277.067ZM22.185 310.886C22.678 309.279 20.985 307.853 19.505 308.614C19.044 308.85 18.723 309.225 18.562 309.74L18.401 310.233L18.144 311.112L17.887 311.969L17.651 312.826L17.415 313.683L17.19 314.53L16.965 315.387L16.751 316.235L16.558 317.082L16.354 317.918L16.182 318.765L16.011 319.601L15.839 320.426L15.678 321.263L15.539 322.077L15.389 322.913L15.26 323.717L15.142 324.542L15.035 325.356L14.928 326.161L14.831 326.975L14.746 327.789L14.65 328.679C14.543 330.297 16.386 331.337 17.683 330.362C18.122 330.041 18.38 329.558 18.433 329.001L18.508 328.197L18.594 327.426L18.68 326.665L18.776 325.893L18.883 325.122L18.99 324.351L19.119 323.557L19.258 322.775L19.397 321.993L19.558 321.189L19.719 320.385L19.88 319.591L20.041 318.787L20.234 317.973L20.438 317.168L20.631 316.354L20.845 315.529L21.07 314.715L21.295 313.89L21.531 313.042L21.767 312.218L22.014 311.381L22.185 310.886ZM19.634 347.234C19.195 345.616 16.997 345.305 16.161 346.752C15.914 347.191 15.839 347.717 15.979 348.199L16.14 348.843L16.333 349.529L16.537 350.226L16.741 350.922L16.956 351.587L17.191 352.273L17.427 352.938L17.674 353.613L17.942 354.278L18.21 354.942L18.499 355.586L18.778 356.239L19.089 356.872L19.389 357.525L19.722 358.158L20.044 358.791L20.387 359.412L20.741 360.034L21.095 360.635L21.481 361.245L21.856 361.856L22.252 362.467L22.648 363.045L23.055 363.624L23.473 364.203L23.902 364.782L24.352 365.328L24.749 365.843C25.896 367.215 28.104 366.433 28.093 364.643C28.082 364.193 27.943 363.775 27.675 363.443L27.3 362.992L26.904 362.478L26.507 361.963L26.132 361.427L25.746 360.891L25.382 360.355L25.028 359.82L24.685 359.262L24.342 358.715L24.021 358.147L23.689 357.58L23.378 357.012L23.078 356.433L22.778 355.854L22.499 355.264L22.22 354.686L21.952 354.085L21.695 353.484L21.46 352.884L21.213 352.273L20.978 351.652L20.763 351.051L20.56 350.429L20.356 349.796L20.163 349.164L19.981 348.531L19.788 347.888L19.634 347.234ZM41.748 374.868C41.266 374.611 40.697 374.579 40.183 374.782C38.672 375.393 38.586 377.462 40.022 378.234L40.654 378.566L41.329 378.93L42.025 379.274L42.712 379.606L43.408 379.949L44.127 380.27L44.845 380.592L45.563 380.892L46.292 381.203L47.042 381.504L47.771 381.793L48.532 382.083L49.293 382.351L50.065 382.629L50.826 382.887L51.608 383.144L52.401 383.402L53.194 383.659L53.998 383.885L54.791 384.12L55.617 384.355L56.442 384.559L57.246 384.773L58.211 385.009C59.915 385.405 61.18 383.487 60.151 382.05C59.883 381.664 59.476 381.418 59.036 381.311L58.146 381.085L57.363 380.871L56.57 380.679L55.788 380.464L55.027 380.239L54.255 380.013L53.483 379.778L52.744 379.542L52.004 379.284L51.265 379.038L50.547 378.77L49.818 378.512L49.111 378.244L48.403 377.976L47.696 377.697L47.01 377.397L46.335 377.097L45.649 376.796L44.984 376.496L44.319 376.184L43.655 375.873L43.022 375.541L42.379 375.209L41.748 374.868ZM77.442 384.033C76.724 384.001 76.059 384.345 75.695 384.966C75.009 386.198 75.824 387.732 77.228 387.828L78.021 387.891L79.007 387.946L79.993 387.999L80.968 388.053L81.965 388.085L82.973 388.117L83.97 388.138L84.978 388.181L85.996 388.192H87.025H88.033H89.073L90.112 388.171H91.152L92.203 388.15L93.264 388.118L94.325 388.097L95.376 388.054L96.351 388C98.056 387.926 98.763 385.813 97.476 384.678C97.09 384.356 96.64 384.206 96.136 384.217L95.203 384.26L94.153 384.291L93.103 384.324L92.074 384.355L91.055 384.387L90.026 384.398H89.029H88H87.003L86.006 384.387L85.009 384.376L84.034 384.333L83.048 384.312L82.072 384.281L81.096 384.248L80.131 384.206L79.188 384.152L78.234 384.088L77.442 384.033ZM114.798 382.544C113.169 382.769 112.59 384.858 113.887 385.909C114.283 386.241 114.809 386.402 115.324 386.316L116.556 386.155L117.735 385.995L118.882 385.834L120.061 385.663L121.251 385.48L122.43 385.297L123.62 385.105L124.81 384.912L125.999 384.708L127.2 384.505L128.401 384.302L129.601 384.076L130.834 383.841L132.045 383.615L133.256 383.38L134.092 383.208C134.864 383.058 135.453 382.446 135.571 381.643C135.754 380.335 134.617 379.243 133.309 379.489L132.505 379.661L131.283 379.886L130.093 380.122L128.893 380.325L127.703 380.551L126.524 380.765L125.345 380.969L124.144 381.162L122.976 381.354L121.818 381.546L120.65 381.718L119.482 381.901L118.324 382.062L117.178 382.233L116.031 382.383L114.798 382.544ZM151.629 375.318C150.16 375.682 149.721 377.538 150.836 378.545C151.318 378.995 151.961 379.156 152.594 379.006L153.333 378.792L154.619 378.46L155.916 378.127L157.203 377.773L158.5 377.419L159.808 377.076L161.116 376.7L162.413 376.346L163.731 375.96L165.049 375.585L166.367 375.198L167.696 374.802L169.015 374.406L170.848 373.849C172.456 373.356 172.627 371.148 171.148 370.354C170.698 370.119 170.183 370.076 169.711 370.214L167.889 370.772L166.571 371.158L165.274 371.554L163.966 371.93L162.658 372.305L161.361 372.669L160.064 373.044L158.767 373.409L157.492 373.763L156.195 374.117L154.919 374.46L153.643 374.781L152.357 375.125L151.629 375.318ZM187.56 364.331C185.941 364.91 185.877 367.15 187.442 367.858C187.892 368.05 188.364 368.083 188.836 367.912L190.626 367.279L191.998 366.786L193.381 366.293L194.764 365.778L196.136 365.274L197.518 364.749L198.912 364.235L200.295 363.71L201.699 363.185L203.092 362.638L204.486 362.091L206.577 361.277C207.295 360.999 207.745 360.312 207.756 359.541C207.767 358.18 206.427 357.247 205.162 357.751L203.093 358.555L201.71 359.091L200.317 359.627L198.934 360.152L197.551 360.677L196.179 361.202L194.807 361.705L193.435 362.22L192.063 362.702L190.702 363.206L189.33 363.688L187.56 364.331ZM222.536 350.536C221.861 350.847 221.421 351.49 221.4 352.229C221.4 353.623 222.804 354.566 224.069 354.019L225.72 353.301L227.145 352.668L228.582 352.047L230.008 351.403L231.445 350.75L232.892 350.096L234.329 349.442L235.765 348.778L237.223 348.113L238.66 347.449L240.097 346.762L241.286 346.194C242.251 345.755 242.637 344.587 242.165 343.643C241.693 342.699 240.59 342.314 239.657 342.753L238.467 343.311L237.031 343.997L235.595 344.662L234.169 345.315L232.732 345.98L231.295 346.633L229.88 347.277L228.444 347.921L227.007 348.553L225.603 349.186L224.166 349.808L222.536 350.536ZM256.527 334.458C255.026 335.229 255.23 337.437 256.838 337.952C257.31 338.101 257.824 338.069 258.264 337.845L260.483 336.72L261.952 335.948L263.398 335.198L264.877 334.426L266.346 333.644L267.804 332.862L269.272 332.08L270.762 331.297L272.22 330.504L273.678 329.711L274.986 329.003C276.347 328.242 276.261 326.249 274.836 325.595C274.289 325.359 273.668 325.37 273.153 325.649L271.867 326.367L270.398 327.172L268.929 327.943L267.482 328.725L266.024 329.507L264.556 330.29L263.098 331.061L261.651 331.822L260.182 332.573L258.736 333.334L256.527 334.458Z" fill="#EBEEDF"/>
<path fill-rule="evenodd" clip-rule="evenodd" d="M414.37 23C414.37 39.314 427.587 52.67 443.763 52.67C427.587 52.67 414.37 66.016 414.37 82.352C414.37 66.016 401.154 52.67 385 52.67C401.154 52.671 414.37 39.315 414.37 23Z" fill="#ECFFA0"/>
<path fill-rule="evenodd" clip-rule="evenodd" d="M30.2782 169.04C30.2782 185.354 43.4952 198.7 59.6702 198.7C43.4952 198.7 30.2782 212.055 30.2782 228.381C30.2782 212.056 17.0622 198.7 0.908203 198.7C17.0612 198.7 30.2782 185.354 30.2782 169.04Z" fill="#C1EA1D"/>
<path fill-rule="evenodd" clip-rule="evenodd" d="M451.079 244.417C451.079 254.161 458.978 262.125 468.626 262.125C458.979 262.125 451.079 270.089 451.079 279.833C451.079 270.089 443.2 262.125 433.553 262.125C443.2 262.125 451.079 254.161 451.079 244.417Z" fill="white"/>
<path fill-rule="evenodd" clip-rule="evenodd" d="M165.647 173.307C218.966 80.9554 305.546 44.5305 333.738 34.7363C338.811 32.9739 343.983 35.9598 344.993 41.2344C350.607 70.5461 362.352 163.739 309.033 256.09C307.008 259.597 304.791 262.938 302.409 266.111C300.335 268.875 299.671 272.466 300.706 275.763C305.453 290.875 309.262 311.392 301.325 325.128C287.256 349.498 262.234 367.55 247.41 376.733C241.687 380.278 234.604 376.537 233.799 369.854L228.935 329.483C228.225 323.588 222.458 319.69 216.724 321.226L209.953 323.04C207.454 323.71 204.791 323.359 202.55 322.066L161.754 298.512C159.513 297.218 157.878 295.088 157.208 292.588L155.394 285.817C153.857 280.083 147.598 277.038 142.138 279.371L104.744 295.344C98.5533 297.988 91.7717 293.724 91.9803 286.996C92.5208 269.566 95.6439 238.871 109.714 214.501C117.641 200.76 137.313 193.8 152.773 190.355C156.146 189.603 158.924 187.233 160.28 184.054C161.837 180.404 163.622 176.814 165.647 173.307ZM262.8 133.807C248.916 137.527 240.683 151.786 244.404 165.671C248.124 179.555 262.383 187.787 276.267 184.067C290.152 180.347 298.384 166.088 294.664 152.204C290.943 138.319 276.685 130.087 262.8 133.807Z" fill="#C1EA1D"/>
<path d="M188.875 333.267C188.525 334.223 188.435 335.243 187.898 336.155C178.93 351.688 158.908 350.495 158.908 350.495C158.908 350.495 147.851 333.755 156.831 318.218C157.365 317.294 158.195 316.722 158.844 315.928L151.56 311.712C147.122 314.248 143.225 317.851 140.494 322.583C127.929 344.345 140.87 381.737 140.87 381.737C140.87 381.737 179.557 374.536 192.288 352.486C195.02 347.754 196.192 342.579 196.169 337.467L188.875 333.267Z" fill="#C1EA1D"/>
<path fill-rule="evenodd" clip-rule="evenodd" d="M301.325 325.128C309.262 311.392 305.453 290.875 300.706 275.763C299.671 272.466 300.335 268.875 302.409 266.111C304.791 262.938 307.008 259.597 309.033 256.09C362.352 163.739 350.607 70.5461 344.993 41.2344C343.983 35.9599 338.811 32.9739 333.738 34.7363C305.546 44.5305 218.966 80.9554 165.647 173.307C163.622 176.814 161.837 180.404 160.28 184.054C158.924 187.233 156.146 189.603 152.773 190.355C137.313 193.8 117.641 200.76 109.714 214.501C95.6439 238.871 92.5209 269.566 91.9803 286.996C91.7717 293.724 98.5533 297.988 104.744 295.344L142.138 279.371C147.598 277.038 153.857 280.083 155.394 285.817L157.208 292.588C157.878 295.088 159.513 297.218 161.754 298.512L202.55 322.066C204.791 323.359 207.454 323.71 209.953 323.04L216.724 321.226C222.458 319.69 228.225 323.588 228.935 329.483L233.799 369.854C234.604 376.537 241.687 380.278 247.41 376.733C262.234 367.55 287.256 349.498 301.325 325.128ZM296.841 249.052C344.312 166.83 337.728 83.6608 332.29 50.2403C300.628 62.2407 225.309 98.1239 177.838 180.345C176.103 183.352 174.569 186.435 173.229 189.577C170.152 196.79 163.779 202.325 155.835 204.095C148.715 205.682 141.128 207.978 134.672 211.179C128.065 214.456 123.92 218.047 121.908 221.536L121.905 221.54C111.448 239.653 107.68 262.511 106.471 279.298L136.608 266.425C149.946 260.727 165.238 268.164 168.992 282.174L170.343 287.216L208.038 308.979L213.08 307.628C227.09 303.875 241.176 313.399 242.911 327.799L246.831 360.335C260.765 350.895 278.676 336.203 289.134 318.089L289.136 318.085C291.152 314.598 292.189 309.213 291.723 301.852C291.267 294.66 289.462 286.941 287.276 279.981C284.837 272.217 286.444 263.93 291.152 257.659C293.202 254.928 295.106 252.058 296.841 249.052ZM140.87 381.737C140.87 381.737 128.261 345.305 140.02 323.433C140.173 323.147 140.331 322.864 140.494 322.583C142.626 318.889 145.468 315.884 148.723 313.537L148.727 313.534C149.641 312.875 150.587 312.268 151.56 311.712L158.844 315.928C158.596 316.232 158.321 316.503 158.046 316.774C157.603 317.211 157.161 317.648 156.831 318.218C156.562 318.684 156.311 319.151 156.077 319.618C155.461 320.847 154.965 322.081 154.571 323.31C154.025 325.016 153.679 326.714 153.491 328.379C152.151 340.266 158.908 350.495 158.908 350.495C154.195 353.608 151.373 355.471 149.683 356.586L149.683 356.588L158.908 350.495L158.245 361.615L158.247 361.614C158.366 359.602 158.567 356.211 158.908 350.495C158.908 350.495 171.147 351.224 180.773 344.119C182.122 343.123 183.42 341.973 184.626 340.646C185.49 339.694 186.308 338.651 187.062 337.508C187.35 337.072 187.629 336.621 187.898 336.155C188.238 335.579 188.398 334.959 188.559 334.34C188.653 333.979 188.746 333.619 188.875 333.267L196.169 337.467C196.174 338.589 196.121 339.714 196.007 340.837C196.004 340.866 196.001 340.896 195.998 340.926C195.584 344.888 194.404 348.82 192.288 352.486C192.128 352.763 191.964 353.037 191.796 353.309C178.593 374.715 140.87 381.737 140.87 381.737ZM151.642 364.164L151.042 364.128L150.794 363.753C150.836 363.974 150.879 364.194 150.921 364.412C151.16 364.331 151.4 364.248 151.642 364.164Z" fill="#ECFFA0"/>
<path d="M298.104 164.562C302.209 185.788 288.33 206.322 267.104 210.427C245.878 214.532 225.343 200.653 221.238 179.427C217.134 158.201 231.013 137.666 252.239 133.561C273.465 129.457 293.999 143.336 298.104 164.562Z" fill="#242424"/>
<path fill-rule="evenodd" clip-rule="evenodd" d="M253.513 140.15C235.926 143.551 224.426 160.566 227.827 178.153C231.228 195.74 248.242 207.24 265.83 203.839C283.417 200.438 294.917 183.423 291.516 165.836C288.115 148.249 271.1 136.749 253.513 140.15ZM214.65 180.701C209.841 155.836 226.1 131.782 250.965 126.973C275.829 122.164 299.884 138.423 304.693 163.288C309.501 188.153 293.243 212.207 268.378 217.016C243.513 221.824 219.458 205.566 214.65 180.701Z" fill="#ECFFA0"/>
</svg>
