<svg width="488" height="451" viewBox="0 0 488 451" fill="none" xmlns="http://www.w3.org/2000/svg">
<path fill-rule="evenodd" clip-rule="evenodd" d="M372.05 41.323C421.144 114.796 245.903 248.165 195.013 285.834C141.814 325.212 82.1014 345.368 28.9024 293.087C-31.9386 233.294 64.9664 190.548 109.341 162.465C169.311 124.485 226.562 71.583 283.711 37.645C310.901 21.478 349.529 10.494 372.05 41.323Z" fill="#5D7600"/>
<path fill-rule="evenodd" clip-rule="evenodd" d="M408.064 66.66C463.519 62.307 501.121 124.536 463.673 176.402C444.177 203.501 353.376 296.559 326.7 319.098C269.192 366.351 126.681 446.612 53.8875 395.834C13.1035 367.387 15.1035 322.153 56.3495 293.086C117.806 249.771 177.674 254.433 242.723 193.552C286.994 152.102 346.348 75.158 408.064 66.66Z" fill="#5D7600"/>
<path fill-rule="evenodd" clip-rule="evenodd" d="M460.441 211.429C495.324 280.548 329.008 377.492 280.838 404.695C230.462 433.14 176.442 444.228 135.761 393.089C89.2824 334.539 177.929 307.907 219.482 288.271C275.553 261.741 330.906 222 384.104 198.684C409.448 187.542 444.126 182.206 460.441 211.429Z" fill="#5D7600"/>
<path d="M169.755 303.298L170.891 304.616L172.006 305.934L173.142 307.252L174.268 308.56L175.404 309.868L176.541 311.165L177.666 312.441L178.813 313.727L179.938 315.024L181.032 316.247C181.932 317.254 183.572 317.008 184.173 315.786C184.494 315.11 184.387 314.285 183.873 313.717L182.801 312.506L181.665 311.23L180.54 309.944L179.415 308.647L178.279 307.361L177.154 306.075L176.018 304.767L174.893 303.449L173.8 302.152L172.664 300.833L171.549 299.515C171.249 299.151 170.841 298.936 170.391 298.862C170.412 298.423 170.252 297.983 169.951 297.618L169.33 296.868L168.204 295.55L167.111 294.221L166.028 292.881L164.935 291.563L163.874 290.234L162.78 288.916L161.697 287.576L160.636 286.258L159.564 284.918L158.064 283.041C157.453 282.259 156.328 282.099 155.491 282.687C154.601 283.32 154.419 284.563 155.095 285.41L156.585 287.297L157.657 288.637L158.74 289.966L159.812 291.306L160.905 292.635L161.999 293.975L163.103 295.315L164.196 296.645L165.29 297.985L166.404 299.314L167.037 300.075C167.348 300.45 167.766 300.654 168.205 300.719C168.194 301.148 168.323 301.598 168.634 301.973L169.755 303.298ZM81.8691 188.528C79.8861 186.191 79.0611 183.276 79.3071 180.424C79.5751 177.594 80.9051 174.839 83.2631 172.867C83.4881 172.653 83.7351 172.459 83.9921 172.299L83.6591 171.58L83.0911 170.337L82.5231 169.083L81.9651 167.85L81.4081 166.606L80.8621 165.363L80.3151 164.12L79.7791 162.887L79.2541 161.654L78.7291 160.422L78.2141 159.2L77.7111 157.989L77.1961 156.767L76.9491 156.188C76.3701 154.72 77.7101 153.219 79.2641 153.637C79.8221 153.798 80.2501 154.194 80.4751 154.73L80.7111 155.298L81.2151 156.499L81.7191 157.71L82.2341 158.932L82.7481 160.154L83.2731 161.365L83.7981 162.587L84.3341 163.809L84.8811 165.031L85.4281 166.263L85.9741 167.485L86.5311 168.729L87.1101 169.973L87.4211 170.627C88.7291 170.252 90.0801 170.134 91.4091 170.219C94.2491 170.455 96.9831 171.752 98.9551 174.1C100.927 176.426 101.764 179.352 101.506 182.193C101.26 185.023 99.9201 187.788 97.5511 189.782C97.3901 189.911 97.2401 190.05 97.0581 190.189L97.6801 191.358L98.3441 192.644L99.0201 193.919L99.7271 195.194L100.414 196.491L101.11 197.778L101.807 199.075L102.525 200.361L103.233 201.636L103.973 202.933L104.691 204.241L105.302 205.324C105.634 205.882 105.613 206.578 105.313 207.157C104.563 208.454 102.73 208.486 101.99 207.211L101.368 206.117L100.639 204.809L99.9211 203.512L99.2021 202.204L98.4841 200.907L97.7761 199.61L97.0681 198.313L96.3711 197.027L95.6741 195.741L94.9881 194.444L94.3131 193.169L93.6591 191.936C92.2761 192.365 90.8401 192.515 89.4141 192.397C86.5751 192.173 83.8411 190.865 81.8691 188.528ZM89.7481 188.636C91.6351 188.785 93.5641 188.207 95.1181 186.899C96.6831 185.581 97.5731 183.78 97.7341 181.904C97.8951 180.029 97.3481 178.099 96.0511 176.555C94.7541 175.023 92.9321 174.154 91.0671 174.015C89.1921 173.854 87.2621 174.422 85.6971 175.741C84.1431 177.049 83.2641 178.871 83.0931 180.736C82.9321 182.601 83.4791 184.531 84.7761 186.074C86.0921 187.617 87.8931 188.485 89.7481 188.636ZM145.208 266.274L144.211 264.944L143.235 263.604L142.26 262.275L141.274 260.946L140.32 259.606L139.355 258.266L138.39 256.948L137.457 255.608L136.514 254.268L135.549 252.917C134.756 251.781 133.052 251.877 132.344 253.067C131.98 253.71 132.001 254.504 132.419 255.103L133.405 256.486L134.359 257.815L135.313 259.166L136.267 260.506L137.243 261.846L138.197 263.176L139.183 264.516L140.159 265.866L141.156 267.206L142.153 268.546L143.535 270.423C144.404 271.569 146.161 271.365 146.772 270.069C147.083 269.437 147.008 268.697 146.601 268.14L145.208 266.274ZM123.856 235.692L122.999 234.352L122.131 233.044L121.284 231.726L120.437 230.397L119.601 229.079L118.765 227.761L117.918 226.442L117.114 225.124L116.289 223.806L115.485 222.498L114.874 221.501C114.563 221.019 114.059 220.697 113.47 220.622C111.905 220.44 110.801 222.166 111.616 223.506L112.238 224.503L113.053 225.832L113.878 227.161L114.714 228.479L115.539 229.808L116.386 231.137L117.243 232.466L118.079 233.784L118.936 235.124L119.804 236.453L120.672 237.782L121.787 239.466C122.58 240.666 124.349 240.559 125.035 239.305C125.368 238.673 125.335 237.965 124.96 237.365L123.856 235.692ZM73.5731 136.401L73.1771 135.233L72.7801 134.097L72.4151 132.95L72.0291 131.814L71.6861 130.678L71.3221 129.542L70.9571 128.406L70.6141 127.281L70.2821 126.156L69.9391 125.031L69.6061 123.916L69.2841 122.802L68.9841 121.698L68.6631 120.594L68.2981 119.264C68.1701 118.782 67.8691 118.374 67.4511 118.128C65.9931 117.26 64.2031 118.61 64.6321 120.261L65.0071 121.644L65.3281 122.759L65.6391 123.863L65.9611 125.01L66.3041 126.146L66.6361 127.282L66.9791 128.407L67.3441 129.565L67.6981 130.712L68.0521 131.848L68.4381 133.016L68.8131 134.174L69.1881 135.331L69.5841 136.5L69.9701 137.646L70.2381 138.428C70.4101 138.857 70.6561 139.19 71.0531 139.425C72.5641 140.336 74.4081 138.846 73.8401 137.174L73.5731 136.401ZM64.0761 100.395L63.9041 99.398L63.7331 98.38L63.5621 97.372L63.4011 96.375L63.2621 95.367L63.1231 94.381L62.9831 93.384L62.8551 92.398L62.7481 91.422L62.6301 90.446L62.5231 89.47L62.4271 88.506L62.3301 87.552L62.2451 86.588L62.1591 85.645L62.0841 84.702L62.0201 83.769L61.9561 82.836L61.9451 82.429C61.9131 81.968 61.7311 81.561 61.4201 81.228C60.1871 79.984 58.0541 80.917 58.1511 82.664L58.1721 83.103L58.2361 84.046L58.3001 85.022L58.3851 85.998L58.4491 86.974L58.5461 87.95L58.6431 88.925L58.7391 89.911L58.8461 90.919L58.9751 91.895L59.0821 92.924L59.2101 93.921L59.3601 94.928L59.5211 95.947L59.6601 96.966L59.8211 97.984L59.9711 99.024L60.1531 100.064L60.3241 101.093L60.4421 101.672C60.5271 102.208 60.8381 102.658 61.2991 102.958C62.7031 103.784 64.4501 102.583 64.1821 100.975L64.0761 100.395ZM62.5101 62.922L62.6171 62.118L62.7461 61.335L62.8641 60.542L62.9821 59.781L63.1221 58.998L63.2721 58.237L63.4111 57.476L63.5831 56.736L63.7441 55.986L63.9151 55.247L64.0981 54.518L64.2901 53.8L64.4731 53.071L64.6661 52.353L64.8801 51.657L65.0941 50.96L65.3191 50.264L65.5551 49.588L65.7801 48.892L66.0271 48.227L66.2741 47.563L66.5201 46.887L66.7781 46.244L66.8961 46.019C67.0781 45.569 67.1001 45.086 66.9391 44.636C66.3601 43.007 64.0991 42.975 63.4011 44.55L63.2831 44.84L62.9931 45.536L62.7251 46.233L62.4561 46.941L62.1991 47.659L61.9421 48.377L61.6951 49.116L61.4811 49.856L61.2341 50.606L61.0201 51.356L60.8161 52.107L60.6121 52.868L60.4191 53.629L60.2151 54.401L60.0541 55.194L59.8611 55.976L59.7111 56.759L59.5511 57.552L59.4011 58.356L59.2511 59.17L59.1121 59.984L58.9721 60.81L58.8541 61.625L58.7581 62.472L58.6401 63.426C58.5651 63.994 58.7581 64.551 59.1541 64.958C60.2691 66.095 62.1981 65.419 62.3911 63.854L62.5101 62.922ZM77.0781 30.818L77.5501 30.368L78.0321 29.929L78.5141 29.5L79.0181 29.071L79.5111 28.653L80.0141 28.257L80.5291 27.839L81.0541 27.453L81.5791 27.078L82.1151 26.714L82.6401 26.339L83.1971 25.985L83.7331 25.631L84.2901 25.277L84.8581 24.966L85.4261 24.633L86.0051 24.322L86.5731 24.011L87.1521 23.732L87.7411 23.421L88.3411 23.142L88.9421 22.863L89.5641 22.606L90.1751 22.348L90.7971 22.102L91.4191 21.855L92.0411 21.62L92.3741 21.502C92.8341 21.352 93.1991 21.052 93.4351 20.623C94.2601 19.101 92.8241 17.364 91.1731 17.933L90.7981 18.062L90.1111 18.319L89.4361 18.566L88.7601 18.845L88.0961 19.123L87.4421 19.402L86.7781 19.723L86.1241 20.023L85.4921 20.323L84.8601 20.667L84.2271 20.988L83.5951 21.331L82.9731 21.685L82.3621 22.06L81.7511 22.424L81.1501 22.799L80.5611 23.196L79.9721 23.592L79.3821 23.989L78.8141 24.439L78.2461 24.857L77.6781 25.296L77.1311 25.746L76.5841 26.185L76.0381 26.667L75.5021 27.141L74.9881 27.613L74.4631 28.106L74.3451 28.213C74.0451 28.503 73.8411 28.878 73.7981 29.296C73.4981 31.075 75.6311 32.169 76.9601 30.936L77.0781 30.818ZM111.175 18.427L111.946 18.416L112.739 18.427L113.543 18.438L114.336 18.449L115.14 18.492L115.955 18.524L116.759 18.556L117.585 18.61L118.399 18.674L119.224 18.738L120.049 18.813L120.885 18.899L121.732 18.985L122.568 19.092L123.415 19.188L124.283 19.295L125.151 19.413L126.008 19.552L126.865 19.691L127.744 19.831L128.623 19.981L128.923 20.045C129.48 20.142 129.995 20.013 130.445 19.659C131.731 18.652 131.238 16.615 129.641 16.315L129.32 16.262L128.409 16.101L127.509 15.951L126.619 15.802L125.719 15.684L124.829 15.555L123.939 15.427L123.06 15.32L122.192 15.223L121.313 15.126L120.445 15.04L119.566 14.955L118.719 14.891L117.862 14.837L117.015 14.783L116.168 14.751L115.321 14.697L114.485 14.665L113.638 14.644L112.812 14.633L111.998 14.644H111.162L110.422 14.676C109.04 14.676 108.139 16.08 108.696 17.345C109.018 18.021 109.671 18.449 110.432 18.449L111.175 18.427ZM147.953 24.965L148.939 25.298L149.893 25.63L150.869 25.951L151.844 26.294L152.809 26.637L153.806 27.012L154.771 27.366L155.768 27.741L156.754 28.127L157.751 28.513L158.748 28.899L159.745 29.306L160.753 29.713L161.76 30.131L162.767 30.56L163.786 30.989L164.525 31.3C164.954 31.493 165.447 31.504 165.897 31.354C167.527 30.743 167.623 28.514 166.047 27.816L165.318 27.516L164.278 27.066L163.249 26.637L162.231 26.219L161.213 25.801L160.184 25.383L159.176 24.987L158.157 24.59L157.15 24.204L156.153 23.829L155.145 23.443L154.137 23.079L153.13 22.725L152.144 22.382L151.158 22.028L150.161 21.696L149.196 21.374L148.22 21.063C147.159 20.699 146.012 21.353 145.766 22.446C145.562 23.411 146.077 24.354 147.009 24.665L147.953 24.965ZM182.522 39.972L183.583 40.529L184.645 41.108L185.717 41.687L186.8 42.276L187.872 42.877L188.955 43.478L190.027 44.067L191.121 44.689L192.203 45.321L193.286 45.932L194.379 46.586L195.462 47.218L196.577 47.872L197.777 48.59C198.924 49.287 200.424 48.611 200.661 47.282C200.779 46.511 200.446 45.761 199.782 45.353L198.528 44.613L197.424 43.959L196.32 43.305L195.227 42.662L194.123 42.03L193.019 41.397L191.926 40.776L190.843 40.165L189.75 39.554L188.646 38.954L187.563 38.353L186.48 37.785L185.408 37.196L184.337 36.617L183.211 36.038C181.957 35.384 180.445 36.295 180.413 37.71C180.424 38.428 180.81 39.071 181.432 39.404L182.522 39.972ZM214.304 59.137L215.429 59.898L216.555 60.659L217.691 61.441L218.817 62.213L219.942 62.985L221.079 63.789L222.215 64.593L223.33 65.397L224.466 66.201L225.613 67.027L226.749 67.852L227.896 68.688L229.01 69.502C229.396 69.792 229.878 69.92 230.371 69.845C232.054 69.62 232.633 67.455 231.271 66.436L230.146 65.622L228.999 64.786L227.853 63.95L226.716 63.124L225.57 62.31L224.412 61.496L223.287 60.692L222.14 59.877L220.994 59.094L219.857 58.312L218.721 57.53L217.584 56.769L216.459 55.997L215.783 55.536C215.301 55.215 214.722 55.129 214.165 55.3C212.632 55.772 212.321 57.776 213.629 58.676L214.304 59.137ZM245.079 81.851L246.236 82.805L247.394 83.738L248.54 84.681L249.698 85.624L250.855 86.578L252.024 87.521L253.16 88.497L254.328 89.451L255.475 90.437L256.643 91.413L258.412 92.925C259.474 93.825 261.102 93.321 261.477 91.96C261.67 91.273 261.435 90.513 260.899 90.052L259.12 88.53L257.94 87.533L256.783 86.558L255.614 85.572L254.457 84.607L253.3 83.631L252.12 82.677L250.963 81.734L249.784 80.78L248.626 79.847L247.489 78.904L246.3 77.972C245.871 77.618 245.303 77.5 244.767 77.597C243.17 77.919 242.666 79.944 243.909 80.952L245.079 81.851ZM274.031 106.816L275.199 107.899L276.357 108.981L277.503 110.064L278.661 111.147L279.818 112.24L280.987 113.334L282.144 114.438L283.313 115.564L284.459 116.678L286.142 118.308C286.506 118.662 286.967 118.854 287.471 118.854C289.155 118.833 290.023 116.774 288.822 115.585L287.118 113.944L285.939 112.83L284.792 111.704L283.613 110.59L282.455 109.475L281.287 108.382L280.13 107.289L278.961 106.196L277.793 105.113L276.624 104.03L275.07 102.604C274.019 101.64 272.326 102.143 271.94 103.515C271.747 104.191 271.961 104.919 272.475 105.391L274.031 106.816ZM300.624 132.874L301.771 134.064L302.917 135.264L304.054 136.476L305.211 137.687L306.348 138.909L307.505 140.131L308.642 141.353L309.788 142.585L310.914 143.818L312.318 145.329C313.218 146.326 314.826 146.069 315.426 144.879C315.769 144.172 315.64 143.336 315.136 142.768L313.732 141.246L312.564 139.992L311.427 138.749L310.281 137.526L309.135 136.294L307.977 135.072L306.831 133.861L305.684 132.639L304.527 131.439L303.369 130.228L302.18 128.984C301.194 127.987 299.511 128.373 299.007 129.681C298.781 130.367 298.921 131.106 299.425 131.631L300.624 132.874ZM325.643 160.347L326.769 161.655L327.883 162.973L328.998 164.281L330.123 165.61L331.217 166.928L332.353 168.257L333.457 169.576L334.55 170.905L335.654 172.223L336.929 173.777C337.208 174.142 337.594 174.356 338.055 174.442C339.791 174.731 340.959 172.727 339.867 171.387L338.591 169.811L337.487 168.471L336.372 167.142L335.268 165.802L334.153 164.473L333.028 163.155L331.902 161.815L330.788 160.497L329.651 159.179L328.526 157.86L327.712 156.906C327.316 156.488 326.812 156.252 326.243 156.252C324.645 156.263 323.756 158.171 324.806 159.382L325.643 160.347ZM349.418 189.514L350.437 190.843L351.455 192.194L352.474 193.512L353.482 194.852L354.467 196.17L355.475 197.51L356.472 198.85L357.448 200.168L358.445 201.508L359.399 202.838L359.924 203.546C360.706 204.629 362.303 204.564 363.043 203.471C363.482 202.796 363.472 201.949 363 201.317L362.485 200.577L361.509 199.248L360.523 197.908L359.505 196.568L358.529 195.228L357.532 193.888L356.503 192.548L355.495 191.208L354.487 189.868L353.459 188.517L352.43 187.188L351.648 186.191C351.359 185.784 350.898 185.537 350.394 185.462C348.721 185.258 347.618 187.166 348.646 188.506L349.418 189.514ZM371.618 220.138L372.529 221.467L373.419 222.786L374.309 224.115L375.188 225.444L376.078 226.783L376.946 228.102L377.825 229.431L378.682 230.739L379.539 232.068L380.387 233.397L381.148 234.587C381.898 235.744 383.581 235.755 384.342 234.597C384.749 233.954 384.771 233.183 384.374 232.529L383.58 231.307L382.733 229.999L381.876 228.659L380.997 227.319L380.129 226L379.25 224.66L378.36 223.331L377.47 221.991L376.58 220.673L375.669 219.333L374.747 217.993L373.922 216.761C373.311 215.861 372.068 215.678 371.189 216.332C370.396 216.953 370.213 218.079 370.782 218.904L371.618 220.138ZM391.726 251.782L392.488 253.079L393.249 254.397L394.021 255.694L394.76 256.991L395.499 258.288L396.239 259.596L396.978 260.882L397.707 262.179L398.426 263.477L399.155 264.763L399.863 266.049L400.345 266.928C400.709 267.615 401.427 267.968 402.209 267.893C403.56 267.743 404.311 266.285 403.678 265.084L403.196 264.194L402.467 262.919L401.759 261.611L401.02 260.303L400.291 258.994L399.552 257.697L398.802 256.389L398.073 255.081L397.302 253.773L396.541 252.455L395.78 251.147L395.008 249.829L394.301 248.649C393.905 247.985 393.175 247.641 392.414 247.739C391.063 247.953 390.356 249.432 391.031 250.6L391.726 251.782ZM409.799 285.15L410.42 286.404L411.021 287.669L411.632 288.923L412.232 290.167L412.833 291.41L413.401 292.664L413.99 293.897L414.548 295.14L415.127 296.383L415.685 297.615L416.231 298.848L417.014 300.606C417.571 301.828 419.147 302.107 420.112 301.142C420.659 300.584 420.809 299.77 420.498 299.051L420.251 298.515L419.716 297.283L419.148 296.029L418.58 294.786L418.002 293.543L417.423 292.288L416.844 291.023L416.266 289.78L415.655 288.504L415.054 287.25L414.453 285.985L413.843 284.72L413.221 283.455L412.439 281.89C412.192 281.418 411.806 281.086 411.292 280.925C409.706 280.475 408.313 282.114 409.03 283.615L409.799 285.15ZM424.72 319.376L425.159 320.545L425.609 321.734L426.048 322.892L426.455 324.071L426.884 325.229L427.28 326.397L427.709 327.565L428.095 328.723L428.492 329.869L428.877 331.016L429.242 332.162L429.628 333.299L429.992 334.435L430.378 335.689C430.796 336.998 432.426 337.426 433.455 336.515C434.012 336.011 434.226 335.24 434.012 334.532L433.605 333.257L433.241 332.11L432.866 330.942L432.48 329.796L432.094 328.638L431.686 327.459L431.279 326.29L430.883 325.111L430.465 323.932L430.036 322.763L429.607 321.584L429.168 320.383L428.739 319.204L428.278 317.992L427.753 316.589C427.55 316.064 427.11 315.646 426.564 315.485C425.063 314.981 423.626 316.482 424.206 317.962L424.72 319.376ZM435.471 354.278L435.718 355.349L435.953 356.411L436.188 357.45L436.403 358.501L436.618 359.552L436.832 360.592L437.036 361.631L437.228 362.66L437.421 363.679L437.603 364.708L437.786 365.726L437.936 366.745L438.107 367.742L438.268 368.75L438.407 369.746L438.536 370.754L438.676 371.74L438.74 372.169C438.911 373.487 440.347 374.206 441.516 373.573C442.223 373.187 442.609 372.447 442.502 371.654L442.448 371.193L442.298 370.175L442.158 369.178L442.019 368.138L441.847 367.119L441.686 366.091L441.504 365.062L441.332 364.022L441.14 362.982L440.968 361.932L440.765 360.881L440.55 359.819L440.335 358.758L440.121 357.696L439.895 356.634L439.66 355.541L439.424 354.479L439.167 353.385L439.049 352.881C438.888 352.238 438.47 351.756 437.86 351.531C436.434 351.038 435.03 352.302 435.351 353.76L435.471 354.278ZM439.93 391.312L439.909 392.169L439.888 393.037L439.846 393.905L439.803 394.762L439.77 395.599L439.717 396.466L439.653 397.292L439.599 398.128L439.524 398.953L439.438 399.767L439.342 400.571L439.256 401.386L439.149 402.2L439.042 402.982L438.935 403.765L438.829 404.569L438.679 405.34L438.539 406.101L438.41 406.863L438.25 407.624L438.1 408.374L437.918 409.168C437.8 409.703 437.886 410.25 438.207 410.689C439.15 412.029 441.219 411.611 441.615 410.025L441.808 409.146L441.969 408.341L442.13 407.537L442.269 406.733L442.419 405.94L442.558 405.126L442.687 404.3L442.805 403.464L442.923 402.65L443.019 401.814L443.116 400.966L443.213 400.12L443.299 399.263L443.374 398.405L443.449 397.537L443.502 396.669L443.556 395.779L443.61 394.922L443.642 394.022L443.674 393.132L443.695 392.232L443.727 391.332V390.796C443.727 390.271 443.534 389.799 443.18 389.435C442.001 388.267 439.953 389.103 439.921 390.775L439.93 391.312ZM430.819 426.728L430.423 427.286L430.069 427.833L429.694 428.357L429.308 428.904L428.921 429.429L428.525 429.944L428.118 430.458L427.679 430.974L427.283 431.456L426.854 431.948L426.415 432.441L425.965 432.902L425.526 433.384L425.054 433.834L424.593 434.284L424.132 434.745L423.639 435.184L423.146 435.613L422.664 436.031L422.15 436.461L421.656 436.857L421.142 437.253L420.617 437.639L420.092 438.035L419.545 438.421L419.02 438.775L418.528 439.097C418.163 439.322 417.895 439.686 417.756 440.104C417.188 441.808 419.053 443.234 420.575 442.281L421.1 441.906L421.7 441.519L422.29 441.101L422.869 440.683L423.436 440.265L423.983 439.826L424.551 439.387L425.098 438.915L425.645 438.443L426.17 437.982L426.705 437.5L427.209 437.018L427.724 436.514L428.228 436.021L428.721 435.485L429.203 434.982L429.675 434.446L430.157 433.91L430.607 433.363L431.057 432.817L431.507 432.259L431.936 431.701L432.375 431.111L432.782 430.543L433.178 429.943L433.596 429.342L433.992 428.753L434.346 428.185C434.625 427.767 434.722 427.252 434.615 426.748C434.261 425.118 432.085 424.743 431.163 426.158L430.819 426.728ZM400.902 445.755L400.195 445.884L399.488 445.991L398.759 446.097L398.03 446.183L397.312 446.269L396.562 446.344L395.833 446.418L395.083 446.482L394.333 446.546L393.571 446.578L392.81 446.621L392.049 446.642L391.266 446.663L390.484 446.674L389.713 446.695L388.942 446.684L388.127 446.673L387.323 446.652L386.541 446.631L385.716 446.588L384.912 446.545L384.097 446.491L383.186 446.437C382.736 446.394 382.264 446.523 381.9 446.791C380.485 447.842 381.086 450.072 382.822 450.211L383.819 450.275L384.655 450.329L385.491 450.383L386.348 450.414L387.184 450.435L388.021 450.468L388.857 450.478H389.693L390.507 450.468L391.322 450.447L392.136 450.426L392.94 450.405L393.754 450.362L394.536 450.319L395.341 450.265L396.134 450.19L396.905 450.126L397.687 450.04L398.469 449.955L399.231 449.837L399.992 449.74L400.753 449.622L401.515 449.494L402.222 449.365C403.83 449.065 404.376 447.071 403.133 446.042C402.715 445.678 402.157 445.538 401.612 445.635L400.902 445.755ZM364.06 443.182L363.138 442.935L362.216 442.7L361.284 442.442L360.351 442.174L359.397 441.906L358.464 441.627L357.521 441.359L356.578 441.069L355.624 440.769L354.67 440.458L353.694 440.146L352.741 439.825L351.776 439.504L350.811 439.161L349.835 438.828L348.849 438.464L347.863 438.11L346.984 437.778C346.523 437.617 346.041 437.617 345.58 437.809C344.005 438.496 344.026 440.714 345.612 441.326L346.534 441.669L347.52 442.033L348.528 442.376L349.524 442.741L350.51 443.084L351.507 443.405L352.483 443.737L353.469 444.059L354.434 444.38L355.409 444.691L356.386 444.991L357.35 445.26L358.315 445.549L359.28 445.828L360.234 446.096L361.188 446.353L362.131 446.611L363.095 446.857L363.867 447.029C365.239 447.372 366.482 446.172 366.204 444.789C366.054 444.092 365.528 443.567 364.832 443.363L364.06 443.182ZM328.623 429.923L327.573 429.419L326.544 428.915L325.494 428.4L324.432 427.853L323.381 427.338L322.331 426.803L321.269 426.245L320.197 425.698L319.135 425.14L318.074 424.572L317.012 423.994L315.95 423.436L314.879 422.835L313.785 422.235L313.067 421.839C311.909 421.195 310.483 421.892 310.258 423.19C310.118 423.994 310.494 424.765 311.18 425.14L311.93 425.558L313.013 426.159L314.096 426.749L315.178 427.35L316.272 427.928L317.344 428.486L318.415 429.065L319.487 429.612L320.558 430.169L321.63 430.727L322.702 431.263L323.773 431.788L324.845 432.323L325.895 432.827L326.957 433.331L328.072 433.867C328.554 434.102 329.091 434.114 329.583 433.931C331.138 433.33 331.234 431.165 329.744 430.457L328.623 429.923ZM296.305 411.829L295.179 411.11L294.065 410.414L292.95 409.685L291.836 408.956L290.721 408.227L289.606 407.465L288.481 406.726L287.366 405.975L286.23 405.214L285.104 404.453L283.99 403.682L282.864 402.899L281.289 401.817C280.893 401.528 280.389 401.421 279.885 401.516C278.235 401.806 277.72 403.95 279.092 404.914L280.667 406.018L281.804 406.801L282.95 407.594L284.076 408.355L285.222 409.117L286.359 409.888L287.473 410.638L288.61 411.389L289.746 412.118L290.861 412.847L291.986 413.587L293.123 414.305L294.237 415.013L294.891 415.442C295.427 415.785 296.091 415.828 296.692 415.56C298.064 414.927 298.214 413.03 296.938 412.237L296.305 411.829ZM264.641 389.565L263.483 388.686L262.347 387.786L261.189 386.907L260.043 385.996L258.896 385.085L257.75 384.174L256.591 383.241L255.444 382.319L254.287 381.376L253.118 380.443L251.403 379.039C250.352 378.171 248.799 378.653 248.381 379.95C248.155 380.689 248.369 381.462 248.981 381.954L250.707 383.38L251.876 384.334L253.033 385.277L254.202 386.21L255.359 387.132L256.516 388.054L257.685 388.987L258.832 389.887L259.989 390.787L261.157 391.698L262.304 392.577L263.816 393.735C264.201 394.046 264.662 394.153 265.156 394.11C266.86 393.917 267.492 391.773 266.131 390.722L264.641 389.565ZM235.763 365.639L234.584 364.6L233.458 363.56L232.279 362.52L231.121 361.47L229.963 360.419L228.795 359.357L227.637 358.275L226.48 357.213L225.311 356.142L224.154 355.048L223.2 354.158C222.45 353.45 221.281 353.471 220.553 354.233C219.803 354.972 219.813 356.215 220.596 356.923L221.55 357.834L222.708 358.916L223.876 359.999L225.055 361.082L226.212 362.164L227.37 363.226L228.549 364.276L229.717 365.338L230.885 366.4L232.053 367.439L233.211 368.479L234.572 369.669C235.601 370.579 237.23 370.119 237.648 368.79C237.863 368.071 237.648 367.332 237.101 366.828L235.763 365.639ZM207.958 339.325L206.811 338.145L205.643 336.977L204.506 335.808L203.349 334.619L202.191 333.44L201.034 332.239L199.908 331.05L198.762 329.861L197.604 328.649L196.597 327.578C196.189 327.139 195.611 326.945 195.01 326.999C193.467 327.191 192.759 329.046 193.821 330.183L194.85 331.265L195.997 332.477L197.144 333.677L198.302 334.877L199.47 336.078L200.617 337.267L201.774 338.468L202.943 339.647L204.089 340.826L205.247 341.995L207.016 343.753C207.359 344.096 207.841 344.299 208.334 344.299C210.017 344.311 210.896 342.274 209.706 341.063L207.958 339.325Z" fill="white"/>
<path d="M307.646 323.911C308.053 323.642 308.321 323.257 308.45 322.839C308.868 322.925 309.34 322.85 309.747 322.581L310.583 322.056L312.052 321.134L313.51 320.202L314.957 319.269L316.414 318.336L317.872 317.403L319.319 316.46L320.745 315.527L322.192 314.605L323.617 313.64L325.622 312.311C326.522 311.71 326.726 310.478 326.083 309.61C325.473 308.796 324.347 308.581 323.521 309.138L321.527 310.467L320.091 311.41L318.675 312.353L317.239 313.275L315.792 314.197L314.355 315.13L312.908 316.052L311.471 316.995L310.024 317.917L308.556 318.828L307.72 319.352C307.334 319.599 307.044 319.974 306.926 320.392C306.477 320.329 306.016 320.413 305.629 320.661L304.16 321.583L302.671 322.483L301.224 323.383L299.745 324.294L298.266 325.184L296.797 326.063L295.328 326.931L293.859 327.821L292.402 328.689L290.923 329.557L289.519 330.382C288.854 330.758 288.5 331.519 288.608 332.258C288.79 333.609 290.28 334.348 291.448 333.673L292.852 332.837L294.331 331.958L295.81 331.09L297.279 330.211L298.769 329.32L300.248 328.431L301.717 327.531L303.207 326.64L304.686 325.73L306.165 324.818L307.646 323.911ZM425.117 242.68C422.523 244.288 419.511 244.696 416.734 244.041C415.351 243.709 414.033 243.119 412.843 242.283L411.846 243.248L410.806 244.267L409.756 245.286L408.705 246.304L407.643 247.312L406.572 248.331L405.489 249.35L404.407 250.358L403.324 251.376L402.241 252.405L401.148 253.413L400.215 254.249C399.121 255.246 397.385 254.656 397.074 253.188C396.956 252.555 397.16 251.879 397.642 251.44L398.564 250.593L399.646 249.585L400.75 248.566L401.812 247.581L402.895 246.573L403.956 245.565L405.018 244.546L406.069 243.528L407.131 242.531L408.17 241.523L409.199 240.515L410.153 239.573C410.024 239.401 409.918 239.219 409.81 239.048C408.169 236.421 407.741 233.377 408.373 230.601C409.005 227.825 410.699 225.295 413.293 223.687C415.887 222.068 418.899 221.661 421.675 222.326C422.972 222.637 424.216 223.183 425.341 223.934L425.845 223.409L426.767 222.401L427.678 221.404L428.578 220.397L429.478 219.4L430.368 218.403L431.258 217.406L432.138 216.399L433.017 215.402L433.884 214.405L434.742 213.397L435.589 212.411L436.436 211.425L436.832 210.953C437.218 210.503 437.754 210.267 438.333 210.278C439.94 210.375 440.755 212.208 439.737 213.419L439.329 213.891L438.472 214.91L437.615 215.896L436.747 216.914L435.868 217.911L434.989 218.93L434.099 219.938L433.199 220.945L432.299 221.963L431.399 222.971L430.477 223.979L429.555 224.997L428.622 226.004L428.097 226.583C428.28 226.819 428.451 227.076 428.612 227.344C430.241 229.949 430.671 232.983 430.038 235.759C429.404 238.544 427.71 241.073 425.117 242.68ZM417.57 240.355C419.392 240.773 421.386 240.515 423.101 239.444C424.816 238.382 425.92 236.711 426.349 234.899C426.756 233.055 426.489 231.061 425.406 229.325C424.334 227.599 422.662 226.473 420.829 226.034C419.007 225.595 417.014 225.852 415.299 226.924C413.594 227.996 412.48 229.657 412.062 231.49C411.643 233.323 411.933 235.306 413.004 237.053C414.086 238.768 415.738 239.916 417.57 240.355ZM339.021 298.495C338.463 298.892 338.152 299.589 338.249 300.286C338.442 301.7 340.061 302.43 341.229 301.615L343.126 300.254L344.477 299.278L345.838 298.313L347.189 297.337L348.54 296.372L349.869 295.386L351.198 294.41L352.516 293.435L353.845 292.449L355.163 291.463L356.514 290.455C357.093 290.016 357.371 289.276 357.21 288.537C356.91 287.197 355.314 286.586 354.209 287.411L352.88 288.408L351.572 289.394L350.264 290.369L348.946 291.334L347.617 292.31L346.298 293.286L344.958 294.251L343.618 295.216L342.278 296.191L340.917 297.146L339.021 298.495ZM369.078 275.878C368.541 276.329 368.295 277.004 368.413 277.7C368.681 279.115 370.342 279.759 371.457 278.858L373.033 277.604L374.265 276.596L375.497 275.599L376.72 274.591L377.942 273.594L379.153 272.598L380.365 271.59L381.576 270.571L382.776 269.574L383.966 268.566L385.145 267.559L386.045 266.798C387.235 265.779 386.71 263.796 385.166 263.475C384.587 263.368 384.009 263.529 383.569 263.893L382.669 264.654L381.5 265.64L380.311 266.648L379.131 267.644L377.931 268.641L376.73 269.649L375.519 270.635L374.308 271.643L373.097 272.628L371.874 273.625L370.642 274.622L369.078 275.878ZM448.559 196.289C447.509 197.704 448.795 199.686 450.521 199.29C450.96 199.194 451.314 198.947 451.603 198.594L452.085 197.929L452.825 196.943L453.554 195.967L454.273 194.981L454.991 193.995L455.699 193.009L456.395 192.023L457.091 191.048L457.788 190.062L458.452 189.087L459.128 188.111L459.804 187.135L460.457 186.149L461.101 185.195L461.744 184.231L462.527 183.03C463.437 181.604 462.151 179.76 460.501 180.136C460.029 180.243 459.622 180.532 459.344 180.961L458.582 182.097L457.949 183.062L457.306 184.016L456.673 184.981L456.009 185.945L455.333 186.91L454.68 187.864L454.004 188.839L453.318 189.804L452.61 190.769L451.924 191.745L451.216 192.71L450.509 193.674L449.791 194.65L449.051 195.636L448.559 196.289ZM468.894 164.828C468.132 166.275 469.429 167.947 471.027 167.583C471.552 167.455 471.992 167.111 472.249 166.629L472.527 166.125L473.009 165.182L473.502 164.26L473.963 163.317L474.424 162.406L474.874 161.463L475.346 160.563L475.785 159.631L476.224 158.73L476.642 157.787L477.06 156.897L477.479 155.975L477.885 155.064L478.261 154.164L478.657 153.264L479.021 152.353L479.407 151.453L479.761 150.553L480.115 149.674L480.264 149.267C480.897 147.627 479.15 146.073 477.606 146.888C477.199 147.102 476.91 147.445 476.727 147.874L476.587 148.249L476.244 149.106L475.901 149.996L475.526 150.875L475.161 151.743L474.786 152.633L474.4 153.512L474.014 154.402L473.618 155.292L473.2 156.171L472.793 157.071L472.364 157.971L471.925 158.882L471.486 159.782L471.056 160.682L470.585 161.582L470.113 162.504L469.641 163.404L469.169 164.315L468.894 164.828ZM482.025 130.045C481.724 131.61 483.353 132.843 484.757 132.103C485.272 131.835 485.614 131.374 485.722 130.806L485.905 129.852L486.066 129.027L486.215 128.213L486.333 127.377L486.451 126.562L486.557 125.747L486.664 124.933L486.75 124.14L486.847 123.336L486.922 122.532L486.996 121.739L487.05 120.935L487.093 120.142L487.147 119.359L487.168 118.576L487.2 117.805V117.012L487.211 116.251V115.48L487.19 114.709L487.158 113.947L487.126 113.186L487.083 112.436L487.03 111.696L486.997 111.385C486.837 109.659 484.671 109.005 483.621 110.366C483.321 110.752 483.192 111.213 483.235 111.706L483.267 111.953L483.309 112.649L483.342 113.357L483.385 114.064L483.406 114.772L483.416 115.501V116.219V116.959V117.677L483.395 118.417L483.364 119.157L483.321 119.896L483.278 120.657L483.224 121.407L483.16 122.146L483.074 122.918L483.01 123.668L482.913 124.439L482.817 125.211L482.72 125.994L482.58 126.755L482.463 127.548L482.345 128.341L482.195 129.124L482.025 130.045ZM478.294 94.243C479.173 95.84 481.542 95.454 481.82 93.664C481.895 93.257 481.82 92.839 481.627 92.453L481.542 92.324L481.198 91.702L480.855 91.081L480.491 90.47L480.126 89.848L479.73 89.248L479.344 88.669L478.948 88.069L478.53 87.49L478.123 86.9L477.694 86.342L477.255 85.785L476.805 85.217L476.366 84.67L475.884 84.134L475.423 83.598L474.941 83.073L474.448 82.548L473.955 82.045L473.451 81.53L472.937 81.048L472.421 80.555L471.875 80.062L471.339 79.59L470.781 79.118L470.235 78.636L469.667 78.197L469.099 77.747L468.778 77.501C467.384 76.461 465.476 77.672 465.798 79.366C465.884 79.848 466.141 80.245 466.527 80.534L466.816 80.738L467.331 81.156L467.856 81.585L468.371 82.014L468.875 82.443L469.378 82.893L469.86 83.332L470.342 83.782L470.824 84.254L471.274 84.704L471.724 85.176L472.174 85.648L472.624 86.141L473.053 86.612L473.482 87.116L473.889 87.62L474.307 88.123L474.694 88.638L475.09 89.153L475.465 89.678L475.851 90.203L476.215 90.76L476.58 91.296L476.923 91.843L477.266 92.411L477.587 92.968L477.908 93.525L478.22 94.104L478.294 94.243ZM450.285 72.054C451.014 72.3 451.764 72.096 452.279 71.55C453.201 70.521 452.772 68.913 451.454 68.463L450.767 68.206L449.974 67.96L449.192 67.702L448.41 67.456L447.605 67.22L446.791 66.995L445.977 66.769L445.163 66.544L444.337 66.34L443.491 66.126L442.676 65.933L441.808 65.73L440.961 65.558L440.104 65.376L439.247 65.205L438.368 65.033L437.488 64.872L436.599 64.722L435.708 64.572L434.819 64.433L433.907 64.294L432.985 64.165L432.664 64.111C431.057 63.918 429.974 65.709 430.874 67.059C431.196 67.531 431.657 67.809 432.214 67.884L432.515 67.927L433.394 68.055L434.284 68.194L435.131 68.312L435.988 68.451L436.856 68.601L437.713 68.762L438.549 68.923L439.374 69.084L440.2 69.267L441.036 69.449L441.84 69.631L442.644 69.813L443.449 70.027L444.242 70.22L445.024 70.434L445.806 70.649L446.577 70.863L447.339 71.089L448.1 71.335L448.861 71.571L449.59 71.817L450.285 72.054ZM413.593 66.716C414.558 66.705 415.351 65.966 415.447 64.99C415.544 63.876 414.654 62.911 413.528 62.911H412.51L411.491 62.922L410.451 62.933L409.4 62.965L408.339 62.986L407.288 63.018L406.206 63.061L405.134 63.115L404.072 63.157L403.001 63.221L401.907 63.285L400.813 63.349L399.709 63.424L398.615 63.509L397.522 63.594L396.396 63.691L395.292 63.788L394.487 63.863C392.772 64.034 392.182 66.189 393.544 67.26C393.931 67.55 394.392 67.689 394.874 67.635L395.656 67.56L396.77 67.475L397.864 67.378L398.946 67.292L400.018 67.217L401.101 67.132L402.172 67.079L403.234 67.004L404.296 66.94L405.357 66.897L406.386 66.854L407.448 66.811L408.476 66.779L409.505 66.758L410.534 66.748L411.553 66.727L412.581 66.716H413.593ZM376.29 70.146C376.987 70.028 377.556 69.535 377.769 68.849C378.187 67.488 377.03 66.159 375.636 66.394L374.393 66.598L373.192 66.823L371.981 67.049L370.781 67.263L369.569 67.489L368.326 67.724L367.104 67.971L365.881 68.228L364.649 68.485L363.417 68.742L362.163 68.999L360.919 69.267L359.676 69.556L358.422 69.835L356.996 70.157C356.246 70.35 355.71 70.95 355.57 71.722C355.399 73.062 356.61 74.166 357.907 73.855L359.279 73.544L360.533 73.265L361.766 72.997L363.009 72.707L364.22 72.461L365.442 72.193L366.675 71.946L367.886 71.699L369.097 71.463L370.298 71.227L371.498 71.002L372.699 70.766L373.899 70.552L375.078 70.359L376.29 70.146ZM339.717 78.571C341.239 78.121 341.561 76.117 340.253 75.195C339.771 74.862 339.202 74.766 338.646 74.926L337.863 75.141L336.545 75.537L335.227 75.912L333.909 76.308L332.591 76.705L331.262 77.101L329.922 77.509L328.593 77.927L327.242 78.356L325.901 78.774L324.573 79.203L323.221 79.653L321.871 80.092L320.553 80.531C318.934 81.067 318.826 83.307 320.36 84.047C320.81 84.262 321.303 84.294 321.764 84.133L323.072 83.694L324.412 83.265L325.752 82.826L327.092 82.397L328.421 81.979L329.729 81.561L331.069 81.143L332.387 80.725L333.706 80.339L335.013 79.942L336.331 79.556L337.64 79.181L338.937 78.795L339.717 78.571ZM304.055 90.437C305.556 89.869 305.684 87.779 304.28 86.986C303.787 86.728 303.209 86.664 302.694 86.868L301.29 87.393L299.907 87.94L298.513 88.465L297.109 89.011L295.715 89.558L294.3 90.105L292.896 90.673L291.492 91.241L290.078 91.809L288.674 92.377L287.259 92.966L285.094 93.877C284.429 94.145 283.979 94.788 283.947 95.496C283.893 96.922 285.287 97.897 286.584 97.361L288.718 96.471L290.132 95.903L291.526 95.324L292.93 94.766L294.324 94.198L295.718 93.64L297.122 93.093L298.505 92.568L299.888 92.022L301.282 91.486L302.665 90.939L304.055 90.437ZM269.346 104.908C269.979 104.619 270.408 103.986 270.45 103.279C270.493 101.853 269.046 100.867 267.749 101.446L265.83 102.325L264.383 103L262.937 103.675L261.49 104.35L260.043 105.036L258.596 105.711L257.149 106.419L255.702 107.116L254.255 107.824L252.798 108.531L250.675 109.571C249.154 110.342 249.346 112.551 250.954 113.087C251.426 113.237 251.919 113.205 252.369 112.991L254.48 111.951L255.917 111.243L257.375 110.536L258.812 109.839L260.258 109.153L261.695 108.478L263.132 107.803L264.558 107.127L265.995 106.452L267.442 105.776L269.346 104.908ZM235.635 121.576C236.267 121.233 236.642 120.569 236.632 119.85C236.568 118.446 235.067 117.567 233.834 118.21L232.312 119.014L230.843 119.807L229.374 120.611L227.906 121.404L226.438 122.218L224.959 123.022L223.49 123.826L222.022 124.652L220.554 125.488L219.064 126.313L217.263 127.332C216.598 127.718 216.234 128.478 216.33 129.25C216.545 130.569 217.981 131.297 219.149 130.644L220.95 129.626L222.397 128.8L223.876 127.986L225.334 127.171L226.803 126.357L228.272 125.553L229.74 124.749L231.198 123.956L232.656 123.174L234.125 122.381L235.635 121.576ZM202.942 140.174C204.314 139.327 204.056 137.248 202.534 136.744C201.998 136.573 201.441 136.626 200.948 136.916L199.865 137.569L198.397 138.48L196.907 139.38L195.449 140.291L193.959 141.213L192.48 142.124L191.011 143.057L189.553 143.979L188.074 144.912L186.627 145.834L184.922 146.938C183.454 147.892 183.968 150.154 185.705 150.411C186.165 150.475 186.595 150.39 186.98 150.132L188.673 149.049L190.131 148.127L191.589 147.194L193.036 146.283L194.515 145.361L195.973 144.45L197.442 143.539L198.91 142.628L200.378 141.717L201.857 140.827L202.942 140.174ZM171.299 160.53C172.692 159.587 172.231 157.421 170.57 157.099C170.066 157.014 169.562 157.11 169.155 157.399L168.105 158.117L166.722 159.06L165.328 160.025L163.945 160.99L162.573 161.954L161.179 162.908L159.818 163.883L158.478 164.859L157.106 165.813L155.755 166.789L154.415 167.765L153.697 168.29C153.044 168.762 152.786 169.555 152.99 170.337C153.365 171.612 154.865 172.149 155.937 171.366L156.645 170.851L157.974 169.886L159.335 168.932L160.664 167.967L162.025 167.003L163.386 166.038L164.747 165.074L166.119 164.12L167.491 163.166L168.885 162.201L170.246 161.247L171.299 160.53ZM140.878 182.643C141.682 182.032 141.842 180.896 141.274 180.07C140.652 179.18 139.409 178.966 138.551 179.641L137.383 180.563L136.097 181.538L134.822 182.535L133.568 183.521L132.303 184.518L131.049 185.515L129.806 186.512L128.562 187.509L127.318 188.517L126.086 189.514L124.875 190.511L123.76 191.422C123.181 191.926 122.946 192.666 123.149 193.405C123.524 194.734 125.11 195.238 126.183 194.37L127.287 193.48L128.498 192.472L129.72 191.475L130.942 190.489L132.186 189.492L133.419 188.516L134.673 187.519L135.927 186.511L137.181 185.536L138.435 184.55L139.71 183.564L140.878 182.643ZM111.861 206.568C112.868 205.657 112.644 204.039 111.422 203.427C110.736 203.095 109.922 203.202 109.342 203.706L108.313 204.606L107.167 205.624L106.041 206.643L104.905 207.651L103.779 208.658L102.675 209.687L101.571 210.684L100.467 211.703L99.363 212.721L98.259 213.739L97.187 214.758L96.093 215.766L95.364 216.462C94.399 217.405 94.656 219.014 95.889 219.571C96.618 219.893 97.41 219.764 97.968 219.238L98.697 218.542L99.769 217.534L100.852 216.526L101.934 215.529L103.028 214.522L104.132 213.514L105.236 212.506L106.329 211.498L107.444 210.491L108.57 209.494L109.695 208.475L110.832 207.467L111.861 206.568ZM84.57 232.423C85.717 231.234 84.892 229.239 83.241 229.186C82.705 229.186 82.234 229.369 81.847 229.754L80.636 230.997L79.65 232.016L78.674 233.024L77.71 234.043L76.756 235.051L75.791 236.069L74.858 237.077L73.915 238.106L72.972 239.114L72.039 240.121L71.128 241.129L70.195 242.148L69.305 243.166L68.909 243.596C68.394 244.196 68.277 245.01 68.631 245.707C69.241 246.918 70.839 247.133 71.739 246.146L73.025 244.709L73.925 243.712L74.836 242.704L75.758 241.708L76.68 240.7L77.613 239.703L78.556 238.684L79.51 237.688L80.453 236.669L81.428 235.683L82.382 234.664L83.357 233.668L84.57 232.423ZM59.563 260.442C60.56 259.21 59.659 257.344 58.073 257.355C57.505 257.344 56.958 257.613 56.604 258.042L55.671 259.221L54.857 260.229L54.086 261.226L53.303 262.222L52.531 263.219L51.77 264.195L50.998 265.192L50.258 266.189L49.519 267.175L48.769 268.171L48.04 269.157L47.322 270.133L46.603 271.119L45.907 272.105L45.124 273.187C44.695 273.798 44.674 274.591 45.049 275.246C45.745 276.425 47.428 276.532 48.211 275.407L48.972 274.335L49.68 273.37L50.388 272.394L51.095 271.418L51.814 270.453L52.543 269.488L53.272 268.503L54.022 267.517L54.772 266.531L55.522 265.566L56.283 264.569L57.054 263.594L57.847 262.608L58.63 261.632L59.563 260.442ZM37.932 291.067C38.682 289.781 37.728 288.14 36.227 288.183C35.573 288.215 35.027 288.537 34.684 289.094L34.416 289.555L33.837 290.498L33.28 291.441L32.722 292.406L32.175 293.349L31.65 294.292L31.125 295.235L30.6 296.178L30.075 297.11L29.582 298.053L29.078 298.987L28.596 299.919L28.114 300.852L27.632 301.785L27.16 302.707L26.71 303.629L26.271 304.551L25.821 305.473L25.628 305.891C25.274 306.61 25.414 307.435 25.971 308.024C26.893 308.979 28.479 308.743 29.047 307.542L29.24 307.146L29.669 306.257L30.109 305.345L30.548 304.435L31.009 303.523L31.48 302.634L31.93 301.7L32.412 300.8L32.916 299.868L33.409 298.946L33.913 298.046L34.428 297.103L34.943 296.191L35.468 295.259L36.004 294.326L36.54 293.415L37.097 292.472L37.655 291.529L37.932 291.067ZM22.185 324.886C22.678 323.279 20.985 321.853 19.505 322.614C19.044 322.85 18.723 323.225 18.562 323.74L18.401 324.233L18.144 325.112L17.887 325.969L17.651 326.826L17.415 327.683L17.19 328.53L16.965 329.387L16.751 330.235L16.558 331.082L16.354 331.918L16.182 332.765L16.011 333.601L15.839 334.426L15.678 335.263L15.539 336.077L15.389 336.913L15.26 337.717L15.142 338.542L15.035 339.356L14.928 340.161L14.831 340.975L14.746 341.789L14.65 342.679C14.543 344.297 16.386 345.337 17.683 344.362C18.122 344.041 18.38 343.558 18.433 343.001L18.508 342.197L18.594 341.426L18.68 340.665L18.776 339.893L18.883 339.122L18.99 338.351L19.119 337.557L19.258 336.775L19.397 335.993L19.558 335.189L19.719 334.385L19.88 333.591L20.041 332.787L20.234 331.973L20.438 331.168L20.631 330.354L20.845 329.529L21.07 328.715L21.295 327.89L21.531 327.042L21.767 326.218L22.014 325.381L22.185 324.886ZM19.634 361.234C19.195 359.616 16.997 359.305 16.161 360.752C15.914 361.191 15.839 361.717 15.979 362.199L16.14 362.843L16.333 363.529L16.537 364.226L16.741 364.922L16.956 365.587L17.191 366.273L17.427 366.938L17.674 367.613L17.942 368.278L18.21 368.942L18.499 369.586L18.778 370.239L19.089 370.872L19.389 371.525L19.722 372.158L20.044 372.791L20.387 373.412L20.741 374.034L21.095 374.635L21.481 375.245L21.856 375.856L22.252 376.467L22.648 377.045L23.055 377.624L23.473 378.203L23.902 378.782L24.352 379.328L24.749 379.843C25.896 381.215 28.104 380.433 28.093 378.643C28.082 378.193 27.943 377.775 27.675 377.443L27.3 376.992L26.904 376.478L26.507 375.963L26.132 375.427L25.746 374.891L25.382 374.355L25.028 373.82L24.685 373.262L24.342 372.715L24.021 372.147L23.689 371.58L23.378 371.012L23.078 370.433L22.778 369.854L22.499 369.264L22.22 368.686L21.952 368.085L21.695 367.484L21.46 366.884L21.213 366.273L20.978 365.652L20.763 365.051L20.56 364.429L20.356 363.796L20.163 363.164L19.981 362.531L19.788 361.888L19.634 361.234ZM41.748 388.868C41.266 388.611 40.697 388.579 40.183 388.782C38.672 389.393 38.586 391.462 40.022 392.234L40.654 392.566L41.329 392.93L42.025 393.274L42.712 393.606L43.408 393.949L44.127 394.27L44.845 394.592L45.563 394.892L46.292 395.203L47.042 395.504L47.771 395.793L48.532 396.083L49.293 396.351L50.065 396.629L50.826 396.887L51.608 397.144L52.401 397.402L53.194 397.659L53.998 397.885L54.791 398.12L55.617 398.355L56.442 398.559L57.246 398.773L58.211 399.009C59.915 399.405 61.18 397.487 60.151 396.05C59.883 395.664 59.476 395.418 59.036 395.311L58.146 395.085L57.363 394.871L56.57 394.679L55.788 394.464L55.027 394.239L54.255 394.013L53.483 393.778L52.744 393.542L52.004 393.284L51.265 393.038L50.547 392.77L49.818 392.512L49.111 392.244L48.403 391.976L47.696 391.697L47.01 391.397L46.335 391.097L45.649 390.796L44.984 390.496L44.319 390.184L43.655 389.873L43.022 389.541L42.379 389.209L41.748 388.868ZM77.442 398.033C76.724 398.001 76.059 398.345 75.695 398.966C75.009 400.198 75.824 401.732 77.228 401.828L78.021 401.891L79.007 401.946L79.993 401.999L80.968 402.053L81.965 402.085L82.973 402.117L83.97 402.138L84.978 402.181L85.996 402.192H87.025H88.033H89.073L90.112 402.171H91.152L92.203 402.15L93.264 402.118L94.325 402.097L95.376 402.054L96.351 402C98.056 401.926 98.763 399.813 97.476 398.678C97.09 398.356 96.64 398.206 96.136 398.217L95.203 398.26L94.153 398.291L93.103 398.324L92.074 398.355L91.055 398.387L90.026 398.398H89.029H88H87.003L86.006 398.387L85.009 398.376L84.034 398.333L83.048 398.312L82.072 398.281L81.096 398.248L80.131 398.206L79.188 398.152L78.234 398.088L77.442 398.033ZM114.798 396.544C113.169 396.769 112.59 398.858 113.887 399.909C114.283 400.241 114.809 400.402 115.324 400.316L116.556 400.155L117.735 399.995L118.882 399.834L120.061 399.663L121.251 399.48L122.43 399.297L123.62 399.105L124.81 398.912L125.999 398.708L127.2 398.505L128.401 398.302L129.601 398.076L130.834 397.841L132.045 397.615L133.256 397.38L134.092 397.208C134.864 397.058 135.453 396.446 135.571 395.643C135.754 394.335 134.617 393.243 133.309 393.489L132.505 393.661L131.283 393.886L130.093 394.122L128.893 394.325L127.703 394.551L126.524 394.765L125.345 394.969L124.144 395.162L122.976 395.354L121.818 395.546L120.65 395.718L119.482 395.901L118.324 396.062L117.178 396.233L116.031 396.383L114.798 396.544ZM151.629 389.318C150.16 389.682 149.721 391.538 150.836 392.545C151.318 392.995 151.961 393.156 152.594 393.006L153.333 392.792L154.619 392.46L155.916 392.127L157.203 391.773L158.5 391.419L159.808 391.076L161.116 390.7L162.413 390.346L163.731 389.96L165.049 389.585L166.367 389.198L167.696 388.802L169.015 388.406L170.848 387.849C172.456 387.356 172.627 385.148 171.148 384.354C170.698 384.119 170.183 384.076 169.711 384.214L167.889 384.772L166.571 385.158L165.274 385.554L163.966 385.93L162.658 386.305L161.361 386.669L160.064 387.044L158.767 387.409L157.492 387.763L156.195 388.117L154.919 388.46L153.643 388.781L152.357 389.125L151.629 389.318ZM187.56 378.331C185.941 378.91 185.877 381.15 187.442 381.858C187.892 382.05 188.364 382.083 188.836 381.912L190.626 381.279L191.998 380.786L193.381 380.293L194.764 379.778L196.136 379.274L197.518 378.749L198.912 378.235L200.295 377.71L201.699 377.185L203.092 376.638L204.486 376.091L206.577 375.277C207.295 374.999 207.745 374.312 207.756 373.541C207.767 372.18 206.427 371.247 205.162 371.751L203.093 372.555L201.71 373.091L200.317 373.627L198.934 374.152L197.551 374.677L196.179 375.202L194.807 375.705L193.435 376.22L192.063 376.702L190.702 377.206L189.33 377.688L187.56 378.331ZM222.536 364.536C221.861 364.847 221.421 365.49 221.4 366.229C221.4 367.623 222.804 368.566 224.069 368.019L225.72 367.301L227.145 366.668L228.582 366.047L230.008 365.403L231.445 364.75L232.892 364.096L234.329 363.442L235.765 362.778L237.223 362.113L238.66 361.449L240.097 360.762L241.286 360.194C242.251 359.755 242.637 358.587 242.165 357.643C241.693 356.699 240.59 356.314 239.657 356.753L238.467 357.311L237.031 357.997L235.595 358.662L234.169 359.315L232.732 359.98L231.295 360.633L229.88 361.277L228.444 361.921L227.007 362.553L225.603 363.186L224.166 363.808L222.536 364.536ZM256.527 348.458C255.026 349.229 255.23 351.437 256.838 351.952C257.31 352.101 257.824 352.069 258.264 351.845L260.483 350.72L261.952 349.948L263.398 349.198L264.877 348.426L266.346 347.644L267.804 346.862L269.272 346.08L270.762 345.297L272.22 344.504L273.678 343.711L274.986 343.003C276.347 342.242 276.261 340.249 274.836 339.595C274.289 339.359 273.668 339.37 273.153 339.649L271.867 340.367L270.398 341.172L268.929 341.943L267.482 342.725L266.024 343.507L264.556 344.29L263.098 345.061L261.651 345.822L260.182 346.573L258.736 347.334L256.527 348.458Z" fill="#EBEEDF"/>
<path fill-rule="evenodd" clip-rule="evenodd" d="M363.117 0C363.117 16.314 376.334 29.67 392.51 29.67C376.334 29.67 363.117 43.016 363.117 59.352C363.117 43.016 349.901 29.67 333.747 29.67C349.901 29.671 363.117 16.315 363.117 0Z" fill="#ECFFA0"/>
<path fill-rule="evenodd" clip-rule="evenodd" d="M30.2782 183.04C30.2782 199.354 43.4952 212.7 59.6702 212.7C43.4952 212.7 30.2782 226.055 30.2782 242.381C30.2782 226.056 17.0622 212.7 0.908203 212.7C17.0612 212.7 30.2782 199.354 30.2782 183.04Z" fill="#C1EA1D"/>
<path fill-rule="evenodd" clip-rule="evenodd" d="M451.079 258.417C451.079 268.161 458.978 276.125 468.626 276.125C458.979 276.125 451.079 284.089 451.079 293.833C451.079 284.089 443.2 276.125 433.553 276.125C443.2 276.125 451.079 268.161 451.079 258.417Z" fill="white"/>
<path fill-rule="evenodd" clip-rule="evenodd" d="M281.371 105.017L290.557 102.556C300.695 99.8392 311.053 105.841 313.759 115.942L365.109 307.581C367.833 317.749 361.816 328.067 351.708 330.775L214.225 367.614C204.086 370.33 193.729 364.329 191.022 354.227L139.673 162.589C136.948 152.421 142.966 142.103 153.073 139.394L162.259 136.933L162.271 136.978L164.85 145.909C167.559 156.017 177.785 162.126 187.948 159.402L270.359 137.32C280.494 134.605 286.523 124.243 283.805 114.101L281.383 105.062C281.379 105.047 281.375 105.032 281.371 105.017ZM179.382 200.834L181.828 209.963L300.939 178.047L298.493 168.919L179.382 200.834ZM186.72 228.221L189.166 237.35L308.278 205.434L305.832 196.305L186.72 228.221ZM194.058 255.607L196.504 264.736L315.616 232.82L313.17 223.691L194.058 255.607ZM201.396 282.993L203.842 292.122L322.954 260.206L320.508 251.078L201.396 282.993ZM208.734 310.38L211.18 319.509L330.292 287.593L327.846 278.464L208.734 310.38Z" fill="#C1EA1D"/>
<path fill-rule="evenodd" clip-rule="evenodd" d="M265.668 95.9761L287.245 90.1945C304.217 85.647 321.586 95.7083 326.12 112.63L377.47 304.269C382.033 321.3 371.919 338.609 355.02 343.136L217.537 379.975C200.565 384.523 183.195 374.461 178.661 357.539L127.312 165.901C122.748 148.87 132.863 131.561 149.761 127.033L171.323 121.256L174.603 133.553L177.179 142.478L177.211 142.597C178.141 146.068 181.487 147.885 184.636 147.041L267.047 124.959C270.4 124.061 272.32 120.683 271.444 117.413L269.022 108.374L269.018 108.359L265.668 95.9761ZM149.973 140.516C150.62 140.217 151.29 139.951 151.981 139.722C152.339 139.603 152.704 139.493 153.073 139.394L162.259 136.933L162.271 136.978L164.85 145.909C167.559 156.017 177.785 162.126 187.948 159.402L270.359 137.32C280.479 134.609 286.506 124.272 283.816 114.143C283.813 114.129 283.809 114.115 283.805 114.101L281.383 105.062L281.371 105.017L290.557 102.556C290.991 102.439 291.426 102.339 291.86 102.254C292.51 102.128 293.159 102.036 293.805 101.978C302.822 101.169 311.342 106.92 313.759 115.942L365.109 307.581C367.833 317.749 361.816 328.067 351.708 330.775L214.225 367.614C204.086 370.33 193.729 364.329 191.022 354.227L139.673 162.589C137.24 153.509 141.778 144.31 149.973 140.516ZM181.828 209.963L179.382 200.834L298.493 168.919L300.939 178.047L181.828 209.963ZM189.166 237.35L186.72 228.221L305.832 196.305L308.278 205.434L189.166 237.35ZM196.504 264.736L194.058 255.607L313.17 223.691L315.616 232.82L196.504 264.736ZM203.842 292.122L201.396 282.993L320.508 251.078L322.954 260.206L203.842 292.122ZM211.18 319.509L208.734 310.38L327.846 278.464L330.292 287.593L211.18 319.509Z" fill="#ECFFA0"/>
<path d="M181.828 209.963L179.382 200.834L298.493 168.919L300.939 178.047L241.384 194.005L181.828 209.963Z" fill="#242424"/>
<path d="M189.166 237.35L186.72 228.221L305.832 196.305L308.278 205.434L189.166 237.35Z" fill="#242424"/>
<path d="M196.504 264.736L194.058 255.607L313.17 223.691L315.616 232.82L196.504 264.736Z" fill="#242424"/>
<path d="M203.842 292.122L201.396 282.993L320.508 251.078L322.954 260.206L203.842 292.122Z" fill="#242424"/>
<path d="M211.18 319.509L208.734 310.38L327.846 278.464L330.292 287.593L211.18 319.509Z" fill="#242424"/>
<path d="M198.781 100.352L200.676 107.425L187.656 110.914C184.084 111.871 182.025 115.771 183.078 119.698L184.973 126.771C186.016 130.665 189.752 133.048 193.329 132.089L251.85 116.408C255.422 115.451 257.48 111.551 256.428 107.625L254.533 100.552C253.49 96.6574 249.754 94.2748 246.177 95.2334L233.156 98.7223L231.261 91.6492C229.174 83.8609 221.675 79.1031 214.458 81.0369L208.026 82.7605C200.833 84.6878 196.701 92.5904 198.781 100.352Z" fill="#C1EA1D"/>
<path fill-rule="evenodd" clip-rule="evenodd" d="M209.13 86.8809C204.52 88.1161 201.346 93.442 202.901 99.2481L205.901 110.442L188.76 115.034C187.78 115.297 186.667 116.613 187.198 118.594L189.093 125.667C189.619 127.63 191.254 128.229 192.225 127.969L250.746 112.288C251.726 112.026 252.839 110.709 252.308 108.729L250.413 101.656C249.887 99.6921 248.252 99.0934 247.281 99.3538L230.14 103.947L227.14 92.7532C225.577 86.9206 220.196 83.9156 215.562 85.1573L209.13 86.8809ZM194.661 101.456C192.057 91.7388 197.146 81.2595 206.922 78.6401L213.354 76.9165C223.154 74.2907 232.77 80.8011 235.381 90.5451L236.172 93.4978L245.072 91.113C251.256 89.4562 257.093 93.6226 258.653 99.4475L260.549 106.521C262.122 112.393 259.118 118.877 252.954 120.529L194.433 136.21C188.25 137.866 182.413 133.7 180.852 127.875L178.957 120.802C177.384 114.929 180.388 108.445 186.551 106.794L195.452 104.409L194.661 101.456Z" fill="#ECFFA0"/>
</svg>
