<svg width="487" height="451" viewBox="0 0 487 451" fill="none" xmlns="http://www.w3.org/2000/svg">
<path fill-rule="evenodd" clip-rule="evenodd" d="M371.142 41.323C420.236 114.796 244.995 248.165 194.105 285.834C140.906 325.212 81.1932 345.368 27.9942 293.087C-32.8468 233.294 64.0582 190.548 108.433 162.465C168.403 124.485 225.654 71.583 282.803 37.645C309.993 21.478 348.621 10.494 371.142 41.323Z" fill="#5D7600"/>
<path fill-rule="evenodd" clip-rule="evenodd" d="M407.156 66.66C462.611 62.307 500.213 124.536 462.765 176.402C443.269 203.501 352.468 296.559 325.792 319.098C268.284 366.351 125.773 446.612 52.9793 395.834C12.1953 367.387 14.1953 322.153 55.4413 293.086C116.898 249.771 176.766 254.433 241.815 193.552C286.086 152.102 345.44 75.158 407.156 66.66Z" fill="#5D7600"/>
<path fill-rule="evenodd" clip-rule="evenodd" d="M459.533 211.429C494.416 280.548 328.1 377.492 279.93 404.695C229.554 433.14 175.534 444.228 134.853 393.089C88.3741 334.539 177.021 307.907 218.574 288.271C274.645 261.741 329.998 222 383.196 198.684C408.54 187.542 443.218 182.206 459.533 211.429Z" fill="#5D7600"/>
<path d="M168.847 303.298L169.983 304.616L171.098 305.934L172.234 307.252L173.36 308.56L174.496 309.868L175.633 311.165L176.758 312.441L177.905 313.727L179.03 315.024L180.124 316.247C181.024 317.254 182.664 317.008 183.265 315.786C183.586 315.11 183.479 314.285 182.965 313.717L181.893 312.506L180.757 311.23L179.632 309.944L178.507 308.647L177.371 307.361L176.246 306.075L175.11 304.767L173.985 303.449L172.892 302.152L171.756 300.833L170.641 299.515C170.341 299.151 169.933 298.936 169.483 298.862C169.504 298.423 169.344 297.983 169.043 297.618L168.422 296.868L167.296 295.55L166.203 294.221L165.12 292.881L164.027 291.563L162.966 290.234L161.872 288.916L160.789 287.576L159.728 286.258L158.656 284.918L157.156 283.041C156.545 282.259 155.42 282.099 154.583 282.687C153.693 283.32 153.511 284.563 154.187 285.41L155.677 287.297L156.749 288.637L157.832 289.966L158.904 291.306L159.997 292.635L161.091 293.975L162.195 295.315L163.288 296.645L164.382 297.985L165.496 299.314L166.129 300.075C166.44 300.45 166.858 300.654 167.297 300.719C167.286 301.148 167.415 301.598 167.726 301.973L168.847 303.298ZM80.9609 188.528C78.9779 186.191 78.1529 183.276 78.3989 180.424C78.6669 177.594 79.9969 174.839 82.3549 172.867C82.5799 172.653 82.8269 172.459 83.0839 172.299L82.7509 171.58L82.1829 170.337L81.6149 169.083L81.0569 167.85L80.4999 166.606L79.9539 165.363L79.4069 164.12L78.8709 162.887L78.3459 161.654L77.8209 160.422L77.3059 159.2L76.8029 157.989L76.2879 156.767L76.0409 156.188C75.4619 154.72 76.8019 153.219 78.3559 153.637C78.9139 153.798 79.3419 154.194 79.5669 154.73L79.8029 155.298L80.3069 156.499L80.8109 157.71L81.3259 158.932L81.8399 160.154L82.3649 161.365L82.8899 162.587L83.4259 163.809L83.9729 165.031L84.5199 166.263L85.0659 167.485L85.6229 168.729L86.2019 169.973L86.5129 170.627C87.8209 170.252 89.1719 170.134 90.5009 170.219C93.3409 170.455 96.0749 171.752 98.0469 174.1C100.019 176.426 100.856 179.352 100.598 182.193C100.352 185.023 99.0119 187.788 96.6429 189.782C96.4819 189.911 96.3319 190.05 96.1499 190.189L96.7719 191.358L97.4359 192.644L98.1119 193.919L98.8189 195.194L99.5059 196.491L100.202 197.778L100.899 199.075L101.617 200.361L102.325 201.636L103.065 202.933L103.783 204.241L104.394 205.324C104.726 205.882 104.705 206.578 104.405 207.157C103.655 208.454 101.822 208.486 101.082 207.211L100.46 206.117L99.7309 204.809L99.0129 203.512L98.2939 202.204L97.5759 200.907L96.8679 199.61L96.1599 198.313L95.4629 197.027L94.7659 195.741L94.0799 194.444L93.4049 193.169L92.7509 191.936C91.3679 192.365 89.9319 192.515 88.5059 192.397C85.6669 192.173 82.9329 190.865 80.9609 188.528ZM88.8399 188.636C90.7269 188.785 92.6559 188.207 94.2099 186.899C95.7749 185.581 96.6649 183.78 96.8259 181.904C96.9869 180.029 96.4399 178.099 95.1429 176.555C93.8459 175.023 92.0239 174.154 90.1589 174.015C88.2839 173.854 86.3539 174.422 84.7889 175.741C83.2349 177.049 82.3559 178.871 82.1849 180.736C82.0239 182.601 82.5709 184.531 83.8679 186.074C85.1839 187.617 86.9849 188.485 88.8399 188.636ZM144.3 266.274L143.303 264.944L142.327 263.604L141.352 262.275L140.366 260.946L139.412 259.606L138.447 258.266L137.482 256.948L136.549 255.608L135.606 254.268L134.641 252.917C133.848 251.781 132.144 251.877 131.436 253.067C131.072 253.71 131.093 254.504 131.511 255.103L132.497 256.486L133.451 257.815L134.405 259.166L135.359 260.506L136.335 261.846L137.289 263.176L138.275 264.516L139.251 265.866L140.248 267.206L141.245 268.546L142.627 270.423C143.496 271.569 145.253 271.365 145.864 270.069C146.175 269.437 146.1 268.697 145.693 268.14L144.3 266.274ZM122.948 235.692L122.091 234.352L121.223 233.044L120.376 231.726L119.529 230.397L118.693 229.079L117.857 227.761L117.01 226.442L116.206 225.124L115.381 223.806L114.577 222.498L113.966 221.501C113.655 221.019 113.151 220.697 112.562 220.622C110.997 220.44 109.893 222.166 110.708 223.506L111.33 224.503L112.145 225.832L112.97 227.161L113.806 228.479L114.631 229.808L115.478 231.137L116.335 232.466L117.171 233.784L118.028 235.124L118.896 236.453L119.764 237.782L120.879 239.466C121.672 240.666 123.441 240.559 124.127 239.305C124.46 238.673 124.427 237.965 124.052 237.365L122.948 235.692ZM72.6649 136.401L72.2689 135.233L71.8719 134.097L71.5069 132.95L71.1209 131.814L70.7779 130.678L70.4139 129.542L70.0489 128.406L69.7059 127.281L69.3739 126.156L69.0309 125.031L68.6979 123.916L68.3759 122.802L68.0759 121.698L67.7549 120.594L67.3899 119.264C67.2619 118.782 66.9609 118.374 66.5429 118.128C65.0849 117.26 63.2949 118.61 63.7239 120.261L64.0989 121.644L64.4199 122.759L64.7309 123.863L65.0529 125.01L65.3959 126.146L65.7279 127.282L66.0709 128.407L66.4359 129.565L66.7899 130.712L67.1439 131.848L67.5299 133.016L67.9049 134.174L68.2799 135.331L68.6759 136.5L69.0619 137.646L69.3299 138.428C69.5019 138.857 69.7479 139.19 70.1449 139.425C71.6559 140.336 73.4999 138.846 72.9319 137.174L72.6649 136.401ZM63.1679 100.395L62.9959 99.398L62.8249 98.38L62.6539 97.372L62.4929 96.375L62.3539 95.367L62.2149 94.381L62.0749 93.384L61.9469 92.398L61.8399 91.422L61.7219 90.446L61.6149 89.47L61.5189 88.506L61.4219 87.552L61.3369 86.588L61.2509 85.645L61.1759 84.702L61.1119 83.769L61.0479 82.836L61.0369 82.429C61.0049 81.968 60.8229 81.561 60.5119 81.228C59.2789 79.984 57.1459 80.917 57.2429 82.664L57.2639 83.103L57.3279 84.046L57.3919 85.022L57.4769 85.998L57.5409 86.974L57.6379 87.95L57.7349 88.925L57.8309 89.911L57.9379 90.919L58.0669 91.895L58.1739 92.924L58.3019 93.921L58.4519 94.928L58.6129 95.947L58.7519 96.966L58.9129 97.984L59.0629 99.024L59.2449 100.064L59.4159 101.093L59.5339 101.672C59.6189 102.208 59.9299 102.658 60.3909 102.958C61.7949 103.784 63.5419 102.583 63.2739 100.975L63.1679 100.395ZM61.6019 62.922L61.7089 62.118L61.8379 61.335L61.9559 60.542L62.0739 59.781L62.2139 58.998L62.3639 58.237L62.5029 57.476L62.6749 56.736L62.8359 55.986L63.0069 55.247L63.1899 54.518L63.3819 53.8L63.5649 53.071L63.7579 52.353L63.9719 51.657L64.1859 50.96L64.4109 50.264L64.6469 49.588L64.8719 48.892L65.1189 48.227L65.3659 47.563L65.6119 46.887L65.8699 46.244L65.9879 46.019C66.1699 45.569 66.1919 45.086 66.0309 44.636C65.4519 43.007 63.1909 42.975 62.4929 44.55L62.3749 44.84L62.0849 45.536L61.8169 46.233L61.5479 46.941L61.2909 47.659L61.0339 48.377L60.7869 49.116L60.5729 49.856L60.3259 50.606L60.1119 51.356L59.9079 52.107L59.7039 52.868L59.5109 53.629L59.3069 54.401L59.1459 55.194L58.9529 55.976L58.8029 56.759L58.6429 57.552L58.4929 58.356L58.3429 59.17L58.2039 59.984L58.0639 60.81L57.9459 61.625L57.8499 62.472L57.7319 63.426C57.6569 63.994 57.8499 64.551 58.2459 64.958C59.3609 66.095 61.2899 65.419 61.4829 63.854L61.6019 62.922ZM76.1699 30.818L76.6419 30.368L77.1239 29.929L77.6059 29.5L78.1099 29.071L78.6029 28.653L79.1059 28.257L79.6209 27.839L80.1459 27.453L80.6709 27.078L81.2069 26.714L81.7319 26.339L82.2889 25.985L82.8249 25.631L83.3819 25.277L83.9499 24.966L84.5179 24.633L85.0969 24.322L85.6649 24.011L86.2439 23.732L86.8329 23.421L87.4329 23.142L88.0339 22.863L88.6559 22.606L89.2669 22.348L89.8889 22.102L90.5109 21.855L91.1329 21.62L91.4659 21.502C91.9259 21.352 92.2909 21.052 92.5269 20.623C93.3519 19.101 91.9159 17.364 90.2649 17.933L89.8899 18.062L89.2029 18.319L88.5279 18.566L87.8519 18.845L87.1879 19.123L86.5339 19.402L85.8699 19.723L85.2159 20.023L84.5839 20.323L83.9519 20.667L83.3189 20.988L82.6869 21.331L82.0649 21.685L81.4539 22.06L80.8429 22.424L80.2419 22.799L79.6529 23.196L79.0639 23.592L78.4739 23.989L77.9059 24.439L77.3379 24.857L76.7699 25.296L76.2229 25.746L75.6759 26.185L75.1299 26.667L74.5939 27.141L74.0799 27.613L73.5549 28.106L73.4369 28.213C73.1369 28.503 72.9329 28.878 72.8899 29.296C72.5899 31.075 74.7229 32.169 76.0519 30.936L76.1699 30.818ZM110.267 18.427L111.038 18.416L111.831 18.427L112.635 18.438L113.428 18.449L114.232 18.492L115.047 18.524L115.851 18.556L116.677 18.61L117.491 18.674L118.316 18.738L119.141 18.813L119.977 18.899L120.824 18.985L121.66 19.092L122.507 19.188L123.375 19.295L124.243 19.413L125.1 19.552L125.957 19.691L126.836 19.831L127.715 19.981L128.015 20.045C128.572 20.142 129.087 20.013 129.537 19.659C130.823 18.652 130.33 16.615 128.733 16.315L128.412 16.262L127.501 16.101L126.601 15.951L125.711 15.802L124.811 15.684L123.921 15.555L123.031 15.427L122.152 15.32L121.284 15.223L120.405 15.126L119.537 15.04L118.658 14.955L117.811 14.891L116.954 14.837L116.107 14.783L115.26 14.751L114.413 14.697L113.577 14.665L112.73 14.644L111.904 14.633L111.09 14.644H110.254L109.514 14.676C108.132 14.676 107.231 16.08 107.788 17.345C108.11 18.021 108.763 18.449 109.524 18.449L110.267 18.427ZM147.045 24.965L148.031 25.298L148.985 25.63L149.961 25.951L150.936 26.294L151.901 26.637L152.898 27.012L153.863 27.366L154.86 27.741L155.846 28.127L156.843 28.513L157.84 28.899L158.837 29.306L159.845 29.713L160.852 30.131L161.859 30.56L162.878 30.989L163.617 31.3C164.046 31.493 164.539 31.504 164.989 31.354C166.619 30.743 166.715 28.514 165.139 27.816L164.41 27.516L163.37 27.066L162.341 26.637L161.323 26.219L160.305 25.801L159.276 25.383L158.268 24.987L157.249 24.59L156.242 24.204L155.245 23.829L154.237 23.443L153.229 23.079L152.222 22.725L151.236 22.382L150.25 22.028L149.253 21.696L148.288 21.374L147.312 21.063C146.251 20.699 145.104 21.353 144.858 22.446C144.654 23.411 145.169 24.354 146.101 24.665L147.045 24.965ZM181.614 39.972L182.675 40.529L183.737 41.108L184.809 41.687L185.892 42.276L186.964 42.877L188.047 43.478L189.119 44.067L190.213 44.689L191.295 45.321L192.378 45.932L193.471 46.586L194.554 47.218L195.669 47.872L196.869 48.59C198.016 49.287 199.516 48.611 199.753 47.282C199.871 46.511 199.538 45.761 198.874 45.353L197.62 44.613L196.516 43.959L195.412 43.305L194.319 42.662L193.215 42.03L192.111 41.397L191.018 40.776L189.935 40.165L188.842 39.554L187.738 38.954L186.655 38.353L185.572 37.785L184.5 37.196L183.429 36.617L182.303 36.038C181.049 35.384 179.537 36.295 179.505 37.71C179.516 38.428 179.902 39.071 180.524 39.404L181.614 39.972ZM213.396 59.137L214.521 59.898L215.647 60.659L216.783 61.441L217.909 62.213L219.034 62.985L220.171 63.789L221.307 64.593L222.422 65.397L223.558 66.201L224.705 67.027L225.841 67.852L226.988 68.688L228.102 69.502C228.488 69.792 228.97 69.92 229.463 69.845C231.146 69.62 231.725 67.455 230.363 66.436L229.238 65.622L228.091 64.786L226.945 63.95L225.808 63.124L224.662 62.31L223.504 61.496L222.379 60.692L221.232 59.877L220.086 59.094L218.949 58.312L217.813 57.53L216.676 56.769L215.551 55.997L214.875 55.536C214.393 55.215 213.814 55.129 213.257 55.3C211.724 55.772 211.413 57.776 212.721 58.676L213.396 59.137ZM244.171 81.851L245.328 82.805L246.486 83.738L247.632 84.681L248.79 85.624L249.947 86.578L251.116 87.521L252.252 88.497L253.42 89.451L254.567 90.437L255.735 91.413L257.504 92.925C258.566 93.825 260.194 93.321 260.569 91.96C260.762 91.273 260.527 90.513 259.991 90.052L258.212 88.53L257.032 87.533L255.875 86.558L254.706 85.572L253.549 84.607L252.392 83.631L251.212 82.677L250.055 81.734L248.876 80.78L247.718 79.847L246.581 78.904L245.392 77.972C244.963 77.618 244.395 77.5 243.859 77.597C242.262 77.919 241.758 79.944 243.001 80.952L244.171 81.851ZM273.123 106.816L274.291 107.899L275.449 108.981L276.595 110.064L277.753 111.147L278.91 112.24L280.079 113.334L281.236 114.438L282.405 115.564L283.551 116.678L285.234 118.308C285.598 118.662 286.059 118.854 286.563 118.854C288.247 118.833 289.115 116.774 287.914 115.585L286.21 113.944L285.031 112.83L283.884 111.704L282.705 110.59L281.547 109.475L280.379 108.382L279.222 107.289L278.053 106.196L276.885 105.113L275.716 104.03L274.162 102.604C273.111 101.64 271.418 102.143 271.032 103.515C270.839 104.191 271.053 104.919 271.567 105.391L273.123 106.816ZM299.716 132.874L300.863 134.064L302.009 135.264L303.146 136.476L304.303 137.687L305.44 138.909L306.597 140.131L307.734 141.353L308.88 142.585L310.006 143.818L311.41 145.329C312.31 146.326 313.918 146.069 314.518 144.879C314.861 144.172 314.732 143.336 314.228 142.768L312.824 141.246L311.656 139.992L310.519 138.749L309.373 137.526L308.227 136.294L307.069 135.072L305.923 133.861L304.776 132.639L303.619 131.439L302.461 130.228L301.272 128.984C300.286 127.987 298.603 128.373 298.099 129.681C297.873 130.367 298.013 131.106 298.517 131.631L299.716 132.874ZM324.735 160.347L325.861 161.655L326.975 162.973L328.09 164.281L329.215 165.61L330.309 166.928L331.445 168.257L332.549 169.576L333.642 170.905L334.746 172.223L336.021 173.777C336.3 174.142 336.686 174.356 337.147 174.442C338.883 174.731 340.051 172.727 338.959 171.387L337.683 169.811L336.579 168.471L335.464 167.142L334.36 165.802L333.245 164.473L332.12 163.155L330.994 161.815L329.88 160.497L328.743 159.179L327.618 157.86L326.804 156.906C326.408 156.488 325.904 156.252 325.335 156.252C323.737 156.263 322.848 158.171 323.898 159.382L324.735 160.347ZM348.51 189.514L349.529 190.843L350.547 192.194L351.566 193.512L352.574 194.852L353.559 196.17L354.567 197.51L355.564 198.85L356.54 200.168L357.537 201.508L358.491 202.838L359.016 203.546C359.798 204.629 361.395 204.564 362.135 203.471C362.574 202.796 362.564 201.949 362.092 201.317L361.577 200.577L360.601 199.248L359.615 197.908L358.597 196.568L357.621 195.228L356.624 193.888L355.595 192.548L354.587 191.208L353.579 189.868L352.551 188.517L351.522 187.188L350.74 186.191C350.451 185.784 349.99 185.537 349.486 185.462C347.813 185.258 346.71 187.166 347.738 188.506L348.51 189.514ZM370.71 220.138L371.621 221.467L372.511 222.786L373.401 224.115L374.28 225.444L375.17 226.783L376.038 228.102L376.917 229.431L377.774 230.739L378.631 232.068L379.479 233.397L380.24 234.587C380.99 235.744 382.673 235.755 383.434 234.597C383.841 233.954 383.863 233.183 383.466 232.529L382.672 231.307L381.825 229.999L380.968 228.659L380.089 227.319L379.221 226L378.342 224.66L377.452 223.331L376.562 221.991L375.672 220.673L374.761 219.333L373.839 217.993L373.014 216.761C372.403 215.861 371.16 215.678 370.281 216.332C369.488 216.953 369.305 218.079 369.874 218.904L370.71 220.138ZM390.818 251.782L391.58 253.079L392.341 254.397L393.113 255.694L393.852 256.991L394.591 258.288L395.331 259.596L396.07 260.882L396.799 262.179L397.518 263.477L398.247 264.763L398.955 266.049L399.437 266.928C399.801 267.615 400.519 267.968 401.301 267.893C402.652 267.743 403.403 266.285 402.77 265.084L402.288 264.194L401.559 262.919L400.851 261.611L400.112 260.303L399.383 258.994L398.644 257.697L397.894 256.389L397.165 255.081L396.394 253.773L395.633 252.455L394.872 251.147L394.1 249.829L393.393 248.649C392.997 247.985 392.267 247.641 391.506 247.739C390.155 247.953 389.448 249.432 390.123 250.6L390.818 251.782ZM408.891 285.15L409.512 286.404L410.113 287.669L410.724 288.923L411.324 290.167L411.925 291.41L412.493 292.664L413.082 293.897L413.64 295.14L414.219 296.383L414.777 297.615L415.323 298.848L416.106 300.606C416.663 301.828 418.239 302.107 419.204 301.142C419.751 300.584 419.901 299.77 419.59 299.051L419.343 298.515L418.808 297.283L418.24 296.029L417.672 294.786L417.094 293.543L416.515 292.288L415.936 291.023L415.358 289.78L414.747 288.504L414.146 287.25L413.545 285.985L412.935 284.72L412.313 283.455L411.531 281.89C411.284 281.418 410.898 281.086 410.384 280.925C408.798 280.475 407.405 282.114 408.122 283.615L408.891 285.15ZM423.812 319.376L424.251 320.545L424.701 321.734L425.14 322.892L425.547 324.071L425.976 325.229L426.372 326.397L426.801 327.565L427.187 328.723L427.584 329.869L427.969 331.016L428.334 332.162L428.72 333.299L429.084 334.435L429.47 335.689C429.888 336.998 431.518 337.426 432.547 336.515C433.104 336.011 433.318 335.24 433.104 334.532L432.697 333.257L432.333 332.11L431.958 330.942L431.572 329.796L431.186 328.638L430.778 327.459L430.371 326.29L429.975 325.111L429.557 323.932L429.128 322.763L428.699 321.584L428.26 320.383L427.831 319.204L427.37 317.992L426.845 316.589C426.642 316.064 426.202 315.646 425.656 315.485C424.155 314.981 422.718 316.482 423.298 317.962L423.812 319.376ZM434.563 354.278L434.81 355.349L435.045 356.411L435.28 357.45L435.495 358.501L435.71 359.552L435.924 360.592L436.128 361.631L436.32 362.66L436.513 363.679L436.695 364.708L436.878 365.726L437.028 366.745L437.199 367.742L437.36 368.75L437.499 369.746L437.628 370.754L437.768 371.74L437.832 372.169C438.003 373.487 439.439 374.206 440.608 373.573C441.315 373.187 441.701 372.447 441.594 371.654L441.54 371.193L441.39 370.175L441.25 369.178L441.111 368.138L440.939 367.119L440.778 366.091L440.596 365.062L440.424 364.022L440.232 362.982L440.06 361.932L439.857 360.881L439.642 359.819L439.427 358.758L439.213 357.696L438.987 356.634L438.752 355.541L438.516 354.479L438.259 353.385L438.141 352.881C437.98 352.238 437.562 351.756 436.952 351.531C435.526 351.038 434.122 352.302 434.443 353.76L434.563 354.278ZM439.022 391.312L439.001 392.169L438.98 393.037L438.938 393.905L438.895 394.762L438.862 395.599L438.809 396.466L438.745 397.292L438.691 398.128L438.616 398.953L438.53 399.767L438.434 400.571L438.348 401.386L438.241 402.2L438.134 402.982L438.027 403.765L437.921 404.569L437.771 405.34L437.631 406.101L437.502 406.863L437.342 407.624L437.192 408.374L437.01 409.168C436.892 409.703 436.978 410.25 437.299 410.689C438.242 412.029 440.311 411.611 440.707 410.025L440.9 409.146L441.061 408.341L441.222 407.537L441.361 406.733L441.511 405.94L441.65 405.126L441.779 404.3L441.897 403.464L442.015 402.65L442.111 401.814L442.208 400.966L442.305 400.12L442.391 399.263L442.466 398.405L442.541 397.537L442.594 396.669L442.648 395.779L442.702 394.922L442.734 394.022L442.766 393.132L442.787 392.232L442.819 391.332V390.796C442.819 390.271 442.626 389.799 442.272 389.435C441.093 388.267 439.045 389.103 439.013 390.775L439.022 391.312ZM429.911 426.728L429.515 427.286L429.161 427.833L428.786 428.357L428.4 428.904L428.013 429.429L427.617 429.944L427.21 430.458L426.771 430.974L426.375 431.456L425.946 431.948L425.507 432.441L425.057 432.902L424.618 433.384L424.146 433.834L423.685 434.284L423.224 434.745L422.731 435.184L422.238 435.613L421.756 436.031L421.242 436.461L420.748 436.857L420.234 437.253L419.709 437.639L419.184 438.035L418.637 438.421L418.112 438.775L417.62 439.097C417.255 439.322 416.987 439.686 416.848 440.104C416.28 441.808 418.145 443.234 419.667 442.281L420.192 441.906L420.792 441.519L421.382 441.101L421.961 440.683L422.528 440.265L423.075 439.826L423.643 439.387L424.19 438.915L424.737 438.443L425.262 437.982L425.797 437.5L426.301 437.018L426.816 436.514L427.32 436.021L427.813 435.485L428.295 434.982L428.767 434.446L429.249 433.91L429.699 433.363L430.149 432.817L430.599 432.259L431.028 431.701L431.467 431.111L431.874 430.543L432.27 429.943L432.688 429.342L433.084 428.753L433.438 428.185C433.717 427.767 433.814 427.252 433.707 426.748C433.353 425.118 431.177 424.743 430.255 426.158L429.911 426.728ZM399.994 445.755L399.287 445.884L398.58 445.991L397.851 446.097L397.122 446.183L396.404 446.269L395.654 446.344L394.925 446.418L394.175 446.482L393.425 446.546L392.663 446.578L391.902 446.621L391.141 446.642L390.358 446.663L389.576 446.674L388.805 446.695L388.034 446.684L387.219 446.673L386.415 446.652L385.633 446.631L384.808 446.588L384.004 446.545L383.189 446.491L382.278 446.437C381.828 446.394 381.356 446.523 380.992 446.791C379.577 447.842 380.178 450.072 381.914 450.211L382.911 450.275L383.747 450.329L384.583 450.383L385.44 450.414L386.276 450.435L387.113 450.468L387.949 450.478H388.785L389.599 450.468L390.414 450.447L391.228 450.426L392.032 450.405L392.846 450.362L393.628 450.319L394.433 450.265L395.226 450.19L395.997 450.126L396.779 450.04L397.561 449.955L398.323 449.837L399.084 449.74L399.845 449.622L400.607 449.494L401.314 449.365C402.922 449.065 403.468 447.071 402.225 446.042C401.807 445.678 401.249 445.538 400.704 445.635L399.994 445.755ZM363.152 443.182L362.23 442.935L361.308 442.7L360.376 442.442L359.443 442.174L358.489 441.906L357.556 441.627L356.613 441.359L355.67 441.069L354.716 440.769L353.762 440.458L352.786 440.146L351.833 439.825L350.868 439.504L349.903 439.161L348.927 438.828L347.941 438.464L346.955 438.11L346.076 437.778C345.615 437.617 345.133 437.617 344.672 437.809C343.097 438.496 343.118 440.714 344.704 441.326L345.626 441.669L346.612 442.033L347.62 442.376L348.616 442.741L349.602 443.084L350.599 443.405L351.575 443.737L352.561 444.059L353.526 444.38L354.501 444.691L355.478 444.991L356.442 445.26L357.407 445.549L358.372 445.828L359.326 446.096L360.28 446.353L361.223 446.611L362.187 446.857L362.959 447.029C364.331 447.372 365.574 446.172 365.296 444.789C365.146 444.092 364.62 443.567 363.924 443.363L363.152 443.182ZM327.715 429.923L326.665 429.419L325.636 428.915L324.586 428.4L323.524 427.853L322.473 427.338L321.423 426.803L320.361 426.245L319.289 425.698L318.227 425.14L317.166 424.572L316.104 423.994L315.042 423.436L313.971 422.835L312.877 422.235L312.159 421.839C311.001 421.195 309.575 421.892 309.35 423.19C309.21 423.994 309.586 424.765 310.272 425.14L311.022 425.558L312.105 426.159L313.188 426.749L314.27 427.35L315.364 427.928L316.436 428.486L317.507 429.065L318.579 429.612L319.65 430.169L320.722 430.727L321.794 431.263L322.865 431.788L323.937 432.323L324.987 432.827L326.049 433.331L327.164 433.867C327.646 434.102 328.183 434.114 328.675 433.931C330.23 433.33 330.326 431.165 328.836 430.457L327.715 429.923ZM295.397 411.829L294.271 411.11L293.157 410.414L292.042 409.685L290.928 408.956L289.813 408.227L288.698 407.465L287.573 406.726L286.458 405.975L285.322 405.214L284.196 404.453L283.082 403.682L281.956 402.899L280.381 401.817C279.985 401.528 279.481 401.421 278.977 401.516C277.327 401.806 276.812 403.95 278.184 404.914L279.759 406.018L280.896 406.801L282.042 407.594L283.168 408.355L284.314 409.117L285.451 409.888L286.565 410.638L287.702 411.389L288.838 412.118L289.953 412.847L291.078 413.587L292.215 414.305L293.329 415.013L293.983 415.442C294.519 415.785 295.183 415.828 295.784 415.56C297.156 414.927 297.306 413.03 296.03 412.237L295.397 411.829ZM263.733 389.565L262.575 388.686L261.439 387.786L260.281 386.907L259.135 385.996L257.988 385.085L256.842 384.174L255.683 383.241L254.536 382.319L253.379 381.376L252.21 380.443L250.495 379.039C249.444 378.171 247.891 378.653 247.473 379.95C247.247 380.689 247.461 381.462 248.073 381.954L249.799 383.38L250.968 384.334L252.125 385.277L253.294 386.21L254.451 387.132L255.608 388.054L256.777 388.987L257.924 389.887L259.081 390.787L260.249 391.698L261.396 392.577L262.908 393.735C263.293 394.046 263.754 394.153 264.248 394.11C265.952 393.917 266.584 391.773 265.223 390.722L263.733 389.565ZM234.855 365.639L233.676 364.6L232.55 363.56L231.371 362.52L230.213 361.47L229.055 360.419L227.887 359.357L226.729 358.275L225.572 357.213L224.403 356.142L223.246 355.048L222.292 354.158C221.542 353.45 220.373 353.471 219.645 354.233C218.895 354.972 218.905 356.215 219.688 356.923L220.642 357.834L221.8 358.916L222.968 359.999L224.147 361.082L225.304 362.164L226.462 363.226L227.641 364.276L228.809 365.338L229.977 366.4L231.145 367.439L232.303 368.479L233.664 369.669C234.693 370.579 236.322 370.119 236.74 368.79C236.955 368.071 236.74 367.332 236.193 366.828L234.855 365.639ZM207.05 339.325L205.903 338.145L204.735 336.977L203.598 335.808L202.441 334.619L201.283 333.44L200.126 332.239L199 331.05L197.854 329.861L196.696 328.649L195.689 327.578C195.281 327.139 194.703 326.945 194.102 326.999C192.559 327.191 191.851 329.046 192.913 330.183L193.942 331.265L195.089 332.477L196.236 333.677L197.394 334.877L198.562 336.078L199.709 337.267L200.866 338.468L202.035 339.647L203.181 340.826L204.339 341.995L206.108 343.753C206.451 344.096 206.933 344.299 207.426 344.299C209.109 344.311 209.988 342.274 208.798 341.063L207.05 339.325Z" fill="white"/>
<path d="M306.738 323.911C307.145 323.642 307.413 323.257 307.542 322.839C307.96 322.925 308.432 322.85 308.839 322.581L309.675 322.056L311.144 321.134L312.602 320.202L314.049 319.269L315.506 318.336L316.964 317.403L318.411 316.46L319.837 315.527L321.284 314.605L322.709 313.64L324.714 312.311C325.614 311.71 325.818 310.478 325.175 309.61C324.565 308.796 323.439 308.581 322.613 309.138L320.619 310.467L319.183 311.41L317.767 312.353L316.331 313.275L314.884 314.197L313.447 315.13L312 316.052L310.563 316.995L309.116 317.917L307.648 318.828L306.812 319.352C306.426 319.599 306.136 319.974 306.018 320.392C305.569 320.329 305.108 320.413 304.721 320.661L303.252 321.583L301.763 322.483L300.316 323.383L298.837 324.294L297.358 325.184L295.889 326.063L294.42 326.931L292.951 327.821L291.494 328.689L290.015 329.557L288.611 330.382C287.946 330.758 287.592 331.519 287.7 332.258C287.882 333.609 289.372 334.348 290.54 333.673L291.944 332.837L293.423 331.958L294.902 331.09L296.371 330.211L297.861 329.32L299.34 328.431L300.809 327.531L302.299 326.64L303.778 325.73L305.257 324.818L306.738 323.911ZM424.209 242.68C421.615 244.288 418.603 244.696 415.826 244.041C414.443 243.709 413.125 243.119 411.935 242.283L410.938 243.248L409.898 244.267L408.848 245.286L407.797 246.304L406.735 247.312L405.664 248.331L404.581 249.35L403.499 250.358L402.416 251.376L401.333 252.405L400.24 253.413L399.307 254.249C398.213 255.246 396.477 254.656 396.166 253.188C396.048 252.555 396.252 251.879 396.734 251.44L397.656 250.593L398.738 249.585L399.842 248.566L400.904 247.581L401.987 246.573L403.048 245.565L404.11 244.546L405.161 243.528L406.223 242.531L407.262 241.523L408.291 240.515L409.245 239.573C409.116 239.401 409.01 239.219 408.902 239.048C407.261 236.421 406.833 233.377 407.465 230.601C408.097 227.825 409.791 225.295 412.385 223.687C414.979 222.068 417.991 221.661 420.767 222.326C422.064 222.637 423.308 223.183 424.433 223.934L424.937 223.409L425.859 222.401L426.77 221.404L427.67 220.397L428.57 219.4L429.46 218.403L430.35 217.406L431.23 216.399L432.109 215.402L432.976 214.405L433.834 213.397L434.681 212.411L435.528 211.425L435.924 210.953C436.31 210.503 436.846 210.267 437.425 210.278C439.032 210.375 439.847 212.208 438.829 213.419L438.421 213.891L437.564 214.91L436.707 215.896L435.839 216.914L434.96 217.911L434.081 218.93L433.191 219.938L432.291 220.945L431.391 221.963L430.491 222.971L429.569 223.979L428.647 224.997L427.714 226.004L427.189 226.583C427.372 226.819 427.543 227.076 427.704 227.344C429.333 229.949 429.763 232.983 429.13 235.759C428.496 238.544 426.802 241.073 424.209 242.68ZM416.662 240.355C418.484 240.773 420.478 240.515 422.193 239.444C423.908 238.382 425.012 236.711 425.441 234.899C425.848 233.055 425.581 231.061 424.498 229.325C423.426 227.599 421.754 226.473 419.921 226.034C418.099 225.595 416.106 225.852 414.391 226.924C412.686 227.996 411.572 229.657 411.154 231.49C410.735 233.323 411.025 235.306 412.096 237.053C413.178 238.768 414.83 239.916 416.662 240.355ZM338.113 298.495C337.555 298.892 337.244 299.589 337.341 300.286C337.534 301.7 339.153 302.43 340.321 301.615L342.218 300.254L343.569 299.278L344.93 298.313L346.281 297.337L347.632 296.372L348.961 295.386L350.29 294.41L351.608 293.435L352.937 292.449L354.255 291.463L355.606 290.455C356.185 290.016 356.463 289.276 356.302 288.537C356.002 287.197 354.406 286.586 353.301 287.411L351.972 288.408L350.664 289.394L349.356 290.369L348.038 291.334L346.709 292.31L345.39 293.286L344.05 294.251L342.71 295.216L341.37 296.191L340.009 297.146L338.113 298.495ZM368.17 275.878C367.633 276.329 367.387 277.004 367.505 277.7C367.773 279.115 369.434 279.759 370.549 278.858L372.125 277.604L373.357 276.596L374.589 275.599L375.812 274.591L377.034 273.594L378.245 272.598L379.457 271.59L380.668 270.571L381.868 269.574L383.058 268.566L384.237 267.559L385.137 266.798C386.327 265.779 385.802 263.796 384.258 263.475C383.679 263.368 383.101 263.529 382.661 263.893L381.761 264.654L380.592 265.64L379.403 266.648L378.223 267.644L377.023 268.641L375.822 269.649L374.611 270.635L373.4 271.643L372.189 272.628L370.966 273.625L369.734 274.622L368.17 275.878ZM447.651 196.289C446.601 197.704 447.887 199.686 449.613 199.29C450.052 199.194 450.406 198.947 450.695 198.594L451.177 197.929L451.917 196.943L452.646 195.967L453.365 194.981L454.083 193.995L454.791 193.009L455.487 192.023L456.183 191.048L456.88 190.062L457.544 189.087L458.22 188.111L458.896 187.135L459.549 186.149L460.193 185.195L460.836 184.231L461.619 183.03C462.529 181.604 461.243 179.76 459.593 180.136C459.121 180.243 458.714 180.532 458.436 180.961L457.674 182.097L457.041 183.062L456.398 184.016L455.765 184.981L455.101 185.945L454.425 186.91L453.772 187.864L453.096 188.839L452.41 189.804L451.702 190.769L451.016 191.745L450.308 192.71L449.601 193.674L448.883 194.65L448.143 195.636L447.651 196.289ZM467.986 164.828C467.224 166.275 468.521 167.947 470.119 167.583C470.644 167.455 471.084 167.111 471.341 166.629L471.619 166.125L472.101 165.182L472.594 164.26L473.055 163.317L473.516 162.406L473.966 161.463L474.438 160.563L474.877 159.631L475.316 158.73L475.734 157.787L476.152 156.897L476.571 155.975L476.977 155.064L477.353 154.164L477.749 153.264L478.113 152.353L478.499 151.453L478.853 150.553L479.207 149.674L479.356 149.267C479.989 147.627 478.242 146.073 476.698 146.888C476.291 147.102 476.002 147.445 475.819 147.874L475.679 148.249L475.336 149.106L474.993 149.996L474.618 150.875L474.253 151.743L473.878 152.633L473.492 153.512L473.106 154.402L472.71 155.292L472.292 156.171L471.885 157.071L471.456 157.971L471.017 158.882L470.578 159.782L470.148 160.682L469.677 161.582L469.205 162.504L468.733 163.404L468.261 164.315L467.986 164.828ZM481.117 130.045C480.816 131.61 482.445 132.843 483.849 132.103C484.364 131.835 484.706 131.374 484.814 130.806L484.997 129.852L485.158 129.027L485.307 128.213L485.425 127.377L485.543 126.562L485.649 125.747L485.756 124.933L485.842 124.14L485.939 123.336L486.014 122.532L486.088 121.739L486.142 120.935L486.185 120.142L486.239 119.359L486.26 118.576L486.292 117.805V117.012L486.303 116.251V115.48L486.282 114.709L486.25 113.947L486.218 113.186L486.175 112.436L486.122 111.696L486.089 111.385C485.929 109.659 483.763 109.005 482.713 110.366C482.413 110.752 482.284 111.213 482.327 111.706L482.359 111.953L482.401 112.649L482.434 113.357L482.477 114.064L482.498 114.772L482.508 115.501V116.219V116.959V117.677L482.487 118.417L482.456 119.157L482.413 119.896L482.37 120.657L482.316 121.407L482.252 122.146L482.166 122.918L482.102 123.668L482.005 124.439L481.909 125.211L481.812 125.994L481.672 126.755L481.555 127.548L481.437 128.341L481.287 129.124L481.117 130.045ZM477.386 94.243C478.265 95.84 480.634 95.454 480.912 93.664C480.987 93.257 480.912 92.839 480.719 92.453L480.634 92.324L480.29 91.702L479.947 91.081L479.583 90.47L479.218 89.848L478.822 89.248L478.436 88.669L478.04 88.069L477.622 87.49L477.215 86.9L476.786 86.342L476.347 85.785L475.897 85.217L475.458 84.67L474.976 84.134L474.515 83.598L474.033 83.073L473.54 82.548L473.047 82.045L472.543 81.53L472.029 81.048L471.513 80.555L470.967 80.062L470.431 79.59L469.873 79.118L469.327 78.636L468.759 78.197L468.191 77.747L467.87 77.501C466.476 76.461 464.568 77.672 464.89 79.366C464.976 79.848 465.233 80.245 465.619 80.534L465.908 80.738L466.423 81.156L466.948 81.585L467.463 82.014L467.967 82.443L468.47 82.893L468.952 83.332L469.434 83.782L469.916 84.254L470.366 84.704L470.816 85.176L471.266 85.648L471.716 86.141L472.145 86.612L472.574 87.116L472.981 87.62L473.399 88.123L473.786 88.638L474.182 89.153L474.557 89.678L474.943 90.203L475.307 90.76L475.672 91.296L476.015 91.843L476.358 92.411L476.679 92.968L477 93.525L477.312 94.104L477.386 94.243ZM449.377 72.054C450.106 72.3 450.856 72.096 451.371 71.55C452.293 70.521 451.864 68.913 450.546 68.463L449.859 68.206L449.066 67.96L448.284 67.702L447.502 67.456L446.697 67.22L445.883 66.995L445.069 66.769L444.255 66.544L443.429 66.34L442.583 66.126L441.768 65.933L440.9 65.73L440.053 65.558L439.196 65.376L438.339 65.205L437.46 65.033L436.58 64.872L435.691 64.722L434.8 64.572L433.911 64.433L432.999 64.294L432.077 64.165L431.756 64.111C430.149 63.918 429.066 65.709 429.966 67.059C430.288 67.531 430.749 67.809 431.306 67.884L431.607 67.927L432.486 68.055L433.376 68.194L434.223 68.312L435.08 68.451L435.948 68.601L436.805 68.762L437.641 68.923L438.466 69.084L439.292 69.267L440.128 69.449L440.932 69.631L441.736 69.813L442.541 70.027L443.334 70.22L444.116 70.434L444.898 70.649L445.669 70.863L446.431 71.089L447.192 71.335L447.953 71.571L448.682 71.817L449.377 72.054ZM412.685 66.716C413.65 66.705 414.443 65.966 414.539 64.99C414.636 63.876 413.746 62.911 412.62 62.911H411.602L410.583 62.922L409.543 62.933L408.492 62.965L407.431 62.986L406.38 63.018L405.298 63.061L404.226 63.115L403.164 63.157L402.093 63.221L400.999 63.285L399.905 63.349L398.801 63.424L397.707 63.509L396.614 63.594L395.488 63.691L394.384 63.788L393.579 63.863C391.864 64.034 391.274 66.189 392.636 67.26C393.023 67.55 393.484 67.689 393.966 67.635L394.748 67.56L395.862 67.475L396.956 67.378L398.038 67.292L399.11 67.217L400.193 67.132L401.264 67.079L402.326 67.004L403.388 66.94L404.449 66.897L405.478 66.854L406.54 66.811L407.568 66.779L408.597 66.758L409.626 66.748L410.645 66.727L411.673 66.716H412.685V66.716ZM375.382 70.146C376.079 70.028 376.648 69.535 376.861 68.849C377.279 67.488 376.122 66.159 374.728 66.394L373.485 66.598L372.284 66.823L371.073 67.049L369.873 67.263L368.661 67.489L367.418 67.724L366.196 67.971L364.973 68.228L363.741 68.485L362.509 68.742L361.255 68.999L360.011 69.267L358.768 69.556L357.514 69.835L356.088 70.157C355.338 70.35 354.802 70.95 354.662 71.722C354.491 73.062 355.702 74.166 356.999 73.855L358.371 73.544L359.625 73.265L360.858 72.997L362.101 72.707L363.312 72.461L364.534 72.193L365.767 71.946L366.978 71.699L368.189 71.463L369.39 71.227L370.59 71.002L371.791 70.766L372.991 70.552L374.17 70.359L375.382 70.146ZM338.809 78.571C340.331 78.121 340.653 76.117 339.345 75.195C338.863 74.862 338.294 74.766 337.738 74.926L336.955 75.141L335.637 75.537L334.319 75.912L333.001 76.308L331.683 76.705L330.354 77.101L329.014 77.509L327.685 77.927L326.334 78.356L324.993 78.774L323.665 79.203L322.313 79.653L320.963 80.092L319.645 80.531C318.026 81.067 317.918 83.307 319.452 84.047C319.902 84.262 320.395 84.294 320.856 84.133L322.164 83.694L323.504 83.265L324.844 82.826L326.184 82.397L327.513 81.979L328.821 81.561L330.161 81.143L331.479 80.725L332.798 80.339L334.105 79.942L335.423 79.556L336.732 79.181L338.029 78.795L338.809 78.571ZM303.147 90.437C304.648 89.869 304.776 87.779 303.372 86.986C302.879 86.728 302.301 86.664 301.786 86.868L300.382 87.393L298.999 87.94L297.605 88.465L296.201 89.011L294.807 89.558L293.392 90.105L291.988 90.673L290.584 91.241L289.17 91.809L287.766 92.377L286.351 92.966L284.186 93.877C283.521 94.145 283.071 94.788 283.039 95.496C282.985 96.922 284.379 97.897 285.676 97.361L287.81 96.471L289.224 95.903L290.618 95.324L292.022 94.766L293.416 94.198L294.81 93.64L296.214 93.093L297.597 92.568L298.98 92.022L300.374 91.486L301.757 90.939L303.147 90.437ZM268.438 104.908C269.071 104.619 269.5 103.986 269.542 103.279C269.585 101.853 268.138 100.867 266.841 101.446L264.922 102.325L263.475 103L262.029 103.675L260.582 104.35L259.135 105.036L257.688 105.711L256.241 106.419L254.794 107.116L253.347 107.824L251.89 108.531L249.767 109.571C248.246 110.342 248.438 112.551 250.046 113.087C250.518 113.237 251.011 113.205 251.461 112.991L253.572 111.951L255.009 111.243L256.467 110.536L257.904 109.839L259.35 109.153L260.787 108.478L262.224 107.803L263.65 107.127L265.087 106.452L266.534 105.776L268.438 104.908ZM234.727 121.576C235.359 121.233 235.734 120.569 235.724 119.85C235.66 118.446 234.159 117.567 232.926 118.21L231.404 119.014L229.935 119.807L228.466 120.611L226.998 121.404L225.53 122.218L224.051 123.022L222.582 123.826L221.114 124.652L219.646 125.488L218.156 126.313L216.355 127.332C215.69 127.718 215.326 128.478 215.422 129.25C215.637 130.569 217.073 131.297 218.241 130.644L220.042 129.626L221.489 128.8L222.968 127.986L224.426 127.171L225.895 126.357L227.364 125.553L228.832 124.749L230.29 123.956L231.748 123.174L233.217 122.381L234.727 121.576ZM202.034 140.174C203.406 139.327 203.148 137.248 201.626 136.744C201.09 136.573 200.533 136.626 200.04 136.916L198.957 137.569L197.489 138.48L195.999 139.38L194.541 140.291L193.051 141.213L191.572 142.124L190.103 143.057L188.645 143.979L187.166 144.912L185.719 145.834L184.014 146.938C182.546 147.892 183.06 150.154 184.797 150.411C185.257 150.475 185.687 150.39 186.072 150.132L187.765 149.049L189.223 148.127L190.681 147.194L192.128 146.283L193.607 145.361L195.065 144.45L196.534 143.539L198.002 142.628L199.47 141.717L200.949 140.827L202.034 140.174ZM170.391 160.53C171.784 159.587 171.323 157.421 169.662 157.099C169.158 157.014 168.654 157.11 168.247 157.399L167.197 158.117L165.814 159.06L164.42 160.025L163.037 160.99L161.665 161.954L160.271 162.908L158.91 163.883L157.57 164.859L156.198 165.813L154.847 166.789L153.507 167.765L152.789 168.29C152.136 168.762 151.878 169.555 152.082 170.337C152.457 171.612 153.957 172.149 155.029 171.366L155.737 170.851L157.066 169.886L158.427 168.932L159.756 167.967L161.117 167.003L162.478 166.038L163.839 165.074L165.211 164.12L166.583 163.166L167.977 162.201L169.338 161.247L170.391 160.53ZM139.97 182.643C140.774 182.032 140.934 180.896 140.366 180.07C139.744 179.18 138.501 178.966 137.643 179.641L136.475 180.563L135.189 181.538L133.914 182.535L132.66 183.521L131.395 184.518L130.141 185.515L128.898 186.512L127.654 187.509L126.41 188.517L125.178 189.514L123.967 190.511L122.852 191.422C122.273 191.926 122.038 192.666 122.241 193.405C122.616 194.734 124.202 195.238 125.275 194.37L126.379 193.48L127.59 192.472L128.812 191.475L130.034 190.489L131.278 189.492L132.511 188.516L133.765 187.519L135.019 186.511L136.273 185.536L137.527 184.55L138.802 183.564L139.97 182.643ZM110.953 206.568C111.96 205.657 111.736 204.039 110.514 203.427C109.828 203.095 109.014 203.202 108.434 203.706L107.405 204.606L106.259 205.624L105.133 206.643L103.997 207.651L102.871 208.658L101.767 209.687L100.663 210.684L99.5588 211.703L98.4548 212.721L97.3508 213.739L96.2788 214.758L95.1848 215.766L94.4558 216.462C93.4908 217.405 93.7478 219.014 94.9808 219.571C95.7098 219.893 96.5018 219.764 97.0598 219.238L97.7888 218.542L98.8608 217.534L99.9438 216.526L101.026 215.529L102.12 214.522L103.224 213.514L104.328 212.506L105.421 211.498L106.536 210.491L107.662 209.494L108.787 208.475L109.924 207.467L110.953 206.568ZM83.6618 232.423C84.8088 231.234 83.9838 229.239 82.3328 229.186C81.7968 229.186 81.3258 229.369 80.9388 229.754L79.7278 230.997L78.7418 232.016L77.7658 233.024L76.8018 234.043L75.8478 235.051L74.8828 236.069L73.9498 237.077L73.0068 238.106L72.0638 239.114L71.1308 240.121L70.2198 241.129L69.2868 242.148L68.3968 243.166L68.0008 243.596C67.4858 244.196 67.3688 245.01 67.7228 245.707C68.3328 246.918 69.9308 247.133 70.8308 246.146L72.1168 244.709L73.0168 243.712L73.9278 242.704L74.8498 241.708L75.7718 240.7L76.7048 239.703L77.6478 238.684L78.6018 237.688L79.5448 236.669L80.5198 235.683L81.4738 234.664L82.4488 233.668L83.6618 232.423ZM58.6548 260.442C59.6518 259.21 58.7508 257.344 57.1648 257.355C56.5968 257.344 56.0498 257.613 55.6958 258.042L54.7628 259.221L53.9488 260.229L53.1778 261.226L52.3948 262.222L51.6228 263.219L50.8618 264.195L50.0898 265.192L49.3498 266.189L48.6108 267.175L47.8608 268.171L47.1318 269.157L46.4138 270.133L45.6948 271.119L44.9988 272.105L44.2158 273.187C43.7868 273.798 43.7658 274.591 44.1408 275.246C44.8368 276.425 46.5198 276.532 47.3028 275.407L48.0638 274.335L48.7718 273.37L49.4798 272.394L50.1868 271.418L50.9058 270.453L51.6348 269.488L52.3638 268.503L53.1138 267.517L53.8638 266.531L54.6138 265.566L55.3748 264.569L56.1458 263.594L56.9388 262.608L57.7218 261.632L58.6548 260.442ZM37.0238 291.067C37.7738 289.781 36.8198 288.14 35.3188 288.183C34.6648 288.215 34.1188 288.537 33.7758 289.094L33.5078 289.555L32.9288 290.498L32.3718 291.441L31.8138 292.406L31.2668 293.349L30.7418 294.292L30.2168 295.235L29.6918 296.178L29.1668 297.11L28.6738 298.053L28.1698 298.987L27.6878 299.919L27.2058 300.852L26.7238 301.785L26.2518 302.707L25.8018 303.629L25.3628 304.551L24.9128 305.473L24.7198 305.891C24.3658 306.61 24.5058 307.435 25.0628 308.024C25.9848 308.979 27.5708 308.743 28.1388 307.542L28.3318 307.146L28.7608 306.257L29.2008 305.345L29.6398 304.435L30.1008 303.523L30.5718 302.634L31.0218 301.7L31.5038 300.8L32.0078 299.868L32.5008 298.946L33.0048 298.046L33.5198 297.103L34.0348 296.191L34.5598 295.259L35.0958 294.326L35.6318 293.415L36.1888 292.472L36.7468 291.529L37.0238 291.067ZM21.2768 324.886C21.7698 323.279 20.0768 321.853 18.5968 322.614C18.1358 322.85 17.8148 323.225 17.6538 323.74L17.4928 324.233L17.2358 325.112L16.9788 325.969L16.7428 326.826L16.5068 327.683L16.2818 328.53L16.0568 329.387L15.8428 330.235L15.6498 331.082L15.4458 331.918L15.2738 332.765L15.1028 333.601L14.9308 334.426L14.7698 335.263L14.6308 336.077L14.4808 336.913L14.3518 337.717L14.2338 338.542L14.1268 339.356L14.0198 340.161L13.9228 340.975L13.8378 341.789L13.7418 342.679C13.6348 344.297 15.4778 345.337 16.7748 344.362C17.2138 344.041 17.4718 343.558 17.5248 343.001L17.5998 342.197L17.6858 341.426L17.7718 340.665L17.8678 339.893L17.9748 339.122L18.0818 338.351L18.2108 337.557L18.3498 336.775L18.4888 335.993L18.6498 335.189L18.8108 334.385L18.9718 333.591L19.1328 332.787L19.3258 331.973L19.5298 331.168L19.7228 330.354L19.9368 329.529L20.1618 328.715L20.3868 327.89L20.6228 327.042L20.8588 326.218L21.1058 325.381L21.2768 324.886ZM18.7258 361.234C18.2868 359.616 16.0888 359.305 15.2528 360.752C15.0058 361.191 14.9308 361.717 15.0708 362.199L15.2318 362.843L15.4248 363.529L15.6288 364.226L15.8328 364.922L16.0478 365.587L16.2828 366.273L16.5188 366.938L16.7658 367.613L17.0338 368.278L17.3018 368.942L17.5908 369.586L17.8698 370.239L18.1808 370.872L18.4808 371.525L18.8138 372.158L19.1358 372.791L19.4788 373.412L19.8328 374.034L20.1868 374.635L20.5728 375.245L20.9478 375.856L21.3438 376.467L21.7398 377.045L22.1468 377.624L22.5648 378.203L22.9938 378.782L23.4438 379.328L23.8408 379.843C24.9878 381.215 27.1958 380.433 27.1848 378.643C27.1738 378.193 27.0348 377.775 26.7668 377.443L26.3918 376.992L25.9958 376.478L25.5988 375.963L25.2238 375.427L24.8378 374.891L24.4738 374.355L24.1198 373.82L23.7768 373.262L23.4338 372.715L23.1128 372.147L22.7808 371.58L22.4698 371.012L22.1698 370.433L21.8698 369.854L21.5908 369.264L21.3118 368.686L21.0438 368.085L20.7868 367.484L20.5518 366.884L20.3048 366.273L20.0698 365.652L19.8548 365.051L19.6518 364.429L19.4478 363.796L19.2548 363.164L19.0728 362.531L18.8798 361.888L18.7258 361.234ZM40.8398 388.868C40.3578 388.611 39.7888 388.579 39.2748 388.782C37.7638 389.393 37.6778 391.462 39.1138 392.234L39.7458 392.566L40.4208 392.93L41.1168 393.274L41.8038 393.606L42.4998 393.949L43.2188 394.27L43.9368 394.592L44.6548 394.892L45.3838 395.203L46.1338 395.504L46.8628 395.793L47.6238 396.083L48.3848 396.351L49.1568 396.629L49.9178 396.887L50.6998 397.144L51.4928 397.402L52.2858 397.659L53.0898 397.885L53.8828 398.12L54.7088 398.355L55.5338 398.559L56.3378 398.773L57.3028 399.009C59.0068 399.405 60.2718 397.487 59.2428 396.05C58.9748 395.664 58.5678 395.418 58.1278 395.311L57.2378 395.085L56.4548 394.871L55.6618 394.679L54.8798 394.464L54.1188 394.239L53.3468 394.013L52.5748 393.778L51.8358 393.542L51.0958 393.284L50.3568 393.038L49.6388 392.77L48.9098 392.512L48.2028 392.244L47.4948 391.976L46.7878 391.697L46.1018 391.397L45.4268 391.097L44.7408 390.796L44.0758 390.496L43.4108 390.184L42.7468 389.873L42.1138 389.541L41.4708 389.209L40.8398 388.868ZM76.5338 398.033C75.8158 398.001 75.1508 398.345 74.7868 398.966C74.1008 400.198 74.9158 401.732 76.3198 401.828L77.1128 401.891L78.0988 401.946L79.0848 401.999L80.0598 402.053L81.0568 402.085L82.0648 402.117L83.0618 402.138L84.0698 402.181L85.0878 402.192H86.1168H87.1248H88.1648L89.2038 402.171H90.2438L91.2948 402.15L92.3558 402.118L93.4168 402.097L94.4678 402.054L95.4428 402C97.1478 401.926 97.8548 399.813 96.5678 398.678C96.1818 398.356 95.7318 398.206 95.2278 398.217L94.2948 398.26L93.2448 398.291L92.1948 398.324L91.1658 398.355L90.1468 398.387L89.1178 398.398H88.1208H87.0918H86.0948L85.0978 398.387L84.1008 398.376L83.1258 398.333L82.1398 398.312L81.1638 398.281L80.1878 398.248L79.2228 398.206L78.2798 398.152L77.3258 398.088L76.5338 398.033ZM113.89 396.544C112.261 396.769 111.682 398.858 112.979 399.909C113.375 400.241 113.901 400.402 114.416 400.316L115.648 400.155L116.827 399.995L117.974 399.834L119.153 399.663L120.343 399.48L121.522 399.297L122.712 399.105L123.902 398.912L125.091 398.708L126.292 398.505L127.493 398.302L128.693 398.076L129.926 397.841L131.137 397.615L132.348 397.38L133.184 397.208C133.956 397.058 134.545 396.446 134.663 395.643C134.846 394.335 133.709 393.243 132.401 393.489L131.597 393.661L130.375 393.886L129.185 394.122L127.985 394.325L126.795 394.551L125.616 394.765L124.437 394.969L123.236 395.162L122.068 395.354L120.91 395.546L119.742 395.718L118.574 395.901L117.416 396.062L116.27 396.233L115.123 396.383L113.89 396.544ZM150.721 389.318C149.252 389.682 148.813 391.538 149.928 392.545C150.41 392.995 151.053 393.156 151.686 393.006L152.425 392.792L153.711 392.46L155.008 392.127L156.295 391.773L157.592 391.419L158.9 391.076L160.208 390.7L161.505 390.346L162.823 389.96L164.141 389.585L165.459 389.198L166.788 388.802L168.107 388.406L169.94 387.849C171.548 387.356 171.719 385.148 170.24 384.354C169.79 384.119 169.275 384.076 168.803 384.214L166.981 384.772L165.663 385.158L164.366 385.554L163.058 385.93L161.75 386.305L160.453 386.669L159.156 387.044L157.859 387.409L156.584 387.763L155.287 388.117L154.011 388.46L152.735 388.781L151.449 389.125L150.721 389.318ZM186.652 378.331C185.033 378.91 184.969 381.15 186.534 381.858C186.984 382.05 187.456 382.083 187.928 381.912L189.718 381.279L191.09 380.786L192.473 380.293L193.856 379.778L195.228 379.274L196.61 378.749L198.004 378.235L199.387 377.71L200.791 377.185L202.184 376.638L203.578 376.091L205.669 375.277C206.387 374.999 206.837 374.312 206.848 373.541C206.859 372.18 205.519 371.247 204.254 371.751L202.185 372.555L200.802 373.091L199.409 373.627L198.026 374.152L196.643 374.677L195.271 375.202L193.899 375.705L192.527 376.22L191.155 376.702L189.794 377.206L188.422 377.688L186.652 378.331ZM221.628 364.536C220.953 364.847 220.513 365.49 220.492 366.229C220.492 367.623 221.896 368.566 223.161 368.019L224.812 367.301L226.237 366.668L227.674 366.047L229.1 365.403L230.537 364.75L231.984 364.096L233.421 363.442L234.857 362.778L236.315 362.113L237.752 361.449L239.189 360.762L240.378 360.194C241.343 359.755 241.729 358.587 241.257 357.643C240.785 356.699 239.682 356.314 238.749 356.753L237.559 357.311L236.123 357.997L234.687 358.662L233.261 359.315L231.824 359.98L230.387 360.633L228.972 361.277L227.536 361.921L226.099 362.553L224.695 363.186L223.258 363.808L221.628 364.536ZM255.619 348.458C254.118 349.229 254.322 351.437 255.93 351.952C256.402 352.101 256.916 352.069 257.356 351.845L259.575 350.72L261.044 349.948L262.49 349.198L263.969 348.426L265.438 347.644L266.896 346.862L268.364 346.08L269.854 345.297L271.312 344.504L272.77 343.711L274.078 343.003C275.439 342.242 275.353 340.249 273.928 339.595C273.381 339.359 272.76 339.37 272.245 339.649L270.959 340.367L269.49 341.172L268.021 341.943L266.574 342.725L265.116 343.507L263.648 344.29L262.19 345.061L260.743 345.822L259.274 346.573L257.828 347.334L255.619 348.458Z" fill="#EBEEDF"/>
<path fill-rule="evenodd" clip-rule="evenodd" d="M362.209 0C362.209 16.314 375.426 29.67 391.602 29.67C375.426 29.67 362.209 43.016 362.209 59.352C362.209 43.016 348.993 29.67 332.839 29.67C348.993 29.671 362.209 16.315 362.209 0Z" fill="#ECFFA0"/>
<path fill-rule="evenodd" clip-rule="evenodd" d="M29.37 183.04C29.37 199.354 42.587 212.7 58.762 212.7C42.587 212.7 29.37 226.055 29.37 242.381C29.37 226.056 16.154 212.7 0 212.7C16.153 212.7 29.37 199.354 29.37 183.04Z" fill="#C1EA1D"/>
<path fill-rule="evenodd" clip-rule="evenodd" d="M450.171 258.417C450.171 268.161 458.07 276.125 467.718 276.125C458.071 276.125 450.171 284.089 450.171 293.833C450.171 284.089 442.292 276.125 432.645 276.125C442.292 276.125 450.171 268.161 450.171 258.417Z" fill="white"/>
<path d="M250.62 386.377C240.353 386.377 230.142 385.341 220.254 383.318C210.48 381.314 200.954 378.352 191.93 374.514C183.059 370.781 174.434 366.098 166.324 360.617C158.354 355.232 150.85 349.048 144.011 342.238C137.163 335.343 130.98 327.848 125.623 319.936C120.142 311.825 115.469 303.2 111.737 294.3C107.871 285.2 104.908 275.673 102.923 265.986C100.89 256.002 99.8638 245.783 99.8638 235.619C99.8638 225.447 100.89 215.236 102.923 205.281C104.917 195.565 107.88 186.038 111.737 176.938C115.45 168.086 120.124 159.462 125.614 151.322C131.018 143.352 137.202 135.858 144.003 129.029C150.908 122.152 158.42 115.96 166.333 110.631C174.331 105.207 182.955 100.525 191.94 96.7155C201.163 92.8308 210.689 89.8863 220.264 87.9395C230.199 85.897 240.419 84.8621 250.62 84.8621C260.821 84.8621 271.031 85.897 280.967 87.9484C290.513 89.8765 300.059 92.8308 309.301 96.7155C318.287 100.524 326.901 105.207 334.937 110.64C342.84 115.978 350.343 122.161 357.22 129.019C364.011 135.81 370.195 143.314 375.598 151.331C381.021 159.328 385.714 167.952 389.514 176.938C393.37 186.065 396.332 195.602 398.309 205.271C400.341 215.235 401.377 225.445 401.377 235.618C401.377 245.782 400.341 256.001 398.309 265.975C396.343 275.635 393.38 285.171 389.514 294.309C385.686 303.342 381.004 311.956 375.598 319.935C370.232 327.885 364.059 335.38 357.229 342.228C350.4 349.038 342.905 355.221 334.937 360.616C326.796 366.097 318.182 370.78 309.31 374.521C300.269 378.359 290.731 381.312 280.958 383.316C271.098 385.341 260.888 386.377 250.62 386.377ZM180.314 332.436C200.916 347.444 225.136 355.355 250.62 355.355C265.532 355.355 280.036 352.658 293.799 347.329C291.292 333.699 284.367 300.845 269.797 261.929C212.228 283.292 186.925 320.953 180.314 332.436ZM302.576 253.952C314.486 287.775 320.832 316.052 323.642 330.508C346.581 312.804 362.491 287.196 368.085 258.825C360.458 256.754 343.228 252.822 321.876 252.822C315.323 252.821 308.854 253.201 302.576 253.952ZM130.903 236.589C131.121 263.621 140.43 289.627 157.289 310.6C167.813 294.594 201.019 250.418 257.439 232.058C255.615 228.078 253.63 223.955 251.521 219.729C197.905 235.126 146.642 236.551 130.903 236.589ZM317.06 223.737C340.227 223.737 360.391 226.729 370.089 228.449C368.703 205.301 360.572 182.923 346.818 164.335C338.897 173.539 319.263 192.954 284.025 208.293C286.163 212.805 288.233 217.374 290.179 221.962L291.481 225.048C299.593 224.174 308.18 223.737 317.06 223.737ZM195.948 129.106C165.839 144.588 143.46 172.466 134.846 205.083C150.736 204.855 190.534 203.04 236.344 191.596C219.598 162.521 202.711 138.472 195.948 129.106ZM229.657 117.755C237.484 128.564 254.134 152.472 270.044 181.166C303.136 167.935 320.252 150.164 326.264 142.86C304.903 125.44 278.221 115.903 250.62 115.903C243.61 115.903 236.591 116.531 229.657 117.755Z" fill="#C1EA1D"/>
<path d="M375.314 178.839C371.647 170.177 367.126 161.837 361.845 154.048C356.64 146.336 350.656 139.06 344.065 132.468C337.454 125.876 330.198 119.874 322.485 114.669C314.678 109.388 306.338 104.866 297.695 101.2C288.88 97.4953 279.648 94.6083 270.263 92.7085C260.67 90.7334 250.792 89.7259 240.894 89.7259C231.017 89.7259 221.119 90.7325 211.506 92.7085C202.141 94.6083 192.909 97.4953 184.113 101.2C175.451 104.866 167.111 109.388 159.323 114.669C151.59 119.874 144.334 125.876 137.724 132.468C131.151 139.06 125.148 146.336 119.924 154.048C114.662 161.837 110.121 170.177 106.493 178.839C102.751 187.653 99.8825 196.886 97.964 206.252C96.0075 215.845 95 225.743 95 235.621C95 245.519 96.0075 255.396 97.964 265.009C99.8825 274.393 102.751 283.606 106.493 292.421C110.121 301.064 114.661 309.423 119.924 317.212C125.148 324.925 131.151 332.182 137.724 338.792C144.334 345.384 151.59 351.368 159.323 356.592C167.111 361.854 175.451 366.395 184.113 370.043C192.909 373.785 202.141 376.633 211.506 378.553C221.119 380.529 231.017 381.517 240.894 381.517C250.791 381.517 260.669 380.53 270.263 378.553C279.648 376.634 288.88 373.785 297.695 370.043C306.338 366.395 314.678 361.855 322.485 356.592C330.198 351.368 337.455 345.385 344.065 338.792C350.656 332.182 356.64 324.925 361.845 317.212C367.126 309.423 371.648 301.064 375.314 292.421C379.037 283.607 381.906 274.393 383.824 265.009C385.782 255.396 386.788 245.519 386.788 235.621C386.788 225.743 385.782 215.846 383.824 206.252C381.906 196.886 379.037 187.653 375.314 178.839ZM240.893 111.04C272.447 111.04 301.227 122.8 323.187 142.119C322.882 142.613 305.14 169.625 258.105 187.236C236.809 148.104 213.405 117.025 211.525 114.556C220.948 112.276 230.769 111.04 240.893 111.04ZM211.069 114.649C211.051 114.668 211.031 114.668 211.031 114.668C211.031 114.668 210.898 114.706 210.651 114.763C210.784 114.726 210.937 114.707 211.069 114.649ZM187.742 122.932C189.394 125.174 212.438 156.404 233.998 194.721C174.178 210.62 122.26 210.013 118.975 209.956C127.066 171.355 152.978 139.345 187.742 122.932ZM148.228 318.882C128.396 296.808 116.314 267.629 116.314 235.62C116.314 234.29 116.352 232.979 116.408 231.687C118.612 231.726 180.16 233.131 244.313 213.925C247.884 220.916 251.303 228.021 254.418 235.106C252.784 235.562 251.151 236.056 249.518 236.588C182.289 258.32 148.19 318.825 148.19 318.825C148.19 318.825 148.228 318.863 148.228 318.882ZM240.893 360.218C212.019 360.218 185.48 350.303 164.337 333.813V333.851C164.337 333.851 163.178 332.996 161.525 331.666C162.436 332.425 163.406 333.072 164.337 333.813C164.565 333.319 188.557 281.629 262.093 256.022C262.378 255.908 262.644 255.832 262.929 255.756C280.462 301.309 287.7 339.455 289.542 350.359C274.594 356.704 258.142 360.218 240.893 360.218ZM310.516 338.961C309.243 331.439 302.614 294.87 286.258 249.963C326.492 243.542 361.351 254.56 363.916 255.396C358.369 290.121 338.479 320.078 310.516 338.961ZM278.678 230.301C277.785 228.173 276.911 226.027 275.98 223.86C273.397 217.782 270.604 211.722 267.698 205.794C316.898 185.715 336.884 156.821 337.13 156.48C354.587 177.699 365.149 204.826 365.434 234.385C363.65 233.986 321.478 224.925 278.678 230.301Z" fill="#C1EA1D"/>
<path d="M250.62 89.7259C260.518 89.7259 270.395 90.7325 279.989 92.7086C289.374 94.6084 298.606 97.4953 307.42 101.2C316.063 104.866 324.403 109.388 332.211 114.669C339.924 119.874 347.181 125.876 353.791 132.468C360.383 139.06 366.367 146.336 371.572 154.048C376.853 161.837 381.375 170.177 385.041 178.839C388.763 187.653 391.632 196.886 393.551 206.252C395.508 215.845 396.515 225.743 396.515 235.621C396.515 245.519 395.508 255.396 393.551 265.009C391.632 274.393 388.764 283.606 385.041 292.421C381.374 301.064 376.853 309.423 371.572 317.212C366.367 324.925 360.383 332.182 353.791 338.792C347.181 345.384 339.925 351.368 332.211 356.592C324.403 361.854 316.063 366.395 307.42 370.043C298.606 373.785 289.374 376.633 279.989 378.553C270.396 380.529 260.518 381.517 250.62 381.517C240.742 381.517 230.845 380.53 221.232 378.553C211.867 376.634 202.635 373.785 193.839 370.043C185.177 366.395 176.837 361.855 169.048 356.592C161.316 351.368 154.06 345.385 147.45 338.792C140.876 332.182 134.874 324.925 129.649 317.212C124.388 309.423 119.846 301.064 116.219 292.421C112.477 283.607 109.608 274.393 107.69 265.009C105.733 255.396 104.727 245.519 104.727 235.621C104.727 225.743 105.733 215.846 107.69 206.252C109.609 196.886 112.478 187.654 116.219 178.839C119.847 170.177 124.388 161.837 129.649 154.048C134.874 146.336 140.876 139.06 147.45 132.468C154.06 125.876 161.316 119.874 169.048 114.669C176.837 109.388 185.177 104.866 193.839 101.2C202.635 97.4953 211.867 94.6084 221.232 92.7086C230.845 90.7334 240.742 89.7259 250.62 89.7259ZM267.831 187.235C314.866 169.625 332.609 142.612 332.913 142.118C310.953 122.799 282.173 111.039 250.62 111.039C240.494 111.039 230.674 112.275 221.251 114.554C223.132 117.024 246.536 148.103 267.831 187.235ZM220.691 114.688C220.662 114.697 220.615 114.706 220.568 114.716C220.501 114.735 220.435 114.744 220.377 114.764C220.453 114.745 220.52 114.726 220.568 114.716C220.606 114.707 220.653 114.697 220.691 114.688C220.728 114.678 220.757 114.669 220.757 114.669C220.757 114.669 220.776 114.669 220.795 114.65C220.757 114.669 220.729 114.679 220.691 114.688ZM131.046 209.975C142.292 209.975 189.792 209.054 243.724 194.721C222.164 156.405 199.12 125.175 197.468 122.932C162.705 139.345 136.792 171.354 128.7 209.956C129.023 209.965 129.82 209.975 131.046 209.975ZM288.404 230.301C298.15 229.075 307.857 228.601 317.061 228.601C348.311 228.601 373.785 234.082 375.162 234.386C374.877 204.827 364.315 177.7 346.857 156.481C346.61 156.823 326.626 185.716 277.425 205.795C280.331 211.723 283.124 217.783 285.708 223.861C286.637 226.027 287.511 228.173 288.404 230.301ZM130.239 231.726C127.855 231.726 126.439 231.697 126.136 231.687C126.079 232.979 126.041 234.29 126.041 235.62C126.041 267.629 138.123 296.808 157.955 318.882C157.955 318.864 157.917 318.825 157.917 318.825C157.917 318.825 192.016 258.322 259.244 236.589C260.878 236.057 262.512 235.563 264.146 235.107C261.03 228.022 257.61 220.917 254.04 213.926C198.674 230.501 145.256 231.726 130.239 231.726ZM320.242 338.961C348.205 320.078 368.095 290.121 373.642 255.395C371.647 254.749 350.2 247.957 321.876 247.957C313.717 247.957 304.979 248.528 295.983 249.962C312.339 294.87 318.97 331.439 320.242 338.961ZM174.064 333.813C173.342 333.242 172.601 332.729 171.888 332.179C171.688 332.017 171.47 331.847 171.252 331.666C171.461 331.837 171.67 332.008 171.888 332.179C173.19 333.204 174.064 333.851 174.064 333.851V333.813C195.207 350.302 221.745 360.218 250.62 360.218C267.869 360.218 284.32 356.704 299.27 350.359C297.428 339.455 290.19 301.309 272.656 255.756C272.371 255.832 272.105 255.908 271.82 256.022C198.285 281.63 174.292 333.32 174.064 333.813ZM250.62 80C240.086 80 229.543 81.0731 219.276 83.182C209.407 85.1864 199.577 88.2257 190.059 92.2345C180.76 96.1759 171.86 101.01 163.586 106.615C155.447 112.105 147.696 118.488 140.582 125.583C133.544 132.64 127.161 140.371 121.595 148.597C115.915 157.013 111.08 165.913 107.243 175.078C103.273 184.434 100.214 194.275 98.1625 204.295C96.0633 214.591 95 225.125 95 235.621C95 246.107 96.0642 256.65 98.1537 266.947C100.205 276.958 103.264 286.808 107.263 296.22C111.109 305.376 115.934 314.286 121.586 322.653C127.123 330.823 133.496 338.554 140.554 345.649C147.629 352.716 155.38 359.099 163.596 364.645C171.974 370.307 180.883 375.141 190.059 379.006C199.338 382.958 209.188 386.007 219.276 388.077C229.486 390.177 240.029 391.24 250.62 391.24C261.211 391.24 271.754 390.177 281.946 388.077C292.023 386.016 301.872 382.958 311.219 378.997C320.357 375.14 329.256 370.306 337.644 364.654C345.888 359.079 353.619 352.696 360.658 345.676C367.716 338.601 374.098 330.859 379.635 322.653C385.211 314.428 390.045 305.528 393.987 296.219C397.986 286.769 401.035 276.928 403.077 266.955C405.177 256.65 406.24 246.107 406.24 235.621C406.24 225.125 405.177 214.592 403.077 204.305C401.035 194.313 397.977 184.472 393.997 175.06C390.064 165.771 385.229 156.861 379.616 148.587C374.05 140.343 367.668 132.592 360.667 125.592C353.553 118.506 345.811 112.123 337.652 106.604C329.369 101.01 320.469 96.175 311.218 92.2433C301.644 88.2257 291.794 85.1758 281.916 83.1723C271.696 81.0731 261.154 80 250.62 80ZM238.253 121.441C242.366 120.995 246.498 120.767 250.62 120.767C275.411 120.767 299.421 128.784 319.199 143.515C311.97 151.218 297.104 164.355 272.173 175.022C259.501 152.577 246.612 133.343 238.253 121.441ZM141.409 200.039C150.318 172.789 169.372 149.518 194.485 135.413C201.723 145.595 215.106 165.076 228.859 188.404C191.474 197.095 158.325 199.431 141.409 200.039ZM290.522 210.706C318.836 197.617 336.741 182.078 346.315 172.086C356.317 187.198 362.643 204.57 364.704 222.608C353.734 220.908 336.58 218.875 317.06 218.875C309.31 218.875 301.778 219.208 294.568 219.853C293.296 216.861 291.937 213.802 290.522 210.706ZM135.909 241.396C155.409 241.063 200.925 238.726 248.948 225.504C249.566 226.758 250.164 227.993 250.743 229.218C201.665 246.942 170.558 283.453 157.099 302.298C144.381 284.47 137.011 263.384 135.909 241.396ZM309.186 258.188C313.356 257.856 317.592 257.685 321.876 257.685C339.059 257.685 353.696 260.373 362.329 262.405C356.848 285.249 344.359 305.984 326.777 321.599C323.624 306.848 318.095 284.366 309.186 258.188ZM186.83 331.069C195.473 317.552 219.219 287.111 266.929 268.218C278.991 301.395 285.394 329.596 288.252 344.185C276.19 348.374 263.567 350.491 250.62 350.491C227.672 350.492 205.779 343.806 186.83 331.069Z" fill="#ECFFA0"/>
</svg>
