<svg width="487" height="451" viewBox="0 0 487 451" fill="none" xmlns="http://www.w3.org/2000/svg">
<path fill-rule="evenodd" clip-rule="evenodd" d="M371.748 41.323C420.842 114.796 245.601 248.165 194.711 285.834C141.512 325.212 81.7986 345.368 28.5996 293.087C-32.2414 233.294 64.6636 190.548 109.039 162.465C169.009 124.485 226.26 71.583 283.409 37.645C310.599 21.478 349.227 10.494 371.748 41.323Z" fill="#5D7600"/>
<path fill-rule="evenodd" clip-rule="evenodd" d="M407.762 66.66C463.217 62.307 500.819 124.536 463.371 176.402C443.875 203.501 353.074 296.559 326.398 319.098C268.89 366.351 126.379 446.612 53.5847 395.834C12.8007 367.387 14.8007 322.153 56.0467 293.086C117.504 249.771 177.372 254.433 242.421 193.552C286.692 152.102 346.046 75.158 407.762 66.66Z" fill="#5D7600"/>
<path fill-rule="evenodd" clip-rule="evenodd" d="M460.139 211.429C495.022 280.548 328.706 377.492 280.536 404.695C230.16 433.14 176.14 444.228 135.459 393.089C88.9796 334.539 177.627 307.907 219.18 288.271C275.251 261.741 330.604 222 383.802 198.684C409.146 187.542 443.824 182.206 460.139 211.429Z" fill="#5D7600"/>
<path d="M169.452 303.298L170.588 304.616L171.703 305.934L172.839 307.252L173.965 308.56L175.101 309.868L176.238 311.165L177.363 312.441L178.51 313.727L179.635 315.024L180.729 316.247C181.629 317.254 183.269 317.008 183.87 315.786C184.191 315.11 184.084 314.285 183.57 313.717L182.498 312.506L181.362 311.23L180.237 309.944L179.112 308.647L177.976 307.361L176.851 306.075L175.715 304.767L174.59 303.449L173.497 302.152L172.361 300.833L171.246 299.515C170.946 299.151 170.538 298.936 170.088 298.862C170.109 298.423 169.949 297.983 169.648 297.618L169.027 296.868L167.901 295.55L166.808 294.221L165.725 292.881L164.632 291.563L163.571 290.234L162.477 288.916L161.394 287.576L160.333 286.258L159.261 284.918L157.761 283.041C157.15 282.259 156.025 282.099 155.188 282.687C154.298 283.32 154.116 284.563 154.792 285.41L156.282 287.297L157.354 288.637L158.437 289.966L159.509 291.306L160.602 292.635L161.696 293.975L162.8 295.315L163.893 296.645L164.987 297.985L166.101 299.314L166.734 300.075C167.045 300.45 167.463 300.654 167.902 300.719C167.891 301.148 168.02 301.598 168.331 301.973L169.452 303.298ZM81.5664 188.528C79.5834 186.191 78.7584 183.276 79.0044 180.424C79.2724 177.594 80.6024 174.839 82.9604 172.867C83.1854 172.653 83.4324 172.459 83.6894 172.299L83.3564 171.58L82.7884 170.337L82.2204 169.083L81.6624 167.85L81.1054 166.606L80.5594 165.363L80.0124 164.12L79.4764 162.887L78.9514 161.654L78.4264 160.422L77.9114 159.2L77.4084 157.989L76.8934 156.767L76.6464 156.188C76.0674 154.72 77.4074 153.219 78.9614 153.637C79.5194 153.798 79.9474 154.194 80.1724 154.73L80.4084 155.298L80.9124 156.499L81.4164 157.71L81.9314 158.932L82.4454 160.154L82.9704 161.365L83.4954 162.587L84.0314 163.809L84.5784 165.031L85.1254 166.263L85.6714 167.485L86.2284 168.729L86.8074 169.973L87.1184 170.627C88.4264 170.252 89.7774 170.134 91.1064 170.219C93.9464 170.455 96.6804 171.752 98.6524 174.1C100.624 176.426 101.461 179.352 101.203 182.193C100.957 185.023 99.6174 187.788 97.2484 189.782C97.0874 189.911 96.9374 190.05 96.7554 190.189L97.3774 191.358L98.0414 192.644L98.7174 193.919L99.4244 195.194L100.111 196.491L100.807 197.778L101.504 199.075L102.222 200.361L102.93 201.636L103.67 202.933L104.388 204.241L104.999 205.324C105.331 205.882 105.31 206.578 105.01 207.157C104.26 208.454 102.427 208.486 101.687 207.211L101.065 206.117L100.336 204.809L99.6184 203.512L98.8994 202.204L98.1814 200.907L97.4734 199.61L96.7654 198.313L96.0684 197.027L95.3714 195.741L94.6854 194.444L94.0104 193.169L93.3564 191.936C91.9734 192.365 90.5374 192.515 89.1114 192.397C86.2724 192.173 83.5384 190.865 81.5664 188.528ZM89.4454 188.636C91.3324 188.785 93.2614 188.207 94.8154 186.899C96.3804 185.581 97.2704 183.78 97.4314 181.904C97.5924 180.029 97.0454 178.099 95.7484 176.555C94.4514 175.023 92.6294 174.154 90.7644 174.015C88.8894 173.854 86.9594 174.422 85.3944 175.741C83.8404 177.049 82.9614 178.871 82.7904 180.736C82.6294 182.601 83.1764 184.531 84.4734 186.074C85.7894 187.617 87.5904 188.485 89.4454 188.636ZM144.905 266.274L143.908 264.944L142.932 263.604L141.957 262.275L140.971 260.946L140.017 259.606L139.052 258.266L138.087 256.948L137.154 255.608L136.211 254.268L135.246 252.917C134.453 251.781 132.749 251.877 132.041 253.067C131.677 253.71 131.698 254.504 132.116 255.103L133.102 256.486L134.056 257.815L135.01 259.166L135.964 260.506L136.94 261.846L137.894 263.176L138.88 264.516L139.856 265.866L140.853 267.206L141.85 268.546L143.232 270.423C144.101 271.569 145.858 271.365 146.469 270.069C146.78 269.437 146.705 268.697 146.298 268.14L144.905 266.274ZM123.553 235.692L122.696 234.352L121.828 233.044L120.981 231.726L120.134 230.397L119.298 229.079L118.462 227.761L117.615 226.442L116.811 225.124L115.986 223.806L115.182 222.498L114.571 221.501C114.26 221.019 113.756 220.697 113.167 220.622C111.602 220.44 110.498 222.166 111.313 223.506L111.935 224.503L112.75 225.832L113.575 227.161L114.411 228.479L115.236 229.808L116.083 231.137L116.94 232.466L117.776 233.784L118.633 235.124L119.501 236.453L120.369 237.782L121.484 239.466C122.277 240.666 124.046 240.559 124.732 239.305C125.065 238.673 125.032 237.965 124.657 237.365L123.553 235.692ZM73.2704 136.401L72.8744 135.233L72.4774 134.097L72.1124 132.95L71.7264 131.814L71.3834 130.678L71.0194 129.542L70.6544 128.406L70.3114 127.281L69.9794 126.156L69.6364 125.031L69.3034 123.916L68.9814 122.802L68.6814 121.698L68.3604 120.594L67.9954 119.264C67.8674 118.782 67.5664 118.374 67.1484 118.128C65.6904 117.26 63.9004 118.61 64.3294 120.261L64.7044 121.644L65.0254 122.759L65.3364 123.863L65.6584 125.01L66.0014 126.146L66.3334 127.282L66.6764 128.407L67.0414 129.565L67.3954 130.712L67.7494 131.848L68.1354 133.016L68.5104 134.174L68.8854 135.331L69.2814 136.5L69.6674 137.646L69.9354 138.428C70.1074 138.857 70.3534 139.19 70.7504 139.425C72.2614 140.336 74.1054 138.846 73.5374 137.174L73.2704 136.401ZM63.7734 100.395L63.6014 99.398L63.4304 98.38L63.2594 97.372L63.0984 96.375L62.9594 95.367L62.8204 94.381L62.6804 93.384L62.5524 92.398L62.4454 91.422L62.3274 90.446L62.2204 89.47L62.1244 88.506L62.0274 87.552L61.9424 86.588L61.8564 85.645L61.7814 84.702L61.7174 83.769L61.6534 82.836L61.6424 82.429C61.6104 81.968 61.4284 81.561 61.1174 81.228C59.8844 79.984 57.7514 80.917 57.8484 82.664L57.8694 83.103L57.9334 84.046L57.9974 85.022L58.0824 85.998L58.1464 86.974L58.2434 87.95L58.3404 88.925L58.4364 89.911L58.5434 90.919L58.6724 91.895L58.7794 92.924L58.9074 93.921L59.0574 94.928L59.2184 95.947L59.3574 96.966L59.5184 97.984L59.6684 99.024L59.8504 100.064L60.0214 101.093L60.1394 101.672C60.2244 102.208 60.5354 102.658 60.9964 102.958C62.4004 103.784 64.1474 102.583 63.8794 100.975L63.7734 100.395ZM62.2074 62.922L62.3144 62.118L62.4434 61.335L62.5614 60.542L62.6794 59.781L62.8194 58.998L62.9694 58.237L63.1084 57.476L63.2804 56.736L63.4414 55.986L63.6124 55.247L63.7954 54.518L63.9874 53.8L64.1704 53.071L64.3634 52.353L64.5774 51.657L64.7914 50.96L65.0164 50.264L65.2524 49.588L65.4774 48.892L65.7244 48.227L65.9714 47.563L66.2174 46.887L66.4754 46.244L66.5934 46.019C66.7754 45.569 66.7974 45.086 66.6364 44.636C66.0574 43.007 63.7964 42.975 63.0984 44.55L62.9804 44.84L62.6904 45.536L62.4224 46.233L62.1534 46.941L61.8964 47.659L61.6394 48.377L61.3924 49.116L61.1784 49.856L60.9314 50.606L60.7174 51.356L60.5134 52.107L60.3094 52.868L60.1164 53.629L59.9124 54.401L59.7514 55.194L59.5584 55.976L59.4084 56.759L59.2484 57.552L59.0984 58.356L58.9484 59.17L58.8094 59.984L58.6694 60.81L58.5514 61.625L58.4554 62.472L58.3374 63.426C58.2624 63.994 58.4554 64.551 58.8514 64.958C59.9664 66.095 61.8954 65.419 62.0884 63.854L62.2074 62.922ZM76.7754 30.818L77.2474 30.368L77.7294 29.929L78.2114 29.5L78.7154 29.071L79.2084 28.653L79.7114 28.257L80.2264 27.839L80.7514 27.453L81.2764 27.078L81.8124 26.714L82.3374 26.339L82.8944 25.985L83.4304 25.631L83.9874 25.277L84.5554 24.966L85.1234 24.633L85.7024 24.322L86.2704 24.011L86.8494 23.732L87.4384 23.421L88.0384 23.142L88.6394 22.863L89.2614 22.606L89.8724 22.348L90.4944 22.102L91.1164 21.855L91.7384 21.62L92.0714 21.502C92.5314 21.352 92.8964 21.052 93.1324 20.623C93.9574 19.101 92.5214 17.364 90.8704 17.933L90.4954 18.062L89.8084 18.319L89.1334 18.566L88.4574 18.845L87.7934 19.123L87.1394 19.402L86.4754 19.723L85.8214 20.023L85.1894 20.323L84.5574 20.667L83.9244 20.988L83.2924 21.331L82.6704 21.685L82.0594 22.06L81.4484 22.424L80.8474 22.799L80.2584 23.196L79.6694 23.592L79.0794 23.989L78.5114 24.439L77.9434 24.857L77.3754 25.296L76.8284 25.746L76.2814 26.185L75.7354 26.667L75.1994 27.141L74.6854 27.613L74.1604 28.106L74.0424 28.213C73.7424 28.503 73.5384 28.878 73.4954 29.296C73.1954 31.075 75.3284 32.169 76.6574 30.936L76.7754 30.818ZM110.872 18.427L111.643 18.416L112.436 18.427L113.24 18.438L114.033 18.449L114.837 18.492L115.652 18.524L116.456 18.556L117.282 18.61L118.096 18.674L118.921 18.738L119.746 18.813L120.582 18.899L121.429 18.985L122.265 19.092L123.112 19.188L123.98 19.295L124.848 19.413L125.705 19.552L126.562 19.691L127.441 19.831L128.32 19.981L128.62 20.045C129.177 20.142 129.692 20.013 130.142 19.659C131.428 18.652 130.935 16.615 129.338 16.315L129.017 16.262L128.106 16.101L127.206 15.951L126.316 15.802L125.416 15.684L124.526 15.555L123.636 15.427L122.757 15.32L121.889 15.223L121.01 15.126L120.142 15.04L119.263 14.955L118.416 14.891L117.559 14.837L116.712 14.783L115.865 14.751L115.018 14.697L114.182 14.665L113.335 14.644L112.509 14.633L111.695 14.644H110.859L110.119 14.676C108.737 14.676 107.836 16.08 108.393 17.345C108.715 18.021 109.368 18.449 110.129 18.449L110.872 18.427ZM147.65 24.965L148.636 25.298L149.59 25.63L150.566 25.951L151.541 26.294L152.506 26.637L153.503 27.012L154.468 27.366L155.465 27.741L156.451 28.127L157.448 28.513L158.445 28.899L159.442 29.306L160.45 29.713L161.457 30.131L162.464 30.56L163.483 30.989L164.222 31.3C164.651 31.493 165.144 31.504 165.594 31.354C167.224 30.743 167.32 28.514 165.744 27.816L165.015 27.516L163.975 27.066L162.946 26.637L161.928 26.219L160.91 25.801L159.881 25.383L158.873 24.987L157.854 24.59L156.847 24.204L155.85 23.829L154.842 23.443L153.834 23.079L152.827 22.725L151.841 22.382L150.855 22.028L149.858 21.696L148.893 21.374L147.917 21.063C146.856 20.699 145.709 21.353 145.463 22.446C145.259 23.411 145.774 24.354 146.706 24.665L147.65 24.965ZM182.219 39.972L183.28 40.529L184.342 41.108L185.414 41.687L186.497 42.276L187.569 42.877L188.652 43.478L189.724 44.067L190.818 44.689L191.9 45.321L192.983 45.932L194.076 46.586L195.159 47.218L196.274 47.872L197.474 48.59C198.621 49.287 200.121 48.611 200.358 47.282C200.476 46.511 200.143 45.761 199.479 45.353L198.225 44.613L197.121 43.959L196.017 43.305L194.924 42.662L193.82 42.03L192.716 41.397L191.623 40.776L190.54 40.165L189.447 39.554L188.343 38.954L187.26 38.353L186.177 37.785L185.105 37.196L184.034 36.617L182.908 36.038C181.654 35.384 180.142 36.295 180.11 37.71C180.121 38.428 180.507 39.071 181.129 39.404L182.219 39.972ZM214.001 59.137L215.126 59.898L216.252 60.659L217.388 61.441L218.514 62.213L219.639 62.985L220.776 63.789L221.912 64.593L223.027 65.397L224.163 66.201L225.31 67.027L226.446 67.852L227.593 68.688L228.707 69.502C229.093 69.792 229.575 69.92 230.068 69.845C231.751 69.62 232.33 67.455 230.968 66.436L229.843 65.622L228.696 64.786L227.55 63.95L226.413 63.124L225.267 62.31L224.109 61.496L222.984 60.692L221.837 59.877L220.691 59.094L219.554 58.312L218.418 57.53L217.281 56.769L216.156 55.997L215.48 55.536C214.998 55.215 214.419 55.129 213.862 55.3C212.329 55.772 212.018 57.776 213.326 58.676L214.001 59.137ZM244.776 81.851L245.933 82.805L247.091 83.738L248.237 84.681L249.395 85.624L250.552 86.578L251.721 87.521L252.857 88.497L254.025 89.451L255.172 90.437L256.34 91.413L258.109 92.925C259.171 93.825 260.799 93.321 261.174 91.96C261.367 91.273 261.132 90.513 260.596 90.052L258.817 88.53L257.637 87.533L256.48 86.558L255.311 85.572L254.154 84.607L252.997 83.631L251.817 82.677L250.66 81.734L249.481 80.78L248.323 79.847L247.186 78.904L245.997 77.972C245.568 77.618 245 77.5 244.464 77.597C242.867 77.919 242.363 79.944 243.606 80.952L244.776 81.851ZM273.728 106.816L274.896 107.899L276.054 108.981L277.2 110.064L278.358 111.147L279.515 112.24L280.684 113.334L281.841 114.438L283.01 115.564L284.156 116.678L285.839 118.308C286.203 118.662 286.664 118.854 287.168 118.854C288.852 118.833 289.72 116.774 288.519 115.585L286.815 113.944L285.636 112.83L284.489 111.704L283.31 110.59L282.152 109.475L280.984 108.382L279.827 107.289L278.658 106.196L277.49 105.113L276.321 104.03L274.767 102.604C273.716 101.64 272.023 102.143 271.637 103.515C271.444 104.191 271.658 104.919 272.172 105.391L273.728 106.816ZM300.321 132.874L301.468 134.064L302.614 135.264L303.751 136.476L304.908 137.687L306.045 138.909L307.202 140.131L308.339 141.353L309.485 142.585L310.611 143.818L312.015 145.329C312.915 146.326 314.523 146.069 315.123 144.879C315.466 144.172 315.337 143.336 314.833 142.768L313.429 141.246L312.261 139.992L311.124 138.749L309.978 137.526L308.832 136.294L307.674 135.072L306.528 133.861L305.381 132.639L304.224 131.439L303.066 130.228L301.877 128.984C300.891 127.987 299.208 128.373 298.704 129.681C298.478 130.367 298.618 131.106 299.122 131.631L300.321 132.874ZM325.34 160.347L326.466 161.655L327.58 162.973L328.695 164.281L329.82 165.61L330.914 166.928L332.05 168.257L333.154 169.576L334.247 170.905L335.351 172.223L336.626 173.777C336.905 174.142 337.291 174.356 337.752 174.442C339.488 174.731 340.656 172.727 339.564 171.387L338.288 169.811L337.184 168.471L336.069 167.142L334.965 165.802L333.85 164.473L332.725 163.155L331.599 161.815L330.485 160.497L329.348 159.179L328.223 157.86L327.409 156.906C327.013 156.488 326.509 156.252 325.94 156.252C324.342 156.263 323.453 158.171 324.503 159.382L325.34 160.347ZM349.115 189.514L350.134 190.843L351.152 192.194L352.171 193.512L353.179 194.852L354.164 196.17L355.172 197.51L356.169 198.85L357.145 200.168L358.142 201.508L359.096 202.838L359.621 203.546C360.403 204.629 362 204.564 362.74 203.471C363.179 202.796 363.169 201.949 362.697 201.317L362.182 200.577L361.206 199.248L360.22 197.908L359.202 196.568L358.226 195.228L357.229 193.888L356.2 192.548L355.192 191.208L354.184 189.868L353.156 188.517L352.127 187.188L351.345 186.191C351.056 185.784 350.595 185.537 350.091 185.462C348.418 185.258 347.315 187.166 348.343 188.506L349.115 189.514ZM371.315 220.138L372.226 221.467L373.116 222.786L374.006 224.115L374.885 225.444L375.775 226.783L376.643 228.102L377.522 229.431L378.379 230.739L379.236 232.068L380.084 233.397L380.845 234.587C381.595 235.744 383.278 235.755 384.039 234.597C384.446 233.954 384.468 233.183 384.071 232.529L383.277 231.307L382.43 229.999L381.573 228.659L380.694 227.319L379.826 226L378.947 224.66L378.057 223.331L377.167 221.991L376.277 220.673L375.366 219.333L374.444 217.993L373.619 216.761C373.008 215.861 371.765 215.678 370.886 216.332C370.093 216.953 369.91 218.079 370.479 218.904L371.315 220.138ZM391.423 251.782L392.185 253.079L392.946 254.397L393.718 255.694L394.457 256.991L395.196 258.288L395.936 259.596L396.675 260.882L397.404 262.179L398.123 263.477L398.852 264.763L399.56 266.049L400.042 266.928C400.406 267.615 401.124 267.968 401.906 267.893C403.257 267.743 404.008 266.285 403.375 265.084L402.893 264.194L402.164 262.919L401.456 261.611L400.717 260.303L399.988 258.994L399.249 257.697L398.499 256.389L397.77 255.081L396.999 253.773L396.238 252.455L395.477 251.147L394.705 249.829L393.998 248.649C393.602 247.985 392.872 247.641 392.111 247.739C390.76 247.953 390.053 249.432 390.728 250.6L391.423 251.782ZM409.496 285.15L410.117 286.404L410.718 287.669L411.329 288.923L411.929 290.167L412.53 291.41L413.098 292.664L413.687 293.897L414.245 295.14L414.824 296.383L415.382 297.615L415.928 298.848L416.711 300.606C417.268 301.828 418.844 302.107 419.809 301.142C420.356 300.584 420.506 299.77 420.195 299.051L419.948 298.515L419.413 297.283L418.845 296.029L418.277 294.786L417.699 293.543L417.12 292.288L416.541 291.023L415.963 289.78L415.352 288.504L414.751 287.25L414.15 285.985L413.54 284.72L412.918 283.455L412.136 281.89C411.889 281.418 411.503 281.086 410.989 280.925C409.403 280.475 408.01 282.114 408.727 283.615L409.496 285.15ZM424.417 319.376L424.856 320.545L425.306 321.734L425.745 322.892L426.152 324.071L426.581 325.229L426.977 326.397L427.406 327.565L427.792 328.723L428.189 329.869L428.574 331.016L428.939 332.162L429.325 333.299L429.689 334.435L430.075 335.689C430.493 336.998 432.123 337.426 433.152 336.515C433.709 336.011 433.923 335.24 433.709 334.532L433.302 333.257L432.938 332.11L432.563 330.942L432.177 329.796L431.791 328.638L431.383 327.459L430.976 326.29L430.58 325.111L430.162 323.932L429.733 322.763L429.304 321.584L428.865 320.383L428.436 319.204L427.975 317.992L427.45 316.589C427.247 316.064 426.807 315.646 426.261 315.485C424.76 314.981 423.323 316.482 423.903 317.962L424.417 319.376ZM435.168 354.278L435.415 355.349L435.65 356.411L435.885 357.45L436.1 358.501L436.315 359.552L436.529 360.592L436.733 361.631L436.925 362.66L437.118 363.679L437.3 364.708L437.483 365.726L437.633 366.745L437.804 367.742L437.965 368.75L438.104 369.746L438.233 370.754L438.373 371.74L438.437 372.169C438.608 373.487 440.044 374.206 441.213 373.573C441.92 373.187 442.306 372.447 442.199 371.654L442.145 371.193L441.995 370.175L441.855 369.178L441.716 368.138L441.544 367.119L441.383 366.091L441.201 365.062L441.029 364.022L440.837 362.982L440.665 361.932L440.462 360.881L440.247 359.819L440.032 358.758L439.818 357.696L439.592 356.634L439.357 355.541L439.121 354.479L438.864 353.385L438.746 352.881C438.585 352.238 438.167 351.756 437.557 351.531C436.131 351.038 434.727 352.302 435.048 353.76L435.168 354.278ZM439.627 391.312L439.606 392.169L439.585 393.037L439.543 393.905L439.5 394.762L439.467 395.599L439.414 396.466L439.35 397.292L439.296 398.128L439.221 398.953L439.135 399.767L439.039 400.571L438.953 401.386L438.846 402.2L438.739 402.982L438.632 403.765L438.526 404.569L438.376 405.34L438.236 406.101L438.107 406.863L437.947 407.624L437.797 408.374L437.615 409.168C437.497 409.703 437.583 410.25 437.904 410.689C438.847 412.029 440.916 411.611 441.312 410.025L441.505 409.146L441.666 408.341L441.827 407.537L441.966 406.733L442.116 405.94L442.255 405.126L442.384 404.3L442.502 403.464L442.62 402.65L442.716 401.814L442.813 400.966L442.91 400.12L442.996 399.263L443.071 398.405L443.146 397.537L443.199 396.669L443.253 395.779L443.307 394.922L443.339 394.022L443.371 393.132L443.392 392.232L443.424 391.332V390.796C443.424 390.271 443.231 389.799 442.877 389.435C441.698 388.267 439.65 389.103 439.618 390.775L439.627 391.312ZM430.516 426.728L430.12 427.286L429.766 427.833L429.391 428.357L429.005 428.904L428.618 429.429L428.222 429.944L427.815 430.458L427.376 430.974L426.98 431.456L426.551 431.948L426.112 432.441L425.662 432.902L425.223 433.384L424.751 433.834L424.29 434.284L423.829 434.745L423.336 435.184L422.843 435.613L422.361 436.031L421.847 436.461L421.353 436.857L420.839 437.253L420.314 437.639L419.789 438.035L419.242 438.421L418.717 438.775L418.225 439.097C417.86 439.322 417.592 439.686 417.453 440.104C416.885 441.808 418.75 443.234 420.272 442.281L420.797 441.906L421.397 441.519L421.987 441.101L422.566 440.683L423.133 440.265L423.68 439.826L424.248 439.387L424.795 438.915L425.342 438.443L425.867 437.982L426.402 437.5L426.906 437.018L427.421 436.514L427.925 436.021L428.418 435.485L428.9 434.982L429.372 434.446L429.854 433.91L430.304 433.363L430.754 432.817L431.204 432.259L431.633 431.701L432.072 431.111L432.479 430.543L432.875 429.943L433.293 429.342L433.689 428.753L434.043 428.185C434.322 427.767 434.419 427.252 434.312 426.748C433.958 425.118 431.782 424.743 430.86 426.158L430.516 426.728ZM400.599 445.755L399.892 445.884L399.185 445.991L398.456 446.097L397.727 446.183L397.009 446.269L396.259 446.344L395.53 446.418L394.78 446.482L394.03 446.546L393.268 446.578L392.507 446.621L391.746 446.642L390.963 446.663L390.181 446.674L389.41 446.695L388.639 446.684L387.824 446.673L387.02 446.652L386.238 446.631L385.413 446.588L384.609 446.545L383.794 446.491L382.883 446.437C382.433 446.394 381.961 446.523 381.597 446.791C380.182 447.842 380.783 450.072 382.519 450.211L383.516 450.275L384.352 450.329L385.188 450.383L386.045 450.414L386.881 450.435L387.718 450.468L388.554 450.478H389.39L390.204 450.468L391.019 450.447L391.833 450.426L392.637 450.405L393.451 450.362L394.233 450.319L395.038 450.265L395.831 450.19L396.602 450.126L397.384 450.04L398.166 449.955L398.928 449.837L399.689 449.74L400.45 449.622L401.212 449.494L401.919 449.365C403.527 449.065 404.073 447.071 402.83 446.042C402.412 445.678 401.854 445.538 401.309 445.635L400.599 445.755ZM363.757 443.182L362.835 442.935L361.913 442.7L360.981 442.442L360.048 442.174L359.094 441.906L358.161 441.627L357.218 441.359L356.275 441.069L355.321 440.769L354.367 440.458L353.391 440.146L352.438 439.825L351.473 439.504L350.508 439.161L349.532 438.828L348.546 438.464L347.56 438.11L346.681 437.778C346.22 437.617 345.738 437.617 345.277 437.809C343.702 438.496 343.723 440.714 345.309 441.326L346.231 441.669L347.217 442.033L348.225 442.376L349.221 442.741L350.207 443.084L351.204 443.405L352.18 443.737L353.166 444.059L354.131 444.38L355.106 444.691L356.083 444.991L357.047 445.26L358.012 445.549L358.977 445.828L359.931 446.096L360.885 446.353L361.828 446.611L362.792 446.857L363.564 447.029C364.936 447.372 366.179 446.172 365.901 444.789C365.751 444.092 365.225 443.567 364.529 443.363L363.757 443.182ZM328.32 429.923L327.27 429.419L326.241 428.915L325.191 428.4L324.129 427.853L323.078 427.338L322.028 426.803L320.966 426.245L319.894 425.698L318.832 425.14L317.771 424.572L316.709 423.994L315.647 423.436L314.576 422.835L313.482 422.235L312.764 421.839C311.606 421.195 310.18 421.892 309.955 423.19C309.815 423.994 310.191 424.765 310.877 425.14L311.627 425.558L312.71 426.159L313.793 426.749L314.875 427.35L315.969 427.928L317.041 428.486L318.112 429.065L319.184 429.612L320.255 430.169L321.327 430.727L322.399 431.263L323.47 431.788L324.542 432.323L325.592 432.827L326.654 433.331L327.769 433.867C328.251 434.102 328.788 434.114 329.28 433.931C330.835 433.33 330.931 431.165 329.441 430.457L328.32 429.923ZM296.002 411.829L294.876 411.11L293.762 410.414L292.647 409.685L291.533 408.956L290.418 408.227L289.303 407.465L288.178 406.726L287.063 405.975L285.927 405.214L284.801 404.453L283.687 403.682L282.561 402.899L280.986 401.817C280.59 401.528 280.086 401.421 279.582 401.516C277.932 401.806 277.417 403.95 278.789 404.914L280.364 406.018L281.501 406.801L282.647 407.594L283.773 408.355L284.919 409.117L286.056 409.888L287.17 410.638L288.307 411.389L289.443 412.118L290.558 412.847L291.683 413.587L292.82 414.305L293.934 415.013L294.588 415.442C295.124 415.785 295.788 415.828 296.389 415.56C297.761 414.927 297.911 413.03 296.635 412.237L296.002 411.829ZM264.338 389.565L263.18 388.686L262.044 387.786L260.886 386.907L259.74 385.996L258.593 385.085L257.447 384.174L256.288 383.241L255.141 382.319L253.984 381.376L252.815 380.443L251.1 379.039C250.049 378.171 248.496 378.653 248.078 379.95C247.852 380.689 248.066 381.462 248.678 381.954L250.404 383.38L251.573 384.334L252.73 385.277L253.899 386.21L255.056 387.132L256.213 388.054L257.382 388.987L258.529 389.887L259.686 390.787L260.854 391.698L262.001 392.577L263.513 393.735C263.898 394.046 264.359 394.153 264.853 394.11C266.557 393.917 267.189 391.773 265.828 390.722L264.338 389.565ZM235.46 365.639L234.281 364.6L233.155 363.56L231.976 362.52L230.818 361.47L229.66 360.419L228.492 359.357L227.334 358.275L226.177 357.213L225.008 356.142L223.851 355.048L222.897 354.158C222.147 353.45 220.978 353.471 220.25 354.233C219.5 354.972 219.51 356.215 220.293 356.923L221.247 357.834L222.405 358.916L223.573 359.999L224.752 361.082L225.909 362.164L227.067 363.226L228.246 364.276L229.414 365.338L230.582 366.4L231.75 367.439L232.908 368.479L234.269 369.669C235.298 370.579 236.927 370.119 237.345 368.79C237.56 368.071 237.345 367.332 236.798 366.828L235.46 365.639ZM207.655 339.325L206.508 338.145L205.34 336.977L204.203 335.808L203.046 334.619L201.888 333.44L200.731 332.239L199.605 331.05L198.459 329.861L197.301 328.649L196.294 327.578C195.886 327.139 195.308 326.945 194.707 326.999C193.164 327.191 192.456 329.046 193.518 330.183L194.547 331.265L195.694 332.477L196.841 333.677L197.999 334.877L199.167 336.078L200.314 337.267L201.471 338.468L202.64 339.647L203.786 340.826L204.944 341.995L206.713 343.753C207.056 344.096 207.538 344.299 208.031 344.299C209.714 344.311 210.593 342.274 209.403 341.063L207.655 339.325Z" fill="white"/>
<path d="M307.343 323.911C307.75 323.642 308.018 323.257 308.147 322.839C308.565 322.925 309.037 322.85 309.444 322.581L310.28 322.056L311.749 321.134L313.207 320.202L314.654 319.269L316.111 318.336L317.569 317.403L319.016 316.46L320.442 315.527L321.889 314.605L323.314 313.64L325.319 312.311C326.219 311.71 326.423 310.478 325.78 309.61C325.17 308.796 324.044 308.581 323.218 309.138L321.224 310.467L319.788 311.41L318.372 312.353L316.936 313.275L315.489 314.197L314.052 315.13L312.605 316.052L311.168 316.995L309.721 317.917L308.253 318.828L307.417 319.352C307.031 319.599 306.741 319.974 306.623 320.392C306.174 320.329 305.713 320.413 305.326 320.661L303.857 321.583L302.368 322.483L300.921 323.383L299.442 324.294L297.963 325.184L296.494 326.063L295.025 326.931L293.556 327.821L292.099 328.689L290.62 329.557L289.216 330.382C288.551 330.758 288.197 331.519 288.305 332.258C288.487 333.609 289.977 334.348 291.145 333.673L292.549 332.837L294.028 331.958L295.507 331.09L296.976 330.211L298.466 329.32L299.945 328.431L301.414 327.531L302.904 326.64L304.383 325.73L305.862 324.818L307.343 323.911ZM424.814 242.68C422.22 244.288 419.208 244.696 416.431 244.041C415.048 243.709 413.73 243.119 412.54 242.283L411.543 243.248L410.503 244.267L409.453 245.286L408.402 246.304L407.34 247.312L406.269 248.331L405.186 249.35L404.104 250.358L403.021 251.376L401.938 252.405L400.845 253.413L399.912 254.249C398.818 255.246 397.082 254.656 396.771 253.188C396.653 252.555 396.857 251.879 397.339 251.44L398.261 250.593L399.343 249.585L400.447 248.566L401.509 247.581L402.592 246.573L403.653 245.565L404.715 244.546L405.766 243.528L406.828 242.531L407.867 241.523L408.896 240.515L409.85 239.573C409.721 239.401 409.615 239.219 409.507 239.048C407.866 236.421 407.438 233.377 408.07 230.601C408.702 227.825 410.396 225.295 412.99 223.687C415.584 222.068 418.596 221.661 421.372 222.326C422.669 222.637 423.913 223.183 425.038 223.934L425.542 223.409L426.464 222.401L427.375 221.404L428.275 220.397L429.175 219.4L430.065 218.403L430.955 217.406L431.835 216.399L432.714 215.402L433.581 214.405L434.439 213.397L435.286 212.411L436.133 211.425L436.529 210.953C436.915 210.503 437.451 210.267 438.03 210.278C439.637 210.375 440.452 212.208 439.434 213.419L439.026 213.891L438.169 214.91L437.312 215.896L436.444 216.914L435.565 217.911L434.686 218.93L433.796 219.938L432.896 220.945L431.996 221.963L431.096 222.971L430.174 223.979L429.252 224.997L428.319 226.004L427.794 226.583C427.977 226.819 428.148 227.076 428.309 227.344C429.938 229.949 430.368 232.983 429.735 235.759C429.101 238.544 427.407 241.073 424.814 242.68ZM417.267 240.355C419.089 240.773 421.083 240.515 422.798 239.444C424.513 238.382 425.617 236.711 426.046 234.899C426.453 233.055 426.186 231.061 425.103 229.325C424.031 227.599 422.359 226.473 420.526 226.034C418.704 225.595 416.711 225.852 414.996 226.924C413.291 227.996 412.177 229.657 411.759 231.49C411.34 233.323 411.63 235.306 412.701 237.053C413.783 238.768 415.435 239.916 417.267 240.355ZM338.718 298.495C338.16 298.892 337.849 299.589 337.946 300.286C338.139 301.7 339.758 302.43 340.926 301.615L342.823 300.254L344.174 299.278L345.535 298.313L346.886 297.337L348.237 296.372L349.566 295.386L350.895 294.41L352.213 293.435L353.542 292.449L354.86 291.463L356.211 290.455C356.79 290.016 357.068 289.276 356.907 288.537C356.607 287.197 355.011 286.586 353.906 287.411L352.577 288.408L351.269 289.394L349.961 290.369L348.643 291.334L347.314 292.31L345.995 293.286L344.655 294.251L343.315 295.216L341.975 296.191L340.614 297.146L338.718 298.495ZM368.775 275.878C368.238 276.329 367.992 277.004 368.11 277.7C368.378 279.115 370.039 279.759 371.154 278.858L372.73 277.604L373.962 276.596L375.194 275.599L376.417 274.591L377.639 273.594L378.85 272.598L380.062 271.59L381.273 270.571L382.473 269.574L383.663 268.566L384.842 267.559L385.742 266.798C386.932 265.779 386.407 263.796 384.863 263.475C384.284 263.368 383.706 263.529 383.266 263.893L382.366 264.654L381.197 265.64L380.008 266.648L378.828 267.644L377.628 268.641L376.427 269.649L375.216 270.635L374.005 271.643L372.794 272.628L371.571 273.625L370.339 274.622L368.775 275.878ZM448.256 196.289C447.206 197.704 448.492 199.686 450.218 199.29C450.657 199.194 451.011 198.947 451.3 198.594L451.782 197.929L452.522 196.943L453.251 195.967L453.97 194.981L454.688 193.995L455.396 193.009L456.092 192.023L456.788 191.048L457.485 190.062L458.149 189.087L458.825 188.111L459.501 187.135L460.154 186.149L460.798 185.195L461.441 184.231L462.224 183.03C463.134 181.604 461.848 179.76 460.198 180.136C459.726 180.243 459.319 180.532 459.041 180.961L458.279 182.097L457.646 183.062L457.003 184.016L456.37 184.981L455.706 185.945L455.03 186.91L454.377 187.864L453.701 188.839L453.015 189.804L452.307 190.769L451.621 191.745L450.913 192.71L450.206 193.674L449.488 194.65L448.748 195.636L448.256 196.289ZM468.591 164.828C467.829 166.275 469.126 167.947 470.724 167.583C471.249 167.455 471.689 167.111 471.946 166.629L472.224 166.125L472.706 165.182L473.199 164.26L473.66 163.317L474.121 162.406L474.571 161.463L475.043 160.563L475.482 159.631L475.921 158.73L476.339 157.787L476.757 156.897L477.176 155.975L477.582 155.064L477.958 154.164L478.354 153.264L478.718 152.353L479.104 151.453L479.458 150.553L479.812 149.674L479.961 149.267C480.594 147.627 478.847 146.073 477.303 146.888C476.896 147.102 476.607 147.445 476.424 147.874L476.284 148.249L475.941 149.106L475.598 149.996L475.223 150.875L474.858 151.743L474.483 152.633L474.097 153.512L473.711 154.402L473.315 155.292L472.897 156.171L472.49 157.071L472.061 157.971L471.622 158.882L471.183 159.782L470.753 160.682L470.282 161.582L469.81 162.504L469.338 163.404L468.866 164.315L468.591 164.828ZM481.722 130.045C481.421 131.61 483.05 132.843 484.454 132.103C484.969 131.835 485.311 131.374 485.419 130.806L485.602 129.852L485.763 129.027L485.912 128.213L486.03 127.377L486.148 126.562L486.254 125.747L486.361 124.933L486.447 124.14L486.544 123.336L486.619 122.532L486.693 121.739L486.747 120.935L486.79 120.142L486.844 119.359L486.865 118.576L486.897 117.805V117.012L486.908 116.251V115.48L486.887 114.709L486.855 113.947L486.823 113.186L486.78 112.436L486.727 111.696L486.694 111.385C486.534 109.659 484.368 109.005 483.318 110.366C483.018 110.752 482.889 111.213 482.932 111.706L482.964 111.953L483.006 112.649L483.039 113.357L483.082 114.064L483.103 114.772L483.113 115.501V116.219V116.959V117.677L483.092 118.417L483.061 119.157L483.018 119.896L482.975 120.657L482.921 121.407L482.857 122.146L482.771 122.918L482.707 123.668L482.61 124.439L482.514 125.211L482.417 125.994L482.277 126.755L482.16 127.548L482.042 128.341L481.892 129.124L481.722 130.045ZM477.991 94.243C478.87 95.84 481.239 95.454 481.517 93.664C481.592 93.257 481.517 92.839 481.324 92.453L481.239 92.324L480.895 91.702L480.552 91.081L480.188 90.47L479.823 89.848L479.427 89.248L479.041 88.669L478.645 88.069L478.227 87.49L477.82 86.9L477.391 86.342L476.952 85.785L476.502 85.217L476.063 84.67L475.581 84.134L475.12 83.598L474.638 83.073L474.145 82.548L473.652 82.045L473.148 81.53L472.634 81.048L472.118 80.555L471.572 80.062L471.036 79.59L470.478 79.118L469.932 78.636L469.364 78.197L468.796 77.747L468.475 77.501C467.081 76.461 465.173 77.672 465.495 79.366C465.581 79.848 465.838 80.245 466.224 80.534L466.513 80.738L467.028 81.156L467.553 81.585L468.068 82.014L468.572 82.443L469.075 82.893L469.557 83.332L470.039 83.782L470.521 84.254L470.971 84.704L471.421 85.176L471.871 85.648L472.321 86.141L472.75 86.612L473.179 87.116L473.586 87.62L474.004 88.123L474.391 88.638L474.787 89.153L475.162 89.678L475.548 90.203L475.912 90.76L476.277 91.296L476.62 91.843L476.963 92.411L477.284 92.968L477.605 93.525L477.917 94.104L477.991 94.243ZM449.982 72.054C450.711 72.3 451.461 72.096 451.976 71.55C452.898 70.521 452.469 68.913 451.151 68.463L450.464 68.206L449.671 67.96L448.889 67.702L448.107 67.456L447.302 67.22L446.488 66.995L445.674 66.769L444.86 66.544L444.034 66.34L443.188 66.126L442.373 65.933L441.505 65.73L440.658 65.558L439.801 65.376L438.944 65.205L438.065 65.033L437.185 64.872L436.296 64.722L435.405 64.572L434.516 64.433L433.604 64.294L432.682 64.165L432.361 64.111C430.754 63.918 429.671 65.709 430.571 67.059C430.893 67.531 431.354 67.809 431.911 67.884L432.212 67.927L433.091 68.055L433.981 68.194L434.828 68.312L435.685 68.451L436.553 68.601L437.41 68.762L438.246 68.923L439.071 69.084L439.897 69.267L440.733 69.449L441.537 69.631L442.341 69.813L443.146 70.027L443.939 70.22L444.721 70.434L445.503 70.649L446.274 70.863L447.036 71.089L447.797 71.335L448.558 71.571L449.287 71.817L449.982 72.054ZM413.29 66.716C414.255 66.705 415.048 65.966 415.144 64.99C415.241 63.876 414.351 62.911 413.225 62.911H412.207L411.188 62.922L410.148 62.933L409.097 62.965L408.036 62.986L406.985 63.018L405.903 63.061L404.831 63.115L403.769 63.157L402.698 63.221L401.604 63.285L400.51 63.349L399.406 63.424L398.312 63.509L397.219 63.594L396.093 63.691L394.989 63.788L394.184 63.863C392.469 64.034 391.879 66.189 393.241 67.26C393.628 67.55 394.089 67.689 394.571 67.635L395.353 67.56L396.467 67.475L397.561 67.378L398.643 67.292L399.715 67.217L400.798 67.132L401.869 67.079L402.931 67.004L403.993 66.94L405.054 66.897L406.083 66.854L407.145 66.811L408.173 66.779L409.202 66.758L410.231 66.748L411.25 66.727L412.278 66.716H413.29ZM375.987 70.146C376.684 70.028 377.253 69.535 377.466 68.849C377.884 67.488 376.727 66.159 375.333 66.394L374.09 66.598L372.889 66.823L371.678 67.049L370.478 67.263L369.266 67.489L368.023 67.724L366.801 67.971L365.578 68.228L364.346 68.485L363.114 68.742L361.86 68.999L360.616 69.267L359.373 69.556L358.119 69.835L356.693 70.157C355.943 70.35 355.407 70.95 355.267 71.722C355.096 73.062 356.307 74.166 357.604 73.855L358.976 73.544L360.23 73.265L361.463 72.997L362.706 72.707L363.917 72.461L365.139 72.193L366.372 71.946L367.583 71.699L368.794 71.463L369.995 71.227L371.195 71.002L372.396 70.766L373.596 70.552L374.775 70.359L375.987 70.146ZM339.414 78.571C340.936 78.121 341.258 76.117 339.95 75.195C339.468 74.862 338.899 74.766 338.343 74.926L337.56 75.141L336.242 75.537L334.924 75.912L333.606 76.308L332.288 76.705L330.959 77.101L329.619 77.509L328.29 77.927L326.939 78.356L325.598 78.774L324.27 79.203L322.918 79.653L321.568 80.092L320.25 80.531C318.631 81.067 318.523 83.307 320.057 84.047C320.507 84.262 321 84.294 321.461 84.133L322.769 83.694L324.109 83.265L325.449 82.826L326.789 82.397L328.118 81.979L329.426 81.561L330.766 81.143L332.084 80.725L333.403 80.339L334.71 79.942L336.028 79.556L337.337 79.181L338.634 78.795L339.414 78.571ZM303.752 90.437C305.253 89.869 305.381 87.779 303.977 86.986C303.484 86.728 302.906 86.664 302.391 86.868L300.987 87.393L299.604 87.94L298.21 88.465L296.806 89.011L295.412 89.558L293.997 90.105L292.593 90.673L291.189 91.241L289.775 91.809L288.371 92.377L286.956 92.966L284.791 93.877C284.126 94.145 283.676 94.788 283.644 95.496C283.59 96.922 284.984 97.897 286.281 97.361L288.415 96.471L289.829 95.903L291.223 95.324L292.627 94.766L294.021 94.198L295.415 93.64L296.819 93.093L298.202 92.568L299.585 92.022L300.979 91.486L302.362 90.939L303.752 90.437ZM269.043 104.908C269.676 104.619 270.105 103.986 270.147 103.279C270.19 101.853 268.743 100.867 267.446 101.446L265.527 102.325L264.08 103L262.634 103.675L261.187 104.35L259.74 105.036L258.293 105.711L256.846 106.419L255.399 107.116L253.952 107.824L252.495 108.531L250.372 109.571C248.851 110.342 249.043 112.551 250.651 113.087C251.123 113.237 251.616 113.205 252.066 112.991L254.177 111.951L255.614 111.243L257.072 110.536L258.509 109.839L259.955 109.153L261.392 108.478L262.829 107.803L264.255 107.127L265.692 106.452L267.139 105.776L269.043 104.908ZM235.332 121.576C235.964 121.233 236.339 120.569 236.329 119.85C236.265 118.446 234.764 117.567 233.531 118.21L232.009 119.014L230.54 119.807L229.071 120.611L227.603 121.404L226.135 122.218L224.656 123.022L223.187 123.826L221.719 124.652L220.251 125.488L218.761 126.313L216.96 127.332C216.295 127.718 215.931 128.478 216.027 129.25C216.242 130.569 217.678 131.297 218.846 130.644L220.647 129.626L222.094 128.8L223.573 127.986L225.031 127.171L226.5 126.357L227.969 125.553L229.437 124.749L230.895 123.956L232.353 123.174L233.822 122.381L235.332 121.576ZM202.639 140.174C204.011 139.327 203.753 137.248 202.231 136.744C201.695 136.573 201.138 136.626 200.645 136.916L199.562 137.569L198.094 138.48L196.604 139.38L195.146 140.291L193.656 141.213L192.177 142.124L190.708 143.057L189.25 143.979L187.771 144.912L186.324 145.834L184.619 146.938C183.151 147.892 183.665 150.154 185.402 150.411C185.862 150.475 186.292 150.39 186.677 150.132L188.37 149.049L189.828 148.127L191.286 147.194L192.733 146.283L194.212 145.361L195.67 144.45L197.139 143.539L198.607 142.628L200.075 141.717L201.554 140.827L202.639 140.174ZM170.996 160.53C172.389 159.587 171.928 157.421 170.267 157.099C169.763 157.014 169.259 157.11 168.852 157.399L167.802 158.117L166.419 159.06L165.025 160.025L163.642 160.99L162.27 161.954L160.876 162.908L159.515 163.883L158.175 164.859L156.803 165.813L155.452 166.789L154.112 167.765L153.394 168.29C152.741 168.762 152.483 169.555 152.687 170.337C153.062 171.612 154.562 172.149 155.634 171.366L156.342 170.851L157.671 169.886L159.032 168.932L160.361 167.967L161.722 167.003L163.083 166.038L164.444 165.074L165.816 164.12L167.188 163.166L168.582 162.201L169.943 161.247L170.996 160.53ZM140.575 182.643C141.379 182.032 141.539 180.896 140.971 180.07C140.349 179.18 139.106 178.966 138.248 179.641L137.08 180.563L135.794 181.538L134.519 182.535L133.265 183.521L132 184.518L130.746 185.515L129.503 186.512L128.259 187.509L127.015 188.517L125.783 189.514L124.572 190.511L123.457 191.422C122.878 191.926 122.643 192.666 122.846 193.405C123.221 194.734 124.807 195.238 125.88 194.37L126.984 193.48L128.195 192.472L129.417 191.475L130.639 190.489L131.883 189.492L133.116 188.516L134.37 187.519L135.624 186.511L136.878 185.536L138.132 184.55L139.407 183.564L140.575 182.643ZM111.558 206.568C112.565 205.657 112.341 204.039 111.119 203.427C110.433 203.095 109.619 203.202 109.039 203.706L108.01 204.606L106.864 205.624L105.738 206.643L104.602 207.651L103.476 208.658L102.372 209.687L101.268 210.684L100.164 211.703L99.0602 212.721L97.9562 213.739L96.8842 214.758L95.7902 215.766L95.0612 216.462C94.0962 217.405 94.3532 219.014 95.5862 219.571C96.3152 219.893 97.1072 219.764 97.6652 219.238L98.3942 218.542L99.4662 217.534L100.549 216.526L101.631 215.529L102.725 214.522L103.829 213.514L104.933 212.506L106.026 211.498L107.141 210.491L108.267 209.494L109.392 208.475L110.529 207.467L111.558 206.568ZM84.2672 232.423C85.4142 231.234 84.5892 229.239 82.9382 229.186C82.4022 229.186 81.9312 229.369 81.5442 229.754L80.3332 230.997L79.3472 232.016L78.3712 233.024L77.4072 234.043L76.4532 235.051L75.4882 236.069L74.5552 237.077L73.6122 238.106L72.6692 239.114L71.7362 240.121L70.8252 241.129L69.8922 242.148L69.0022 243.166L68.6062 243.596C68.0912 244.196 67.9742 245.01 68.3282 245.707C68.9382 246.918 70.5362 247.133 71.4362 246.146L72.7222 244.709L73.6222 243.712L74.5332 242.704L75.4552 241.708L76.3772 240.7L77.3102 239.703L78.2532 238.684L79.2072 237.688L80.1502 236.669L81.1252 235.683L82.0792 234.664L83.0542 233.668L84.2672 232.423ZM59.2602 260.442C60.2572 259.21 59.3562 257.344 57.7702 257.355C57.2022 257.344 56.6552 257.613 56.3012 258.042L55.3682 259.221L54.5542 260.229L53.7832 261.226L53.0002 262.222L52.2282 263.219L51.4672 264.195L50.6952 265.192L49.9552 266.189L49.2162 267.175L48.4662 268.171L47.7372 269.157L47.0192 270.133L46.3002 271.119L45.6042 272.105L44.8212 273.187C44.3922 273.798 44.3712 274.591 44.7462 275.246C45.4422 276.425 47.1252 276.532 47.9082 275.407L48.6692 274.335L49.3772 273.37L50.0852 272.394L50.7922 271.418L51.5112 270.453L52.2402 269.488L52.9692 268.503L53.7192 267.517L54.4692 266.531L55.2192 265.566L55.9802 264.569L56.7512 263.594L57.5442 262.608L58.3272 261.632L59.2602 260.442ZM37.6292 291.067C38.3792 289.781 37.4252 288.14 35.9242 288.183C35.2702 288.215 34.7242 288.537 34.3812 289.094L34.1132 289.555L33.5342 290.498L32.9772 291.441L32.4192 292.406L31.8722 293.349L31.3472 294.292L30.8222 295.235L30.2972 296.178L29.7722 297.11L29.2792 298.053L28.7752 298.987L28.2932 299.919L27.8112 300.852L27.3292 301.785L26.8572 302.707L26.4072 303.629L25.9682 304.551L25.5182 305.473L25.3252 305.891C24.9712 306.61 25.1112 307.435 25.6682 308.024C26.5902 308.979 28.1762 308.743 28.7442 307.542L28.9372 307.146L29.3662 306.257L29.8062 305.345L30.2452 304.435L30.7062 303.523L31.1772 302.634L31.6272 301.7L32.1092 300.8L32.6132 299.868L33.1062 298.946L33.6102 298.046L34.1252 297.103L34.6402 296.191L35.1652 295.259L35.7012 294.326L36.2372 293.415L36.7942 292.472L37.3522 291.529L37.6292 291.067ZM21.8822 324.886C22.3752 323.279 20.6822 321.853 19.2022 322.614C18.7412 322.85 18.4202 323.225 18.2592 323.74L18.0982 324.233L17.8412 325.112L17.5842 325.969L17.3482 326.826L17.1122 327.683L16.8872 328.53L16.6622 329.387L16.4482 330.235L16.2552 331.082L16.0512 331.918L15.8792 332.765L15.7082 333.601L15.5362 334.426L15.3752 335.263L15.2362 336.077L15.0862 336.913L14.9572 337.717L14.8392 338.542L14.7322 339.356L14.6252 340.161L14.5282 340.975L14.4432 341.789L14.3472 342.679C14.2402 344.297 16.0832 345.337 17.3802 344.362C17.8192 344.041 18.0772 343.558 18.1302 343.001L18.2052 342.197L18.2912 341.426L18.3772 340.665L18.4732 339.893L18.5802 339.122L18.6872 338.351L18.8162 337.557L18.9552 336.775L19.0942 335.993L19.2552 335.189L19.4162 334.385L19.5772 333.591L19.7382 332.787L19.9312 331.973L20.1352 331.168L20.3282 330.354L20.5422 329.529L20.7672 328.715L20.9922 327.89L21.2282 327.042L21.4642 326.218L21.7112 325.381L21.8822 324.886ZM19.3312 361.234C18.8922 359.616 16.6942 359.305 15.8582 360.752C15.6112 361.191 15.5362 361.717 15.6762 362.199L15.8372 362.843L16.0302 363.529L16.2342 364.226L16.4382 364.922L16.6532 365.587L16.8882 366.273L17.1242 366.938L17.3712 367.613L17.6392 368.278L17.9072 368.942L18.1962 369.586L18.4752 370.239L18.7862 370.872L19.0862 371.525L19.4192 372.158L19.7412 372.791L20.0842 373.412L20.4382 374.034L20.7922 374.635L21.1782 375.245L21.5532 375.856L21.9492 376.467L22.3452 377.045L22.7522 377.624L23.1702 378.203L23.5992 378.782L24.0492 379.328L24.4462 379.843C25.5932 381.215 27.8012 380.433 27.7902 378.643C27.7792 378.193 27.6402 377.775 27.3722 377.443L26.9972 376.992L26.6012 376.478L26.2042 375.963L25.8292 375.427L25.4432 374.891L25.0792 374.355L24.7252 373.82L24.3822 373.262L24.0392 372.715L23.7182 372.147L23.3862 371.58L23.0752 371.012L22.7752 370.433L22.4752 369.854L22.1962 369.264L21.9172 368.686L21.6492 368.085L21.3922 367.484L21.1572 366.884L20.9102 366.273L20.6752 365.652L20.4602 365.051L20.2572 364.429L20.0532 363.796L19.8602 363.164L19.6782 362.531L19.4852 361.888L19.3312 361.234ZM41.4452 388.868C40.9632 388.611 40.3942 388.579 39.8802 388.782C38.3692 389.393 38.2832 391.462 39.7192 392.234L40.3512 392.566L41.0262 392.93L41.7222 393.274L42.4092 393.606L43.1052 393.949L43.8242 394.27L44.5422 394.592L45.2602 394.892L45.9892 395.203L46.7392 395.504L47.4682 395.793L48.2292 396.083L48.9902 396.351L49.7622 396.629L50.5232 396.887L51.3052 397.144L52.0982 397.402L52.8912 397.659L53.6952 397.885L54.4882 398.12L55.3142 398.355L56.1392 398.559L56.9432 398.773L57.9082 399.009C59.6122 399.405 60.8772 397.487 59.8482 396.05C59.5802 395.664 59.1732 395.418 58.7332 395.311L57.8432 395.085L57.0602 394.871L56.2672 394.679L55.4852 394.464L54.7242 394.239L53.9522 394.013L53.1802 393.778L52.4412 393.542L51.7012 393.284L50.9622 393.038L50.2442 392.77L49.5152 392.512L48.8082 392.244L48.1002 391.976L47.3932 391.697L46.7072 391.397L46.0322 391.097L45.3462 390.796L44.6812 390.496L44.0162 390.184L43.3522 389.873L42.7192 389.541L42.0762 389.209L41.4452 388.868ZM77.1392 398.033C76.4212 398.001 75.7562 398.345 75.3922 398.966C74.7062 400.198 75.5212 401.732 76.9252 401.828L77.7182 401.891L78.7042 401.946L79.6902 401.999L80.6652 402.053L81.6622 402.085L82.6702 402.117L83.6672 402.138L84.6752 402.181L85.6932 402.192H86.7222H87.7302H88.7702L89.8092 402.171H90.8492L91.9002 402.15L92.9612 402.118L94.0222 402.097L95.0732 402.054L96.0482 402C97.7532 401.926 98.4602 399.813 97.1732 398.678C96.7872 398.356 96.3372 398.206 95.8332 398.217L94.9002 398.26L93.8502 398.291L92.8002 398.324L91.7712 398.355L90.7522 398.387L89.7232 398.398H88.7262H87.6972H86.7002L85.7032 398.387L84.7062 398.376L83.7312 398.333L82.7452 398.312L81.7692 398.281L80.7932 398.248L79.8282 398.206L78.8852 398.152L77.9312 398.088L77.1392 398.033ZM114.495 396.544C112.866 396.769 112.287 398.858 113.584 399.909C113.98 400.241 114.506 400.402 115.021 400.316L116.253 400.155L117.432 399.995L118.579 399.834L119.758 399.663L120.948 399.48L122.127 399.297L123.317 399.105L124.507 398.912L125.696 398.708L126.897 398.505L128.098 398.302L129.298 398.076L130.531 397.841L131.742 397.615L132.953 397.38L133.789 397.208C134.561 397.058 135.15 396.446 135.268 395.643C135.451 394.335 134.314 393.243 133.006 393.489L132.202 393.661L130.98 393.886L129.79 394.122L128.59 394.325L127.4 394.551L126.221 394.765L125.042 394.969L123.841 395.162L122.673 395.354L121.515 395.546L120.347 395.718L119.179 395.901L118.021 396.062L116.875 396.233L115.728 396.383L114.495 396.544ZM151.326 389.318C149.857 389.682 149.418 391.538 150.533 392.545C151.015 392.995 151.658 393.156 152.291 393.006L153.03 392.792L154.316 392.46L155.613 392.127L156.9 391.773L158.197 391.419L159.505 391.076L160.813 390.7L162.11 390.346L163.428 389.96L164.746 389.585L166.064 389.198L167.393 388.802L168.712 388.406L170.545 387.849C172.153 387.356 172.324 385.148 170.845 384.354C170.395 384.119 169.88 384.076 169.408 384.214L167.586 384.772L166.268 385.158L164.971 385.554L163.663 385.93L162.355 386.305L161.058 386.669L159.761 387.044L158.464 387.409L157.189 387.763L155.892 388.117L154.616 388.46L153.34 388.781L152.054 389.125L151.326 389.318ZM187.257 378.331C185.638 378.91 185.574 381.15 187.139 381.858C187.589 382.05 188.061 382.083 188.533 381.912L190.323 381.279L191.695 380.786L193.078 380.293L194.461 379.778L195.833 379.274L197.215 378.749L198.609 378.235L199.992 377.71L201.396 377.185L202.789 376.638L204.183 376.091L206.274 375.277C206.992 374.999 207.442 374.312 207.453 373.541C207.464 372.18 206.124 371.247 204.859 371.751L202.79 372.555L201.407 373.091L200.014 373.627L198.631 374.152L197.248 374.677L195.876 375.202L194.504 375.705L193.132 376.22L191.76 376.702L190.399 377.206L189.027 377.688L187.257 378.331ZM222.233 364.536C221.558 364.847 221.118 365.49 221.097 366.229C221.097 367.623 222.501 368.566 223.766 368.019L225.417 367.301L226.842 366.668L228.279 366.047L229.705 365.403L231.142 364.75L232.589 364.096L234.026 363.442L235.462 362.778L236.92 362.113L238.357 361.449L239.794 360.762L240.983 360.194C241.948 359.755 242.334 358.587 241.862 357.643C241.39 356.699 240.287 356.314 239.354 356.753L238.164 357.311L236.728 357.997L235.292 358.662L233.866 359.315L232.429 359.98L230.992 360.633L229.577 361.277L228.141 361.921L226.704 362.553L225.3 363.186L223.863 363.808L222.233 364.536ZM256.224 348.458C254.723 349.229 254.927 351.437 256.535 351.952C257.007 352.101 257.521 352.069 257.961 351.845L260.18 350.72L261.649 349.948L263.095 349.198L264.574 348.426L266.043 347.644L267.501 346.862L268.969 346.08L270.459 345.297L271.917 344.504L273.375 343.711L274.683 343.003C276.044 342.242 275.958 340.249 274.533 339.595C273.986 339.359 273.365 339.37 272.85 339.649L271.564 340.367L270.095 341.172L268.626 341.943L267.179 342.725L265.721 343.507L264.253 344.29L262.795 345.061L261.348 345.822L259.879 346.573L258.433 347.334L256.224 348.458Z" fill="#EBEEDF"/>
<path fill-rule="evenodd" clip-rule="evenodd" d="M362.814 0C362.814 16.314 376.031 29.67 392.207 29.67C376.031 29.67 362.814 43.016 362.814 59.352C362.814 43.016 349.598 29.67 333.444 29.67C349.598 29.671 362.814 16.315 362.814 0Z" fill="#ECFFA0"/>
<path fill-rule="evenodd" clip-rule="evenodd" d="M29.9755 183.04C29.9755 199.354 43.1925 212.7 59.3675 212.7C43.1925 212.7 29.9755 226.055 29.9755 242.381C29.9755 226.056 16.7595 212.7 0.605469 212.7C16.7585 212.7 29.9755 199.354 29.9755 183.04Z" fill="#C1EA1D"/>
<path fill-rule="evenodd" clip-rule="evenodd" d="M450.776 258.417C450.776 268.161 458.675 276.125 468.323 276.125C458.676 276.125 450.776 284.089 450.776 293.833C450.776 284.089 442.897 276.125 433.25 276.125C442.897 276.125 450.776 268.161 450.776 258.417Z" fill="white"/>
<path d="M133.625 178.673H335.495V354.892H133.625V178.673Z" fill="#C1EA1D" stroke="#ECFFA0" stroke-width="12"/>
<path d="M151.511 97.3235L317.603 97.3235V177.679H151.511V97.3235Z" fill="#C1EA1D" stroke="#ECFFA0" stroke-width="12"/>
<path d="M267.832 239.883C268.18 245.694 257.324 262.791 257.324 262.791C250.759 234.779 215.806 214.243 215.806 214.243C215.806 214.243 224.078 224.046 206.468 252.729C188.859 281.412 196.76 299.31 196.76 299.31C200.558 313.222 216.024 323.637 234.481 323.637C252.937 323.637 266.737 312.451 272.219 299.31C283.593 273.971 267.832 239.883 267.832 239.883Z" fill="#242424"/>
<path d="M217.06 296.916C217.06 287.131 234.339 266.89 234.339 266.89C234.339 266.89 251.613 287.143 251.613 296.916C251.613 306.689 243.883 314.637 234.339 314.637C224.796 314.637 217.06 306.706 217.06 296.916Z" fill="#C1EA1D"/>
<path d="M196.525 150.139H167.877L165.775 126.501C165.571 124.222 165.845 121.924 166.578 119.756C167.311 117.588 168.488 115.596 170.033 113.907C171.578 112.218 173.458 110.87 175.553 109.948C177.648 109.026 179.912 108.55 182.201 108.551V108.551C184.49 108.55 186.754 109.026 188.849 109.948C190.944 110.87 192.823 112.218 194.369 113.907C195.914 115.596 197.09 117.588 197.824 119.756C198.557 121.924 198.83 124.222 198.627 126.501L196.525 150.139Z" fill="#242424"/>
<path d="M191.185 150.318H172.185V172.318H191.185V150.318Z" fill="#ECFFA0"/>
<path d="M248.404 150.139H219.768L217.666 126.501C217.463 124.222 217.736 121.924 218.469 119.756C219.202 117.588 220.379 115.596 221.924 113.907C223.469 112.218 225.349 110.87 227.444 109.948C229.539 109.026 231.803 108.55 234.092 108.551V108.551C236.38 108.551 238.644 109.027 240.738 109.95C242.832 110.872 244.711 112.221 246.256 113.909C247.801 115.598 248.977 117.589 249.709 119.757C250.442 121.925 250.715 124.222 250.512 126.501L248.404 150.139Z" fill="#242424"/>
<path d="M243.185 150.318H224.185V172.318H243.185V150.318Z" fill="#ECFFA0"/>
<path d="M300.301 150.139H271.653L269.552 126.501C269.348 124.222 269.621 121.924 270.355 119.756C271.088 117.588 272.264 115.596 273.809 113.907C275.355 112.218 277.235 110.87 279.329 109.948C281.424 109.026 283.688 108.55 285.977 108.551V108.551C288.266 108.55 290.53 109.026 292.625 109.948C294.72 110.87 296.6 112.218 298.145 113.907C299.69 115.596 300.867 117.588 301.6 119.756C302.333 121.924 302.607 124.222 302.403 126.501L300.301 150.139Z" fill="#242424"/>
<path d="M295.185 150.318H276.185V172.318H295.185V150.318Z" fill="#ECFFA0"/>
</svg>
