<svg width="487" height="451" viewBox="0 0 487 451" fill="none" xmlns="http://www.w3.org/2000/svg">
<path fill-rule="evenodd" clip-rule="evenodd" d="M371.445 41.323C420.539 114.796 245.298 248.165 194.408 285.834C141.209 325.212 81.4959 345.368 28.2969 293.087C-32.5441 233.294 64.3609 190.548 108.736 162.465C168.706 124.485 225.957 71.583 283.106 37.645C310.296 21.478 348.924 10.494 371.445 41.323Z" fill="#5D7600"/>
<path fill-rule="evenodd" clip-rule="evenodd" d="M407.459 66.66C462.914 62.307 500.516 124.536 463.068 176.402C443.572 203.501 352.771 296.559 326.095 319.098C268.587 366.351 126.076 446.612 53.282 395.834C12.498 367.387 14.498 322.153 55.744 293.086C117.201 249.771 177.069 254.433 242.118 193.552C286.389 152.102 345.743 75.158 407.459 66.66Z" fill="#5D7600"/>
<path fill-rule="evenodd" clip-rule="evenodd" d="M459.836 211.429C494.719 280.548 328.403 377.492 280.233 404.695C229.857 433.14 175.837 444.228 135.156 393.089C88.6769 334.539 177.324 307.907 218.877 288.271C274.948 261.741 330.301 222 383.499 198.684C408.843 187.542 443.521 182.206 459.836 211.429Z" fill="#5D7600"/>
<path d="M169.15 303.298L170.286 304.616L171.401 305.934L172.537 307.252L173.663 308.56L174.799 309.868L175.936 311.165L177.061 312.441L178.208 313.727L179.333 315.024L180.427 316.247C181.327 317.254 182.967 317.008 183.568 315.786C183.889 315.11 183.782 314.285 183.268 313.717L182.196 312.506L181.06 311.23L179.935 309.944L178.81 308.647L177.674 307.361L176.549 306.075L175.413 304.767L174.288 303.449L173.195 302.152L172.059 300.833L170.944 299.515C170.644 299.151 170.236 298.936 169.786 298.862C169.807 298.423 169.647 297.983 169.346 297.618L168.725 296.868L167.599 295.55L166.506 294.221L165.423 292.881L164.33 291.563L163.269 290.234L162.175 288.916L161.092 287.576L160.031 286.258L158.959 284.918L157.459 283.041C156.848 282.259 155.723 282.099 154.886 282.687C153.996 283.32 153.814 284.563 154.49 285.41L155.98 287.297L157.052 288.637L158.135 289.966L159.207 291.306L160.3 292.635L161.394 293.975L162.498 295.315L163.591 296.645L164.685 297.985L165.799 299.314L166.432 300.075C166.743 300.45 167.161 300.654 167.6 300.719C167.589 301.148 167.718 301.598 168.029 301.973L169.15 303.298ZM81.2637 188.528C79.2807 186.191 78.4557 183.276 78.7017 180.424C78.9697 177.594 80.2997 174.839 82.6577 172.867C82.8827 172.653 83.1297 172.459 83.3867 172.299L83.0537 171.58L82.4857 170.337L81.9177 169.083L81.3597 167.85L80.8027 166.606L80.2567 165.363L79.7097 164.12L79.1737 162.887L78.6487 161.654L78.1237 160.422L77.6087 159.2L77.1057 157.989L76.5907 156.767L76.3437 156.188C75.7647 154.72 77.1047 153.219 78.6587 153.637C79.2167 153.798 79.6447 154.194 79.8697 154.73L80.1057 155.298L80.6097 156.499L81.1137 157.71L81.6287 158.932L82.1427 160.154L82.6677 161.365L83.1927 162.587L83.7287 163.809L84.2757 165.031L84.8227 166.263L85.3687 167.485L85.9257 168.729L86.5047 169.973L86.8157 170.627C88.1237 170.252 89.4747 170.134 90.8037 170.219C93.6437 170.455 96.3777 171.752 98.3497 174.1C100.322 176.426 101.159 179.352 100.901 182.193C100.655 185.023 99.3147 187.788 96.9457 189.782C96.7847 189.911 96.6347 190.05 96.4527 190.189L97.0747 191.358L97.7387 192.644L98.4147 193.919L99.1217 195.194L99.8087 196.491L100.505 197.778L101.202 199.075L101.92 200.361L102.628 201.636L103.368 202.933L104.086 204.241L104.697 205.324C105.029 205.882 105.008 206.578 104.708 207.157C103.958 208.454 102.125 208.486 101.385 207.211L100.763 206.117L100.034 204.809L99.3157 203.512L98.5967 202.204L97.8787 200.907L97.1707 199.61L96.4627 198.313L95.7657 197.027L95.0687 195.741L94.3827 194.444L93.7077 193.169L93.0537 191.936C91.6707 192.365 90.2347 192.515 88.8087 192.397C85.9697 192.173 83.2357 190.865 81.2637 188.528ZM89.1427 188.636C91.0297 188.785 92.9587 188.207 94.5127 186.899C96.0777 185.581 96.9677 183.78 97.1287 181.904C97.2897 180.029 96.7427 178.099 95.4457 176.555C94.1487 175.023 92.3267 174.154 90.4617 174.015C88.5867 173.854 86.6567 174.422 85.0917 175.741C83.5377 177.049 82.6587 178.871 82.4877 180.736C82.3267 182.601 82.8737 184.531 84.1707 186.074C85.4867 187.617 87.2877 188.485 89.1427 188.636ZM144.603 266.274L143.606 264.944L142.63 263.604L141.655 262.275L140.669 260.946L139.715 259.606L138.75 258.266L137.785 256.948L136.852 255.608L135.909 254.268L134.944 252.917C134.151 251.781 132.447 251.877 131.739 253.067C131.375 253.71 131.396 254.504 131.814 255.103L132.8 256.486L133.754 257.815L134.708 259.166L135.662 260.506L136.638 261.846L137.592 263.176L138.578 264.516L139.554 265.866L140.551 267.206L141.548 268.546L142.93 270.423C143.799 271.569 145.556 271.365 146.167 270.069C146.478 269.437 146.403 268.697 145.996 268.14L144.603 266.274ZM123.251 235.692L122.394 234.352L121.526 233.044L120.679 231.726L119.832 230.397L118.996 229.079L118.16 227.761L117.313 226.442L116.509 225.124L115.684 223.806L114.88 222.498L114.269 221.501C113.958 221.019 113.454 220.697 112.865 220.622C111.3 220.44 110.196 222.166 111.011 223.506L111.633 224.503L112.448 225.832L113.273 227.161L114.109 228.479L114.934 229.808L115.781 231.137L116.638 232.466L117.474 233.784L118.331 235.124L119.199 236.453L120.067 237.782L121.182 239.466C121.975 240.666 123.744 240.559 124.43 239.305C124.763 238.673 124.73 237.965 124.355 237.365L123.251 235.692ZM72.9677 136.401L72.5717 135.233L72.1747 134.097L71.8097 132.95L71.4237 131.814L71.0807 130.678L70.7167 129.542L70.3517 128.406L70.0087 127.281L69.6767 126.156L69.3337 125.031L69.0007 123.916L68.6787 122.802L68.3787 121.698L68.0577 120.594L67.6927 119.264C67.5647 118.782 67.2637 118.374 66.8457 118.128C65.3877 117.26 63.5977 118.61 64.0267 120.261L64.4017 121.644L64.7227 122.759L65.0337 123.863L65.3557 125.01L65.6987 126.146L66.0307 127.282L66.3737 128.407L66.7387 129.565L67.0927 130.712L67.4467 131.848L67.8327 133.016L68.2077 134.174L68.5827 135.331L68.9787 136.5L69.3647 137.646L69.6327 138.428C69.8047 138.857 70.0507 139.19 70.4477 139.425C71.9587 140.336 73.8027 138.846 73.2347 137.174L72.9677 136.401ZM63.4707 100.395L63.2987 99.398L63.1277 98.38L62.9567 97.372L62.7957 96.375L62.6567 95.367L62.5177 94.381L62.3777 93.384L62.2497 92.398L62.1427 91.422L62.0247 90.446L61.9177 89.47L61.8217 88.506L61.7247 87.552L61.6397 86.588L61.5537 85.645L61.4787 84.702L61.4147 83.769L61.3507 82.836L61.3397 82.429C61.3077 81.968 61.1257 81.561 60.8147 81.228C59.5817 79.984 57.4487 80.917 57.5457 82.664L57.5667 83.103L57.6307 84.046L57.6947 85.022L57.7797 85.998L57.8437 86.974L57.9407 87.95L58.0377 88.925L58.1337 89.911L58.2407 90.919L58.3697 91.895L58.4767 92.924L58.6047 93.921L58.7547 94.928L58.9157 95.947L59.0547 96.966L59.2157 97.984L59.3657 99.024L59.5477 100.064L59.7187 101.093L59.8367 101.672C59.9217 102.208 60.2327 102.658 60.6937 102.958C62.0977 103.784 63.8447 102.583 63.5767 100.975L63.4707 100.395ZM61.9047 62.922L62.0117 62.118L62.1407 61.335L62.2587 60.542L62.3767 59.781L62.5167 58.998L62.6667 58.237L62.8057 57.476L62.9777 56.736L63.1387 55.986L63.3097 55.247L63.4927 54.518L63.6847 53.8L63.8677 53.071L64.0607 52.353L64.2747 51.657L64.4887 50.96L64.7137 50.264L64.9497 49.588L65.1747 48.892L65.4217 48.227L65.6687 47.563L65.9147 46.887L66.1727 46.244L66.2907 46.019C66.4727 45.569 66.4947 45.086 66.3337 44.636C65.7547 43.007 63.4937 42.975 62.7957 44.55L62.6777 44.84L62.3877 45.536L62.1197 46.233L61.8507 46.941L61.5937 47.659L61.3367 48.377L61.0897 49.116L60.8757 49.856L60.6287 50.606L60.4147 51.356L60.2107 52.107L60.0067 52.868L59.8137 53.629L59.6097 54.401L59.4487 55.194L59.2557 55.976L59.1057 56.759L58.9457 57.552L58.7957 58.356L58.6457 59.17L58.5067 59.984L58.3667 60.81L58.2487 61.625L58.1527 62.472L58.0347 63.426C57.9597 63.994 58.1527 64.551 58.5487 64.958C59.6637 66.095 61.5927 65.419 61.7857 63.854L61.9047 62.922ZM76.4727 30.818L76.9447 30.368L77.4267 29.929L77.9087 29.5L78.4127 29.071L78.9057 28.653L79.4087 28.257L79.9237 27.839L80.4487 27.453L80.9737 27.078L81.5097 26.714L82.0347 26.339L82.5917 25.985L83.1277 25.631L83.6847 25.277L84.2527 24.966L84.8207 24.633L85.3997 24.322L85.9677 24.011L86.5467 23.732L87.1357 23.421L87.7357 23.142L88.3367 22.863L88.9587 22.606L89.5697 22.348L90.1917 22.102L90.8137 21.855L91.4357 21.62L91.7687 21.502C92.2287 21.352 92.5937 21.052 92.8297 20.623C93.6547 19.101 92.2187 17.364 90.5677 17.933L90.1927 18.062L89.5057 18.319L88.8307 18.566L88.1547 18.845L87.4907 19.123L86.8367 19.402L86.1727 19.723L85.5187 20.023L84.8867 20.323L84.2547 20.667L83.6217 20.988L82.9897 21.331L82.3677 21.685L81.7567 22.06L81.1457 22.424L80.5447 22.799L79.9557 23.196L79.3667 23.592L78.7767 23.989L78.2087 24.439L77.6407 24.857L77.0727 25.296L76.5257 25.746L75.9787 26.185L75.4327 26.667L74.8967 27.141L74.3827 27.613L73.8577 28.106L73.7397 28.213C73.4397 28.503 73.2357 28.878 73.1927 29.296C72.8927 31.075 75.0257 32.169 76.3547 30.936L76.4727 30.818ZM110.57 18.427L111.341 18.416L112.134 18.427L112.938 18.438L113.731 18.449L114.535 18.492L115.35 18.524L116.154 18.556L116.98 18.61L117.794 18.674L118.619 18.738L119.444 18.813L120.28 18.899L121.127 18.985L121.963 19.092L122.81 19.188L123.678 19.295L124.546 19.413L125.403 19.552L126.26 19.691L127.139 19.831L128.018 19.981L128.318 20.045C128.875 20.142 129.39 20.013 129.84 19.659C131.126 18.652 130.633 16.615 129.036 16.315L128.715 16.262L127.804 16.101L126.904 15.951L126.014 15.802L125.114 15.684L124.224 15.555L123.334 15.427L122.455 15.32L121.587 15.223L120.708 15.126L119.84 15.04L118.961 14.955L118.114 14.891L117.257 14.837L116.41 14.783L115.563 14.751L114.716 14.697L113.88 14.665L113.033 14.644L112.207 14.633L111.393 14.644H110.557L109.817 14.676C108.435 14.676 107.534 16.08 108.091 17.345C108.413 18.021 109.066 18.449 109.827 18.449L110.57 18.427ZM147.348 24.965L148.334 25.298L149.288 25.63L150.264 25.951L151.239 26.294L152.204 26.637L153.201 27.012L154.166 27.366L155.163 27.741L156.149 28.127L157.146 28.513L158.143 28.899L159.14 29.306L160.148 29.713L161.155 30.131L162.162 30.56L163.181 30.989L163.92 31.3C164.349 31.493 164.842 31.504 165.292 31.354C166.922 30.743 167.018 28.514 165.442 27.816L164.713 27.516L163.673 27.066L162.644 26.637L161.626 26.219L160.608 25.801L159.579 25.383L158.571 24.987L157.552 24.59L156.545 24.204L155.548 23.829L154.54 23.443L153.532 23.079L152.525 22.725L151.539 22.382L150.553 22.028L149.556 21.696L148.591 21.374L147.615 21.063C146.554 20.699 145.407 21.353 145.161 22.446C144.957 23.411 145.472 24.354 146.404 24.665L147.348 24.965ZM181.917 39.972L182.978 40.529L184.04 41.108L185.112 41.687L186.195 42.276L187.267 42.877L188.35 43.478L189.422 44.067L190.516 44.689L191.598 45.321L192.681 45.932L193.774 46.586L194.857 47.218L195.972 47.872L197.172 48.59C198.319 49.287 199.819 48.611 200.056 47.282C200.174 46.511 199.841 45.761 199.177 45.353L197.923 44.613L196.819 43.959L195.715 43.305L194.622 42.662L193.518 42.03L192.414 41.397L191.321 40.776L190.238 40.165L189.145 39.554L188.041 38.954L186.958 38.353L185.875 37.785L184.803 37.196L183.732 36.617L182.606 36.038C181.352 35.384 179.84 36.295 179.808 37.71C179.819 38.428 180.205 39.071 180.827 39.404L181.917 39.972ZM213.699 59.137L214.824 59.898L215.95 60.659L217.086 61.441L218.212 62.213L219.337 62.985L220.474 63.789L221.61 64.593L222.725 65.397L223.861 66.201L225.008 67.027L226.144 67.852L227.291 68.688L228.405 69.502C228.791 69.792 229.273 69.92 229.766 69.845C231.449 69.62 232.028 67.455 230.666 66.436L229.541 65.622L228.394 64.786L227.248 63.95L226.111 63.124L224.965 62.31L223.807 61.496L222.682 60.692L221.535 59.877L220.389 59.094L219.252 58.312L218.116 57.53L216.979 56.769L215.854 55.997L215.178 55.536C214.696 55.215 214.117 55.129 213.56 55.3C212.027 55.772 211.716 57.776 213.024 58.676L213.699 59.137ZM244.474 81.851L245.631 82.805L246.789 83.738L247.935 84.681L249.093 85.624L250.25 86.578L251.419 87.521L252.555 88.497L253.723 89.451L254.87 90.437L256.038 91.413L257.807 92.925C258.869 93.825 260.497 93.321 260.872 91.96C261.065 91.273 260.83 90.513 260.294 90.052L258.515 88.53L257.335 87.533L256.178 86.558L255.009 85.572L253.852 84.607L252.695 83.631L251.515 82.677L250.358 81.734L249.179 80.78L248.021 79.847L246.884 78.904L245.695 77.972C245.266 77.618 244.698 77.5 244.162 77.597C242.565 77.919 242.061 79.944 243.304 80.952L244.474 81.851ZM273.426 106.816L274.594 107.899L275.752 108.981L276.898 110.064L278.056 111.147L279.213 112.24L280.382 113.334L281.539 114.438L282.708 115.564L283.854 116.678L285.537 118.308C285.901 118.662 286.362 118.854 286.866 118.854C288.55 118.833 289.418 116.774 288.217 115.585L286.513 113.944L285.334 112.83L284.187 111.704L283.008 110.59L281.85 109.475L280.682 108.382L279.525 107.289L278.356 106.196L277.188 105.113L276.019 104.03L274.465 102.604C273.414 101.64 271.721 102.143 271.335 103.515C271.142 104.191 271.356 104.919 271.87 105.391L273.426 106.816ZM300.019 132.874L301.166 134.064L302.312 135.264L303.449 136.476L304.606 137.687L305.743 138.909L306.9 140.131L308.037 141.353L309.183 142.585L310.309 143.818L311.713 145.329C312.613 146.326 314.221 146.069 314.821 144.879C315.164 144.172 315.035 143.336 314.531 142.768L313.127 141.246L311.959 139.992L310.822 138.749L309.676 137.526L308.53 136.294L307.372 135.072L306.226 133.861L305.079 132.639L303.922 131.439L302.764 130.228L301.575 128.984C300.589 127.987 298.906 128.373 298.402 129.681C298.176 130.367 298.316 131.106 298.82 131.631L300.019 132.874ZM325.038 160.347L326.164 161.655L327.278 162.973L328.393 164.281L329.518 165.61L330.612 166.928L331.748 168.257L332.852 169.576L333.945 170.905L335.049 172.223L336.324 173.777C336.603 174.142 336.989 174.356 337.45 174.442C339.186 174.731 340.354 172.727 339.262 171.387L337.986 169.811L336.882 168.471L335.767 167.142L334.663 165.802L333.548 164.473L332.423 163.155L331.297 161.815L330.183 160.497L329.046 159.179L327.921 157.86L327.107 156.906C326.711 156.488 326.207 156.252 325.638 156.252C324.04 156.263 323.151 158.171 324.201 159.382L325.038 160.347ZM348.813 189.514L349.832 190.843L350.85 192.194L351.869 193.512L352.877 194.852L353.862 196.17L354.87 197.51L355.867 198.85L356.843 200.168L357.84 201.508L358.794 202.838L359.319 203.546C360.101 204.629 361.698 204.564 362.438 203.471C362.877 202.796 362.867 201.949 362.395 201.317L361.88 200.577L360.904 199.248L359.918 197.908L358.9 196.568L357.924 195.228L356.927 193.888L355.898 192.548L354.89 191.208L353.882 189.868L352.854 188.517L351.825 187.188L351.043 186.191C350.754 185.784 350.293 185.537 349.789 185.462C348.116 185.258 347.013 187.166 348.041 188.506L348.813 189.514ZM371.013 220.138L371.924 221.467L372.814 222.786L373.704 224.115L374.583 225.444L375.473 226.783L376.341 228.102L377.22 229.431L378.077 230.739L378.934 232.068L379.782 233.397L380.543 234.587C381.293 235.744 382.976 235.755 383.737 234.597C384.144 233.954 384.166 233.183 383.769 232.529L382.975 231.307L382.128 229.999L381.271 228.659L380.392 227.319L379.524 226L378.645 224.66L377.755 223.331L376.865 221.991L375.975 220.673L375.064 219.333L374.142 217.993L373.317 216.761C372.706 215.861 371.463 215.678 370.584 216.332C369.791 216.953 369.608 218.079 370.177 218.904L371.013 220.138ZM391.121 251.782L391.883 253.079L392.644 254.397L393.416 255.694L394.155 256.991L394.894 258.288L395.634 259.596L396.373 260.882L397.102 262.179L397.821 263.477L398.55 264.763L399.258 266.049L399.74 266.928C400.104 267.615 400.822 267.968 401.604 267.893C402.955 267.743 403.706 266.285 403.073 265.084L402.591 264.194L401.862 262.919L401.154 261.611L400.415 260.303L399.686 258.994L398.947 257.697L398.197 256.389L397.468 255.081L396.697 253.773L395.936 252.455L395.175 251.147L394.403 249.829L393.696 248.649C393.3 247.985 392.57 247.641 391.809 247.739C390.458 247.953 389.751 249.432 390.426 250.6L391.121 251.782ZM409.194 285.15L409.815 286.404L410.416 287.669L411.027 288.923L411.627 290.167L412.228 291.41L412.796 292.664L413.385 293.897L413.943 295.14L414.522 296.383L415.08 297.615L415.626 298.848L416.409 300.606C416.966 301.828 418.542 302.107 419.507 301.142C420.054 300.584 420.204 299.77 419.893 299.051L419.646 298.515L419.111 297.283L418.543 296.029L417.975 294.786L417.397 293.543L416.818 292.288L416.239 291.023L415.661 289.78L415.05 288.504L414.449 287.25L413.848 285.985L413.238 284.72L412.616 283.455L411.834 281.89C411.587 281.418 411.201 281.086 410.687 280.925C409.101 280.475 407.708 282.114 408.425 283.615L409.194 285.15ZM424.115 319.376L424.554 320.545L425.004 321.734L425.443 322.892L425.85 324.071L426.279 325.229L426.675 326.397L427.104 327.565L427.49 328.723L427.887 329.869L428.272 331.016L428.637 332.162L429.023 333.299L429.387 334.435L429.773 335.689C430.191 336.998 431.821 337.426 432.85 336.515C433.407 336.011 433.621 335.24 433.407 334.532L433 333.257L432.636 332.11L432.261 330.942L431.875 329.796L431.489 328.638L431.081 327.459L430.674 326.29L430.278 325.111L429.86 323.932L429.431 322.763L429.002 321.584L428.563 320.383L428.134 319.204L427.673 317.992L427.148 316.589C426.945 316.064 426.505 315.646 425.959 315.485C424.458 314.981 423.021 316.482 423.601 317.962L424.115 319.376ZM434.866 354.278L435.113 355.349L435.348 356.411L435.583 357.45L435.798 358.501L436.013 359.552L436.227 360.592L436.431 361.631L436.623 362.66L436.816 363.679L436.998 364.708L437.181 365.726L437.331 366.745L437.502 367.742L437.663 368.75L437.802 369.746L437.931 370.754L438.071 371.74L438.135 372.169C438.306 373.487 439.742 374.206 440.911 373.573C441.618 373.187 442.004 372.447 441.897 371.654L441.843 371.193L441.693 370.175L441.553 369.178L441.414 368.138L441.242 367.119L441.081 366.091L440.899 365.062L440.727 364.022L440.535 362.982L440.363 361.932L440.16 360.881L439.945 359.819L439.73 358.758L439.516 357.696L439.29 356.634L439.055 355.541L438.819 354.479L438.562 353.385L438.444 352.881C438.283 352.238 437.865 351.756 437.255 351.531C435.829 351.038 434.425 352.302 434.746 353.76L434.866 354.278ZM439.325 391.312L439.304 392.169L439.283 393.037L439.241 393.905L439.198 394.762L439.165 395.599L439.112 396.466L439.048 397.292L438.994 398.128L438.919 398.953L438.833 399.767L438.737 400.571L438.651 401.386L438.544 402.2L438.437 402.982L438.33 403.765L438.224 404.569L438.074 405.34L437.934 406.101L437.805 406.863L437.645 407.624L437.495 408.374L437.313 409.168C437.195 409.703 437.281 410.25 437.602 410.689C438.545 412.029 440.614 411.611 441.01 410.025L441.203 409.146L441.364 408.341L441.525 407.537L441.664 406.733L441.814 405.94L441.953 405.126L442.082 404.3L442.2 403.464L442.318 402.65L442.414 401.814L442.511 400.966L442.608 400.12L442.694 399.263L442.769 398.405L442.844 397.537L442.897 396.669L442.951 395.779L443.005 394.922L443.037 394.022L443.069 393.132L443.09 392.232L443.122 391.332V390.796C443.122 390.271 442.929 389.799 442.575 389.435C441.396 388.267 439.348 389.103 439.316 390.775L439.325 391.312ZM430.214 426.728L429.818 427.286L429.464 427.833L429.089 428.357L428.703 428.904L428.316 429.429L427.92 429.944L427.513 430.458L427.074 430.974L426.678 431.456L426.249 431.948L425.81 432.441L425.36 432.902L424.921 433.384L424.449 433.834L423.988 434.284L423.527 434.745L423.034 435.184L422.541 435.613L422.059 436.031L421.545 436.461L421.051 436.857L420.537 437.253L420.012 437.639L419.487 438.035L418.94 438.421L418.415 438.775L417.923 439.097C417.558 439.322 417.29 439.686 417.151 440.104C416.583 441.808 418.448 443.234 419.97 442.281L420.495 441.906L421.095 441.519L421.685 441.101L422.264 440.683L422.831 440.265L423.378 439.826L423.946 439.387L424.493 438.915L425.04 438.443L425.565 437.982L426.1 437.5L426.604 437.018L427.119 436.514L427.623 436.021L428.116 435.485L428.598 434.982L429.07 434.446L429.552 433.91L430.002 433.363L430.452 432.817L430.902 432.259L431.331 431.701L431.77 431.111L432.177 430.543L432.573 429.943L432.991 429.342L433.387 428.753L433.741 428.185C434.02 427.767 434.117 427.252 434.01 426.748C433.656 425.118 431.48 424.743 430.558 426.158L430.214 426.728ZM400.297 445.755L399.59 445.884L398.883 445.991L398.154 446.097L397.425 446.183L396.707 446.269L395.957 446.344L395.228 446.418L394.478 446.482L393.728 446.546L392.966 446.578L392.205 446.621L391.444 446.642L390.661 446.663L389.879 446.674L389.108 446.695L388.337 446.684L387.522 446.673L386.718 446.652L385.936 446.631L385.111 446.588L384.307 446.545L383.492 446.491L382.581 446.437C382.131 446.394 381.659 446.523 381.295 446.791C379.88 447.842 380.481 450.072 382.217 450.211L383.214 450.275L384.05 450.329L384.886 450.383L385.743 450.414L386.579 450.435L387.416 450.468L388.252 450.478H389.088L389.902 450.468L390.717 450.447L391.531 450.426L392.335 450.405L393.149 450.362L393.931 450.319L394.736 450.265L395.529 450.19L396.3 450.126L397.082 450.04L397.864 449.955L398.626 449.837L399.387 449.74L400.148 449.622L400.91 449.494L401.617 449.365C403.225 449.065 403.771 447.071 402.528 446.042C402.11 445.678 401.552 445.538 401.007 445.635L400.297 445.755ZM363.455 443.182L362.533 442.935L361.611 442.7L360.679 442.442L359.746 442.174L358.792 441.906L357.859 441.627L356.916 441.359L355.973 441.069L355.019 440.769L354.065 440.458L353.089 440.146L352.136 439.825L351.171 439.504L350.206 439.161L349.23 438.828L348.244 438.464L347.258 438.11L346.379 437.778C345.918 437.617 345.436 437.617 344.975 437.809C343.4 438.496 343.421 440.714 345.007 441.326L345.929 441.669L346.915 442.033L347.923 442.376L348.919 442.741L349.905 443.084L350.902 443.405L351.878 443.737L352.864 444.059L353.829 444.38L354.804 444.691L355.781 444.991L356.745 445.26L357.71 445.549L358.675 445.828L359.629 446.096L360.583 446.353L361.526 446.611L362.49 446.857L363.262 447.029C364.634 447.372 365.877 446.172 365.599 444.789C365.449 444.092 364.923 443.567 364.227 443.363L363.455 443.182ZM328.018 429.923L326.968 429.419L325.939 428.915L324.889 428.4L323.827 427.853L322.776 427.338L321.726 426.803L320.664 426.245L319.592 425.698L318.53 425.14L317.469 424.572L316.407 423.994L315.345 423.436L314.274 422.835L313.18 422.235L312.462 421.839C311.304 421.195 309.878 421.892 309.653 423.19C309.513 423.994 309.889 424.765 310.575 425.14L311.325 425.558L312.408 426.159L313.491 426.749L314.573 427.35L315.667 427.928L316.739 428.486L317.81 429.065L318.882 429.612L319.953 430.169L321.025 430.727L322.097 431.263L323.168 431.788L324.24 432.323L325.29 432.827L326.352 433.331L327.467 433.867C327.949 434.102 328.486 434.114 328.978 433.931C330.533 433.33 330.629 431.165 329.139 430.457L328.018 429.923ZM295.7 411.829L294.574 411.11L293.46 410.414L292.345 409.685L291.231 408.956L290.116 408.227L289.001 407.465L287.876 406.726L286.761 405.975L285.625 405.214L284.499 404.453L283.385 403.682L282.259 402.899L280.684 401.817C280.288 401.528 279.784 401.421 279.28 401.516C277.63 401.806 277.115 403.95 278.487 404.914L280.062 406.018L281.199 406.801L282.345 407.594L283.471 408.355L284.617 409.117L285.754 409.888L286.868 410.638L288.005 411.389L289.141 412.118L290.256 412.847L291.381 413.587L292.518 414.305L293.632 415.013L294.286 415.442C294.822 415.785 295.486 415.828 296.087 415.56C297.459 414.927 297.609 413.03 296.333 412.237L295.7 411.829ZM264.036 389.565L262.878 388.686L261.742 387.786L260.584 386.907L259.438 385.996L258.291 385.085L257.145 384.174L255.986 383.241L254.839 382.319L253.682 381.376L252.513 380.443L250.798 379.039C249.747 378.171 248.194 378.653 247.776 379.95C247.55 380.689 247.764 381.462 248.376 381.954L250.102 383.38L251.271 384.334L252.428 385.277L253.597 386.21L254.754 387.132L255.911 388.054L257.08 388.987L258.227 389.887L259.384 390.787L260.552 391.698L261.699 392.577L263.211 393.735C263.596 394.046 264.057 394.153 264.551 394.11C266.255 393.917 266.887 391.773 265.526 390.722L264.036 389.565ZM235.158 365.639L233.979 364.6L232.853 363.56L231.674 362.52L230.516 361.47L229.358 360.419L228.19 359.357L227.032 358.275L225.875 357.213L224.706 356.142L223.549 355.048L222.595 354.158C221.845 353.45 220.676 353.471 219.948 354.233C219.198 354.972 219.208 356.215 219.991 356.923L220.945 357.834L222.103 358.916L223.271 359.999L224.45 361.082L225.607 362.164L226.765 363.226L227.944 364.276L229.112 365.338L230.28 366.4L231.448 367.439L232.606 368.479L233.967 369.669C234.996 370.579 236.625 370.119 237.043 368.79C237.258 368.071 237.043 367.332 236.496 366.828L235.158 365.639ZM207.353 339.325L206.206 338.145L205.038 336.977L203.901 335.808L202.744 334.619L201.586 333.44L200.429 332.239L199.303 331.05L198.157 329.861L196.999 328.649L195.992 327.578C195.584 327.139 195.006 326.945 194.405 326.999C192.862 327.191 192.154 329.046 193.216 330.183L194.245 331.265L195.392 332.477L196.539 333.677L197.697 334.877L198.865 336.078L200.012 337.267L201.169 338.468L202.338 339.647L203.484 340.826L204.642 341.995L206.411 343.753C206.754 344.096 207.236 344.299 207.729 344.299C209.412 344.311 210.291 342.274 209.101 341.063L207.353 339.325Z" fill="white"/>
<path d="M307.04 323.911C307.448 323.642 307.716 323.257 307.845 322.839C308.263 322.925 308.734 322.85 309.142 322.581L309.978 322.056L311.447 321.134L312.905 320.202L314.352 319.269L315.809 318.336L317.267 317.403L318.714 316.46L320.139 315.527L321.586 314.605L323.012 313.64L325.017 312.311C325.917 311.71 326.121 310.478 325.478 309.61C324.868 308.796 323.741 308.581 322.915 309.138L320.922 310.467L319.486 311.41L318.069 312.353L316.633 313.275L315.186 314.197L313.75 315.13L312.302 316.052L310.866 316.995L309.418 317.917L307.951 318.828L307.115 319.352C306.729 319.599 306.439 319.974 306.32 320.392C305.871 320.329 305.41 320.413 305.023 320.661L303.555 321.583L302.065 322.483L300.618 323.383L299.139 324.294L297.66 325.184L296.191 326.063L294.723 326.931L293.254 327.821L291.797 328.689L290.318 329.557L288.914 330.382C288.249 330.758 287.895 331.519 288.003 332.258C288.185 333.609 289.674 334.348 290.842 333.673L292.246 332.837L293.725 331.958L295.204 331.09L296.673 330.211L298.164 329.32L299.642 328.431L301.112 327.531L302.602 326.64L304.081 325.73L305.56 324.818L307.04 323.911ZM424.512 242.68C421.918 244.288 418.906 244.696 416.129 244.041C414.746 243.709 413.427 243.119 412.237 242.283L411.241 243.248L410.201 244.267L409.151 245.286L408.099 246.304L407.038 247.312L405.966 248.331L404.883 249.35L403.801 250.358L402.719 251.376L401.635 252.405L400.543 253.413L399.609 254.249C398.516 255.246 396.78 254.656 396.469 253.188C396.35 252.555 396.555 251.879 397.036 251.44L397.958 250.593L399.04 249.585L400.145 248.566L401.207 247.581L402.289 246.573L403.35 245.565L404.413 244.546L405.464 243.528L406.526 242.531L407.564 241.523L408.594 240.515L409.547 239.573C409.418 239.401 409.312 239.219 409.204 239.048C407.564 236.421 407.135 233.377 407.767 230.601C408.399 227.825 410.094 225.295 412.688 223.687C415.281 222.068 418.293 221.661 421.069 222.326C422.366 222.637 423.611 223.183 424.736 223.934L425.24 223.409L426.161 222.401L427.073 221.404L427.973 220.397L428.872 219.4L429.763 218.403L430.652 217.406L431.533 216.399L432.411 215.402L433.279 214.405L434.137 213.397L434.983 212.411L435.831 211.425L436.227 210.953C436.612 210.503 437.148 210.267 437.728 210.278C439.335 210.375 440.15 212.208 439.132 213.419L438.724 213.891L437.866 214.91L437.009 215.896L436.142 216.914L435.263 217.911L434.383 218.93L433.493 219.938L432.594 220.945L431.694 221.963L430.793 222.971L429.871 223.979L428.949 224.997L428.017 226.004L427.491 226.583C427.674 226.819 427.845 227.076 428.007 227.344C429.635 229.949 430.065 232.983 429.432 235.759C428.798 238.544 427.104 241.073 424.512 242.68ZM416.965 240.355C418.786 240.773 420.78 240.515 422.495 239.444C424.21 238.382 425.315 236.711 425.743 234.899C426.151 233.055 425.884 231.061 424.801 229.325C423.729 227.599 422.057 226.473 420.224 226.034C418.402 225.595 416.409 225.852 414.694 226.924C412.989 227.996 411.875 229.657 411.457 231.49C411.038 233.323 411.327 235.306 412.398 237.053C413.48 238.768 415.133 239.916 416.965 240.355ZM338.415 298.495C337.857 298.892 337.547 299.589 337.643 300.286C337.836 301.7 339.456 302.43 340.624 301.615L342.521 300.254L343.871 299.278L345.233 298.313L346.583 297.337L347.935 296.372L349.263 295.386L350.592 294.41L351.91 293.435L353.24 292.449L354.557 291.463L355.909 290.455C356.488 290.016 356.766 289.276 356.604 288.537C356.305 287.197 354.708 286.586 353.603 287.411L352.275 288.408L350.966 289.394L349.659 290.369L348.34 291.334L347.012 292.31L345.693 293.286L344.353 294.251L343.013 295.216L341.672 296.191L340.311 297.146L338.415 298.495ZM368.473 275.878C367.936 276.329 367.689 277.004 367.807 277.7C368.076 279.115 369.737 279.759 370.852 278.858L372.427 277.604L373.659 276.596L374.892 275.599L376.115 274.591L377.336 273.594L378.547 272.598L379.759 271.59L380.97 270.571L382.171 269.574L383.361 268.566L384.539 267.559L385.439 266.798C386.629 265.779 386.104 263.796 384.56 263.475C383.981 263.368 383.404 263.529 382.964 263.893L382.064 264.654L380.895 265.64L379.706 266.648L378.526 267.644L377.326 268.641L376.125 269.649L374.914 270.635L373.702 271.643L372.491 272.628L371.268 273.625L370.036 274.622L368.473 275.878ZM447.953 196.289C446.904 197.704 448.189 199.686 449.915 199.29C450.354 199.194 450.708 198.947 450.997 198.594L451.479 197.929L452.22 196.943L452.948 195.967L453.668 194.981L454.385 193.995L455.094 193.009L455.789 192.023L456.486 191.048L457.182 190.062L457.846 189.087L458.522 188.111L459.198 187.135L459.852 186.149L460.495 185.195L461.138 184.231L461.922 183.03C462.832 181.604 461.546 179.76 459.896 180.136C459.424 180.243 459.017 180.532 458.738 180.961L457.977 182.097L457.344 183.062L456.701 184.016L456.068 184.981L455.404 185.945L454.728 186.91L454.074 187.864L453.398 188.839L452.712 189.804L452.004 190.769L451.319 191.745L450.611 192.71L449.904 193.674L449.185 194.65L448.445 195.636L447.953 196.289ZM468.289 164.828C467.527 166.275 468.824 167.947 470.422 167.583C470.947 167.455 471.387 167.111 471.643 166.629L471.922 166.125L472.404 165.182L472.896 164.26L473.358 163.317L473.819 162.406L474.268 161.463L474.741 160.563L475.18 159.631L475.618 158.73L476.036 157.787L476.454 156.897L476.874 155.975L477.28 155.064L477.655 154.164L478.051 153.264L478.415 152.353L478.801 151.453L479.155 150.553L479.509 149.674L479.659 149.267C480.292 147.627 478.544 146.073 477 146.888C476.593 147.102 476.305 147.445 476.121 147.874L475.982 148.249L475.638 149.106L475.296 149.996L474.921 150.875L474.556 151.743L474.181 152.633L473.794 153.512L473.409 154.402L473.013 155.292L472.595 156.171L472.188 157.071L471.758 157.971L471.319 158.882L470.88 159.782L470.451 160.682L469.979 161.582L469.508 162.504L469.035 163.404L468.564 164.315L468.289 164.828ZM481.419 130.045C481.118 131.61 482.747 132.843 484.151 132.103C484.667 131.835 485.008 131.374 485.116 130.806L485.299 129.852L485.461 129.027L485.609 128.213L485.728 127.377L485.845 126.562L485.952 125.747L486.059 124.933L486.145 124.14L486.241 123.336L486.316 122.532L486.391 121.739L486.444 120.935L486.487 120.142L486.542 119.359L486.562 118.576L486.595 117.805V117.012L486.605 116.251V115.48L486.585 114.709L486.552 113.947L486.521 113.186L486.478 112.436L486.424 111.696L486.392 111.385C486.232 109.659 484.065 109.005 483.016 110.366C482.716 110.752 482.586 111.213 482.629 111.706L482.661 111.953L482.703 112.649L482.737 113.357L482.78 114.064L482.801 114.772L482.81 115.501V116.219V116.959V117.677L482.789 118.417L482.758 119.157L482.715 119.896L482.672 120.657L482.618 121.407L482.555 122.146L482.469 122.918L482.405 123.668L482.307 124.439L482.211 125.211L482.115 125.994L481.974 126.755L481.858 127.548L481.74 128.341L481.59 129.124L481.419 130.045ZM477.689 94.243C478.568 95.84 480.936 95.454 481.215 93.664C481.29 93.257 481.214 92.839 481.021 92.453L480.936 92.324L480.592 91.702L480.25 91.081L479.885 90.47L479.521 89.848L479.125 89.248L478.738 88.669L478.342 88.069L477.924 87.49L477.517 86.9L477.089 86.342L476.65 85.785L476.199 85.217L475.76 84.67L475.279 84.134L474.818 83.598L474.336 83.073L473.842 82.548L473.349 82.045L472.845 81.53L472.332 81.048L471.815 80.555L471.27 80.062L470.733 79.59L470.176 79.118L469.629 78.636L469.061 78.197L468.493 77.747L468.172 77.501C466.778 76.461 464.871 77.672 465.193 79.366C465.279 79.848 465.536 80.245 465.922 80.534L466.211 80.738L466.725 81.156L467.25 81.585L467.766 82.014L468.27 82.443L468.772 82.893L469.254 83.332L469.737 83.782L470.219 84.254L470.668 84.704L471.118 85.176L471.569 85.648L472.018 86.141L472.448 86.612L472.876 87.116L473.284 87.62L473.702 88.123L474.089 88.638L474.484 89.153L474.859 89.678L475.245 90.203L475.609 90.76L475.974 91.296L476.318 91.843L476.66 92.411L476.982 92.968L477.302 93.525L477.615 94.104L477.689 94.243ZM449.68 72.054C450.409 72.3 451.158 72.096 451.673 71.55C452.595 70.521 452.167 68.913 450.849 68.463L450.161 68.206L449.368 67.96L448.586 67.702L447.805 67.456L447 67.22L446.185 66.995L445.371 66.769L444.557 66.544L443.732 66.34L442.885 66.126L442.07 65.933L441.202 65.73L440.355 65.558L439.499 65.376L438.642 65.205L437.763 65.033L436.883 64.872L435.993 64.722L435.103 64.572L434.214 64.433L433.301 64.294L432.379 64.165L432.059 64.111C430.452 63.918 429.368 65.709 430.268 67.059C430.59 67.531 431.051 67.809 431.608 67.884L431.909 67.927L432.789 68.055L433.678 68.194L434.526 68.312L435.383 68.451L436.25 68.601L437.108 68.762L437.944 68.923L438.768 69.084L439.595 69.267L440.431 69.449L441.234 69.631L442.039 69.813L442.844 70.027L443.637 70.22L444.418 70.434L445.201 70.649L445.971 70.863L446.733 71.089L447.495 71.335L448.255 71.571L448.984 71.817L449.68 72.054ZM412.987 66.716C413.952 66.705 414.745 65.966 414.841 64.99C414.938 63.876 414.048 62.911 412.922 62.911H411.905L410.885 62.922L409.845 62.933L408.794 62.965L407.733 62.986L406.682 63.018L405.6 63.061L404.529 63.115L403.466 63.157L402.396 63.221L401.301 63.285L400.207 63.349L399.103 63.424L398.009 63.509L396.917 63.594L395.79 63.691L394.686 63.788L393.882 63.863C392.167 64.034 391.577 66.189 392.939 67.26C393.326 67.55 393.786 67.689 394.268 67.635L395.051 67.56L396.164 67.475L397.258 67.378L398.34 67.292L399.413 67.217L400.495 67.132L401.566 67.079L402.629 67.004L403.69 66.94L404.751 66.897L405.78 66.854L406.842 66.811L407.87 66.779L408.9 66.758L409.928 66.748L410.948 66.727L411.975 66.716H412.987ZM375.685 70.146C376.382 70.028 376.951 69.535 377.164 68.849C377.582 67.488 376.424 66.159 375.03 66.394L373.788 66.598L372.586 66.823L371.375 67.049L370.176 67.263L368.964 67.489L367.72 67.724L366.499 67.971L365.276 68.228L364.043 68.485L362.811 68.742L361.557 68.999L360.314 69.267L359.07 69.556L357.816 69.835L356.391 70.157C355.641 70.35 355.105 70.95 354.965 71.722C354.794 73.062 356.004 74.166 357.301 73.855L358.673 73.544L359.927 73.265L361.16 72.997L362.404 72.707L363.615 72.461L364.836 72.193L366.069 71.946L367.28 71.699L368.491 71.463L369.693 71.227L370.892 71.002L372.094 70.766L373.293 70.552L374.473 70.359L375.685 70.146ZM339.112 78.571C340.634 78.121 340.956 76.117 339.647 75.195C339.165 74.862 338.596 74.766 338.04 74.926L337.258 75.141L335.939 75.537L334.621 75.912L333.303 76.308L331.986 76.705L330.656 77.101L329.316 77.509L327.987 77.927L326.637 78.356L325.296 78.774L323.967 79.203L322.616 79.653L321.266 80.092L319.948 80.531C318.329 81.067 318.22 83.307 319.754 84.047C320.204 84.262 320.698 84.294 321.159 84.133L322.466 83.694L323.806 83.265L325.146 82.826L326.487 82.397L327.815 81.979L329.124 81.561L330.464 81.143L331.781 80.725L333.1 80.339L334.408 79.942L335.725 79.556L337.034 79.181L338.332 78.795L339.112 78.571ZM303.449 90.437C304.951 89.869 305.078 87.779 303.674 86.986C303.181 86.728 302.604 86.664 302.089 86.868L300.685 87.393L299.301 87.94L297.908 88.465L296.504 89.011L295.109 89.558L293.694 90.105L292.29 90.673L290.887 91.241L289.473 91.809L288.069 92.377L286.654 92.966L284.488 93.877C283.823 94.145 283.374 94.788 283.341 95.496C283.288 96.922 284.681 97.897 285.978 97.361L288.112 96.471L289.526 95.903L290.921 95.324L292.324 94.766L293.719 94.198L295.112 93.64L296.517 93.093L297.9 92.568L299.283 92.022L300.676 91.486L302.06 90.939L303.449 90.437ZM268.741 104.908C269.374 104.619 269.803 103.986 269.845 103.279C269.888 101.853 268.44 100.867 267.143 101.446L265.224 102.325L263.777 103L262.332 103.675L260.884 104.35L259.438 105.036L257.991 105.711L256.543 106.419L255.096 107.116L253.65 107.824L252.193 108.531L250.069 109.571C248.548 110.342 248.741 112.551 250.349 113.087C250.821 113.237 251.313 113.205 251.763 112.991L253.875 111.951L255.311 111.243L256.77 110.536L258.207 109.839L259.652 109.153L261.09 108.478L262.526 107.803L263.952 107.127L265.389 106.452L266.836 105.776L268.741 104.908ZM235.029 121.576C235.661 121.233 236.036 120.569 236.027 119.85C235.963 118.446 234.462 117.567 233.229 118.21L231.706 119.014L230.238 119.807L228.768 120.611L227.3 121.404L225.833 122.218L224.354 123.022L222.884 123.826L221.417 124.652L219.949 125.488L218.458 126.313L216.658 127.332C215.993 127.718 215.629 128.478 215.725 129.25C215.939 130.569 217.376 131.297 218.544 130.644L220.344 129.626L221.792 128.8L223.27 127.986L224.729 127.171L226.197 126.357L227.667 125.553L229.134 124.749L230.592 123.956L232.05 123.174L233.52 122.381L235.029 121.576ZM202.337 140.174C203.708 139.327 203.451 137.248 201.928 136.744C201.393 136.573 200.835 136.626 200.342 136.916L199.259 137.569L197.792 138.48L196.301 139.38L194.844 140.291L193.354 141.213L191.874 142.124L190.406 143.057L188.947 143.979L187.469 144.912L186.021 145.834L184.316 146.938C182.848 147.892 183.363 150.154 185.1 150.411C185.56 150.475 185.99 150.39 186.374 150.132L188.068 149.049L189.525 148.127L190.984 147.194L192.43 146.283L193.91 145.361L195.367 144.45L196.837 143.539L198.305 142.628L199.772 141.717L201.251 140.827L202.337 140.174ZM170.693 160.53C172.087 159.587 171.625 157.421 169.964 157.099C169.46 157.014 168.956 157.11 168.549 157.399L167.499 158.117L166.117 159.06L164.723 160.025L163.339 160.99L161.967 161.954L160.574 162.908L159.212 163.883L157.872 164.859L156.501 165.813L155.15 166.789L153.809 167.765L153.091 168.29C152.438 168.762 152.18 169.555 152.384 170.337C152.759 171.612 154.259 172.149 155.331 171.366L156.04 170.851L157.368 169.886L158.729 168.932L160.059 167.967L161.419 167.003L162.781 166.038L164.141 165.074L165.514 164.12L166.885 163.166L168.279 162.201L169.641 161.247L170.693 160.53ZM140.272 182.643C141.076 182.032 141.237 180.896 140.669 180.07C140.047 179.18 138.803 178.966 137.945 179.641L136.777 180.563L135.492 181.538L134.216 182.535L132.962 183.521L131.697 184.518L130.443 185.515L129.201 186.512L127.956 187.509L126.712 188.517L125.48 189.514L124.27 190.511L123.154 191.422C122.575 191.926 122.34 192.666 122.544 193.405C122.919 194.734 124.505 195.238 125.577 194.37L126.682 193.48L127.893 192.472L129.115 191.475L130.337 190.489L131.581 189.492L132.813 188.516L134.068 187.519L135.322 186.511L136.576 185.536L137.829 184.55L139.104 183.564L140.272 182.643ZM111.256 206.568C112.262 205.657 112.038 204.039 110.816 203.427C110.131 203.095 109.316 203.202 108.736 203.706L107.707 204.606L106.562 205.624L105.436 206.643L104.299 207.651L103.174 208.658L102.069 209.687L100.965 210.684L99.8615 211.703L98.7575 212.721L97.6535 213.739L96.5815 214.758L95.4875 215.766L94.7585 216.462C93.7935 217.405 94.0505 219.014 95.2835 219.571C96.0125 219.893 96.8045 219.764 97.3625 219.238L98.0915 218.542L99.1635 217.534L100.246 216.526L101.328 215.529L102.423 214.522L103.526 213.514L104.631 212.506L105.723 211.498L106.839 210.491L107.965 209.494L109.09 208.475L110.227 207.467L111.256 206.568ZM83.9645 232.423C85.1115 231.234 84.2865 229.239 82.6355 229.186C82.0995 229.186 81.6285 229.369 81.2415 229.754L80.0305 230.997L79.0445 232.016L78.0685 233.024L77.1045 234.043L76.1505 235.051L75.1855 236.069L74.2525 237.077L73.3095 238.106L72.3665 239.114L71.4335 240.121L70.5225 241.129L69.5895 242.148L68.6995 243.166L68.3035 243.596C67.7885 244.196 67.6715 245.01 68.0255 245.707C68.6355 246.918 70.2335 247.133 71.1335 246.146L72.4195 244.709L73.3195 243.712L74.2305 242.704L75.1525 241.708L76.0745 240.7L77.0075 239.703L77.9505 238.684L78.9045 237.688L79.8475 236.669L80.8225 235.683L81.7765 234.664L82.7515 233.668L83.9645 232.423ZM58.9575 260.442C59.9545 259.21 59.0535 257.344 57.4675 257.355C56.8995 257.344 56.3525 257.613 55.9985 258.042L55.0655 259.221L54.2515 260.229L53.4805 261.226L52.6975 262.222L51.9255 263.219L51.1645 264.195L50.3925 265.192L49.6525 266.189L48.9135 267.175L48.1635 268.171L47.4345 269.157L46.7165 270.133L45.9975 271.119L45.3015 272.105L44.5185 273.187C44.0895 273.798 44.0685 274.591 44.4435 275.246C45.1395 276.425 46.8225 276.532 47.6055 275.407L48.3665 274.335L49.0745 273.37L49.7825 272.394L50.4895 271.418L51.2085 270.453L51.9375 269.488L52.6665 268.503L53.4165 267.517L54.1665 266.531L54.9165 265.566L55.6775 264.569L56.4485 263.594L57.2415 262.608L58.0245 261.632L58.9575 260.442ZM37.3265 291.067C38.0765 289.781 37.1225 288.14 35.6215 288.183C34.9675 288.215 34.4215 288.537 34.0785 289.094L33.8105 289.555L33.2315 290.498L32.6745 291.441L32.1165 292.406L31.5695 293.349L31.0445 294.292L30.5195 295.235L29.9945 296.178L29.4695 297.11L28.9765 298.053L28.4725 298.987L27.9905 299.919L27.5085 300.852L27.0265 301.785L26.5545 302.707L26.1045 303.629L25.6655 304.551L25.2155 305.473L25.0225 305.891C24.6685 306.61 24.8085 307.435 25.3655 308.024C26.2875 308.979 27.8735 308.743 28.4415 307.542L28.6345 307.146L29.0635 306.257L29.5035 305.345L29.9425 304.435L30.4035 303.523L30.8745 302.634L31.3245 301.7L31.8065 300.8L32.3105 299.868L32.8035 298.946L33.3075 298.046L33.8225 297.103L34.3375 296.191L34.8625 295.259L35.3985 294.326L35.9345 293.415L36.4915 292.472L37.0495 291.529L37.3265 291.067ZM21.5795 324.886C22.0725 323.279 20.3795 321.853 18.8995 322.614C18.4385 322.85 18.1175 323.225 17.9565 323.74L17.7955 324.233L17.5385 325.112L17.2815 325.969L17.0455 326.826L16.8095 327.683L16.5845 328.53L16.3595 329.387L16.1455 330.235L15.9525 331.082L15.7485 331.918L15.5765 332.765L15.4055 333.601L15.2335 334.426L15.0725 335.263L14.9335 336.077L14.7835 336.913L14.6545 337.717L14.5365 338.542L14.4295 339.356L14.3225 340.161L14.2255 340.975L14.1405 341.789L14.0445 342.679C13.9375 344.297 15.7805 345.337 17.0775 344.362C17.5165 344.041 17.7745 343.558 17.8275 343.001L17.9025 342.197L17.9885 341.426L18.0745 340.665L18.1705 339.893L18.2775 339.122L18.3845 338.351L18.5135 337.557L18.6525 336.775L18.7915 335.993L18.9525 335.189L19.1135 334.385L19.2745 333.591L19.4355 332.787L19.6285 331.973L19.8325 331.168L20.0255 330.354L20.2395 329.529L20.4645 328.715L20.6895 327.89L20.9255 327.042L21.1615 326.218L21.4085 325.381L21.5795 324.886ZM19.0285 361.234C18.5895 359.616 16.3915 359.305 15.5555 360.752C15.3085 361.191 15.2335 361.717 15.3735 362.199L15.5345 362.843L15.7275 363.529L15.9315 364.226L16.1355 364.922L16.3505 365.587L16.5855 366.273L16.8215 366.938L17.0685 367.613L17.3365 368.278L17.6045 368.942L17.8935 369.586L18.1725 370.239L18.4835 370.872L18.7835 371.525L19.1165 372.158L19.4385 372.791L19.7815 373.412L20.1355 374.034L20.4895 374.635L20.8755 375.245L21.2505 375.856L21.6465 376.467L22.0425 377.045L22.4495 377.624L22.8675 378.203L23.2965 378.782L23.7465 379.328L24.1435 379.843C25.2905 381.215 27.4985 380.433 27.4875 378.643C27.4765 378.193 27.3375 377.775 27.0695 377.443L26.6945 376.992L26.2985 376.478L25.9015 375.963L25.5265 375.427L25.1405 374.891L24.7765 374.355L24.4225 373.82L24.0795 373.262L23.7365 372.715L23.4155 372.147L23.0835 371.58L22.7725 371.012L22.4725 370.433L22.1725 369.854L21.8935 369.264L21.6145 368.686L21.3465 368.085L21.0895 367.484L20.8545 366.884L20.6075 366.273L20.3725 365.652L20.1575 365.051L19.9545 364.429L19.7505 363.796L19.5575 363.164L19.3755 362.531L19.1825 361.888L19.0285 361.234ZM41.1425 388.868C40.6605 388.611 40.0915 388.579 39.5775 388.782C38.0665 389.393 37.9805 391.462 39.4165 392.234L40.0485 392.566L40.7235 392.93L41.4195 393.274L42.1065 393.606L42.8025 393.949L43.5215 394.27L44.2395 394.592L44.9575 394.892L45.6865 395.203L46.4365 395.504L47.1655 395.793L47.9265 396.083L48.6875 396.351L49.4595 396.629L50.2205 396.887L51.0025 397.144L51.7955 397.402L52.5885 397.659L53.3925 397.885L54.1855 398.12L55.0115 398.355L55.8365 398.559L56.6405 398.773L57.6055 399.009C59.3095 399.405 60.5745 397.487 59.5455 396.05C59.2775 395.664 58.8705 395.418 58.4305 395.311L57.5405 395.085L56.7575 394.871L55.9645 394.679L55.1825 394.464L54.4215 394.239L53.6495 394.013L52.8775 393.778L52.1385 393.542L51.3985 393.284L50.6595 393.038L49.9415 392.77L49.2125 392.512L48.5055 392.244L47.7975 391.976L47.0905 391.697L46.4045 391.397L45.7295 391.097L45.0435 390.796L44.3785 390.496L43.7135 390.184L43.0495 389.873L42.4165 389.541L41.7735 389.209L41.1425 388.868ZM76.8365 398.033C76.1185 398.001 75.4535 398.345 75.0895 398.966C74.4035 400.198 75.2185 401.732 76.6225 401.828L77.4155 401.891L78.4015 401.946L79.3875 401.999L80.3625 402.053L81.3595 402.085L82.3675 402.117L83.3645 402.138L84.3725 402.181L85.3905 402.192H86.4195H87.4275H88.4675L89.5065 402.171H90.5465L91.5975 402.15L92.6585 402.118L93.7195 402.097L94.7705 402.054L95.7455 402C97.4505 401.926 98.1575 399.813 96.8705 398.678C96.4845 398.356 96.0345 398.206 95.5305 398.217L94.5975 398.26L93.5475 398.291L92.4975 398.324L91.4685 398.355L90.4495 398.387L89.4205 398.398H88.4235H87.3945H86.3975L85.4005 398.387L84.4035 398.376L83.4285 398.333L82.4425 398.312L81.4665 398.281L80.4905 398.248L79.5255 398.206L78.5825 398.152L77.6285 398.088L76.8365 398.033ZM114.192 396.544C112.563 396.769 111.985 398.858 113.282 399.909C113.678 400.241 114.203 400.402 114.718 400.316L115.951 400.155L117.13 399.995L118.277 399.834L119.456 399.663L120.645 399.48L121.824 399.297L123.014 399.105L124.204 398.912L125.393 398.708L126.594 398.505L127.796 398.302L128.995 398.076L130.229 397.841L131.439 397.615L132.65 397.38L133.486 397.208C134.258 397.058 134.848 396.446 134.965 395.643C135.148 394.335 134.011 393.243 132.703 393.489L131.9 393.661L130.678 393.886L129.488 394.122L128.287 394.325L127.098 394.551L125.919 394.765L124.74 394.969L123.538 395.162L122.37 395.354L121.212 395.546L120.044 395.718L118.876 395.901L117.719 396.062L116.572 396.233L115.425 396.383L114.192 396.544ZM151.023 389.318C149.555 389.682 149.115 391.538 150.23 392.545C150.712 392.995 151.355 393.156 151.988 393.006L152.727 392.792L154.014 392.46L155.311 392.127L156.598 391.773L157.895 391.419L159.202 391.076L160.51 390.7L161.807 390.346L163.126 389.96L164.443 389.585L165.762 389.198L167.09 388.802L168.41 388.406L170.242 387.849C171.85 387.356 172.021 385.148 170.542 384.354C170.092 384.119 169.577 384.076 169.105 384.214L167.283 384.772L165.965 385.158L164.669 385.554L163.361 385.93L162.053 386.305L160.755 386.669L159.458 387.044L158.161 387.409L156.887 387.763L155.589 388.117L154.313 388.46L153.037 388.781L151.751 389.125L151.023 389.318ZM186.954 378.331C185.335 378.91 185.271 381.15 186.837 381.858C187.286 382.05 187.758 382.083 188.23 381.912L190.02 381.279L191.393 380.786L192.775 380.293L194.158 379.778L195.531 379.274L196.912 378.749L198.307 378.235L199.689 377.71L201.094 377.185L202.486 376.638L203.88 376.091L205.971 375.277C206.689 374.999 207.139 374.312 207.15 373.541C207.161 372.18 205.822 371.247 204.557 371.751L202.488 372.555L201.104 373.091L199.712 373.627L198.328 374.152L196.945 374.677L195.574 375.202L194.201 375.705L192.829 376.22L191.458 376.702L190.096 377.206L188.725 377.688L186.954 378.331ZM221.93 364.536C221.255 364.847 220.815 365.49 220.794 366.229C220.794 367.623 222.199 368.566 223.464 368.019L225.115 367.301L226.54 366.668L227.977 366.047L229.402 365.403L230.839 364.75L232.286 364.096L233.723 363.442L235.16 362.778L236.617 362.113L238.055 361.449L239.492 360.762L240.68 360.194C241.645 359.755 242.031 358.587 241.559 357.643C241.087 356.699 239.984 356.314 239.051 356.753L237.861 357.311L236.425 357.997L234.99 358.662L233.563 359.315L232.126 359.98L230.689 360.633L229.275 361.277L227.839 361.921L226.402 362.553L224.997 363.186L223.561 363.808L221.93 364.536ZM255.922 348.458C254.421 349.229 254.625 351.437 256.233 351.952C256.705 352.101 257.219 352.069 257.659 351.845L259.878 350.72L261.346 349.948L262.793 349.198L264.271 348.426L265.741 347.644L267.198 346.862L268.667 346.08L270.156 345.297L271.615 344.504L273.073 343.711L274.38 343.003C275.741 342.242 275.655 340.249 274.23 339.595C273.684 339.359 273.062 339.37 272.547 339.649L271.262 340.367L269.793 341.172L268.323 341.943L266.876 342.725L265.418 343.507L263.951 344.29L262.492 345.061L261.046 345.822L259.577 346.573L258.13 347.334L255.922 348.458Z" fill="#EBEEDF"/>
<path fill-rule="evenodd" clip-rule="evenodd" d="M362.512 0C362.512 16.314 375.729 29.67 391.905 29.67C375.729 29.67 362.512 43.016 362.512 59.352C362.512 43.016 349.296 29.67 333.142 29.67C349.296 29.671 362.512 16.315 362.512 0Z" fill="#ECFFA0"/>
<path fill-rule="evenodd" clip-rule="evenodd" d="M29.6727 183.04C29.6727 199.354 42.8897 212.7 59.0647 212.7C42.8897 212.7 29.6727 226.055 29.6727 242.381C29.6727 226.056 16.4567 212.7 0.302734 212.7C16.4557 212.7 29.6727 199.354 29.6727 183.04Z" fill="#C1EA1D"/>
<path fill-rule="evenodd" clip-rule="evenodd" d="M450.474 258.417C450.474 268.161 458.373 276.125 468.021 276.125C458.374 276.125 450.474 284.089 450.474 293.833C450.474 284.089 442.595 276.125 432.948 276.125C442.595 276.125 450.474 268.161 450.474 258.417Z" fill="white"/>
<path d="M264.52 214.992L225.144 254.736L313.832 373.6C313.832 373.6 355.416 401.936 383.752 373.6C412.088 345.264 383.752 305.888 383.752 305.888L264.52 214.992Z" fill="#C1EA1D"/>
<path fill-rule="evenodd" clip-rule="evenodd" d="M264.113 209.128L386.952 302.775L387.336 303.308L383.752 305.888C387.336 303.308 387.337 303.31 387.338 303.312L387.341 303.316L387.349 303.327L387.373 303.36C387.392 303.387 387.418 303.424 387.45 303.469C387.483 303.516 387.522 303.572 387.567 303.637C387.611 303.701 387.661 303.774 387.716 303.855C387.94 304.186 388.256 304.66 388.641 305.266C389.411 306.478 390.464 308.222 391.629 310.398C393.952 314.736 396.763 320.87 398.647 327.988C402.419 342.243 402.56 361.036 386.874 376.722C371.164 392.433 351.802 392.247 337.078 388.506C329.701 386.631 323.304 383.832 318.766 381.518C316.49 380.358 314.662 379.309 313.393 378.543C312.757 378.16 312.26 377.846 311.915 377.624C311.742 377.512 311.607 377.424 311.511 377.36C311.464 377.329 311.426 377.303 311.398 377.285L311.364 377.262L311.353 377.254L311.348 377.251C311.347 377.25 311.345 377.249 313.832 373.6L311.345 377.249L310.734 376.833L219.331 254.329L264.113 209.128ZM316.901 370.329C317.167 370.498 317.521 370.719 317.955 370.981C319.07 371.654 320.713 372.597 322.778 373.65C326.923 375.764 332.692 378.278 339.253 379.946C352.406 383.288 368.004 383.103 380.629 370.477C393.279 357.827 393.421 342.765 390.109 330.247C388.45 323.98 385.948 318.498 383.843 314.568C382.795 312.61 381.856 311.056 381.187 310.004C380.913 309.573 380.685 309.227 380.514 308.973L264.927 220.855L230.957 255.143L316.901 370.329Z" fill="#ECFFA0"/>
<path d="M335.544 200.272C335.544 272.219 277.219 330.544 205.272 330.544C133.325 330.544 75 272.219 75 200.272C75 128.325 133.325 70 205.272 70C277.219 70 335.544 128.325 335.544 200.272Z" fill="#C1EA1D"/>
<path fill-rule="evenodd" clip-rule="evenodd" d="M205.272 321.712C272.341 321.712 326.712 267.341 326.712 200.272C326.712 133.202 272.341 78.832 205.272 78.832C138.202 78.832 83.832 133.202 83.832 200.272C83.832 267.341 138.202 321.712 205.272 321.712ZM205.272 330.544C277.219 330.544 335.544 272.219 335.544 200.272C335.544 128.325 277.219 70 205.272 70C133.325 70 75 128.325 75 200.272C75 272.219 133.325 330.544 205.272 330.544Z" fill="#ECFFA0"/>
<path d="M313.384 200.192C313.384 259.945 264.945 308.384 205.192 308.384C145.439 308.384 97 259.945 97 200.192C97 140.439 145.439 92 205.192 92C264.945 92 313.384 140.439 313.384 200.192Z" fill="#C1EA1D"/>
<path fill-rule="evenodd" clip-rule="evenodd" d="M205.192 292.192C256.002 292.192 297.192 251.002 297.192 200.192C297.192 149.382 256.002 108.192 205.192 108.192C154.382 108.192 113.192 149.382 113.192 200.192C113.192 251.002 154.382 292.192 205.192 292.192ZM205.192 308.384C264.945 308.384 313.384 259.945 313.384 200.192C313.384 140.439 264.945 92 205.192 92C145.439 92 97 140.439 97 200.192C97 259.945 145.439 308.384 205.192 308.384Z" fill="#242424"/>
<path d="M275.54 200.27C275.54 239.079 244.079 270.54 205.27 270.54C166.461 270.54 135 239.079 135 200.27C135 161.461 166.461 130 205.27 130C244.079 130 275.54 161.461 275.54 200.27Z" fill="#242424"/>
<path d="M255.54 200.27C255.54 228.033 233.033 250.54 205.27 250.54C177.507 250.54 155 228.033 155 200.27C155 172.507 177.507 150 205.27 150C233.033 150 255.54 172.507 255.54 200.27Z" fill="#C1EA1D"/>
</svg>
